<?xml version="1.0" standalone="no"?>
<!DOCTYPE svg PUBLIC "-//W3C//DTD SVG 1.1//EN" "http://www.w3.org/Graphics/SVG/1.1/DTD/svg11.dtd" >
<svg xmlns="http://www.w3.org/2000/svg">
<metadata>
WH Hoxton is a licensed version of FS Hackney. Copyright (c) 2014 by Fontsmith Ltd for William Hill PLC. All rights reserved. This font may not be altered in any way without prior permission of Fontsmith Ltd.
</metadata>
<defs>
<font id="WHHoxtonWeb-Heavy" horiz-adv-x="0" >
  <font-face 
    font-family="WH Hoxton Web Heavy"
    font-weight="900"
    font-stretch="normal"
    units-per-em="1000"
    panose-1="2 2 5 3 3 2 2 2 2 4"
    ascent="800"
    descent="-200"
    x-height="495"
    cap-height="672"
    bbox="-334 -224 1221 911"
    underline-thickness="120"
    underline-position="10"
    unicode-range="U+000D-FB02"
  />
<missing-glyph horiz-adv-x="500" 
d="M12 672h476v-672h-476v672zM412 624h-324l162 -244zM222 336l-162 244v-488zM440 580l-162 -244l162 -244v488zM412 48l-162 244l-162 -244h324z" />
    <glyph glyph-name="f_f.liga" unicode="ff" horiz-adv-x="818" 
d="M324 362h-44v-362h-176v362h-84v133h84v16q0 110 53 157.5t175 47.5q57 0 106 -12v-134q-48 10 -84 10q-74 0 -74 -62v-23h130zM686 518v-23h150l-86 -133h-64v-362h-176v362h-126l86 133h40v16q0 110 53 157.5t175 47.5q57 0 106 -12v-134q-48 10 -84 10q-74 0 -74 -62z
" />
    <glyph glyph-name="f_f_i.liga" unicode="ffi" horiz-adv-x="1110" 
d="M324 362h-44v-362h-176v362h-84v133h84v16q0 110 53 157.5t175 47.5q57 0 106 -12v-134q-48 10 -84 10q-74 0 -74 -62v-23h130zM686 518v-23h150l-86 -133h-64v-362h-176v362h-126l86 133h40v16q0 110 53 157.5t175 47.5q57 0 106 -12v-134q-48 10 -84 10q-74 0 -74 -62z
M898 552q-24 23 -24 73q0 51 23.5 74t76.5 23t76.5 -23t23.5 -74q0 -50 -23.5 -73t-76.5 -23q-52 0 -76 23zM886 495h176v-495h-176v495z" />
    <glyph glyph-name="f_f_l.liga" unicode="ffl" horiz-adv-x="1116" 
d="M324 362h-44v-362h-176v362h-84v133h84v16q0 110 53 157.5t175 47.5q57 0 106 -12v-134q-48 10 -84 10q-74 0 -74 -62v-23h130zM686 518v-23h150l-86 -133h-64v-362h-176v362h-126l86 133h40v16q0 110 53 157.5t175 47.5q57 0 106 -12v-134q-48 10 -84 10q-74 0 -74 -62z
M889 704h176v-704h-176v704z" />
    <glyph glyph-name="f_t.liga" unicode="ft" horiz-adv-x="836" 
d="M304 362h-24v-362h-176v362h-84v133h84v16q0 109 51 157t166 48q46 0 95 -12v-134q-41 10 -73 10q-63 0 -63 -62v-23h110zM667 140q16 -16 52 -16q34 0 72 8v-134q-46 -10 -101 -10q-115 0 -165 46t-50 151v177h-111l86 133h25v130l176 28v-158h160l-87 -133h-73v-169
q0 -37 16 -53z" />
    <glyph glyph-name="fi" unicode="fi" horiz-adv-x="704" 
d="M280 518v-23h150l-86 -133h-64v-362h-176v362h-84v133h84v16q0 110 53 157.5t175 47.5q57 0 106 -12v-134q-48 10 -84 10q-74 0 -74 -62zM492 552q-24 23 -24 73q0 51 23.5 74t76.5 23t76.5 -23t23.5 -74q0 -50 -23.5 -73t-76.5 -23q-52 0 -76 23zM480 495h176v-495h-176
v495z" />
    <glyph glyph-name="fl" unicode="fl" horiz-adv-x="710" 
d="M280 518v-23h150l-86 -133h-64v-362h-176v362h-84v133h84v16q0 110 53 157.5t175 47.5q57 0 106 -12v-134q-48 10 -84 10q-74 0 -74 -62zM483 704h176v-704h-176v704z" />
    <glyph glyph-name="t_t.liga" unicode="tt" horiz-adv-x="861" 
d="M286 140q16 -16 52 -16q34 0 72 8v-134q-46 -10 -101 -10q-115 0 -165 46t-50 151v177h-84v133h84v129l176 29v-158h130l-86 -133h-44v-169q0 -37 16 -53zM692 140q16 -16 52 -16q34 0 72 8v-134q-46 -10 -101 -10q-115 0 -165 46t-50 151v177h-127l87 133h40v130l176 28
v-158h160l-87 -133h-73v-169q0 -37 16 -53z" />
    <glyph glyph-name=".notdef" horiz-adv-x="500" 
d="M12 672h476v-672h-476v672zM412 624h-324l162 -244zM222 336l-162 244v-488zM440 580l-162 -244l162 -244v488zM412 48l-162 244l-162 -244h324z" />
    <glyph glyph-name=".null" 
 />
    <glyph glyph-name="nonmarkingreturn" unicode="&#xd;" horiz-adv-x="224" 
 />
    <glyph glyph-name="space" unicode=" " horiz-adv-x="224" 
 />
    <glyph glyph-name="A" unicode="A" horiz-adv-x="684" 
d="M466 135h-247l-45 -135h-184l249 672h206l249 -672h-183zM422 268l-80 241l-80 -241h160z" />
    <glyph glyph-name="Aacute" unicode="&#xc1;" horiz-adv-x="684" 
d="M466 135h-247l-45 -135h-184l249 672h206l249 -672h-183zM422 268l-80 241l-80 -241h160zM369 880h180l-153 -157h-151z" />
    <glyph glyph-name="Abreve" unicode="&#x102;" horiz-adv-x="684" 
d="M466 135h-247l-45 -135h-184l249 672h206l249 -672h-183zM422 268l-80 241l-80 -241h160zM202.5 751q-43.5 40 -43.5 129h122q0 -29 14.5 -42t46.5 -13t46.5 13t14.5 42h122q0 -89 -43.5 -129t-139.5 -40t-139.5 40z" />
    <glyph glyph-name="uni01CD" unicode="&#x1cd;" horiz-adv-x="684" 
d="M466 135h-247l-45 -135h-184l249 672h206l249 -672h-183zM422 268l-80 241l-80 -241h160zM134 880h147l61 -68l61 68h147l-123 -157h-170z" />
    <glyph glyph-name="Acircumflex" unicode="&#xc2;" horiz-adv-x="684" 
d="M466 135h-247l-45 -135h-184l249 672h206l249 -672h-183zM422 268l-80 241l-80 -241h160zM257 880h170l123 -157h-147l-61 68l-61 -68h-147z" />
    <glyph glyph-name="Adieresis" unicode="&#xc4;" horiz-adv-x="684" 
d="M466 135h-247l-45 -135h-184l249 672h206l249 -672h-183zM422 268l-80 241l-80 -241h160zM151 730.5q-22 21.5 -22 70.5q0 50 22 71.5t74 21.5q51 0 73.5 -22t22.5 -71t-22.5 -70.5t-73.5 -21.5q-52 0 -74 21.5zM385.5 730.5q-22.5 21.5 -22.5 70.5t22.5 71t73.5 22
q52 0 74 -21.5t22 -71.5q0 -49 -22 -70.5t-74 -21.5q-51 0 -73.5 21.5z" />
    <glyph glyph-name="Agrave" unicode="&#xc0;" horiz-adv-x="684" 
d="M466 135h-247l-45 -135h-184l249 672h206l249 -672h-183zM422 268l-80 241l-80 -241h160zM135 880h180l124 -157h-151z" />
    <glyph glyph-name="Amacron" unicode="&#x100;" horiz-adv-x="684" 
d="M466 135h-247l-45 -135h-184l249 672h206l249 -672h-183zM422 268l-80 241l-80 -241h160zM170 860h344v-117h-344v117z" />
    <glyph glyph-name="Aogonek" unicode="&#x104;" horiz-adv-x="684" 
d="M661 -96q13 0 33 5v-84q-48 -12 -96 -12q-56 0 -82.5 19.5t-26.5 62.5q0 28 14.5 53t50.5 52h-43l-45 135h-247l-45 -135h-184l249 672h206l249 -672q-34 -25 -46.5 -40.5t-12.5 -30.5q0 -25 26 -25zM422 268l-80 241l-80 -241h160z" />
    <glyph glyph-name="Aring" unicode="&#xc5;" horiz-adv-x="684" 
d="M466 135h-247l-45 -135h-184l249 672h206l249 -672h-183zM422 268l-80 241l-80 -241h160zM241.5 717.5q-30.5 25.5 -30.5 83.5q0 59 30.5 84.5t100.5 25.5t100.5 -25.5t30.5 -84.5q0 -58 -30.5 -83.5t-100.5 -25.5t-100.5 25.5zM371.5 772q9.5 9 9.5 29q0 21 -9.5 30
t-29.5 9t-29.5 -9t-9.5 -30q0 -20 9.5 -29t29.5 -9t29.5 9z" />
    <glyph glyph-name="Atilde" unicode="&#xc3;" horiz-adv-x="684" 
d="M466 135h-247l-45 -135h-184l249 672h206l249 -672h-183zM422 268l-80 241l-80 -241h160zM159 740q0 71 27.5 102.5t91.5 31.5q22 0 38.5 -5.5t36.5 -15.5q3 -1 12 -5.5t16 -4.5q12 0 17.5 7.5t5.5 23.5v5h121v-16q0 -71 -27.5 -102.5t-91.5 -31.5q-22 0 -38.5 5.5
t-36.5 15.5q-3 1 -12 5.5t-16 4.5q-12 0 -17.5 -7.5t-5.5 -23.5v-5h-121v16z" />
    <glyph glyph-name="AE" unicode="&#xc6;" horiz-adv-x="964" 
d="M636 136h296v-136h-457l-18 135h-231l-65 -135h-191l340 672h624l-89 -136h-271l20 -128h258v-132h-238zM439 268l-33 240l-116 -240h149z" />
    <glyph glyph-name="AEacute" unicode="&#x1fc;" horiz-adv-x="964" 
d="M636 136h296v-136h-457l-18 135h-231l-65 -135h-191l340 672h624l-89 -136h-271l20 -128h258v-132h-238zM439 268l-33 240l-116 -240h149zM568 880h180l-153 -157h-151z" />
    <glyph glyph-name="B" unicode="B" horiz-adv-x="669" 
d="M641 194q0 -102 -52.5 -148t-169.5 -46h-365v672h349q114 0 164 -44.5t50 -145.5q0 -90 -68 -131q92 -41 92 -157zM423.5 524q-17.5 16 -56.5 16h-137v-134h137q39 0 56.5 16t17.5 51t-17.5 51zM442.5 149q18.5 17 18.5 56t-18.5 56t-59.5 17h-153v-146h153q41 0 59.5 17
z" />
    <glyph glyph-name="C" unicode="C" horiz-adv-x="627" 
d="M178.5 24q-77.5 36 -114 112t-36.5 200t36.5 200t114 112t203.5 36q120 0 220 -39l-79 -122q-53 18 -112 18q-104 0 -150 -48t-46 -157t46 -157t150 -48q88 0 183 26v-143q-101 -26 -212 -26q-126 0 -203.5 36z" />
    <glyph glyph-name="Cacute" unicode="&#x106;" horiz-adv-x="627" 
d="M178.5 24q-77.5 36 -114 112t-36.5 200t36.5 200t114 112t203.5 36q120 0 220 -39l-79 -122q-53 18 -112 18q-104 0 -150 -48t-46 -157t46 -157t150 -48q88 0 183 26v-143q-101 -26 -212 -26q-126 0 -203.5 36zM394 880h180l-153 -157h-151z" />
    <glyph glyph-name="Cacute.loclPLK" horiz-adv-x="627" 
d="M178.5 24q-77.5 36 -114 112t-36.5 200t36.5 200t114 112t203.5 36q120 0 220 -39l-79 -122q-53 18 -112 18q-104 0 -150 -48t-46 -157t46 -157t150 -48q88 0 183 26v-143q-101 -26 -212 -26q-126 0 -203.5 36zM338 880h163l-74 -157h-147z" />
    <glyph glyph-name="Ccaron" unicode="&#x10c;" horiz-adv-x="627" 
d="M178.5 24q-77.5 36 -114 112t-36.5 200t36.5 200t114 112t203.5 36q120 0 220 -39l-79 -122q-53 18 -112 18q-104 0 -150 -48t-46 -157t46 -157t150 -48q88 0 183 26v-143q-101 -26 -212 -26q-126 0 -203.5 36zM159 880h147l61 -68l61 68h147l-123 -157h-170z" />
    <glyph glyph-name="Ccedilla" unicode="&#xc7;" horiz-adv-x="627" 
d="M261 179q46 -48 150 -48q88 0 183 26v-143q-77 -20 -168 -25v-22q70 -12 70 -69q0 -47 -36.5 -68.5t-118.5 -21.5q-47 0 -91 12v77q38 -12 67 -12q23 0 33 4t10 13q0 11 -9 14.5t-35 3.5h-8v71q-147 15 -213.5 97t-66.5 248q0 124 36.5 200t114 112t203.5 36
q120 0 220 -39l-79 -122q-53 18 -112 18q-104 0 -150 -48t-46 -157t46 -157z" />
    <glyph glyph-name="Ccircumflex" unicode="&#x108;" horiz-adv-x="627" 
d="M178.5 24q-77.5 36 -114 112t-36.5 200t36.5 200t114 112t203.5 36q120 0 220 -39l-79 -122q-53 18 -112 18q-104 0 -150 -48t-46 -157t46 -157t150 -48q88 0 183 26v-143q-101 -26 -212 -26q-126 0 -203.5 36zM282 880h170l123 -157h-147l-61 68l-61 -68h-147z" />
    <glyph glyph-name="Cdotaccent" unicode="&#x10a;" horiz-adv-x="627" 
d="M178.5 24q-77.5 36 -114 112t-36.5 200t36.5 200t114 112t203.5 36q120 0 220 -39l-79 -122q-53 18 -112 18q-104 0 -150 -48t-46 -157t46 -157t150 -48q88 0 183 26v-143q-101 -26 -212 -26q-126 0 -203.5 36zM293 730.5q-22 21.5 -22 70.5q0 50 22 71.5t74 21.5
t74 -21.5t22 -71.5q0 -49 -22 -70.5t-74 -21.5t-74 21.5z" />
    <glyph glyph-name="D" unicode="D" horiz-adv-x="733" 
d="M552.5 637.5q78.5 -34.5 115.5 -108t37 -193.5t-37 -193.5t-115.5 -108t-206.5 -34.5h-292v672h292q128 0 206.5 -34.5zM474.5 186q43.5 46 43.5 150t-43.5 150t-142.5 46h-95v-392h95q99 0 142.5 46z" />
    <glyph glyph-name="Eth" unicode="&#xd0;" horiz-adv-x="748" 
d="M567.5 637.5q78.5 -34.5 115.5 -108t37 -193.5t-37 -193.5t-115.5 -108t-206.5 -34.5h-292v279h-52v126h52v267h292q128 0 206.5 -34.5zM489.5 186q43.5 46 43.5 150t-43.5 150t-142.5 46h-95v-127h143v-126h-143v-139h95q99 0 142.5 46z" />
    <glyph glyph-name="Dcaron" unicode="&#x10e;" horiz-adv-x="733" 
d="M552.5 637.5q78.5 -34.5 115.5 -108t37 -193.5t-37 -193.5t-115.5 -108t-206.5 -34.5h-292v672h292q128 0 206.5 -34.5zM474.5 186q43.5 46 43.5 150t-43.5 150t-142.5 46h-95v-392h95q99 0 142.5 46zM143 880h147l61 -68l61 68h147l-123 -157h-170z" />
    <glyph glyph-name="Dcroat" unicode="&#x110;" horiz-adv-x="748" 
d="M567.5 637.5q78.5 -34.5 115.5 -108t37 -193.5t-37 -193.5t-115.5 -108t-206.5 -34.5h-292v279h-52v126h52v267h292q128 0 206.5 -34.5zM489.5 186q43.5 46 43.5 150t-43.5 150t-142.5 46h-95v-127h143v-126h-143v-139h95q99 0 142.5 46z" />
    <glyph glyph-name="E" unicode="E" horiz-adv-x="612" 
d="M237 136h342v-136h-525v672h528l-89 -136h-256v-128h256v-132h-256v-140z" />
    <glyph glyph-name="Eacute" unicode="&#xc9;" horiz-adv-x="612" 
d="M237 136h342v-136h-525v672h528l-89 -136h-256v-128h256v-132h-256v-140zM339 880h180l-153 -157h-151z" />
    <glyph glyph-name="Ebreve" unicode="&#x114;" horiz-adv-x="612" 
d="M237 136h342v-136h-525v672h528l-89 -136h-256v-128h256v-132h-256v-140zM172.5 751q-43.5 40 -43.5 129h122q0 -29 14.5 -42t46.5 -13t46.5 13t14.5 42h122q0 -89 -43.5 -129t-139.5 -40t-139.5 40z" />
    <glyph glyph-name="Ecaron" unicode="&#x11a;" horiz-adv-x="612" 
d="M237 136h342v-136h-525v672h528l-89 -136h-256v-128h256v-132h-256v-140zM104 880h147l61 -68l61 68h147l-123 -157h-170z" />
    <glyph glyph-name="Ecircumflex" unicode="&#xca;" horiz-adv-x="612" 
d="M237 136h342v-136h-525v672h528l-89 -136h-256v-128h256v-132h-256v-140zM227 880h170l123 -157h-147l-61 68l-61 -68h-147z" />
    <glyph glyph-name="Edieresis" unicode="&#xcb;" horiz-adv-x="612" 
d="M237 136h342v-136h-525v672h528l-89 -136h-256v-128h256v-132h-256v-140zM121 730.5q-22 21.5 -22 70.5q0 50 22 71.5t74 21.5q51 0 73.5 -22t22.5 -71t-22.5 -70.5t-73.5 -21.5q-52 0 -74 21.5zM355.5 730.5q-22.5 21.5 -22.5 70.5t22.5 71t73.5 22q52 0 74 -21.5
t22 -71.5q0 -49 -22 -70.5t-74 -21.5q-51 0 -73.5 21.5z" />
    <glyph glyph-name="Edotaccent" unicode="&#x116;" horiz-adv-x="612" 
d="M237 136h342v-136h-525v672h528l-89 -136h-256v-128h256v-132h-256v-140zM238 730.5q-22 21.5 -22 70.5q0 50 22 71.5t74 21.5t74 -21.5t22 -71.5q0 -49 -22 -70.5t-74 -21.5t-74 21.5z" />
    <glyph glyph-name="Egrave" unicode="&#xc8;" horiz-adv-x="612" 
d="M237 136h342v-136h-525v672h528l-89 -136h-256v-128h256v-132h-256v-140zM105 880h180l124 -157h-151z" />
    <glyph glyph-name="Emacron" unicode="&#x112;" horiz-adv-x="612" 
d="M237 136h342v-136h-525v672h528l-89 -136h-256v-128h256v-132h-256v-140zM140 860h344v-117h-344v117z" />
    <glyph glyph-name="Eogonek" unicode="&#x118;" horiz-adv-x="612" 
d="M237 136h342v-136q-34 -25 -46.5 -40.5t-12.5 -30.5q0 -25 26 -25q13 0 33 5v-84q-48 -12 -96 -12q-56 0 -82.5 19.5t-26.5 62.5q0 28 14.5 53t50.5 52h-385v672h528l-89 -136h-256v-128h256v-132h-256v-140z" />
    <glyph glyph-name="F" unicode="F" horiz-adv-x="576" 
d="M237 532v-153h243v-136h-243v-243h-183v672h517l-91 -140h-243z" />
    <glyph glyph-name="G" unicode="G" horiz-adv-x="713" 
d="M663 386v-370q-131 -28 -273 -28q-129 0 -208.5 36t-116.5 112t-37 200t38 200t119 112t213 36q67 0 121 -9t111 -30l-80 -122q-59 21 -123 21q-117 0 -168.5 -48.5t-51.5 -159.5t48 -159.5t157 -48.5q41 0 83 5v128h-115l81 125h202z" />
    <glyph glyph-name="Gbreve" unicode="&#x11e;" horiz-adv-x="713" 
d="M663 386v-370q-131 -28 -273 -28q-129 0 -208.5 36t-116.5 112t-37 200t38 200t119 112t213 36q67 0 121 -9t111 -30l-80 -122q-59 21 -123 21q-117 0 -168.5 -48.5t-51.5 -159.5t48 -159.5t157 -48.5q41 0 83 5v128h-115l81 125h202zM250.5 751q-43.5 40 -43.5 129h122
q0 -29 14.5 -42t46.5 -13t46.5 13t14.5 42h122q0 -89 -43.5 -129t-139.5 -40t-139.5 40z" />
    <glyph glyph-name="Gcircumflex" unicode="&#x11c;" horiz-adv-x="713" 
d="M663 386v-370q-131 -28 -273 -28q-129 0 -208.5 36t-116.5 112t-37 200t38 200t119 112t213 36q67 0 121 -9t111 -30l-80 -122q-59 21 -123 21q-117 0 -168.5 -48.5t-51.5 -159.5t48 -159.5t157 -48.5q41 0 83 5v128h-115l81 125h202zM305 880h170l123 -157h-147l-61 68
l-61 -68h-147z" />
    <glyph glyph-name="Gcommaaccent" unicode="&#x122;" horiz-adv-x="713" 
d="M663 386v-370q-131 -28 -273 -28q-129 0 -208.5 36t-116.5 112t-37 200t38 200t119 112t213 36q67 0 121 -9t111 -30l-80 -122q-59 21 -123 21q-117 0 -168.5 -48.5t-51.5 -159.5t48 -159.5t157 -48.5q41 0 83 5v128h-115l81 125h202zM330 -51h153l-65 -159h-123z" />
    <glyph glyph-name="Gdotaccent" unicode="&#x120;" horiz-adv-x="713" 
d="M663 386v-370q-131 -28 -273 -28q-129 0 -208.5 36t-116.5 112t-37 200t38 200t119 112t213 36q67 0 121 -9t111 -30l-80 -122q-59 21 -123 21q-117 0 -168.5 -48.5t-51.5 -159.5t48 -159.5t157 -48.5q41 0 83 5v128h-115l81 125h202zM316 730.5q-22 21.5 -22 70.5
q0 50 22 71.5t74 21.5t74 -21.5t22 -71.5q0 -49 -22 -70.5t-74 -21.5t-74 21.5z" />
    <glyph glyph-name="H" unicode="H" horiz-adv-x="765" 
d="M711 672v-672h-183v272h-291v-272h-183v672h183v-260h291v260h183z" />
    <glyph glyph-name="Hbar" unicode="&#x126;" horiz-adv-x="764" 
d="M755 486h-44v-486h-184v265h-291v-265h-183v486h-44v118h44v68h183v-68h291v68h184v-68h44v-118zM527 486h-291v-81h291v81z" />
    <glyph glyph-name="Hcircumflex" unicode="&#x124;" horiz-adv-x="765" 
d="M711 672v-672h-183v272h-291v-272h-183v672h183v-260h291v260h183zM298 880h170l123 -157h-147l-61 68l-61 -68h-147z" />
    <glyph glyph-name="I" unicode="I" horiz-adv-x="291" 
d="M54 672h183v-672h-183v672z" />
    <glyph glyph-name="IJ" unicode="&#x132;" horiz-adv-x="766" 
d="M54 672h183v-672h-183v672zM712 672v-439q0 -128 -63 -186.5t-200 -58.5q-69 0 -133 14v141q56 -12 104 -12q58 0 83.5 26t25.5 84v291h-183l91 140h275z" />
    <glyph glyph-name="Iacute" unicode="&#xcd;" horiz-adv-x="291" 
d="M54 672h183v-672h-183v672zM173 880h180l-153 -157h-151z" />
    <glyph glyph-name="Iacute_J.loclNLD" horiz-adv-x="766" 
d="M54 672h183v-672h-183v672zM173 880h180l-153 -157h-151zM712 672v-439q0 -128 -63 -186.5t-200 -58.5q-69 0 -133 14v141q56 -12 104 -12q58 0 83.5 26t25.5 84v291h-183l91 140h275zM647 880h180l-153 -157h-151z" />
    <glyph glyph-name="Ibreve" unicode="&#x12c;" horiz-adv-x="291" 
d="M54 672h183v-672h-183v672zM6.5 751q-43.5 40 -43.5 129h122q0 -29 14.5 -42t46.5 -13t46.5 13t14.5 42h122q0 -89 -43.5 -129t-139.5 -40t-139.5 40z" />
    <glyph glyph-name="Icircumflex" unicode="&#xce;" horiz-adv-x="291" 
d="M54 672h183v-672h-183v672zM61 880h170l123 -157h-147l-61 68l-61 -68h-147z" />
    <glyph glyph-name="Idieresis" unicode="&#xcf;" horiz-adv-x="291" 
d="M54 672h183v-672h-183v672zM-45 730.5q-22 21.5 -22 70.5q0 50 22 71.5t74 21.5q51 0 73.5 -22t22.5 -71t-22.5 -70.5t-73.5 -21.5q-52 0 -74 21.5zM189.5 730.5q-22.5 21.5 -22.5 70.5t22.5 71t73.5 22q52 0 74 -21.5t22 -71.5q0 -49 -22 -70.5t-74 -21.5
q-51 0 -73.5 21.5z" />
    <glyph glyph-name="Idotaccent" unicode="&#x130;" horiz-adv-x="291" 
d="M54 672h183v-672h-183v672zM72 730.5q-22 21.5 -22 70.5q0 50 22 71.5t74 21.5t74 -21.5t22 -71.5q0 -49 -22 -70.5t-74 -21.5t-74 21.5z" />
    <glyph glyph-name="Igrave" unicode="&#xcc;" horiz-adv-x="291" 
d="M54 672h183v-672h-183v672zM-61 880h180l124 -157h-151z" />
    <glyph glyph-name="Imacron" unicode="&#x12a;" horiz-adv-x="291" 
d="M54 672h183v-672h-183v672zM-26 860h344v-117h-344v117z" />
    <glyph glyph-name="Iogonek" unicode="&#x12e;" horiz-adv-x="291" 
d="M190.5 -40.5q-12.5 -15.5 -12.5 -30.5q0 -25 26 -25q13 0 33 5v-84q-48 -12 -96 -12q-56 0 -82.5 19.5t-26.5 62.5q0 28 14.5 53t50.5 52h-43v672h183v-672q-34 -25 -46.5 -40.5z" />
    <glyph glyph-name="Itilde" unicode="&#x128;" horiz-adv-x="291" 
d="M54 672h183v-672h-183v672zM-37 740q0 71 27.5 102.5t91.5 31.5q22 0 38.5 -5.5t36.5 -15.5q3 -1 12 -5.5t16 -4.5q12 0 17.5 7.5t5.5 23.5v5h121v-16q0 -71 -27.5 -102.5t-91.5 -31.5q-22 0 -38.5 5.5t-36.5 15.5q-3 1 -12 5.5t-16 4.5q-12 0 -17.5 -7.5t-5.5 -23.5v-5
h-121v16z" />
    <glyph glyph-name="J" unicode="J" horiz-adv-x="475" 
d="M421 672v-439q0 -128 -63 -186.5t-200 -58.5q-69 0 -133 14v141q56 -12 104 -12q58 0 83.5 26t25.5 84v291h-183l91 140h275z" />
    <glyph glyph-name="Jcircumflex" unicode="&#x134;" horiz-adv-x="475" 
d="M421 672v-439q0 -128 -63 -186.5t-200 -58.5q-69 0 -133 14v141q56 -12 104 -12q58 0 83.5 26t25.5 84v291h-183l91 140h275zM185 880h170l123 -157h-147l-61 68l-61 -68h-147z" />
    <glyph glyph-name="K" unicode="K" horiz-adv-x="669" 
d="M285 258h-48v-258h-183v672h183v-282l221 282h207l-250 -309l254 -363h-211z" />
    <glyph glyph-name="Kcommaaccent" unicode="&#x136;" horiz-adv-x="669" 
d="M285 258h-48v-258h-183v672h183v-282l221 282h207l-250 -309l254 -363h-211zM263 -51h153l-65 -159h-123z" />
    <glyph glyph-name="L" unicode="L" horiz-adv-x="541" 
d="M524 140v-140h-470v672h183v-532h287z" />
    <glyph glyph-name="Lacute" unicode="&#x139;" horiz-adv-x="541" 
d="M524 140v-140h-470v672h183v-532h287zM173 880h180l-153 -157h-151z" />
    <glyph glyph-name="Lcaron" unicode="&#x13d;" horiz-adv-x="541" 
d="M524 140v-140h-470v672h183v-532h287zM375 672h147l-72 -186h-118z" />
    <glyph glyph-name="Lcommaaccent" unicode="&#x13b;" horiz-adv-x="541" 
d="M524 140v-140h-470v672h183v-532h287zM228 -51h153l-65 -159h-123z" />
    <glyph glyph-name="Ldot" unicode="&#x13f;" horiz-adv-x="541" 
d="M524 140v-140h-470v672h183v-532h287zM331 290.5q-22 21.5 -22 70.5q0 50 22 71.5t74 21.5t74 -21.5t22 -71.5q0 -49 -22 -70.5t-74 -21.5t-74 21.5z" />
    <glyph glyph-name="Lslash" unicode="&#x141;" horiz-adv-x="556" 
d="M539 140v-140h-470v234l-52 -26v132l52 26v306h183v-214l127 64v-133l-127 -63v-186h287z" />
    <glyph glyph-name="M" unicode="M" horiz-adv-x="846" 
d="M792 672v-672h-169v401l-138 -235h-125l-137 235v-401h-169v672h173l196 -336l196 336h173z" />
    <glyph glyph-name="N" unicode="N" horiz-adv-x="766" 
d="M712 672v-672h-177l-312 422v-422h-169v672h176l313 -423v423h169z" />
    <glyph glyph-name="Nacute" unicode="&#x143;" horiz-adv-x="766" 
d="M712 672v-672h-177l-312 422v-422h-169v672h176l313 -423v423h169zM410 880h180l-153 -157h-151z" />
    <glyph glyph-name="Nacute.loclPLK" horiz-adv-x="766" 
d="M712 672v-672h-177l-312 422v-422h-169v672h176l313 -423v423h169zM354 880h163l-74 -157h-147z" />
    <glyph glyph-name="Ncaron" unicode="&#x147;" horiz-adv-x="766" 
d="M712 672v-672h-177l-312 422v-422h-169v672h176l313 -423v423h169zM175 880h147l61 -68l61 68h147l-123 -157h-170z" />
    <glyph glyph-name="Ncommaaccent" unicode="&#x145;" horiz-adv-x="766" 
d="M712 672v-672h-177l-312 422v-422h-169v672h176l313 -423v423h169zM315 -51h153l-65 -159h-123z" />
    <glyph glyph-name="Eng" unicode="&#x14a;" horiz-adv-x="766" 
d="M712 672v-614q0 -127 -63.5 -186t-200.5 -59q-69 0 -133 14v141q56 -12 114 -12q49 0 74.5 12t30.5 42l-311 414v-424h-169v672h176l313 -414v414h169z" />
    <glyph glyph-name="Ntilde" unicode="&#xd1;" horiz-adv-x="766" 
d="M712 672v-672h-177l-312 422v-422h-169v672h176l313 -423v423h169zM200 740q0 71 27.5 102.5t91.5 31.5q22 0 38.5 -5.5t36.5 -15.5q3 -1 12 -5.5t16 -4.5q12 0 17.5 7.5t5.5 23.5v5h121v-16q0 -71 -27.5 -102.5t-91.5 -31.5q-22 0 -38.5 5.5t-36.5 15.5q-3 1 -12 5.5
t-16 4.5q-12 0 -17.5 -7.5t-5.5 -23.5v-5h-121v16z" />
    <glyph glyph-name="O" unicode="O" horiz-adv-x="764" 
d="M178.5 24q-77.5 36 -114 112t-36.5 200t36.5 200t114 112t203.5 36t203.5 -36t114 -112t36.5 -200t-36.5 -200t-114 -112t-203.5 -36t-203.5 36zM510 179q39 48 39 157t-39 157t-128 48t-128 -48t-39 -157t39 -157t128 -48t128 48z" />
    <glyph glyph-name="Oacute" unicode="&#xd3;" horiz-adv-x="764" 
d="M178.5 24q-77.5 36 -114 112t-36.5 200t36.5 200t114 112t203.5 36t203.5 -36t114 -112t36.5 -200t-36.5 -200t-114 -112t-203.5 -36t-203.5 36zM510 179q39 48 39 157t-39 157t-128 48t-128 -48t-39 -157t39 -157t128 -48t128 48zM409 880h180l-153 -157h-151z" />
    <glyph glyph-name="Oacute.loclPLK" horiz-adv-x="764" 
d="M178.5 24q-77.5 36 -114 112t-36.5 200t36.5 200t114 112t203.5 36t203.5 -36t114 -112t36.5 -200t-36.5 -200t-114 -112t-203.5 -36t-203.5 36zM510 179q39 48 39 157t-39 157t-128 48t-128 -48t-39 -157t39 -157t128 -48t128 48zM353 880h163l-74 -157h-147z" />
    <glyph glyph-name="Obreve" unicode="&#x14e;" horiz-adv-x="764" 
d="M178.5 24q-77.5 36 -114 112t-36.5 200t36.5 200t114 112t203.5 36t203.5 -36t114 -112t36.5 -200t-36.5 -200t-114 -112t-203.5 -36t-203.5 36zM510 179q39 48 39 157t-39 157t-128 48t-128 -48t-39 -157t39 -157t128 -48t128 48zM242.5 751q-43.5 40 -43.5 129h122
q0 -29 14.5 -42t46.5 -13t46.5 13t14.5 42h122q0 -89 -43.5 -129t-139.5 -40t-139.5 40z" />
    <glyph glyph-name="Ocircumflex" unicode="&#xd4;" horiz-adv-x="764" 
d="M178.5 24q-77.5 36 -114 112t-36.5 200t36.5 200t114 112t203.5 36t203.5 -36t114 -112t36.5 -200t-36.5 -200t-114 -112t-203.5 -36t-203.5 36zM510 179q39 48 39 157t-39 157t-128 48t-128 -48t-39 -157t39 -157t128 -48t128 48zM297 880h170l123 -157h-147l-61 68
l-61 -68h-147z" />
    <glyph glyph-name="Odieresis" unicode="&#xd6;" horiz-adv-x="764" 
d="M178.5 24q-77.5 36 -114 112t-36.5 200t36.5 200t114 112t203.5 36t203.5 -36t114 -112t36.5 -200t-36.5 -200t-114 -112t-203.5 -36t-203.5 36zM510 179q39 48 39 157t-39 157t-128 48t-128 -48t-39 -157t39 -157t128 -48t128 48zM191 730.5q-22 21.5 -22 70.5
q0 50 22 71.5t74 21.5q51 0 73.5 -22t22.5 -71t-22.5 -70.5t-73.5 -21.5q-52 0 -74 21.5zM425.5 730.5q-22.5 21.5 -22.5 70.5t22.5 71t73.5 22q52 0 74 -21.5t22 -71.5q0 -49 -22 -70.5t-74 -21.5q-51 0 -73.5 21.5z" />
    <glyph glyph-name="Ograve" unicode="&#xd2;" horiz-adv-x="764" 
d="M178.5 24q-77.5 36 -114 112t-36.5 200t36.5 200t114 112t203.5 36t203.5 -36t114 -112t36.5 -200t-36.5 -200t-114 -112t-203.5 -36t-203.5 36zM510 179q39 48 39 157t-39 157t-128 48t-128 -48t-39 -157t39 -157t128 -48t128 48zM175 880h180l124 -157h-151z" />
    <glyph glyph-name="Ohungarumlaut" unicode="&#x150;" horiz-adv-x="764" 
d="M178.5 24q-77.5 36 -114 112t-36.5 200t36.5 200t114 112t203.5 36t203.5 -36t114 -112t36.5 -200t-36.5 -200t-114 -112t-203.5 -36t-203.5 36zM510 179q39 48 39 157t-39 157t-128 48t-128 -48t-39 -157t39 -157t128 -48t128 48zM292 880h180l-149 -157h-155zM526 880
h180l-149 -157h-155z" />
    <glyph glyph-name="Omacron" unicode="&#x14c;" horiz-adv-x="764" 
d="M178.5 24q-77.5 36 -114 112t-36.5 200t36.5 200t114 112t203.5 36t203.5 -36t114 -112t36.5 -200t-36.5 -200t-114 -112t-203.5 -36t-203.5 36zM510 179q39 48 39 157t-39 157t-128 48t-128 -48t-39 -157t39 -157t128 -48t128 48zM210 860h344v-117h-344v117z" />
    <glyph glyph-name="Oslash" unicode="&#xd8;" horiz-adv-x="764" 
d="M715 497.5q21 -66.5 21 -161.5q0 -124 -36.5 -200t-114 -112t-203.5 -36q-107 0 -178 25l-34 -45h-129l74 98q-45 42 -66 108.5t-21 161.5q0 124 36.5 200t114 112t203.5 36q106 0 177 -25l34 45h129l-73 -98q45 -42 66 -108.5zM221 208l245 326q-36 14 -84 14
q-96 0 -139 -49.5t-43 -162.5q0 -78 21 -128zM521 173.5q43 49.5 43 162.5q0 80 -23 127l-244 -326q33 -13 85 -13q96 0 139 49.5z" />
    <glyph glyph-name="Oslashacute" unicode="&#x1fe;" horiz-adv-x="764" 
d="M715 497.5q21 -66.5 21 -161.5q0 -124 -36.5 -200t-114 -112t-203.5 -36q-107 0 -178 25l-34 -45h-129l74 98q-45 42 -66 108.5t-21 161.5q0 124 36.5 200t114 112t203.5 36q106 0 177 -25l34 45h129l-73 -98q45 -42 66 -108.5zM221 208l245 326q-36 14 -84 14
q-96 0 -139 -49.5t-43 -162.5q0 -78 21 -128zM521 173.5q43 49.5 43 162.5q0 80 -23 127l-244 -326q33 -13 85 -13q96 0 139 49.5zM409 880h180l-153 -157h-151z" />
    <glyph glyph-name="Otilde" unicode="&#xd5;" horiz-adv-x="764" 
d="M178.5 24q-77.5 36 -114 112t-36.5 200t36.5 200t114 112t203.5 36t203.5 -36t114 -112t36.5 -200t-36.5 -200t-114 -112t-203.5 -36t-203.5 36zM510 179q39 48 39 157t-39 157t-128 48t-128 -48t-39 -157t39 -157t128 -48t128 48zM199 740q0 71 27.5 102.5t91.5 31.5
q22 0 38.5 -5.5t36.5 -15.5q3 -1 12 -5.5t16 -4.5q12 0 17.5 7.5t5.5 23.5v5h121v-16q0 -71 -27.5 -102.5t-91.5 -31.5q-22 0 -38.5 5.5t-36.5 15.5q-3 1 -12 5.5t-16 4.5q-12 0 -17.5 -7.5t-5.5 -23.5v-5h-121v16z" />
    <glyph glyph-name="OE" unicode="&#x152;" horiz-adv-x="1045" 
d="M670 136h342v-136h-626q-128 0 -206.5 34.5t-115 108t-36.5 193.5t36.5 193.5t115 108t206.5 34.5h629l-89 -136h-256v-128h256v-132h-256v-140zM487 140v392h-86q-99 0 -142.5 -46t-43.5 -150t43.5 -150t142.5 -46h86z" />
    <glyph glyph-name="P" unicode="P" horiz-adv-x="657" 
d="M574 618.5q63 -53.5 63 -174.5t-63 -175t-204 -54h-136v-215h-180v672h316q141 0 204 -53.5zM433.5 375.5q23.5 20.5 23.5 68.5q0 47 -23.5 67.5t-77.5 20.5h-122v-177h122q54 0 77.5 20.5z" />
    <glyph glyph-name="Thorn" unicode="&#xde;" horiz-adv-x="653" 
d="M570 516.5q63 -53.5 63 -174.5t-63 -174.5t-204 -53.5h-136v-114h-176v672h176v-102h136q141 0 204 -53.5zM429.5 274q23.5 21 23.5 68t-23.5 68t-77.5 21h-122v-178h122q54 0 77.5 21z" />
    <glyph glyph-name="Q" unicode="Q" horiz-adv-x="764" 
d="M705 147.5q-31 -73.5 -98 -112.5l96 -148h-177l-68 105q-32 -4 -76 -4q-126 0 -203.5 36t-114 112t-36.5 200t36.5 200t114 112t203.5 36t203.5 -36t114 -112t36.5 -200q0 -115 -31 -188.5zM246.5 177q38.5 -50 125.5 -53l-86 133h177l53 -82q40 49 40 161q0 109 -41 157
t-133 48t-133 -48t-41 -157t38.5 -159z" />
    <glyph glyph-name="R" unicode="R" horiz-adv-x="673" 
d="M334 231h-100v-231h-180v672h324q137 0 198 -52t61 -168q0 -83 -31.5 -132t-95.5 -67l150 -253h-199zM234 367h122q54 0 77.5 19.5t23.5 65.5q0 45 -23.5 64.5t-77.5 19.5h-122v-169z" />
    <glyph glyph-name="Racute" unicode="&#x154;" horiz-adv-x="673" 
d="M334 231h-100v-231h-180v672h324q137 0 198 -52t61 -168q0 -83 -31.5 -132t-95.5 -67l150 -253h-199zM234 367h122q54 0 77.5 19.5t23.5 65.5q0 45 -23.5 64.5t-77.5 19.5h-122v-169zM366 880h180l-153 -157h-151z" />
    <glyph glyph-name="Rcaron" unicode="&#x158;" horiz-adv-x="673" 
d="M334 231h-100v-231h-180v672h324q137 0 198 -52t61 -168q0 -83 -31.5 -132t-95.5 -67l150 -253h-199zM234 367h122q54 0 77.5 19.5t23.5 65.5q0 45 -23.5 64.5t-77.5 19.5h-122v-169zM131 880h147l61 -68l61 68h147l-123 -157h-170z" />
    <glyph glyph-name="Rcommaaccent" unicode="&#x156;" horiz-adv-x="673" 
d="M334 231h-100v-231h-180v672h324q137 0 198 -52t61 -168q0 -83 -31.5 -132t-95.5 -67l150 -253h-199zM234 367h122q54 0 77.5 19.5t23.5 65.5q0 45 -23.5 64.5t-77.5 19.5h-122v-169zM271 -51h153l-65 -159h-123z" />
    <glyph glyph-name="S" unicode="S" horiz-adv-x="605" 
d="M43 22v143q117 -37 237 -37q60 0 85.5 16t25.5 53q0 31 -30 44.5t-95 25.5q-72 14 -119 31t-81 58t-34 115q0 110 69.5 161.5t226.5 51.5q62 0 124.5 -11t114.5 -32l-78 -121q-78 24 -147 24q-67 0 -95 -13.5t-28 -45.5q0 -23 16 -36.5t40.5 -21t68.5 -15.5
q72 -14 118.5 -31.5t80.5 -60.5t34 -120q0 -113 -66 -162.5t-216 -49.5q-134 0 -252 34z" />
    <glyph glyph-name="Sacute" unicode="&#x15a;" horiz-adv-x="605" 
d="M43 22v143q117 -37 237 -37q60 0 85.5 16t25.5 53q0 31 -30 44.5t-95 25.5q-72 14 -119 31t-81 58t-34 115q0 110 69.5 161.5t226.5 51.5q62 0 124.5 -11t114.5 -32l-78 -121q-78 24 -147 24q-67 0 -95 -13.5t-28 -45.5q0 -23 16 -36.5t40.5 -21t68.5 -15.5
q72 -14 118.5 -31.5t80.5 -60.5t34 -120q0 -113 -66 -162.5t-216 -49.5q-134 0 -252 34zM330 880h180l-153 -157h-151z" />
    <glyph glyph-name="Sacute.loclPLK" horiz-adv-x="605" 
d="M43 22v143q117 -37 237 -37q60 0 85.5 16t25.5 53q0 31 -30 44.5t-95 25.5q-72 14 -119 31t-81 58t-34 115q0 110 69.5 161.5t226.5 51.5q62 0 124.5 -11t114.5 -32l-78 -121q-78 24 -147 24q-67 0 -95 -13.5t-28 -45.5q0 -23 16 -36.5t40.5 -21t68.5 -15.5
q72 -14 118.5 -31.5t80.5 -60.5t34 -120q0 -113 -66 -162.5t-216 -49.5q-134 0 -252 34zM274 880h163l-74 -157h-147z" />
    <glyph glyph-name="Scaron" unicode="&#x160;" horiz-adv-x="605" 
d="M43 22v143q117 -37 237 -37q60 0 85.5 16t25.5 53q0 31 -30 44.5t-95 25.5q-72 14 -119 31t-81 58t-34 115q0 110 69.5 161.5t226.5 51.5q62 0 124.5 -11t114.5 -32l-78 -121q-78 24 -147 24q-67 0 -95 -13.5t-28 -45.5q0 -23 16 -36.5t40.5 -21t68.5 -15.5
q72 -14 118.5 -31.5t80.5 -60.5t34 -120q0 -113 -66 -162.5t-216 -49.5q-134 0 -252 34zM95 880h147l61 -68l61 68h147l-123 -157h-170z" />
    <glyph glyph-name="Scedilla" unicode="&#x15e;" horiz-adv-x="605" 
d="M525 49q-52 -50 -169 -59v-23q70 -12 70 -69q0 -47 -36.5 -68.5t-118.5 -21.5q-47 0 -91 12v77q38 -12 67 -12q23 0 33 4t10 13q0 11 -9 14.5t-35 3.5h-8v70q-100 4 -195 32v143q117 -37 237 -37q60 0 85.5 16t25.5 53q0 31 -30 44.5t-95 25.5q-72 14 -119 31t-81 58
t-34 115q0 110 69.5 161.5t226.5 51.5q62 0 124.5 -11t114.5 -32l-78 -121q-78 24 -147 24q-67 0 -95 -13.5t-28 -45.5q0 -23 16 -36.5t40.5 -21t68.5 -15.5q72 -14 118.5 -31.5t80.5 -60.5t34 -120q0 -101 -52 -151z" />
    <glyph glyph-name="Scircumflex" unicode="&#x15c;" horiz-adv-x="605" 
d="M43 22v143q117 -37 237 -37q60 0 85.5 16t25.5 53q0 31 -30 44.5t-95 25.5q-72 14 -119 31t-81 58t-34 115q0 110 69.5 161.5t226.5 51.5q62 0 124.5 -11t114.5 -32l-78 -121q-78 24 -147 24q-67 0 -95 -13.5t-28 -45.5q0 -23 16 -36.5t40.5 -21t68.5 -15.5
q72 -14 118.5 -31.5t80.5 -60.5t34 -120q0 -113 -66 -162.5t-216 -49.5q-134 0 -252 34zM218 880h170l123 -157h-147l-61 68l-61 -68h-147z" />
    <glyph glyph-name="Scommaaccent" unicode="&#x218;" horiz-adv-x="605" 
d="M43 22v143q117 -37 237 -37q60 0 85.5 16t25.5 53q0 31 -30 44.5t-95 25.5q-72 14 -119 31t-81 58t-34 115q0 110 69.5 161.5t226.5 51.5q62 0 124.5 -11t114.5 -32l-78 -121q-78 24 -147 24q-67 0 -95 -13.5t-28 -45.5q0 -23 16 -36.5t40.5 -21t68.5 -15.5
q72 -14 118.5 -31.5t80.5 -60.5t34 -120q0 -113 -66 -162.5t-216 -49.5q-134 0 -252 34zM235 -51h153l-65 -159h-123z" />
    <glyph glyph-name="uni1E9E" unicode="&#x1e9e;" horiz-adv-x="765" 
d="M737 202q0 -113 -65 -163.5t-211 -50.5q-90 0 -168 18v136q78 -18 153 -18q59 0 85 19t26 62q0 44 -29 63t-96 19h-30v110l109 145q-43 6 -89 6q-102 0 -147 -41t-45 -135v-372h-176v387q0 106 37 171t116.5 95.5t207.5 30.5q136 0 290 -26v-112l-112 -149
q144 -34 144 -195z" />
    <glyph glyph-name="T" unicode="T" horiz-adv-x="615" 
d="M540 532h-141v-532h-183v532h-201v140h616z" />
    <glyph glyph-name="Tbar" unicode="&#x166;" horiz-adv-x="615" 
d="M399 532v-159h128v-125h-128v-248h-183v248h-128v125h128v159h-201v140h616l-91 -140h-141z" />
    <glyph glyph-name="Tcaron" unicode="&#x164;" horiz-adv-x="615" 
d="M540 532h-141v-532h-183v532h-201v140h616zM100 880h147l61 -68l61 68h147l-123 -157h-170z" />
    <glyph glyph-name="uni0162" unicode="&#x162;" horiz-adv-x="615" 
d="M540 532h-141v-532h-183v532h-201v140h616zM240 -51h153l-65 -159h-123z" />
    <glyph glyph-name="uni021A" unicode="&#x21a;" horiz-adv-x="615" 
d="M540 532h-141v-532h-183v532h-201v140h616zM240 -51h153l-65 -159h-123z" />
    <glyph glyph-name="U" unicode="U" horiz-adv-x="762" 
d="M192 17q-72 29 -106 90.5t-34 162.5v402h183v-388q0 -81 34.5 -117t111.5 -36t111 36t34 117v388h184v-402q0 -101 -34 -162.5t-106 -90.5t-189 -29t-189 29z" />
    <glyph glyph-name="Uacute" unicode="&#xda;" horiz-adv-x="762" 
d="M192 17q-72 29 -106 90.5t-34 162.5v402h183v-388q0 -81 34.5 -117t111.5 -36t111 36t34 117v388h184v-402q0 -101 -34 -162.5t-106 -90.5t-189 -29t-189 29zM408 880h180l-153 -157h-151z" />
    <glyph glyph-name="Ubreve" unicode="&#x16c;" horiz-adv-x="762" 
d="M192 17q-72 29 -106 90.5t-34 162.5v402h183v-388q0 -81 34.5 -117t111.5 -36t111 36t34 117v388h184v-402q0 -101 -34 -162.5t-106 -90.5t-189 -29t-189 29zM241.5 751q-43.5 40 -43.5 129h122q0 -29 14.5 -42t46.5 -13t46.5 13t14.5 42h122q0 -89 -43.5 -129
t-139.5 -40t-139.5 40z" />
    <glyph glyph-name="Ucircumflex" unicode="&#xdb;" horiz-adv-x="762" 
d="M192 17q-72 29 -106 90.5t-34 162.5v402h183v-388q0 -81 34.5 -117t111.5 -36t111 36t34 117v388h184v-402q0 -101 -34 -162.5t-106 -90.5t-189 -29t-189 29zM296 880h170l123 -157h-147l-61 68l-61 -68h-147z" />
    <glyph glyph-name="Udieresis" unicode="&#xdc;" horiz-adv-x="762" 
d="M192 17q-72 29 -106 90.5t-34 162.5v402h183v-388q0 -81 34.5 -117t111.5 -36t111 36t34 117v388h184v-402q0 -101 -34 -162.5t-106 -90.5t-189 -29t-189 29zM190 730.5q-22 21.5 -22 70.5q0 50 22 71.5t74 21.5q51 0 73.5 -22t22.5 -71t-22.5 -70.5t-73.5 -21.5
q-52 0 -74 21.5zM424.5 730.5q-22.5 21.5 -22.5 70.5t22.5 71t73.5 22q52 0 74 -21.5t22 -71.5q0 -49 -22 -70.5t-74 -21.5q-51 0 -73.5 21.5z" />
    <glyph glyph-name="Ugrave" unicode="&#xd9;" horiz-adv-x="762" 
d="M192 17q-72 29 -106 90.5t-34 162.5v402h183v-388q0 -81 34.5 -117t111.5 -36t111 36t34 117v388h184v-402q0 -101 -34 -162.5t-106 -90.5t-189 -29t-189 29zM174 880h180l124 -157h-151z" />
    <glyph glyph-name="Uhungarumlaut" unicode="&#x170;" horiz-adv-x="762" 
d="M192 17q-72 29 -106 90.5t-34 162.5v402h183v-388q0 -81 34.5 -117t111.5 -36t111 36t34 117v388h184v-402q0 -101 -34 -162.5t-106 -90.5t-189 -29t-189 29zM291 880h180l-149 -157h-155zM525 880h180l-149 -157h-155z" />
    <glyph glyph-name="Umacron" unicode="&#x16a;" horiz-adv-x="762" 
d="M192 17q-72 29 -106 90.5t-34 162.5v402h183v-388q0 -81 34.5 -117t111.5 -36t111 36t34 117v388h184v-402q0 -101 -34 -162.5t-106 -90.5t-189 -29t-189 29zM209 860h344v-117h-344v117z" />
    <glyph glyph-name="Uogonek" unicode="&#x172;" horiz-adv-x="762" 
d="M285 -115q0 61 65 103q-17 0 -49 4q-131 15 -190 81.5t-59 196.5v402h183v-388q0 -81 34.5 -117t111.5 -36t111 36t34 117v388h184v-402q0 -77 -16.5 -125.5t-53.5 -82t-104 -62.5q-58 -25 -81.5 -42.5t-23.5 -34.5q0 -19 26 -19q13 0 33 5v-84q-48 -12 -96 -12
q-109 0 -109 72z" />
    <glyph glyph-name="Uring" unicode="&#x16e;" horiz-adv-x="762" 
d="M192 17q-72 29 -106 90.5t-34 162.5v402h183v-388q0 -81 34.5 -117t111.5 -36t111 36t34 117v388h184v-402q0 -101 -34 -162.5t-106 -90.5t-189 -29t-189 29zM280.5 717.5q-30.5 25.5 -30.5 83.5q0 59 30.5 84.5t100.5 25.5t100.5 -25.5t30.5 -84.5q0 -58 -30.5 -83.5
t-100.5 -25.5t-100.5 25.5zM410.5 772q9.5 9 9.5 29q0 21 -9.5 30t-29.5 9t-29.5 -9t-9.5 -30q0 -20 9.5 -29t29.5 -9t29.5 9z" />
    <glyph glyph-name="Utilde" unicode="&#x168;" horiz-adv-x="762" 
d="M192 17q-72 29 -106 90.5t-34 162.5v402h183v-388q0 -81 34.5 -117t111.5 -36t111 36t34 117v388h184v-402q0 -101 -34 -162.5t-106 -90.5t-189 -29t-189 29zM198 740q0 71 27.5 102.5t91.5 31.5q22 0 38.5 -5.5t36.5 -15.5q3 -1 12 -5.5t16 -4.5q12 0 17.5 7.5t5.5 23.5
v5h121v-16q0 -71 -27.5 -102.5t-91.5 -31.5q-22 0 -38.5 5.5t-36.5 15.5q-3 1 -12 5.5t-16 4.5q-12 0 -17.5 -7.5t-5.5 -23.5v-5h-121v16z" />
    <glyph glyph-name="V" unicode="V" horiz-adv-x="682" 
d="M693 672l-249 -672h-206l-249 672h195l161 -488l161 488h187z" />
    <glyph glyph-name="W" unicode="W" horiz-adv-x="1026" 
d="M1021 672l-191 -672h-222l-93 320l-105 -320h-214l-191 672h186l119 -466l128 381l-25 85h184l118 -470l120 470h186z" />
    <glyph glyph-name="Wacute" unicode="&#x1e82;" horiz-adv-x="1026" 
d="M1021 672l-191 -672h-222l-93 320l-105 -320h-214l-191 672h186l119 -466l128 381l-25 85h184l118 -470l120 470h186zM547 880h180l-153 -157h-151z" />
    <glyph glyph-name="Wcircumflex" unicode="&#x174;" horiz-adv-x="1026" 
d="M1021 672l-191 -672h-222l-93 320l-105 -320h-214l-191 672h186l119 -466l128 381l-25 85h184l118 -470l120 470h186zM435 880h170l123 -157h-147l-61 68l-61 -68h-147z" />
    <glyph glyph-name="Wdieresis" unicode="&#x1e84;" horiz-adv-x="1026" 
d="M1021 672l-191 -672h-222l-93 320l-105 -320h-214l-191 672h186l119 -466l128 381l-25 85h184l118 -470l120 470h186zM329 730.5q-22 21.5 -22 70.5q0 50 22 71.5t74 21.5q51 0 73.5 -22t22.5 -71t-22.5 -70.5t-73.5 -21.5q-52 0 -74 21.5zM563.5 730.5
q-22.5 21.5 -22.5 70.5t22.5 71t73.5 22q52 0 74 -21.5t22 -71.5q0 -49 -22 -70.5t-74 -21.5q-51 0 -73.5 21.5z" />
    <glyph glyph-name="Wgrave" unicode="&#x1e80;" horiz-adv-x="1026" 
d="M1021 672l-191 -672h-222l-93 320l-105 -320h-214l-191 672h186l119 -466l128 381l-25 85h184l118 -470l120 470h186zM313 880h180l124 -157h-151z" />
    <glyph glyph-name="X" unicode="X" horiz-adv-x="682" 
d="M480 0l-139 226l-138 -226h-206l227 342l-219 330h204l132 -213l132 213h204l-219 -330l227 -342h-205z" />
    <glyph glyph-name="Y" unicode="Y" horiz-adv-x="674" 
d="M429 276v-276h-184v276l-257 396h209l143 -241l144 241h202z" />
    <glyph glyph-name="Yacute" unicode="&#xdd;" horiz-adv-x="674" 
d="M429 276v-276h-184v276l-257 396h209l143 -241l144 241h202zM344 880h180l-153 -157h-151z" />
    <glyph glyph-name="Ycircumflex" unicode="&#x176;" horiz-adv-x="674" 
d="M429 276v-276h-184v276l-257 396h209l143 -241l144 241h202zM232 880h170l123 -157h-147l-61 68l-61 -68h-147z" />
    <glyph glyph-name="Ydieresis" unicode="&#x178;" horiz-adv-x="674" 
d="M429 276v-276h-184v276l-257 396h209l143 -241l144 241h202zM126 730.5q-22 21.5 -22 70.5q0 50 22 71.5t74 21.5q51 0 73.5 -22t22.5 -71t-22.5 -70.5t-73.5 -21.5q-52 0 -74 21.5zM360.5 730.5q-22.5 21.5 -22.5 70.5t22.5 71t73.5 22q52 0 74 -21.5t22 -71.5
q0 -49 -22 -70.5t-74 -21.5q-51 0 -73.5 21.5z" />
    <glyph glyph-name="Ygrave" unicode="&#x1ef2;" horiz-adv-x="674" 
d="M429 276v-276h-184v276l-257 396h209l143 -241l144 241h202zM110 880h180l124 -157h-151z" />
    <glyph glyph-name="Z" unicode="Z" horiz-adv-x="637" 
d="M610 140v-140h-583v125l348 407h-340v140h567v-125l-348 -407h356z" />
    <glyph glyph-name="Zacute" unicode="&#x179;" horiz-adv-x="637" 
d="M610 140v-140h-583v125l348 407h-340v140h567v-125l-348 -407h356zM346 880h180l-153 -157h-151z" />
    <glyph glyph-name="Zacute.loclPLK" horiz-adv-x="637" 
d="M610 140v-140h-583v125l348 407h-340v140h567v-125l-348 -407h356zM290 880h163l-74 -157h-147z" />
    <glyph glyph-name="Zcaron" unicode="&#x17d;" horiz-adv-x="637" 
d="M610 140v-140h-583v125l348 407h-340v140h567v-125l-348 -407h356zM111 880h147l61 -68l61 68h147l-123 -157h-170z" />
    <glyph glyph-name="Zdotaccent" unicode="&#x17b;" horiz-adv-x="637" 
d="M610 140v-140h-583v125l348 407h-340v140h567v-125l-348 -407h356zM245 730.5q-22 21.5 -22 70.5q0 50 22 71.5t74 21.5t74 -21.5t22 -71.5q0 -49 -22 -70.5t-74 -21.5t-74 21.5z" />
    <glyph glyph-name="a" unicode="a" horiz-adv-x="592" 
d="M562 141v-131q-19 -8 -45 -13t-50 -5q-77 0 -104 47q-49 -51 -150 -51q-97 0 -142.5 38t-45.5 120q0 76 55 113t176 37h85v10q0 37 -25.5 52.5t-84.5 15.5q-75 0 -159 -24v133q93 24 181 24q136 0 196 -50.5t60 -164.5v-109q0 -26 7 -35.5t24 -9.5q9 0 22 3zM321.5 122
q19.5 13 19.5 42v21h-66q-78 0 -78 -38q0 -20 14.5 -29t47.5 -9q43 0 62.5 13z" />
    <glyph glyph-name="aacute" unicode="&#xe1;" horiz-adv-x="592" 
d="M562 141v-131q-19 -8 -45 -13t-50 -5q-77 0 -104 47q-49 -51 -150 -51q-97 0 -142.5 38t-45.5 120q0 76 55 113t176 37h85v10q0 37 -25.5 52.5t-84.5 15.5q-75 0 -159 -24v133q93 24 181 24q136 0 196 -50.5t60 -164.5v-109q0 -26 7 -35.5t24 -9.5q9 0 22 3zM321.5 122
q19.5 13 19.5 42v21h-66q-78 0 -78 -38q0 -20 14.5 -29t47.5 -9q43 0 62.5 13zM303 704h180l-153 -157h-151z" />
    <glyph glyph-name="abreve" unicode="&#x103;" horiz-adv-x="592" 
d="M562 141v-131q-19 -8 -45 -13t-50 -5q-77 0 -104 47q-49 -51 -150 -51q-97 0 -142.5 38t-45.5 120q0 76 55 113t176 37h85v10q0 37 -25.5 52.5t-84.5 15.5q-75 0 -159 -24v133q93 24 181 24q136 0 196 -50.5t60 -164.5v-109q0 -26 7 -35.5t24 -9.5q9 0 22 3zM321.5 122
q19.5 13 19.5 42v21h-66q-78 0 -78 -38q0 -20 14.5 -29t47.5 -9q43 0 62.5 13zM136.5 575q-43.5 40 -43.5 129h122q0 -29 14.5 -42t46.5 -13t46.5 13t14.5 42h122q0 -89 -43.5 -129t-139.5 -40t-139.5 40z" />
    <glyph glyph-name="uni01CE" unicode="&#x1ce;" horiz-adv-x="592" 
d="M562 141v-131q-19 -8 -45 -13t-50 -5q-77 0 -104 47q-49 -51 -150 -51q-97 0 -142.5 38t-45.5 120q0 76 55 113t176 37h85v10q0 37 -25.5 52.5t-84.5 15.5q-75 0 -159 -24v133q93 24 181 24q136 0 196 -50.5t60 -164.5v-109q0 -26 7 -35.5t24 -9.5q9 0 22 3zM321.5 122
q19.5 13 19.5 42v21h-66q-78 0 -78 -38q0 -20 14.5 -29t47.5 -9q43 0 62.5 13zM484 704l-123 -157h-170l-123 157h147l61 -68l61 68h147z" />
    <glyph glyph-name="acircumflex" unicode="&#xe2;" horiz-adv-x="592" 
d="M562 141v-131q-19 -8 -45 -13t-50 -5q-77 0 -104 47q-49 -51 -150 -51q-97 0 -142.5 38t-45.5 120q0 76 55 113t176 37h85v10q0 37 -25.5 52.5t-84.5 15.5q-75 0 -159 -24v133q93 24 181 24q136 0 196 -50.5t60 -164.5v-109q0 -26 7 -35.5t24 -9.5q9 0 22 3zM321.5 122
q19.5 13 19.5 42v21h-66q-78 0 -78 -38q0 -20 14.5 -29t47.5 -9q43 0 62.5 13zM337 547l-61 68l-61 -68h-147l123 157h170l123 -157h-147z" />
    <glyph glyph-name="adieresis" unicode="&#xe4;" horiz-adv-x="592" 
d="M562 141v-131q-19 -8 -45 -13t-50 -5q-77 0 -104 47q-49 -51 -150 -51q-97 0 -142.5 38t-45.5 120q0 76 55 113t176 37h85v10q0 37 -25.5 52.5t-84.5 15.5q-75 0 -159 -24v133q93 24 181 24q136 0 196 -50.5t60 -164.5v-109q0 -26 7 -35.5t24 -9.5q9 0 22 3zM321.5 122
q19.5 13 19.5 42v21h-66q-78 0 -78 -38q0 -20 14.5 -29t47.5 -9q43 0 62.5 13zM85 554.5q-22 21.5 -22 70.5q0 50 22 71.5t74 21.5q51 0 73.5 -22t22.5 -71t-22.5 -70.5t-73.5 -21.5q-52 0 -74 21.5zM319.5 554.5q-22.5 21.5 -22.5 70.5t22.5 71t73.5 22q52 0 74 -21.5
t22 -71.5q0 -49 -22 -70.5t-74 -21.5q-51 0 -73.5 21.5z" />
    <glyph glyph-name="agrave" unicode="&#xe0;" horiz-adv-x="592" 
d="M562 141v-131q-19 -8 -45 -13t-50 -5q-77 0 -104 47q-49 -51 -150 -51q-97 0 -142.5 38t-45.5 120q0 76 55 113t176 37h85v10q0 37 -25.5 52.5t-84.5 15.5q-75 0 -159 -24v133q93 24 181 24q136 0 196 -50.5t60 -164.5v-109q0 -26 7 -35.5t24 -9.5q9 0 22 3zM321.5 122
q19.5 13 19.5 42v21h-66q-78 0 -78 -38q0 -20 14.5 -29t47.5 -9q43 0 62.5 13zM69 704h180l124 -157h-151z" />
    <glyph glyph-name="amacron" unicode="&#x101;" horiz-adv-x="592" 
d="M562 141v-131q-19 -8 -45 -13t-50 -5q-77 0 -104 47q-49 -51 -150 -51q-97 0 -142.5 38t-45.5 120q0 76 55 113t176 37h85v10q0 37 -25.5 52.5t-84.5 15.5q-75 0 -159 -24v133q93 24 181 24q136 0 196 -50.5t60 -164.5v-109q0 -26 7 -35.5t24 -9.5q9 0 22 3zM321.5 122
q19.5 13 19.5 42v21h-66q-78 0 -78 -38q0 -20 14.5 -29t47.5 -9q43 0 62.5 13zM104 684h344v-117h-344v117z" />
    <glyph glyph-name="aogonek" unicode="&#x105;" horiz-adv-x="592" 
d="M495 -74q0 -22 26 -22q13 0 33 5v-84q-43 -12 -86 -12q-61 0 -90 19.5t-29 62.5q0 27 14.5 52t50.5 52q-35 12 -51 40q-49 -51 -150 -51q-97 0 -142.5 38t-45.5 120q0 76 55 113t176 37h85v10q0 37 -25.5 52.5t-84.5 15.5q-75 0 -159 -24v133q93 24 181 24
q136 0 196 -50.5t60 -164.5v-109q0 -26 7 -35.5t24 -9.5q9 0 22 3v-131q-67 -51 -67 -84zM321.5 122q19.5 13 19.5 42v21h-66q-78 0 -78 -38q0 -20 14.5 -29t47.5 -9q43 0 62.5 13z" />
    <glyph glyph-name="aring" unicode="&#xe5;" horiz-adv-x="592" 
d="M562 141v-131q-19 -8 -45 -13t-50 -5q-77 0 -104 47q-49 -51 -150 -51q-97 0 -142.5 38t-45.5 120q0 76 55 113t176 37h85v10q0 37 -25.5 52.5t-84.5 15.5q-75 0 -159 -24v133q93 24 181 24q136 0 196 -50.5t60 -164.5v-109q0 -26 7 -35.5t24 -9.5q9 0 22 3zM321.5 122
q19.5 13 19.5 42v21h-66q-78 0 -78 -38q0 -20 14.5 -29t47.5 -9q43 0 62.5 13zM175.5 541.5q-30.5 25.5 -30.5 83.5q0 59 30.5 84.5t100.5 25.5t100.5 -25.5t30.5 -84.5q0 -58 -30.5 -83.5t-100.5 -25.5t-100.5 25.5zM305.5 596q9.5 9 9.5 29q0 21 -9.5 30t-29.5 9t-29.5 -9
t-9.5 -30q0 -20 9.5 -29t29.5 -9t29.5 9z" />
    <glyph glyph-name="atilde" unicode="&#xe3;" horiz-adv-x="592" 
d="M562 141v-131q-19 -8 -45 -13t-50 -5q-77 0 -104 47q-49 -51 -150 -51q-97 0 -142.5 38t-45.5 120q0 76 55 113t176 37h85v10q0 37 -25.5 52.5t-84.5 15.5q-75 0 -159 -24v133q93 24 181 24q136 0 196 -50.5t60 -164.5v-109q0 -26 7 -35.5t24 -9.5q9 0 22 3zM321.5 122
q19.5 13 19.5 42v21h-66q-78 0 -78 -38q0 -20 14.5 -29t47.5 -9q43 0 62.5 13zM93 564q0 71 27.5 102.5t91.5 31.5q22 0 38.5 -5.5t36.5 -15.5q3 -1 12 -5.5t16 -4.5q12 0 17.5 7.5t5.5 23.5v5h121v-16q0 -71 -27.5 -102.5t-91.5 -31.5q-22 0 -38.5 5.5t-36.5 15.5
q-3 1 -12 5.5t-16 4.5q-12 0 -17.5 -7.5t-5.5 -23.5v-5h-121v16z" />
    <glyph glyph-name="ae" unicode="&#xe6;" horiz-adv-x="860" 
d="M832 196h-325q5 -41 36 -58.5t96 -17.5q85 0 173 24v-132q-79 -24 -188 -24q-143 0 -216 51q-32 -25 -79.5 -38t-105.5 -13q-104 0 -151 37.5t-47 120.5q0 76 55 113t176 37h85v10q0 37 -25.5 52.5t-84.5 15.5q-75 0 -159 -24v133q93 24 181 24q116 0 174 -48
q30 23 73 35.5t93 12.5q129 0 185.5 -59t56.5 -193q0 -32 -3 -59zM531 366q-21 -19 -25 -59h160q-2 41 -19 59.5t-54 18.5q-41 0 -62 -19zM321.5 122q19.5 13 19.5 42v21h-66q-78 0 -78 -38q0 -20 15 -29t47 -9q43 0 62.5 13z" />
    <glyph glyph-name="aeacute" unicode="&#x1fd;" horiz-adv-x="860" 
d="M832 196h-325q5 -41 36 -58.5t96 -17.5q85 0 173 24v-132q-79 -24 -188 -24q-143 0 -216 51q-32 -25 -79.5 -38t-105.5 -13q-104 0 -151 37.5t-47 120.5q0 76 55 113t176 37h85v10q0 37 -25.5 52.5t-84.5 15.5q-75 0 -159 -24v133q93 24 181 24q116 0 174 -48
q30 23 73 35.5t93 12.5q129 0 185.5 -59t56.5 -193q0 -32 -3 -59zM531 366q-21 -19 -25 -59h160q-2 41 -19 59.5t-54 18.5q-41 0 -62 -19zM321.5 122q19.5 13 19.5 42v21h-66q-78 0 -78 -38q0 -20 15 -29t47 -9q43 0 62.5 13zM457 704h180l-153 -157h-151z" />
    <glyph glyph-name="b" unicode="b" horiz-adv-x="608" 
d="M530.5 446q52.5 -61 52.5 -199q0 -137 -52.5 -198t-170.5 -61q-100 0 -162 51l-14 -39h-133v704h176v-232q58 35 133 35q118 0 170.5 -61zM382 153q21 29 21 94t-21 94.5t-69 29.5q-46 0 -66 -24t-20 -79v-42q0 -54 20 -78t66 -24q48 0 69 29z" />
    <glyph glyph-name="c" unicode="c" horiz-adv-x="498" 
d="M89.5 49q-64.5 61 -64.5 198q0 138 64.5 199t209.5 61q44 0 89.5 -8t83.5 -23l-75 -116q-42 11 -69 11q-65 0 -94 -29.5t-29 -94.5t29 -94t94 -29q66 0 135 20v-136q-70 -20 -164 -20q-145 0 -209.5 61z" />
    <glyph glyph-name="cacute" unicode="&#x107;" horiz-adv-x="498" 
d="M89.5 49q-64.5 61 -64.5 198q0 138 64.5 199t209.5 61q44 0 89.5 -8t83.5 -23l-75 -116q-42 11 -69 11q-65 0 -94 -29.5t-29 -94.5t29 -94t94 -29q66 0 135 20v-136q-70 -20 -164 -20q-145 0 -209.5 61zM305 704h180l-153 -157h-151z" />
    <glyph glyph-name="cacute.loclPLK" horiz-adv-x="498" 
d="M89.5 49q-64.5 61 -64.5 198q0 138 64.5 199t209.5 61q44 0 89.5 -8t83.5 -23l-75 -116q-42 11 -69 11q-65 0 -94 -29.5t-29 -94.5t29 -94t94 -29q66 0 135 20v-136q-70 -20 -164 -20q-145 0 -209.5 61zM269 704h163l-74 -157h-147z" />
    <glyph glyph-name="ccaron" unicode="&#x10d;" horiz-adv-x="498" 
d="M89.5 49q-64.5 61 -64.5 198q0 138 64.5 199t209.5 61q44 0 89.5 -8t83.5 -23l-75 -116q-42 11 -69 11q-65 0 -94 -29.5t-29 -94.5t29 -94t94 -29q66 0 135 20v-136q-70 -20 -164 -20q-145 0 -209.5 61zM486 704l-123 -157h-170l-123 157h147l61 -68l61 68h147z" />
    <glyph glyph-name="ccedilla" unicode="&#xe7;" horiz-adv-x="498" 
d="M234 153q29 -29 94 -29q66 0 135 20v-136q-57 -16 -127 -19v-22q70 -12 70 -69q0 -47 -36.5 -68.5t-118.5 -21.5q-47 0 -91 12v77q38 -12 67 -12q23 0 33 4t10 13q0 11 -9 14.5t-35 3.5h-8v73q-102 16 -147.5 76.5t-45.5 177.5q0 138 64.5 199t209.5 61q44 0 89.5 -8
t83.5 -23l-75 -116q-42 11 -69 11q-65 0 -94 -29.5t-29 -94.5t29 -94z" />
    <glyph glyph-name="ccircumflex" unicode="&#x109;" horiz-adv-x="498" 
d="M89.5 49q-64.5 61 -64.5 198q0 138 64.5 199t209.5 61q44 0 89.5 -8t83.5 -23l-75 -116q-42 11 -69 11q-65 0 -94 -29.5t-29 -94.5t29 -94t94 -29q66 0 135 20v-136q-70 -20 -164 -20q-145 0 -209.5 61zM339 547l-61 68l-61 -68h-147l123 157h170l123 -157h-147z" />
    <glyph glyph-name="cdotaccent" unicode="&#x10b;" horiz-adv-x="498" 
d="M89.5 49q-64.5 61 -64.5 198q0 138 64.5 199t209.5 61q44 0 89.5 -8t83.5 -23l-75 -116q-42 11 -69 11q-65 0 -94 -29.5t-29 -94.5t29 -94t94 -29q66 0 135 20v-136q-70 -20 -164 -20q-145 0 -209.5 61zM204 554.5q-22 21.5 -22 70.5q0 50 22 71.5t74 21.5t74 -21.5
t22 -71.5q0 -49 -22 -70.5t-74 -21.5t-74 21.5z" />
    <glyph glyph-name="d" unicode="d" horiz-adv-x="607" 
d="M556 704v-704h-133l-14 39q-62 -51 -162 -51q-118 0 -170 61t-52 198q0 138 52 199t170 61q77 0 133 -35v232h176zM380 268q0 55 -20 79t-66 24q-48 0 -68.5 -29t-20.5 -95t20.5 -94.5t68.5 -28.5q46 0 66 24t20 78v42z" />
    <glyph glyph-name="eth" unicode="&#xf0;" horiz-adv-x="602" 
d="M535 509q32 -84 32 -211q0 -161 -66 -235.5t-208 -74.5q-141 0 -203.5 57.5t-62.5 187.5t54 187t176 57q68 0 117 -25q-12 58 -56 92l-33 -28h-144l78 66q-47 8 -104 9v125q139 0 228 -30l36 30h144l-89 -75q69 -48 101 -132zM365.5 145.5q22.5 28.5 22.5 94.5
q0 57 -21.5 83t-69.5 26q-47 0 -68.5 -27.5t-21.5 -88.5q0 -62 20.5 -89t65.5 -27q50 0 72.5 28.5z" />
    <glyph glyph-name="dcaron" unicode="&#x10f;" horiz-adv-x="762" 
d="M556 704v-704h-133l-14 39q-62 -51 -162 -51q-118 0 -170 61t-52 198q0 138 52 199t170 61q77 0 133 -35v232h176zM380 268q0 55 -20 79t-66 24q-48 0 -68.5 -29t-20.5 -95t20.5 -94.5t68.5 -28.5q46 0 66 24t20 78v42zM628 704h147l-72 -186h-118z" />
    <glyph glyph-name="dcroat" unicode="&#x111;" horiz-adv-x="607" 
d="M601 534h-45v-534h-133l-14 39q-62 -51 -162 -51q-118 0 -170 61t-52 198q0 138 52 199t170 61q77 0 133 -35v62h-154v118h154v52h176v-52h45v-118zM380 268q0 55 -20 79t-66 24q-48 0 -68.5 -29t-20.5 -95t20.5 -94.5t68.5 -28.5q46 0 66 24t20 78v42z" />
    <glyph glyph-name="e" unicode="e" horiz-adv-x="552" 
d="M524 196h-326q5 -41 36 -58.5t96 -17.5q86 0 173 24v-132q-78 -24 -187 -24q-154 0 -222.5 61t-68.5 198q0 138 61 199t198 61q129 0 186 -59t57 -193q0 -32 -3 -59zM222 366q-21 -19 -25 -59h161q-1 40 -19 59t-55 19q-41 0 -62 -19z" />
    <glyph glyph-name="eacute" unicode="&#xe9;" horiz-adv-x="552" 
d="M524 196h-326q5 -41 36 -58.5t96 -17.5q86 0 173 24v-132q-78 -24 -187 -24q-154 0 -222.5 61t-68.5 198q0 138 61 199t198 61q129 0 186 -59t57 -193q0 -32 -3 -59zM222 366q-21 -19 -25 -59h161q-1 40 -19 59t-55 19q-41 0 -62 -19zM311 704h180l-153 -157h-151z" />
    <glyph glyph-name="ebreve" unicode="&#x115;" horiz-adv-x="552" 
d="M524 196h-326q5 -41 36 -58.5t96 -17.5q86 0 173 24v-132q-78 -24 -187 -24q-154 0 -222.5 61t-68.5 198q0 138 61 199t198 61q129 0 186 -59t57 -193q0 -32 -3 -59zM222 366q-21 -19 -25 -59h161q-1 40 -19 59t-55 19q-41 0 -62 -19zM144.5 575q-43.5 40 -43.5 129h122
q0 -29 14.5 -42t46.5 -13t46.5 13t14.5 42h122q0 -89 -43.5 -129t-139.5 -40t-139.5 40z" />
    <glyph glyph-name="ecaron" unicode="&#x11b;" horiz-adv-x="552" 
d="M524 196h-326q5 -41 36 -58.5t96 -17.5q86 0 173 24v-132q-78 -24 -187 -24q-154 0 -222.5 61t-68.5 198q0 138 61 199t198 61q129 0 186 -59t57 -193q0 -32 -3 -59zM222 366q-21 -19 -25 -59h161q-1 40 -19 59t-55 19q-41 0 -62 -19zM492 704l-123 -157h-170l-123 157
h147l61 -68l61 68h147z" />
    <glyph glyph-name="ecircumflex" unicode="&#xea;" horiz-adv-x="552" 
d="M524 196h-326q5 -41 36 -58.5t96 -17.5q86 0 173 24v-132q-78 -24 -187 -24q-154 0 -222.5 61t-68.5 198q0 138 61 199t198 61q129 0 186 -59t57 -193q0 -32 -3 -59zM222 366q-21 -19 -25 -59h161q-1 40 -19 59t-55 19q-41 0 -62 -19zM345 547l-61 68l-61 -68h-147
l123 157h170l123 -157h-147z" />
    <glyph glyph-name="edieresis" unicode="&#xeb;" horiz-adv-x="552" 
d="M524 196h-326q5 -41 36 -58.5t96 -17.5q86 0 173 24v-132q-78 -24 -187 -24q-154 0 -222.5 61t-68.5 198q0 138 61 199t198 61q129 0 186 -59t57 -193q0 -32 -3 -59zM222 366q-21 -19 -25 -59h161q-1 40 -19 59t-55 19q-41 0 -62 -19zM93 554.5q-22 21.5 -22 70.5
q0 50 22 71.5t74 21.5q51 0 73.5 -22t22.5 -71t-22.5 -70.5t-73.5 -21.5q-52 0 -74 21.5zM327.5 554.5q-22.5 21.5 -22.5 70.5t22.5 71t73.5 22q52 0 74 -21.5t22 -71.5q0 -49 -22 -70.5t-74 -21.5q-51 0 -73.5 21.5z" />
    <glyph glyph-name="edotaccent" unicode="&#x117;" horiz-adv-x="552" 
d="M524 196h-326q5 -41 36 -58.5t96 -17.5q86 0 173 24v-132q-78 -24 -187 -24q-154 0 -222.5 61t-68.5 198q0 138 61 199t198 61q129 0 186 -59t57 -193q0 -32 -3 -59zM222 366q-21 -19 -25 -59h161q-1 40 -19 59t-55 19q-41 0 -62 -19zM210 554.5q-22 21.5 -22 70.5
q0 50 22 71.5t74 21.5t74 -21.5t22 -71.5q0 -49 -22 -70.5t-74 -21.5t-74 21.5z" />
    <glyph glyph-name="egrave" unicode="&#xe8;" horiz-adv-x="552" 
d="M524 196h-326q5 -41 36 -58.5t96 -17.5q86 0 173 24v-132q-78 -24 -187 -24q-154 0 -222.5 61t-68.5 198q0 138 61 199t198 61q129 0 186 -59t57 -193q0 -32 -3 -59zM222 366q-21 -19 -25 -59h161q-1 40 -19 59t-55 19q-41 0 -62 -19zM77 704h180l124 -157h-151z" />
    <glyph glyph-name="emacron" unicode="&#x113;" horiz-adv-x="552" 
d="M524 196h-326q5 -41 36 -58.5t96 -17.5q86 0 173 24v-132q-78 -24 -187 -24q-154 0 -222.5 61t-68.5 198q0 138 61 199t198 61q129 0 186 -59t57 -193q0 -32 -3 -59zM222 366q-21 -19 -25 -59h161q-1 40 -19 59t-55 19q-41 0 -62 -19zM112 684h344v-117h-344v117z" />
    <glyph glyph-name="eogonek" unicode="&#x119;" horiz-adv-x="552" 
d="M524 196h-326q5 -41 36 -58.5t96 -17.5q86 0 173 24v-132q-34 -30 -47 -47.5t-13 -35.5q0 -25 26 -25q13 0 33 5v-84q-48 -12 -96 -12q-56 0 -82.5 19.5t-26.5 62.5q0 25 11 47t38 46h-30q-154 0 -222.5 61t-68.5 198q0 138 61 199t198 61q129 0 186 -59t57 -193
q0 -32 -3 -59zM222 366q-21 -19 -25 -59h161q-1 40 -19 59t-55 19q-41 0 -62 -19z" />
    <glyph glyph-name="f" unicode="f" horiz-adv-x="412" 
d="M280 518v-23h150l-86 -133h-64v-362h-176v362h-84v133h84v16q0 110 53 157.5t175 47.5q57 0 106 -12v-134q-48 10 -84 10q-74 0 -74 -62z" />
    <glyph glyph-name="g" unicode="g" horiz-adv-x="582" 
d="M501 92q59 -37 59 -119q0 -86 -64 -123t-204 -37q-96 0 -154.5 13.5t-85.5 42.5t-27 78q0 92 86 116q-25 23 -25 67l46 71q-100 35 -100 143q0 83 63 123t189 40q40 0 80 -5l26 66h165l-70 -109q51 -40 51 -115q0 -84 -60 -124t-192 -40h-22l-21 -51h81q120 0 179 -37z
M221.5 384q-19.5 -13 -19.5 -40t19.5 -40.5t62.5 -13.5t62.5 13.5t19.5 40.5t-19.5 40t-62.5 13t-62.5 -13zM367.5 -63.5q22.5 9.5 22.5 31.5t-21.5 29.5t-76.5 7.5q-56 0 -76.5 -7.5t-20.5 -29.5t22 -31.5t75 -9.5t75.5 9.5z" />
    <glyph glyph-name="gbreve" unicode="&#x11f;" horiz-adv-x="582" 
d="M149.5 575q-43.5 40 -43.5 129h122q0 -29 14.5 -42t46.5 -13t46.5 13t14.5 42h122q0 -89 -43.5 -129t-139.5 -40t-139.5 40zM501 92q59 -37 59 -119q0 -86 -64 -123t-204 -37q-96 0 -154.5 13.5t-85.5 42.5t-27 78q0 92 86 116q-25 23 -25 67l46 71q-100 35 -100 143
q0 83 63 123t189 40t189 -40t63 -123q0 -84 -60 -124t-192 -40h-22l-21 -51h81q120 0 179 -37zM221.5 384q-19.5 -13 -19.5 -40t19.5 -40.5t62.5 -13.5t62.5 13.5t19.5 40.5t-19.5 40t-62.5 13t-62.5 -13zM367.5 -63.5q22.5 9.5 22.5 31.5t-21.5 29.5t-76.5 7.5
q-56 0 -76.5 -7.5t-20.5 -29.5t22 -31.5t75 -9.5t75.5 9.5z" />
    <glyph glyph-name="gcircumflex" unicode="&#x11d;" horiz-adv-x="582" 
d="M228 547h-147l123 157h170l123 -157h-147l-61 68zM501 92q59 -37 59 -119q0 -86 -64 -123t-204 -37q-96 0 -154.5 13.5t-85.5 42.5t-27 78q0 92 86 116q-25 23 -25 67l46 71q-100 35 -100 143q0 83 63 123t189 40t189 -40t63 -123q0 -84 -60 -124t-192 -40h-22l-21 -51
h81q120 0 179 -37zM221.5 384q-19.5 -13 -19.5 -40t19.5 -40.5t62.5 -13.5t62.5 13.5t19.5 40.5t-19.5 40t-62.5 13t-62.5 -13zM367.5 -63.5q22.5 9.5 22.5 31.5t-21.5 29.5t-76.5 7.5q-56 0 -76.5 -7.5t-20.5 -29.5t22 -31.5t75 -9.5t75.5 9.5z" />
    <glyph glyph-name="gcommaaccent" unicode="&#x123;" horiz-adv-x="582" 
d="M340 545h-143l72 159h113zM501 92q59 -37 59 -119q0 -86 -64 -123t-204 -37q-96 0 -154.5 13.5t-85.5 42.5t-27 78q0 92 86 116q-25 23 -25 67l46 71q-100 35 -100 143q0 83 63 123t189 40q40 0 80 -5l26 66h165l-70 -109q51 -40 51 -115q0 -84 -60 -124t-192 -40h-22
l-21 -51h81q120 0 179 -37zM221.5 384q-19.5 -13 -19.5 -40t19.5 -40.5t62.5 -13.5t62.5 13.5t19.5 40.5t-19.5 40t-62.5 13t-62.5 -13zM367.5 -63.5q22.5 9.5 22.5 31.5t-21.5 29.5t-76.5 7.5q-56 0 -76.5 -7.5t-20.5 -29.5t22 -31.5t75 -9.5t75.5 9.5z" />
    <glyph glyph-name="gdotaccent" unicode="&#x121;" horiz-adv-x="582" 
d="M213 572q-20 19 -20 62q0 44 20 63t66 19t66 -19t20 -63q0 -43 -20 -62t-66 -19t-66 19zM501 92q59 -37 59 -119q0 -86 -64 -123t-204 -37q-96 0 -154.5 13.5t-85.5 42.5t-27 78q0 92 86 116q-25 23 -25 67l46 71q-100 35 -100 143q0 83 63 123t189 40q40 0 80 -5l26 66
h165l-70 -109q51 -40 51 -115q0 -84 -60 -124t-192 -40h-22l-21 -51h81q120 0 179 -37zM221.5 384q-19.5 -13 -19.5 -40t19.5 -40.5t62.5 -13.5t62.5 13.5t19.5 40.5t-19.5 40t-62.5 13t-62.5 -13zM367.5 -63.5q22.5 9.5 22.5 31.5t-21.5 29.5t-76.5 7.5q-56 0 -76.5 -7.5
t-20.5 -29.5t22 -31.5t75 -9.5t75.5 9.5z" />
    <glyph glyph-name="h" unicode="h" horiz-adv-x="609" 
d="M515.5 458q49.5 -49 49.5 -161v-297h-176v290q0 40 -17.5 58.5t-55.5 18.5q-47 0 -68 -21.5t-21 -70.5v-275h-176v704h176v-231q52 34 126 34q113 0 162.5 -49z" />
    <glyph glyph-name="hbar" unicode="&#x127;" horiz-adv-x="609" 
d="M515.5 458q49.5 -49 49.5 -161v-297h-176v290q0 40 -17.5 58.5t-55.5 18.5q-47 0 -68 -21.5t-21 -70.5v-275h-176v534h-50v118h50v52h176v-52h149v-118h-149v-61q52 34 126 34q113 0 162.5 -49z" />
    <glyph glyph-name="hcircumflex" unicode="&#x125;" horiz-adv-x="609" 
d="M75 733h-147l115 147h170l116 -147h-147l-54 68zM515.5 458q49.5 -49 49.5 -161v-297h-176v290q0 40 -17.5 58.5t-55.5 18.5q-47 0 -68 -21.5t-21 -70.5v-275h-176v704h176v-231q52 34 126 34q113 0 162.5 -49z" />
    <glyph glyph-name="i" unicode="i" horiz-adv-x="272" 
d="M60 552q-24 23 -24 73q0 51 23.5 74t76.5 23t76.5 -23t23.5 -74q0 -50 -23.5 -73t-76.5 -23q-52 0 -76 23zM48 495h176v-495h-176v495z" />
    <glyph glyph-name="dotlessi" unicode="&#x131;" horiz-adv-x="272" 
d="M48 495h176v-495h-176v495z" />
    <glyph glyph-name="iacute" unicode="&#xed;" horiz-adv-x="272" 
d="M48 495h176v-495h-176v495zM163 704h180l-153 -157h-151z" />
    <glyph glyph-name="iacute_j.loclNLD" horiz-adv-x="546" 
d="M48 495h176v-495h-176v495zM163 704h180l-153 -157h-151zM182 -177v134q38 -8 72 -8q36 0 52 16t16 53v477h176v-485q0 -105 -50 -151t-165 -46q-55 0 -101 10zM435 704h180l-153 -157h-151z" />
    <glyph glyph-name="ibreve" unicode="&#x12d;" horiz-adv-x="272" 
d="M48 495h176v-495h-176v495zM-3.5 575q-43.5 40 -43.5 129h122q0 -29 14.5 -42t46.5 -13t46.5 13t14.5 42h122q0 -89 -43.5 -129t-139.5 -40t-139.5 40z" />
    <glyph glyph-name="icircumflex" unicode="&#xee;" horiz-adv-x="272" 
d="M48 495h176v-495h-176v495zM197 547l-61 68l-61 -68h-147l123 157h170l123 -157h-147z" />
    <glyph glyph-name="idieresis" unicode="&#xef;" horiz-adv-x="272" 
d="M48 495h176v-495h-176v495zM-55 554.5q-22 21.5 -22 70.5q0 50 22 71.5t74 21.5q51 0 73.5 -22t22.5 -71t-22.5 -70.5t-73.5 -21.5q-52 0 -74 21.5zM179.5 554.5q-22.5 21.5 -22.5 70.5t22.5 71t73.5 22q52 0 74 -21.5t22 -71.5q0 -49 -22 -70.5t-74 -21.5
q-51 0 -73.5 21.5z" />
    <glyph glyph-name="i.loclTRK" horiz-adv-x="272" 
d="M48 495h176v-495h-176v495zM62 554.5q-22 21.5 -22 70.5q0 50 22 71.5t74 21.5t74 -21.5t22 -71.5q0 -49 -22 -70.5t-74 -21.5t-74 21.5z" />
    <glyph glyph-name="igrave" unicode="&#xec;" horiz-adv-x="272" 
d="M48 495h176v-495h-176v495zM-71 704h180l124 -157h-151z" />
    <glyph glyph-name="ij" unicode="&#x133;" horiz-adv-x="546" 
d="M60 552q-24 23 -24 73q0 51 23.5 74t76.5 23t76.5 -23t23.5 -74q0 -50 -23.5 -73t-76.5 -23q-52 0 -76 23zM48 495h176v-495h-176v495zM334 552q-24 23 -24 73q0 51 23.5 74t76.5 23t76.5 -23t23.5 -74q0 -50 -23.5 -73t-76.5 -23q-52 0 -76 23zM182 -177v134
q38 -8 72 -8q36 0 52 16t16 53v477h176v-485q0 -105 -50 -151t-165 -46q-55 0 -101 10z" />
    <glyph glyph-name="imacron" unicode="&#x12b;" horiz-adv-x="272" 
d="M48 495h176v-495h-176v495zM-36 684h344v-117h-344v117z" />
    <glyph glyph-name="iogonek" unicode="&#x12f;" horiz-adv-x="272" 
d="M60 552q-24 23 -24 73q0 51 23.5 74t76.5 23t76.5 -23t23.5 -74q0 -50 -23.5 -73t-76.5 -23q-52 0 -76 23zM48 495h176v-495q-34 -25 -46.5 -40.5t-12.5 -30.5q0 -25 26 -25q13 0 33 5v-84q-48 -12 -96 -12q-56 0 -82.5 19.5t-26.5 62.5q0 28 14.5 53t50.5 52h-36v495z
" />
    <glyph glyph-name="itilde" unicode="&#x129;" horiz-adv-x="272" 
d="M48 495h176v-495h-176v495zM-47 564q0 71 27.5 102.5t91.5 31.5q22 0 38.5 -5.5t36.5 -15.5q3 -1 12 -5.5t16 -4.5q12 0 17.5 7.5t5.5 23.5v5h121v-16q0 -71 -27.5 -102.5t-91.5 -31.5q-22 0 -38.5 5.5t-36.5 15.5q-3 1 -12 5.5t-16 4.5q-12 0 -17.5 -7.5t-5.5 -23.5v-5
h-121v16z" />
    <glyph glyph-name="j" unicode="j" horiz-adv-x="274" 
d="M62 552q-24 23 -24 73q0 51 23.5 74t76.5 23t76.5 -23t23.5 -74q0 -50 -23.5 -73t-76.5 -23q-52 0 -76 23zM-90 -177v134q38 -8 72 -8q36 0 52 16t16 53v477h176v-485q0 -105 -50 -151t-165 -46q-55 0 -101 10z" />
    <glyph glyph-name="uni0237" unicode="&#x237;" horiz-adv-x="274" 
d="M-90 -177v134q38 -8 72 -8q36 0 52 16t16 53v477h176v-485q0 -105 -50 -151t-165 -46q-55 0 -101 10z" />
    <glyph glyph-name="jcircumflex" unicode="&#x135;" horiz-adv-x="274" 
d="M-90 -177v134q38 -8 72 -8q36 0 52 16t16 53v477h176v-485q0 -105 -50 -151t-165 -46q-55 0 -101 10zM197 547l-61 68l-61 -68h-147l123 157h170l123 -157h-147z" />
    <glyph glyph-name="k" unicode="k" horiz-adv-x="556" 
d="M264 164h-37v-164h-176v704h176v-380l127 171h199l-176 -220l179 -275h-198z" />
    <glyph glyph-name="kcommaaccent" unicode="&#x137;" horiz-adv-x="556" 
d="M264 164h-37v-164h-176v704h176v-380l127 171h199l-176 -220l179 -275h-198zM206 -51h153l-65 -159h-123z" />
    <glyph glyph-name="kgreenlandic" unicode="&#x138;" horiz-adv-x="551" 
d="M260 159h-38v-159h-176v495h176v-173l127 173h199l-176 -224l179 -271h-198z" />
    <glyph glyph-name="l" unicode="l" horiz-adv-x="278" 
d="M51 704h176v-704h-176v704z" />
    <glyph glyph-name="lacute" unicode="&#x13a;" horiz-adv-x="278" 
d="M169 880h181l-153 -143h-151zM58 704h176v-704h-176v704z" />
    <glyph glyph-name="lcaron" unicode="&#x13e;" horiz-adv-x="433" 
d="M51 704h176v-704h-176v704zM299 704h147l-72 -186h-118z" />
    <glyph glyph-name="lcommaaccent" unicode="&#x13c;" horiz-adv-x="278" 
d="M51 704h176v-704h-176v704zM71 -51h153l-65 -159h-123z" />
    <glyph glyph-name="ldot" unicode="&#x140;" horiz-adv-x="401" 
d="M51 704h176v-704h-176v704zM265 293q-21 20 -21 65t21 65t68 20t68 -20t21 -65t-21 -65t-68 -20t-68 20z" />
    <glyph glyph-name="lslash" unicode="&#x142;" horiz-adv-x="328" 
d="M327 374l-68 -34v-340h-176v251l-82 -41v132l82 41v321h176v-232l68 34v-132z" />
    <glyph glyph-name="m" unicode="m" horiz-adv-x="908" 
d="M816.5 460q47.5 -47 47.5 -154v-306h-176v299q0 36 -15 52t-49 16q-43 0 -62 -19.5t-19 -64.5v-283h-176v299q0 36 -15 52t-49 16q-43 0 -62 -19.5t-19 -64.5v-283h-176v495h133l14 -39q66 51 154 51q50 0 87 -12.5t59 -36.5q68 49 167 49q109 0 156.5 -47z" />
    <glyph glyph-name="n" unicode="n" horiz-adv-x="604" 
d="M510.5 458q49.5 -49 49.5 -161v-297h-176v290q0 40 -17.5 58.5t-55.5 18.5q-47 0 -68 -21.5t-21 -70.5v-275h-176v495h133l14 -40q64 52 155 52q113 0 162.5 -49z" />
    <glyph glyph-name="nacute" unicode="&#x144;" horiz-adv-x="604" 
d="M510.5 458q49.5 -49 49.5 -161v-297h-176v290q0 40 -17.5 58.5t-55.5 18.5q-47 0 -68 -21.5t-21 -70.5v-275h-176v495h133l14 -40q64 52 155 52q113 0 162.5 -49zM330 704h180l-153 -157h-151z" />
    <glyph glyph-name="nacute.loclPLK" horiz-adv-x="604" 
d="M510.5 458q49.5 -49 49.5 -161v-297h-176v290q0 40 -17.5 58.5t-55.5 18.5q-47 0 -68 -21.5t-21 -70.5v-275h-176v495h133l14 -40q64 52 155 52q113 0 162.5 -49zM294 704h163l-74 -157h-147z" />
    <glyph glyph-name="ncaron" unicode="&#x148;" horiz-adv-x="604" 
d="M510.5 458q49.5 -49 49.5 -161v-297h-176v290q0 40 -17.5 58.5t-55.5 18.5q-47 0 -68 -21.5t-21 -70.5v-275h-176v495h133l14 -40q64 52 155 52q113 0 162.5 -49zM511 704l-123 -157h-170l-123 157h147l61 -68l61 68h147z" />
    <glyph glyph-name="ncommaaccent" unicode="&#x146;" horiz-adv-x="604" 
d="M510.5 458q49.5 -49 49.5 -161v-297h-176v290q0 40 -17.5 58.5t-55.5 18.5q-47 0 -68 -21.5t-21 -70.5v-275h-176v495h133l14 -40q64 52 155 52q113 0 162.5 -49zM235 -51h153l-65 -159h-123z" />
    <glyph glyph-name="eng" unicode="&#x14b;" horiz-adv-x="604" 
d="M510.5 458q49.5 -49 49.5 -161v-287q0 -105 -49.5 -151t-161.5 -46q-54 0 -97 10v134q35 -8 67 -8q35 0 50 16t15 53v272q0 40 -17.5 58.5t-55.5 18.5q-47 0 -68 -21.5t-21 -70.5v-275h-176v495h133l14 -40q64 52 155 52q113 0 162.5 -49z" />
    <glyph glyph-name="ntilde" unicode="&#xf1;" horiz-adv-x="604" 
d="M510.5 458q49.5 -49 49.5 -161v-297h-176v290q0 40 -17.5 58.5t-55.5 18.5q-47 0 -68 -21.5t-21 -70.5v-275h-176v495h133l14 -40q64 52 155 52q113 0 162.5 -49zM120 564q0 71 27.5 102.5t91.5 31.5q22 0 38.5 -5.5t36.5 -15.5q3 -1 12 -5.5t16 -4.5q12 0 17.5 7.5
t5.5 23.5v5h121v-16q0 -71 -27.5 -102.5t-91.5 -31.5q-22 0 -38.5 5.5t-36.5 15.5q-3 1 -12 5.5t-16 4.5q-12 0 -17.5 -7.5t-5.5 -23.5v-5h-121v16z" />
    <glyph glyph-name="o" unicode="o" horiz-adv-x="598" 
d="M89.5 49q-64.5 61 -64.5 198q0 138 64.5 199t209.5 61t209.5 -61t64.5 -199q0 -137 -64.5 -198t-209.5 -61t-209.5 61zM371 153q22 29 22 94q0 66 -22 95t-72 29q-49 0 -71.5 -29.5t-22.5 -94.5t22 -94t72 -29t72 29z" />
    <glyph glyph-name="oacute" unicode="&#xf3;" horiz-adv-x="598" 
d="M89.5 49q-64.5 61 -64.5 198q0 138 64.5 199t209.5 61t209.5 -61t64.5 -199q0 -137 -64.5 -198t-209.5 -61t-209.5 61zM371 153q22 29 22 94q0 66 -22 95t-72 29q-49 0 -71.5 -29.5t-22.5 -94.5t22 -94t72 -29t72 29zM326 704h180l-153 -157h-151z" />
    <glyph glyph-name="oacute.loclPLK" horiz-adv-x="598" 
d="M89.5 49q-64.5 61 -64.5 198q0 138 64.5 199t209.5 61t209.5 -61t64.5 -199q0 -137 -64.5 -198t-209.5 -61t-209.5 61zM371 153q22 29 22 94q0 66 -22 95t-72 29q-49 0 -71.5 -29.5t-22.5 -94.5t22 -94t72 -29t72 29zM290 704h163l-74 -157h-147z" />
    <glyph glyph-name="obreve" unicode="&#x14f;" horiz-adv-x="598" 
d="M89.5 49q-64.5 61 -64.5 198q0 138 64.5 199t209.5 61t209.5 -61t64.5 -199q0 -137 -64.5 -198t-209.5 -61t-209.5 61zM371 153q22 29 22 94q0 66 -22 95t-72 29q-49 0 -71.5 -29.5t-22.5 -94.5t22 -94t72 -29t72 29zM159.5 575q-43.5 40 -43.5 129h122q0 -29 14.5 -42
t46.5 -13t46.5 13t14.5 42h122q0 -89 -43.5 -129t-139.5 -40t-139.5 40z" />
    <glyph glyph-name="ocircumflex" unicode="&#xf4;" horiz-adv-x="598" 
d="M89.5 49q-64.5 61 -64.5 198q0 138 64.5 199t209.5 61t209.5 -61t64.5 -199q0 -137 -64.5 -198t-209.5 -61t-209.5 61zM371 153q22 29 22 94q0 66 -22 95t-72 29q-49 0 -71.5 -29.5t-22.5 -94.5t22 -94t72 -29t72 29zM360 547l-61 68l-61 -68h-147l123 157h170l123 -157
h-147z" />
    <glyph glyph-name="odieresis" unicode="&#xf6;" horiz-adv-x="598" 
d="M89.5 49q-64.5 61 -64.5 198q0 138 64.5 199t209.5 61t209.5 -61t64.5 -199q0 -137 -64.5 -198t-209.5 -61t-209.5 61zM371 153q22 29 22 94q0 66 -22 95t-72 29q-49 0 -71.5 -29.5t-22.5 -94.5t22 -94t72 -29t72 29zM108 554.5q-22 21.5 -22 70.5q0 50 22 71.5t74 21.5
q51 0 73.5 -22t22.5 -71t-22.5 -70.5t-73.5 -21.5q-52 0 -74 21.5zM342.5 554.5q-22.5 21.5 -22.5 70.5t22.5 71t73.5 22q52 0 74 -21.5t22 -71.5q0 -49 -22 -70.5t-74 -21.5q-51 0 -73.5 21.5z" />
    <glyph glyph-name="ograve" unicode="&#xf2;" horiz-adv-x="598" 
d="M89.5 49q-64.5 61 -64.5 198q0 138 64.5 199t209.5 61t209.5 -61t64.5 -199q0 -137 -64.5 -198t-209.5 -61t-209.5 61zM371 153q22 29 22 94q0 66 -22 95t-72 29q-49 0 -71.5 -29.5t-22.5 -94.5t22 -94t72 -29t72 29zM92 704h180l124 -157h-151z" />
    <glyph glyph-name="ohungarumlaut" unicode="&#x151;" horiz-adv-x="598" 
d="M89.5 49q-64.5 61 -64.5 198q0 138 64.5 199t209.5 61t209.5 -61t64.5 -199q0 -137 -64.5 -198t-209.5 -61t-209.5 61zM371 153q22 29 22 94q0 66 -22 95t-72 29q-49 0 -71.5 -29.5t-22.5 -94.5t22 -94t72 -29t72 29zM209 704h180l-149 -157h-155zM443 704h180l-149 -157
h-155z" />
    <glyph glyph-name="omacron" unicode="&#x14d;" horiz-adv-x="598" 
d="M89.5 49q-64.5 61 -64.5 198q0 138 64.5 199t209.5 61t209.5 -61t64.5 -199q0 -137 -64.5 -198t-209.5 -61t-209.5 61zM371 153q22 29 22 94q0 66 -22 95t-72 29q-49 0 -71.5 -29.5t-22.5 -94.5t22 -94t72 -29t72 29zM127 684h344v-117h-344v117z" />
    <glyph glyph-name="oslash" unicode="&#xf8;" horiz-adv-x="598" 
d="M573 247q0 -137 -64.5 -198t-209.5 -61q-76 0 -127 16l-27 -36h-111l58 78q-34 31 -50.5 80.5t-16.5 120.5q0 138 64.5 199t209.5 61q76 0 127 -16l27 36h111l-58 -78q67 -61 67 -202zM192 178l150 201q-18 6 -43 6q-61 0 -88.5 -32.5t-27.5 -105.5q0 -40 9 -69z
M387.5 141.5q27.5 32.5 27.5 105.5q0 41 -10 68l-150 -200q19 -6 44 -6q61 0 88.5 32.5z" />
    <glyph glyph-name="oslashacute" unicode="&#x1ff;" horiz-adv-x="598" 
d="M573 247q0 -137 -64.5 -198t-209.5 -61q-76 0 -127 16l-27 -36h-111l58 78q-34 31 -50.5 80.5t-16.5 120.5q0 138 64.5 199t209.5 61q76 0 127 -16l27 36h111l-58 -78q67 -61 67 -202zM192 178l150 201q-18 6 -43 6q-61 0 -88.5 -32.5t-27.5 -105.5q0 -40 9 -69z
M387.5 141.5q27.5 32.5 27.5 105.5q0 41 -10 68l-150 -200q19 -6 44 -6q61 0 88.5 32.5zM326 704h180l-153 -157h-151z" />
    <glyph glyph-name="otilde" unicode="&#xf5;" horiz-adv-x="598" 
d="M89.5 49q-64.5 61 -64.5 198q0 138 64.5 199t209.5 61t209.5 -61t64.5 -199q0 -137 -64.5 -198t-209.5 -61t-209.5 61zM371 153q22 29 22 94q0 66 -22 95t-72 29q-49 0 -71.5 -29.5t-22.5 -94.5t22 -94t72 -29t72 29zM116 564q0 71 27.5 102.5t91.5 31.5q22 0 38.5 -5.5
t36.5 -15.5q3 -1 12 -5.5t16 -4.5q12 0 17.5 7.5t5.5 23.5v5h121v-16q0 -71 -27.5 -102.5t-91.5 -31.5q-22 0 -38.5 5.5t-36.5 15.5q-3 1 -12 5.5t-16 4.5q-12 0 -17.5 -7.5t-5.5 -23.5v-5h-121v16z" />
    <glyph glyph-name="oe" unicode="&#x153;" horiz-adv-x="924" 
d="M896 196h-325q5 -41 36 -58.5t96 -17.5q85 0 173 24v-132q-79 -24 -188 -24q-135 0 -201 51q-61 -51 -188 -51q-145 0 -209.5 61t-64.5 198q0 138 64.5 199t209.5 61q123 0 184 -49q59 49 174 49q129 0 185.5 -59t56.5 -193q0 -32 -3 -59zM595 366q-21 -19 -25 -59h160
q-2 41 -19 59.5t-54 18.5q-41 0 -62 -19zM371.5 153q22.5 29 22.5 94t-22.5 94.5t-72.5 29.5q-49 0 -71.5 -29.5t-22.5 -94.5t22 -94t72 -29t72.5 29z" />
    <glyph glyph-name="p" unicode="p" horiz-adv-x="604" 
d="M526.5 446q52.5 -61 52.5 -199q0 -137 -52.5 -198t-170.5 -61q-78 0 -133 35v-198h-176v670h133l14 -39q62 51 162 51q118 0 170.5 -61zM378 153q21 29 21 94t-21 94.5t-69 29.5q-46 0 -66 -24t-20 -79v-42q0 -54 20 -78t66 -24q48 0 69 29z" />
    <glyph glyph-name="thorn" unicode="&#xfe;" horiz-adv-x="608" 
d="M530.5 446q52.5 -61 52.5 -199q0 -137 -52.5 -198t-170.5 -61q-78 0 -133 35v-198h-176v879h176v-232q58 35 133 35q118 0 170.5 -61zM382 153q21 29 21 94t-21 94.5t-69 29.5q-46 0 -66 -24t-20 -79v-42q0 -54 20 -78t66 -24q48 0 69 29z" />
    <glyph glyph-name="q" unicode="q" horiz-adv-x="603" 
d="M556 495v-670h-176v198q-54 -35 -133 -35q-118 0 -170 61t-52 198q0 138 52 199t170 61q100 0 162 -51l14 39h133zM360 148q20 24 20 78v42q0 55 -20 79t-66 24q-48 0 -68.5 -29t-20.5 -95t20.5 -94.5t68.5 -28.5q46 0 66 24z" />
    <glyph glyph-name="r" unicode="r" horiz-adv-x="411" 
d="M394 495v-135q-24 4 -37 4q-72 0 -103.5 -28t-31.5 -93v-243h-176v495h129l20 -50q53 59 142 59q34 0 57 -9z" />
    <glyph glyph-name="racute" unicode="&#x155;" horiz-adv-x="411" 
d="M394 495v-135q-24 4 -37 4q-72 0 -103.5 -28t-31.5 -93v-243h-176v495h129l20 -50q53 59 142 59q34 0 57 -9zM249 704h180l-153 -157h-151z" />
    <glyph glyph-name="rcaron" unicode="&#x159;" horiz-adv-x="411" 
d="M394 495v-135q-24 4 -37 4q-72 0 -103.5 -28t-31.5 -93v-243h-176v495h129l20 -50q53 59 142 59q34 0 57 -9zM430 704l-123 -157h-170l-123 157h147l61 -68l61 68h147z" />
    <glyph glyph-name="rcommaaccent" unicode="&#x157;" horiz-adv-x="411" 
d="M394 495v-135q-24 4 -37 4q-72 0 -103.5 -28t-31.5 -93v-243h-176v495h129l20 -50q53 59 142 59q34 0 57 -9zM66 -51h153l-65 -159h-123z" />
    <glyph glyph-name="s" unicode="s" horiz-adv-x="489" 
d="M41 12v134q92 -27 181 -27q33 0 47.5 7.5t14.5 23.5t-18 22.5t-57 12.5q-53 8 -89 20t-63 44.5t-27 93.5q0 84 58.5 124t175.5 40q110 0 195 -33l-73 -112q-51 14 -104 14q-37 0 -54.5 -7t-17.5 -22q0 -14 16.5 -19.5t54.5 -10.5q55 -8 91.5 -19.5t64 -45t27.5 -96.5
q0 -89 -53.5 -128.5t-173.5 -39.5q-106 0 -196 24z" />
    <glyph glyph-name="sacute" unicode="&#x15b;" horiz-adv-x="489" 
d="M41 12v134q92 -27 181 -27q33 0 47.5 7.5t14.5 23.5t-18 22.5t-57 12.5q-53 8 -89 20t-63 44.5t-27 93.5q0 84 58.5 124t175.5 40q110 0 195 -33l-73 -112q-51 14 -104 14q-37 0 -54.5 -7t-17.5 -22q0 -14 16.5 -19.5t54.5 -10.5q55 -8 91.5 -19.5t64 -45t27.5 -96.5
q0 -89 -53.5 -128.5t-173.5 -39.5q-106 0 -196 24zM272 704h180l-153 -157h-151z" />
    <glyph glyph-name="sacute.loclPLK" horiz-adv-x="489" 
d="M41 12v134q92 -27 181 -27q33 0 47.5 7.5t14.5 23.5t-18 22.5t-57 12.5q-53 8 -89 20t-63 44.5t-27 93.5q0 84 58.5 124t175.5 40q110 0 195 -33l-73 -112q-51 14 -104 14q-37 0 -54.5 -7t-17.5 -22q0 -14 16.5 -19.5t54.5 -10.5q55 -8 91.5 -19.5t64 -45t27.5 -96.5
q0 -89 -53.5 -128.5t-173.5 -39.5q-106 0 -196 24zM236 704h163l-74 -157h-147z" />
    <glyph glyph-name="scaron" unicode="&#x161;" horiz-adv-x="489" 
d="M41 12v134q92 -27 181 -27q33 0 47.5 7.5t14.5 23.5t-18 22.5t-57 12.5q-53 8 -89 20t-63 44.5t-27 93.5q0 84 58.5 124t175.5 40q110 0 195 -33l-73 -112q-51 14 -104 14q-37 0 -54.5 -7t-17.5 -22q0 -14 16.5 -19.5t54.5 -10.5q55 -8 91.5 -19.5t64 -45t27.5 -96.5
q0 -89 -53.5 -128.5t-173.5 -39.5q-106 0 -196 24zM453 704l-123 -157h-170l-123 157h147l61 -68l61 68h147z" />
    <glyph glyph-name="scedilla" unicode="&#x15f;" horiz-adv-x="489" 
d="M424.5 39.5q-39.5 -39.5 -126.5 -48.5v-24q70 -12 70 -69q0 -47 -36.5 -68.5t-118.5 -21.5q-47 0 -91 12v77q38 -12 67 -12q23 0 33 4t10 13q0 11 -9 14.5t-35 3.5h-8v70q-75 5 -139 22v134q92 -27 181 -27q33 0 47.5 7.5t14.5 23.5t-18 22.5t-57 12.5q-53 8 -89 20
t-63 44.5t-27 93.5q0 84 58.5 124t175.5 40q110 0 195 -33l-73 -112q-51 14 -104 14q-37 0 -54.5 -7t-17.5 -22q0 -14 16.5 -19.5t54.5 -10.5q55 -8 91.5 -19.5t64 -45t27.5 -96.5q0 -77 -39.5 -116.5z" />
    <glyph glyph-name="scircumflex" unicode="&#x15d;" horiz-adv-x="489" 
d="M41 12v134q92 -27 181 -27q33 0 47.5 7.5t14.5 23.5t-18 22.5t-57 12.5q-53 8 -89 20t-63 44.5t-27 93.5q0 84 58.5 124t175.5 40q110 0 195 -33l-73 -112q-51 14 -104 14q-37 0 -54.5 -7t-17.5 -22q0 -14 16.5 -19.5t54.5 -10.5q55 -8 91.5 -19.5t64 -45t27.5 -96.5
q0 -89 -53.5 -128.5t-173.5 -39.5q-106 0 -196 24zM306 547l-61 68l-61 -68h-147l123 157h170l123 -157h-147z" />
    <glyph glyph-name="scommaaccent" unicode="&#x219;" horiz-adv-x="489" 
d="M41 12v134q92 -27 181 -27q33 0 47.5 7.5t14.5 23.5t-18 22.5t-57 12.5q-53 8 -89 20t-63 44.5t-27 93.5q0 84 58.5 124t175.5 40q110 0 195 -33l-73 -112q-51 14 -104 14q-37 0 -54.5 -7t-17.5 -22q0 -14 16.5 -19.5t54.5 -10.5q55 -8 91.5 -19.5t64 -45t27.5 -96.5
q0 -89 -53.5 -128.5t-173.5 -39.5q-106 0 -196 24zM177 -51h153l-65 -159h-123z" />
    <glyph glyph-name="germandbls" unicode="&#xdf;" horiz-adv-x="609" 
d="M562 309.5q28 -45.5 28 -110.5q0 -112 -56 -161.5t-181 -49.5q-40 0 -82 6v136q27 -6 53 -6q51 0 72.5 20.5t21.5 68.5q0 47 -24 68t-78 21h-26v132h18q43 0 62.5 17.5t19.5 55.5t-19 55.5t-62 17.5q-47 0 -68 -25t-21 -81v-474h-169v489q0 120 62.5 173.5t202.5 53.5
q128 0 185 -46t57 -149q0 -54 -19.5 -89t-55.5 -57q51 -20 79 -65.5z" />
    <glyph glyph-name="germandbls.calt" horiz-adv-x="765" 
d="M737 202q0 -113 -65 -163.5t-211 -50.5q-90 0 -168 18v136q78 -18 153 -18q59 0 85 19t26 62q0 44 -29 63t-96 19h-30v110l109 145q-43 6 -89 6q-102 0 -147 -41t-45 -135v-372h-176v387q0 106 37 171t116.5 95.5t207.5 30.5q136 0 290 -26v-112l-112 -149
q144 -34 144 -195z" />
    <glyph glyph-name="longs" unicode="&#x17f;" horiz-adv-x="402" 
d="M427 704v-134q-48 10 -79 10q-35 0 -52 -15t-17 -47v-518h-176v362h-83v133h83v16q0 110 52 157.5t171 47.5q51 0 101 -12z" />
    <glyph glyph-name="t" unicode="t" horiz-adv-x="455" 
d="M286 140q16 -16 52 -16q34 0 72 8v-134q-46 -10 -101 -10q-115 0 -165 46t-50 151v177h-84v133h84v129l176 29v-158h160l-87 -133h-73v-169q0 -37 16 -53z" />
    <glyph glyph-name="tbar" unicode="&#x167;" horiz-adv-x="455" 
d="M286 135q16 -16 52 -16q34 0 72 8v-129q-46 -10 -101 -10q-115 0 -165 46t-50 151v7h-74v111h74v65h-84v127h84v129l176 29v-158h160l-83 -127h-77v-65h110v-111h-110v-4q0 -37 16 -53z" />
    <glyph glyph-name="tcaron" unicode="&#x165;" horiz-adv-x="455" 
d="M416 546h-118l39 158h147zM270 362v-169q0 -37 16 -53t52 -16q34 0 72 8v-134q-46 -10 -101 -10q-115 0 -165 46t-50 151v177h-84v133h84v129l176 29v-158h160l-87 -133h-73z" />
    <glyph glyph-name="uni0163" unicode="&#x163;" horiz-adv-x="455" 
d="M286 140q16 -16 52 -16q34 0 72 8v-134q-46 -10 -101 -10q-115 0 -165 46t-50 151v177h-84v133h84v129l176 29v-158h160l-87 -133h-73v-169q0 -37 16 -53zM210 -51h153l-65 -159h-123z" />
    <glyph glyph-name="uni021B" unicode="&#x21b;" horiz-adv-x="455" 
d="M286 140q16 -16 52 -16q34 0 72 8v-134q-46 -10 -101 -10q-115 0 -165 46t-50 151v177h-84v133h84v129l176 29v-158h160l-87 -133h-73v-169q0 -37 16 -53zM210 -51h153l-65 -159h-123z" />
    <glyph glyph-name="u" unicode="u" horiz-adv-x="602" 
d="M104 37q-60 49 -60 161v297h176v-283q0 -47 19 -67.5t62 -20.5t62 20.5t19 67.5v283h176v-297q0 -112 -60 -161t-197 -49t-197 49z" />
    <glyph glyph-name="uacute" unicode="&#xfa;" horiz-adv-x="602" 
d="M104 37q-60 49 -60 161v297h176v-283q0 -47 19 -67.5t62 -20.5t62 20.5t19 67.5v283h176v-297q0 -112 -60 -161t-197 -49t-197 49zM328 704h180l-153 -157h-151z" />
    <glyph glyph-name="ubreve" unicode="&#x16d;" horiz-adv-x="602" 
d="M104 37q-60 49 -60 161v297h176v-283q0 -47 19 -67.5t62 -20.5t62 20.5t19 67.5v283h176v-297q0 -112 -60 -161t-197 -49t-197 49zM161.5 575q-43.5 40 -43.5 129h122q0 -29 14.5 -42t46.5 -13t46.5 13t14.5 42h122q0 -89 -43.5 -129t-139.5 -40t-139.5 40z" />
    <glyph glyph-name="ucircumflex" unicode="&#xfb;" horiz-adv-x="602" 
d="M104 37q-60 49 -60 161v297h176v-283q0 -47 19 -67.5t62 -20.5t62 20.5t19 67.5v283h176v-297q0 -112 -60 -161t-197 -49t-197 49zM362 547l-61 68l-61 -68h-147l123 157h170l123 -157h-147z" />
    <glyph glyph-name="udieresis" unicode="&#xfc;" horiz-adv-x="602" 
d="M104 37q-60 49 -60 161v297h176v-283q0 -47 19 -67.5t62 -20.5t62 20.5t19 67.5v283h176v-297q0 -112 -60 -161t-197 -49t-197 49zM110 554.5q-22 21.5 -22 70.5q0 50 22 71.5t74 21.5q51 0 73.5 -22t22.5 -71t-22.5 -70.5t-73.5 -21.5q-52 0 -74 21.5zM344.5 554.5
q-22.5 21.5 -22.5 70.5t22.5 71t73.5 22q52 0 74 -21.5t22 -71.5q0 -49 -22 -70.5t-74 -21.5q-51 0 -73.5 21.5z" />
    <glyph glyph-name="ugrave" unicode="&#xf9;" horiz-adv-x="602" 
d="M104 37q-60 49 -60 161v297h176v-283q0 -47 19 -67.5t62 -20.5t62 20.5t19 67.5v283h176v-297q0 -112 -60 -161t-197 -49t-197 49zM94 704h180l124 -157h-151z" />
    <glyph glyph-name="uhungarumlaut" unicode="&#x171;" horiz-adv-x="602" 
d="M104 37q-60 49 -60 161v297h176v-283q0 -47 19 -67.5t62 -20.5t62 20.5t19 67.5v283h176v-297q0 -112 -60 -161t-197 -49t-197 49zM211 704h180l-149 -157h-155zM445 704h180l-149 -157h-155z" />
    <glyph glyph-name="umacron" unicode="&#x16b;" horiz-adv-x="602" 
d="M104 37q-60 49 -60 161v297h176v-283q0 -47 19 -67.5t62 -20.5t62 20.5t19 67.5v283h176v-297q0 -112 -60 -161t-197 -49t-197 49zM129 684h344v-117h-344v117z" />
    <glyph glyph-name="uogonek" unicode="&#x173;" horiz-adv-x="602" 
d="M200 -115q0 61 65 103q-10 0 -38 4q-95 14 -139 62.5t-44 144.5v296h176v-283q0 -47 19 -67.5t62 -20.5t62 20.5t19 67.5v283h176v-297q0 -77 -29 -121.5t-103 -83.5q-44 -23 -62 -38.5t-18 -31.5q0 -19 26 -19q13 0 33 5v-84q-48 -12 -96 -12q-109 0 -109 72z" />
    <glyph glyph-name="uring" unicode="&#x16f;" horiz-adv-x="602" 
d="M104 37q-60 49 -60 161v297h176v-283q0 -47 19 -67.5t62 -20.5t62 20.5t19 67.5v283h176v-297q0 -112 -60 -161t-197 -49t-197 49zM200.5 541.5q-30.5 25.5 -30.5 83.5q0 59 30.5 84.5t100.5 25.5t100.5 -25.5t30.5 -84.5q0 -58 -30.5 -83.5t-100.5 -25.5t-100.5 25.5z
M330.5 596q9.5 9 9.5 29q0 21 -9.5 30t-29.5 9t-29.5 -9t-9.5 -30q0 -20 9.5 -29t29.5 -9t29.5 9z" />
    <glyph glyph-name="utilde" unicode="&#x169;" horiz-adv-x="602" 
d="M104 37q-60 49 -60 161v297h176v-283q0 -47 19 -67.5t62 -20.5t62 20.5t19 67.5v283h176v-297q0 -112 -60 -161t-197 -49t-197 49zM118 564q0 71 27.5 102.5t91.5 31.5q22 0 38.5 -5.5t36.5 -15.5q3 -1 12 -5.5t16 -4.5q12 0 17.5 7.5t5.5 23.5v5h121v-16
q0 -71 -27.5 -102.5t-91.5 -31.5q-22 0 -38.5 5.5t-36.5 15.5q-3 1 -12 5.5t-16 4.5q-12 0 -17.5 -7.5t-5.5 -23.5v-5h-121v16z" />
    <glyph glyph-name="v" unicode="v" horiz-adv-x="556" 
d="M558 495l-184 -495h-191l-185 495h184l96 -319l97 319h183z" />
    <glyph glyph-name="w" unicode="w" horiz-adv-x="829" 
d="M824 495l-146 -495h-198l-65 209l-70 -209h-194l-146 495h170l82 -320l89 255l-20 65h166l81 -318l81 318h170z" />
    <glyph glyph-name="wacute" unicode="&#x1e83;" horiz-adv-x="829" 
d="M824 495l-146 -495h-198l-65 209l-70 -209h-194l-146 495h170l82 -320l89 255l-20 65h166l81 -318l81 318h170zM444 704h180l-153 -157h-151z" />
    <glyph glyph-name="wcircumflex" unicode="&#x175;" horiz-adv-x="829" 
d="M824 495l-146 -495h-198l-65 209l-70 -209h-194l-146 495h170l82 -320l89 255l-20 65h166l81 -318l81 318h170zM478 547l-61 68l-61 -68h-147l123 157h170l123 -157h-147z" />
    <glyph glyph-name="wdieresis" unicode="&#x1e85;" horiz-adv-x="829" 
d="M824 495l-146 -495h-198l-65 209l-70 -209h-194l-146 495h170l82 -320l89 255l-20 65h166l81 -318l81 318h170zM226 554.5q-22 21.5 -22 70.5q0 50 22 71.5t74 21.5q51 0 73.5 -22t22.5 -71t-22.5 -70.5t-73.5 -21.5q-52 0 -74 21.5zM460.5 554.5q-22.5 21.5 -22.5 70.5
t22.5 71t73.5 22q52 0 74 -21.5t22 -71.5q0 -49 -22 -70.5t-74 -21.5q-51 0 -73.5 21.5z" />
    <glyph glyph-name="wgrave" unicode="&#x1e81;" horiz-adv-x="829" 
d="M824 495l-146 -495h-198l-65 209l-70 -209h-194l-146 495h170l82 -320l89 255l-20 65h166l81 -318l81 318h170zM210 704h180l124 -157h-151z" />
    <glyph glyph-name="x" unicode="x" horiz-adv-x="564" 
d="M364 0l-82 145l-82 -145h-190l162 251l-156 244h190l76 -136l76 136h190l-156 -244l162 -251h-190z" />
    <glyph glyph-name="y" unicode="y" horiz-adv-x="557" 
d="M559 495l-165 -489q-26 -77 -60.5 -119t-76 -58t-95.5 -16q-25 0 -52.5 4.5t-49.5 12.5v132q42 -19 88 -19q33 0 55.5 12.5t35.5 44.5h-41l-200 495h184l112 -322l82 322h183z" />
    <glyph glyph-name="yacute" unicode="&#xfd;" horiz-adv-x="557" 
d="M559 495l-165 -489q-26 -77 -60.5 -119t-76 -58t-95.5 -16q-25 0 -52.5 4.5t-49.5 12.5v132q42 -19 88 -19q33 0 55.5 12.5t35.5 44.5h-41l-200 495h184l112 -322l82 322h183zM301 704h180l-153 -157h-151z" />
    <glyph glyph-name="ycircumflex" unicode="&#x177;" horiz-adv-x="557" 
d="M559 495l-165 -489q-26 -77 -60.5 -119t-76 -58t-95.5 -16q-25 0 -52.5 4.5t-49.5 12.5v132q42 -19 88 -19q33 0 55.5 12.5t35.5 44.5h-41l-200 495h184l112 -322l82 322h183zM335 547l-61 68l-61 -68h-147l123 157h170l123 -157h-147z" />
    <glyph glyph-name="ydieresis" unicode="&#xff;" horiz-adv-x="557" 
d="M559 495l-165 -489q-26 -77 -60.5 -119t-76 -58t-95.5 -16q-25 0 -52.5 4.5t-49.5 12.5v132q42 -19 88 -19q33 0 55.5 12.5t35.5 44.5h-41l-200 495h184l112 -322l82 322h183zM83 554.5q-22 21.5 -22 70.5q0 50 22 71.5t74 21.5q51 0 73.5 -22t22.5 -71t-22.5 -70.5
t-73.5 -21.5q-52 0 -74 21.5zM317.5 554.5q-22.5 21.5 -22.5 70.5t22.5 71t73.5 22q52 0 74 -21.5t22 -71.5q0 -49 -22 -70.5t-74 -21.5q-51 0 -73.5 21.5z" />
    <glyph glyph-name="ygrave" unicode="&#x1ef3;" horiz-adv-x="557" 
d="M559 495l-165 -489q-26 -77 -60.5 -119t-76 -58t-95.5 -16q-25 0 -52.5 4.5t-49.5 12.5v132q42 -19 88 -19q33 0 55.5 12.5t35.5 44.5h-41l-200 495h184l112 -322l82 322h183zM67 704h180l124 -157h-151z" />
    <glyph glyph-name="z" unicode="z" horiz-adv-x="508" 
d="M481 132v-132h-454v118l226 244h-218v133h438v-118l-226 -245h234z" />
    <glyph glyph-name="zacute" unicode="&#x17a;" horiz-adv-x="508" 
d="M481 132v-132h-454v118l226 244h-218v133h438v-118l-226 -245h234zM281 704h180l-153 -157h-151z" />
    <glyph glyph-name="zacute.loclPLK" horiz-adv-x="508" 
d="M481 132v-132h-454v118l226 244h-218v133h438v-118l-226 -245h234zM245 704h163l-74 -157h-147z" />
    <glyph glyph-name="zcaron" unicode="&#x17e;" horiz-adv-x="508" 
d="M481 132v-132h-454v118l226 244h-218v133h438v-118l-226 -245h234zM462 704l-123 -157h-170l-123 157h147l61 -68l61 68h147z" />
    <glyph glyph-name="zdotaccent" unicode="&#x17c;" horiz-adv-x="508" 
d="M481 132v-132h-454v118l226 244h-218v133h438v-118l-226 -245h234zM180 554.5q-22 21.5 -22 70.5q0 50 22 71.5t74 21.5t74 -21.5t22 -71.5q0 -49 -22 -70.5t-74 -21.5t-74 21.5z" />
    <glyph glyph-name="ordfeminine" unicode="&#xaa;" horiz-adv-x="463" 
d="M410 444v-92q-15 -7 -29 -10t-37 -3q-29 0 -47 8t-28 24q-36 -34 -95 -34q-70 0 -101 25t-31 81q0 53 36 77t118 24h55v2q0 23 -16.5 32.5t-54.5 9.5q-46 0 -104 -14v90q61 16 120 16q94 0 135 -33.5t41 -110.5v-70q0 -14 5.5 -19t17.5 -5q7 0 15 2zM239.5 431.5
q11.5 7.5 11.5 26.5v10h-44q-42 0 -42 -22q0 -12 8.5 -17t27.5 -5q27 0 38.5 7.5zM49 299h358v-100h-358v100z" />
    <glyph glyph-name="ordmasculine" unicode="&#xba;" horiz-adv-x="424" 
d="M70 377.5q-44 40.5 -44 131.5t44 131t142 40t142 -40t44 -131t-44 -131.5t-142 -40.5t-142 40.5zM255 454q13 17 13 55t-13 55t-43 17q-29 0 -42 -17t-13 -55t13 -55t42 -17q30 0 43 17zM33 299h358v-100h-358v100z" />
    <glyph glyph-name="uni0394" unicode="&#x394;" horiz-adv-x="714" 
d="M688 117v-117h-662v117l228 555h206zM210 140h294l-147 371z" />
    <glyph glyph-name="uni03A9" unicode="&#x3a9;" horiz-adv-x="763" 
d="M746 140v-140h-321v132q58 37 85.5 91t27.5 130q0 100 -36.5 144t-119.5 44t-120 -44t-37 -144q0 -76 27.5 -130t85.5 -91v-132h-321v140h129q-53 49 -78.5 108t-25.5 135q0 107 35 173t109.5 97t195.5 31t195 -31t109 -97t35 -173q0 -77 -25 -135.5t-79 -107.5h129z" />
    <glyph glyph-name="uni03BC" unicode="&#x3bc;" horiz-adv-x="602" 
d="M558 495v-495h-133l-14 40q-46 -48 -118 -48q-44 0 -73 11v-211h-176v703h176v-283q0 -44 18 -64t59 -20q44 0 64.5 21.5t20.5 70.5v275h176z" />
    <glyph glyph-name="pi" unicode="&#x3c0;" horiz-adv-x="802" 
d="M209 15.5q-85 48.5 -133 132.5t-48 188t48 188t133 132.5t192 48.5t192 -48.5t133 -133t48 -187.5t-48 -187.5t-133 -133t-192 -48.5t-192 48.5zM334 100q-4 28 -4 52q0 63 20.5 121t62.5 102l91 -119q-1 173 16 344q-10 1 -31 1q-88 0 -180 -22.5t-158 -64.5l110 -32
q-29 -38 -43 -85.5t-14 -98.5q0 -54 16.5 -106t49 -89.5t76.5 -48.5q-8 18 -12 46z" />
    <glyph glyph-name="zero" unicode="0" horiz-adv-x="637" 
d="M151.5 24q-63.5 36 -93.5 112t-30 200t30 200t93.5 112t167.5 36q103 0 166.5 -36t93.5 -112t30 -200t-30 -200t-93.5 -112t-166.5 -36q-104 0 -167.5 36zM404 179q26 48 26 157t-26 157t-85 48t-85.5 -48t-26.5 -157t26.5 -157t85.5 -48t85 48z" />
    <glyph glyph-name="one" unicode="1" horiz-adv-x="402" 
d="M332 672v-672h-176v518l-126 -53v140l163 67h139z" />
    <glyph glyph-name="two" unicode="2" horiz-adv-x="529" 
d="M245 140h244v-140h-474v125l223 208q35 33 53 64.5t18 64.5q0 40 -24 59.5t-77 19.5q-85 0 -176 -30v143q96 30 205 30q132 0 192 -50t60 -159q0 -106 -97 -197z" />
    <glyph glyph-name="three" unicode="3" horiz-adv-x="552" 
d="M507 182q0 -103 -70.5 -148.5t-229.5 -45.5q-100 0 -182 26v138q81 -28 167 -28q71 0 103 19t32 57q0 40 -38 59t-115 19h-38v117h38q76 0 112 18t36 59q0 40 -30.5 58t-99.5 18q-86 0 -167 -28v138q82 26 182 26q156 0 225.5 -45.5t69.5 -148.5q0 -113 -111 -154
q116 -39 116 -154z" />
    <glyph glyph-name="four" unicode="4" horiz-adv-x="617" 
d="M597 131h-82v-131h-162v131h-328v125l271 416h176l-266 -409h147v155h162v-155h82v-132z" />
    <glyph glyph-name="five" unicode="5" horiz-adv-x="550" 
d="M461.5 369.5q58.5 -50.5 58.5 -163.5q0 -78 -30.5 -125.5t-96 -70t-172.5 -22.5q-99 0 -181 26v138q80 -28 167 -28q71 0 102.5 20t31.5 65q0 46 -33.5 66t-108.5 20q-66 0 -143 -8v385h472l-85 -132h-225v-123q25 3 54 3q131 0 189.5 -50.5z" />
    <glyph glyph-name="six" unicode="6" horiz-adv-x="598" 
d="M512 396.5q56 -52.5 56 -170.5q0 -126 -61 -182t-199 -56q-95 0 -154 32.5t-86.5 102t-27.5 181.5q0 136 33.5 219t105 122t187.5 39q101 0 179 -32l-76 -117q-43 13 -90 13q-81 0 -119.5 -30.5t-46.5 -97.5q46 29 118 29q125 0 181 -52.5zM377 147q23 23 23 75
q0 49 -21.5 71.5t-69.5 22.5q-50 0 -72.5 -22.5t-22.5 -69.5q0 -53 21.5 -76.5t68.5 -23.5q50 0 73 23z" />
    <glyph glyph-name="seven" unicode="7" horiz-adv-x="489" 
d="M479 672v-118l-250 -554h-176l242 532h-295v140h479z" />
    <glyph glyph-name="eight" unicode="8" horiz-adv-x="619" 
d="M555.5 287.5q28.5 -38.5 28.5 -101.5q0 -105 -64.5 -151.5t-209.5 -46.5q-146 0 -210.5 46.5t-64.5 151.5q0 62 28.5 101t88.5 57q-52 17 -76.5 54t-24.5 96q0 101 60.5 145.5t198.5 44.5q137 0 197.5 -44.5t60.5 -145.5q0 -59 -24.5 -96t-76.5 -54q60 -18 88.5 -56.5z
M240.5 536.5q-21.5 -15.5 -21.5 -49.5q0 -33 21 -51t70 -26q48 8 69 26t21 51q0 34 -21 49.5t-69 15.5t-69.5 -15.5zM388 137.5q24 17.5 24 55.5q0 36 -23.5 56t-78.5 29q-55 -9 -79 -29t-24 -56q0 -38 24 -55.5t79 -17.5q54 0 78 17.5z" />
    <glyph glyph-name="nine" unicode="9" horiz-adv-x="603" 
d="M449 651.5q59 -32.5 86.5 -102t27.5 -181.5q0 -135 -33.5 -218.5t-104.5 -122.5t-186 -39q-90 0 -165 22v136q80 -22 150 -22q81 0 119.5 30.5t46.5 97.5q-46 -29 -118 -29q-125 0 -181 52.5t-56 170.5q0 126 61 182t199 56q95 0 154 -32.5zM366.5 378.5
q22.5 22.5 22.5 69.5q0 52 -21.5 76t-68.5 24q-50 0 -73 -23t-23 -75q0 -49 21.5 -71.5t69.5 -22.5q50 0 72.5 22.5z" />
    <glyph glyph-name="uni00B9" unicode="&#xb9;" horiz-adv-x="295" 
d="M245 800v-416h-127v303l-93 -39v102l120 50h100z" />
    <glyph glyph-name="uni00B2" unicode="&#xb2;" horiz-adv-x="354" 
d="M324 485v-101h-304v89l134 121q39 35 39 64q0 25 -12.5 36t-40.5 11q-51 0 -110 -18v103q61 18 132 18q85 0 123 -31.5t38 -102.5q0 -31 -16 -62t-44 -56l-77 -71h138z" />
    <glyph glyph-name="uni00B3" unicode="&#xb3;" horiz-adv-x="349" 
d="M329 497q0 -58 -47.5 -89.5t-143.5 -31.5q-34 0 -60.5 3.5t-57.5 12.5v98q31 -8 52.5 -11.5t46.5 -3.5q80 0 80 38q0 21 -21.5 30t-65.5 9h-26v80h26q42 0 62 9t20 30q0 38 -75 38q-25 0 -46.5 -3.5t-52.5 -11.5v98q31 9 57.5 12.5t60.5 3.5q94 0 140 -31.5t46 -89.5
q0 -68 -65 -95q70 -26 70 -95z" />
    <glyph glyph-name="fraction" unicode="&#x2044;" horiz-adv-x="128" 
d="M162 672h106l-302 -672h-106z" />
    <glyph glyph-name="onehalf" unicode="&#xbd;" horiz-adv-x="864" 
d="M154 256v303l-93 -39v102l120 50h100v-416h-127zM636 672l-302 -672h-106l302 672h106zM827 101v-101h-304v89l134 121q39 35 39 64q0 25 -12.5 36t-40.5 11q-51 0 -110 -18v103q62 18 132 18q85 0 123 -31.5t38 -102.5q0 -31 -16 -62t-44 -56l-77 -71h138z" />
    <glyph glyph-name="onequarter" unicode="&#xbc;" horiz-adv-x="864" 
d="M154 256v303l-93 -39v102l120 50h100v-416h-127zM636 672l-302 -672h-106l302 672h106zM860 77h-47v-77h-115v77h-206v90l162 249h122l-160 -247h82v86h115v-86h47v-92z" />
    <glyph glyph-name="threequarters" unicode="&#xbe;" horiz-adv-x="864" 
d="M288.5 279.5q-47.5 -31.5 -143.5 -31.5q-34 0 -60.5 3.5t-57.5 12.5v98q31 -8 52.5 -11.5t46.5 -3.5q80 0 80 38q0 21 -21.5 30t-65.5 9h-26v80h26q42 0 62 9t20 30q0 38 -75 38q-25 0 -46.5 -3.5t-52.5 -11.5v98q31 9 57.5 12.5t60.5 3.5q94 0 140 -31.5t46 -89.5
q0 -68 -65 -95q70 -26 70 -95q0 -58 -47.5 -89.5zM636 672l-302 -672h-106l302 672h106zM860 77h-47v-77h-115v77h-206v90l162 249h122l-160 -247h82v86h115v-86h47v-92z" />
    <glyph glyph-name="asterisk" unicode="*" horiz-adv-x="506" 
d="M84 333l73 101l-119 39l37 112l119 -39v126h118v-126l119 39l37 -112l-119 -39l73 -101l-96 -69l-73 101l-73 -101z" />
    <glyph glyph-name="backslash" unicode="\" horiz-adv-x="383" 
d="M229 0l-229 672h154l229 -672h-154z" />
    <glyph glyph-name="periodcentered" unicode="&#xb7;" horiz-adv-x="266" 
d="M53.5 175q-24.5 24 -24.5 77t24.5 76.5t79.5 23.5t79.5 -23.5t24.5 -76.5t-24.5 -77t-79.5 -24t-79.5 24z" />
    <glyph glyph-name="bullet" unicode="&#x2022;" horiz-adv-x="480" 
d="M137 184.5q-41 40.5 -41 103.5t41 103.5t103 40.5t103 -40.5t41 -103.5t-41 -103.5t-103 -40.5t-103 40.5z" />
    <glyph glyph-name="colon" unicode=":" horiz-adv-x="282" 
d="M61.5 12q-24.5 24 -24.5 77t24.5 76.5t79.5 23.5t79.5 -23.5t24.5 -76.5t-24.5 -77t-79.5 -24t-79.5 24zM61.5 329q-24.5 24 -24.5 77t24.5 76.5t79.5 23.5t79.5 -23.5t24.5 -76.5t-24.5 -77t-79.5 -24t-79.5 24z" />
    <glyph glyph-name="comma" unicode="," horiz-adv-x="266" 
d="M61 135h176l-93 -279h-140z" />
    <glyph glyph-name="ellipsis" unicode="&#x2026;" horiz-adv-x="864" 
d="M64.5 12q-24.5 24 -24.5 77t24.5 76.5t79.5 23.5t79.5 -23.5t24.5 -76.5t-24.5 -77t-79.5 -24t-79.5 24zM352.5 12q-24.5 24 -24.5 77t24.5 76.5t79.5 23.5t79.5 -23.5t24.5 -76.5t-24.5 -77t-79.5 -24t-79.5 24zM640.5 12q-24.5 24 -24.5 77t24.5 76.5t79.5 23.5
t79.5 -23.5t24.5 -76.5t-24.5 -77t-79.5 -24t-79.5 24z" />
    <glyph glyph-name="exclam" unicode="!" horiz-adv-x="284" 
d="M54 672h176l-7 -451h-162zM64 11.5q-24 23.5 -24 75.5t24 75t78 23t78 -23t24 -75t-24 -75.5t-78 -23.5t-78 23.5z" />
    <glyph glyph-name="exclamdown" unicode="&#xa1;" horiz-adv-x="284" 
d="M64 332.5q-24 23.5 -24 75.5t24 75t78 23t78 -23t24 -75t-24 -75.5t-78 -23.5t-78 23.5zM61 273h162l7 -448h-176z" />
    <glyph glyph-name="numbersign" unicode="#" horiz-adv-x="669" 
d="M552 412l-19 -152h87v-118h-101l-18 -142h-132l18 142h-152l-18 -142h-132l18 142h-87v118h102l19 152h-88v118h102l18 142h132l-18 -142h151l18 142h132l-18 -142h87v-118h-101zM420 412h-151l-19 -152h151z" />
    <glyph glyph-name="period" unicode="." horiz-adv-x="266" 
d="M53.5 12q-24.5 24 -24.5 77t24.5 76.5t79.5 23.5t79.5 -23.5t24.5 -76.5t-24.5 -77t-79.5 -24t-79.5 24z" />
    <glyph glyph-name="question" unicode="?" horiz-adv-x="461" 
d="M117 244q0 49 14 82.5t33.5 53t48.5 41.5q25 18 37 31t12 32q0 34 -20 49t-65 15q-69 0 -159 -28v136q89 28 181 28q129 0 185.5 -43.5t56.5 -141.5q0 -46 -15 -78.5t-36.5 -52.5t-55.5 -45q-37 -27 -53.5 -46t-16.5 -48v-8h-147v23zM112.5 11q-23.5 23 -23.5 76
q0 52 23.5 75t78.5 23q54 0 78 -23t24 -75t-24 -75.5t-78 -23.5q-55 0 -78.5 23z" />
    <glyph glyph-name="questiondown" unicode="&#xbf;" horiz-adv-x="429" 
d="M192.5 332q-23.5 23 -23.5 76q0 52 23.5 75t78.5 23q54 0 78 -23t24 -75t-24 -75.5t-78 -23.5q-55 0 -78.5 23zM77 -144q-57 43 -57 141q0 45 15 77.5t36.5 52.5t54.5 44q36 26 53.5 45.5t17.5 48.5v8h147v-22q0 -49 -14 -82.5t-33 -52.5t-49 -41q-26 -19 -37.5 -32
t-11.5 -32q0 -33 20 -47.5t65 -14.5q74 0 159 28v-137q-85 -27 -180 -27q-129 0 -186 43z" />
    <glyph glyph-name="quotedbl" unicode="&#x22;" horiz-adv-x="501" 
d="M60 672h147v-279h-147v279zM294 672h147v-279h-147v279z" />
    <glyph glyph-name="quotesingle" unicode="'" horiz-adv-x="267" 
d="M60 672h147v-279h-147v279z" />
    <glyph glyph-name="semicolon" unicode=";" horiz-adv-x="282" 
d="M69 135h176l-93 -279h-140zM61.5 329q-24.5 24 -24.5 77t24.5 76.5t79.5 23.5t79.5 -23.5t24.5 -76.5t-24.5 -77t-79.5 -24t-79.5 24z" />
    <glyph glyph-name="slash" unicode="/" horiz-adv-x="383" 
d="M229 672h154l-229 -672h-154z" />
    <glyph glyph-name="underscore" unicode="_" horiz-adv-x="480" 
d="M0 -62h480v-132h-480v132z" />
    <glyph glyph-name="braceleft" unicode="{" horiz-adv-x="346" 
d="M167 288q79 -20 79 -119v-97q0 -37 15.5 -52.5t51.5 -15.5h16v-132h-45q-106 0 -153 45.5t-47 147.5v89q0 37 -15.5 52.5t-51.5 15.5h-16v132h16q36 0 51.5 15.5t15.5 52.5v89q0 102 47 147.5t153 45.5h45v-132h-16q-36 0 -51.5 -15.5t-15.5 -52.5v-97q0 -99 -79 -119z
" />
    <glyph glyph-name="braceright" unicode="}" horiz-adv-x="346" 
d="M345 354v-132h-16q-36 0 -51.5 -15.5t-15.5 -52.5v-89q0 -102 -47 -147.5t-153 -45.5h-45v132h16q36 0 51.5 15.5t15.5 52.5v97q0 99 79 119q-79 20 -79 119v97q0 37 -15.5 52.5t-51.5 15.5h-16v132h45q106 0 153 -45.5t47 -147.5v-89q0 -37 15.5 -52.5t51.5 -15.5h16z
" />
    <glyph glyph-name="bracketleft" unicode="[" horiz-adv-x="346" 
d="M230 572v-568h99v-132h-261v832h261v-132h-99z" />
    <glyph glyph-name="bracketright" unicode="]" horiz-adv-x="346" 
d="M278 704v-832h-261v132h99v568h-99v132h261z" />
    <glyph glyph-name="parenleft" unicode="(" horiz-adv-x="346" 
d="M52 288q0 243 121 416h170q-126 -180 -126 -416t126 -416h-170q-121 173 -121 416z" />
    <glyph glyph-name="parenright" unicode=")" horiz-adv-x="346" 
d="M294 288q0 -243 -121 -416h-170q126 180 126 416t-126 416h170q121 -173 121 -416z" />
    <glyph glyph-name="emdash" unicode="&#x2014;" horiz-adv-x="864" 
d="M17 317h830v-132h-830v132z" />
    <glyph glyph-name="endash" unicode="&#x2013;" horiz-adv-x="576" 
d="M17 317h542v-132h-542v132z" />
    <glyph glyph-name="hyphen" unicode="-" horiz-adv-x="320" 
d="M17 317h286v-132h-286v132z" />
    <glyph glyph-name="uni00AD" unicode="&#xad;" horiz-adv-x="320" 
d="M17 317h286v-132h-286v132z" />
    <glyph glyph-name="guillemotleft" unicode="&#xab;" horiz-adv-x="583" 
d="M181 247l122 -206h-162l-137 206l137 206h162zM450 247l122 -206h-162l-137 206l137 206h162z" />
    <glyph glyph-name="guillemotright" unicode="&#xbb;" horiz-adv-x="583" 
d="M310 247l-137 -206h-162l122 206l-122 206h162zM579 247l-137 -206h-162l122 206l-122 206h162z" />
    <glyph glyph-name="guilsinglleft" unicode="&#x2039;" horiz-adv-x="314" 
d="M181 247l122 -206h-162l-137 206l137 206h162z" />
    <glyph glyph-name="guilsinglright" unicode="&#x203a;" horiz-adv-x="314" 
d="M310 247l-137 -206h-162l122 206l-122 206h162z" />
    <glyph glyph-name="quotedblbase" unicode="&#x201e;" horiz-adv-x="500" 
d="M61 135h176l-93 -279h-140zM295 135h176l-93 -279h-140z" />
    <glyph glyph-name="quotedblleft" unicode="&#x201c;" horiz-adv-x="500" 
d="M189 393h-176l93 279h140zM423 393h-176l93 279h140z" />
    <glyph glyph-name="quotedblright" unicode="&#x201d;" horiz-adv-x="500" 
d="M77 672h176l-93 -279h-140zM311 672h176l-93 -279h-140z" />
    <glyph glyph-name="quoteleft" unicode="&#x2018;" horiz-adv-x="266" 
d="M106 672h140l-56 -279h-177z" />
    <glyph glyph-name="quoteright" unicode="&#x2019;" horiz-adv-x="266" 
d="M77 672h176l-93 -279h-140z" />
    <glyph glyph-name="quotesinglbase" unicode="&#x201a;" horiz-adv-x="266" 
d="M61 135h176l-93 -279h-140z" />
    <glyph glyph-name="uni2003" unicode="&#x2003;" horiz-adv-x="864" 
 />
    <glyph glyph-name="uni2002" unicode="&#x2002;" horiz-adv-x="576" 
 />
    <glyph glyph-name="uni200A" unicode="&#x200a;" horiz-adv-x="54" 
 />
    <glyph glyph-name="uni00A0" unicode="&#xa0;" horiz-adv-x="224" 
 />
    <glyph glyph-name="uni2009" unicode="&#x2009;" horiz-adv-x="173" 
 />
    <glyph glyph-name="cent" unicode="&#xa2;" horiz-adv-x="508" 
d="M242 242q29 -29 94 -29q66 0 135 20v-136q-51 -14 -104 -18v-166h-161v173q-90 19 -131.5 79t-41.5 171t41.5 171.5t131.5 79.5v172h161v-167q63 -6 113 -27l-75 -116q-42 11 -69 11q-65 0 -94 -29.5t-29 -94.5t29 -94z" />
    <glyph glyph-name="currency" unicode="&#xa4;" horiz-adv-x="576" 
d="M490 237l74 -74l-103 -103l-74 74q-38 -14 -99 -14t-99 14l-74 -74l-103 103l74 74q-14 38 -14 99t14 99l-74 74l103 103l74 -74q38 14 99 14t99 -14l74 74l103 -103l-74 -74q14 -38 14 -99t-14 -99zM227 275q19 -19 61 -19t61 19t19 61t-19 61t-61 19t-61 -19t-19 -61
t19 -61z" />
    <glyph glyph-name="dollar" unicode="$" horiz-adv-x="572" 
d="M499 84.5q-42 -45.5 -132 -58.5v-170h-162v167q-82 6 -159 29v138q109 -34 217 -34q51 0 71 13t20 44q0 25 -25.5 36t-79.5 20q-65 12 -108 27.5t-74.5 54.5t-31.5 109q0 83 41 128t129 58v170h162v-167q84 -6 158 -33l-78 -120q-64 20 -128 20q-56 0 -76.5 -11.5
t-20.5 -40.5q0 -23 23.5 -32.5t77.5 -19.5q66 -11 109.5 -26.5t76 -56t32.5 -113.5q0 -86 -42 -131.5z" />
    <glyph glyph-name="Euro" unicode="&#x20ac;" horiz-adv-x="573" 
d="M324 140q34 -23 97 -23q64 0 136 20v-129q-75 -20 -158 -20q-140 0 -212 54.5t-93 168.5h-61v103h50v56h-50v103h63q24 109 98 160t205 51q44 0 91 -6.5t85 -20.5l-72 -111q-32 9 -72 9q-63 0 -98.5 -20t-52.5 -62h195v-103h-212v-56h212v-103h-199q14 -48 48 -71z" />
    <glyph glyph-name="florin" unicode="&#x192;" horiz-adv-x="496" 
d="M332 431h100v-133h-100v-113q0 -104 -48.5 -150.5t-157.5 -46.5q-49 0 -86 8v134q27 -6 53 -6q32 0 47.5 15t15.5 46v113h-93v133h93v56q0 104 49 150.5t159 46.5q73 0 132 -22l-77 -118q-20 4 -31 4q-29 0 -42.5 -14.5t-13.5 -46.5v-56z" />
    <glyph glyph-name="sterling" unicode="&#xa3;" horiz-adv-x="524" 
d="M291 136h216v-136h-480v136h81v140h-66v132h66v36q0 125 62 182.5t195 57.5q88 0 159 -29l-76 -118q-27 7 -54 7q-55 0 -79 -25t-24 -82v-29h159v-132h-159v-140z" />
    <glyph glyph-name="yen" unicode="&#xa5;" horiz-adv-x="626" 
d="M452 364h82v-103h-129v-56h129v-103h-129v-102h-184v102h-129v103h129v56h-129v103h82l-189 308h198l130 -235l130 235h198z" />
    <glyph glyph-name="dotmath" unicode="&#x22c5;" horiz-adv-x="266" 
d="M53.5 175q-24.5 24 -24.5 77t24.5 76.5t79.5 23.5t79.5 -23.5t24.5 -76.5t-24.5 -77t-79.5 -24t-79.5 24z" />
    <glyph glyph-name="plus" unicode="+" horiz-adv-x="576" 
d="M511 215h-150v-150h-146v150h-150v146h150v150h146v-150h150v-146z" />
    <glyph glyph-name="minus" unicode="&#x2212;" horiz-adv-x="576" 
d="M65 361h446v-146h-446v146z" />
    <glyph glyph-name="multiply" unicode="&#xd7;" horiz-adv-x="576" 
d="M391 288l129 -129l-103 -103l-129 129l-129 -129l-103 103l129 129l-129 129l103 103l129 -129l129 129l103 -103z" />
    <glyph glyph-name="divide" unicode="&#xf7;" horiz-adv-x="576" 
d="M220 399q-21 20 -21 65t21 65t68 20t68 -20t21 -65t-21 -65t-68 -20t-68 20zM65 354h446v-132h-446v132zM220 47q-21 20 -21 65t21 65t68 20t68 -20t21 -65t-21 -65t-68 -20t-68 20z" />
    <glyph glyph-name="equal" unicode="=" horiz-adv-x="576" 
d="M65 479h446v-147h-446v147zM65 244h446v-147h-446v147z" />
    <glyph glyph-name="notequal" unicode="&#x2260;" horiz-adv-x="576" 
d="M380 332l-30 -88h161v-147h-210l-32 -97h-154l32 97h-82v147h131l30 88h-161v147h210l32 97h154l-32 -97h82v-147h-131z" />
    <glyph glyph-name="greater" unicode="&#x3e;" horiz-adv-x="576" 
d="M511 369v-162l-446 -169v154l268 96l-268 96v154z" />
    <glyph glyph-name="less" unicode="&#x3c;" horiz-adv-x="576" 
d="M511 384l-268 -96l268 -96v-154l-446 169v162l446 169v-154z" />
    <glyph glyph-name="greaterequal" unicode="&#x2265;" horiz-adv-x="576" 
d="M511 491v-162l-446 -154v154l269 81l-269 81v155zM65 147h446v-147h-446v147z" />
    <glyph glyph-name="lessequal" unicode="&#x2264;" horiz-adv-x="576" 
d="M511 491l-269 -81l269 -81v-154l-446 154v162l446 155v-155zM65 147h446v-147h-446v147z" />
    <glyph glyph-name="plusminus" unicode="&#xb1;" horiz-adv-x="576" 
d="M511 484v-147h-150v-149h-146v149h-150v147h150v149h146v-149h150zM65 147h446v-147h-446v147z" />
    <glyph glyph-name="approxequal" unicode="&#x2248;" horiz-adv-x="576" 
d="M322 308.5q-27 9.5 -61 27.5q-26 14 -45 21t-39 7q-32 0 -59 -12t-53 -36v151q52 44 127 44q35 0 62 -9.5t61 -27.5q26 -14 45 -21t39 -7q32 0 59 12t53 37v-152q-52 -44 -127 -44q-35 0 -62 9.5zM322 74.5q-27 9.5 -61 27.5q-26 14 -45 21t-39 7q-32 0 -59 -12t-53 -37
v152q52 44 127 44q35 0 62 -9.5t61 -27.5q26 -14 45 -21t39 -7q32 0 59 12t53 36v-151q-52 -44 -127 -44q-35 0 -62 9.5z" />
    <glyph glyph-name="logicalnot" unicode="&#xac;" horiz-adv-x="576" 
d="M511 361v-296h-147v150h-299v146h446z" />
    <glyph glyph-name="asciitilde" unicode="~" horiz-adv-x="576" 
d="M312.5 189q-27.5 13 -58.5 36q-16 13 -26.5 19t-22.5 6q-24 0 -34.5 -16.5t-10.5 -53.5h-147q0 115 42.5 167.5t135.5 52.5q45 0 72.5 -13t58.5 -36q16 -13 26.5 -19t22.5 -6q24 0 34.5 16.5t10.5 53.5h147q0 -115 -42.5 -167.5t-135.5 -52.5q-45 0 -72.5 13z" />
    <glyph glyph-name="infinity" unicode="&#x221e;" horiz-adv-x="812" 
d="M745 453q48 -51 48 -165q0 -113 -48 -164.5t-155 -51.5q-67 0 -107.5 21.5t-76.5 76.5q-36 -55 -76.5 -76.5t-107.5 -21.5q-107 0 -155 51t-48 165t48 165t155 51q67 0 107.5 -21.5t76.5 -76.5q36 55 76.5 76.5t107.5 21.5q107 0 155 -51zM287 225q18 17 38 63
q-20 46 -38 63t-43 17q-34 0 -49 -18.5t-15 -61.5t15 -61.5t49 -18.5q25 0 43 17zM616 226.5q15 18.5 15 61.5t-15 61.5t-48 18.5q-25 0 -43 -17t-38 -63q20 -46 38 -63t43 -17q33 0 48 18.5z" />
    <glyph glyph-name="integral" unicode="&#x222b;" horiz-adv-x="428" 
d="M68 -212v139q33 -7 56 -7q46 0 65.5 20t19.5 66q0 29 -15.5 73t-49.5 123q-45 107 -68 175.5t-23 127.5q0 111 50.5 161t164.5 50q47 0 92 -8v-139q-33 7 -56 7q-46 0 -66 -20t-20 -66q0 -29 15.5 -73t49.5 -123q44 -103 68 -173.5t24 -129.5q0 -111 -50.5 -161
t-164.5 -50q-47 0 -92 8z" />
    <glyph glyph-name="uni2126" unicode="&#x2126;" horiz-adv-x="763" 
d="M746 140v-140h-321v132q58 37 85.5 91t27.5 130q0 100 -36.5 144t-119.5 44t-120 -44t-37 -144q0 -76 27.5 -130t85.5 -91v-132h-321v140h129q-53 49 -78.5 108t-25.5 135q0 107 35 173t109.5 97t195.5 31t195 -31t109 -97t35 -173q0 -77 -25 -135.5t-79 -107.5h129z" />
    <glyph glyph-name="uni2206" unicode="&#x2206;" horiz-adv-x="714" 
d="M688 117v-117h-662v117l228 555h206zM210 140h294l-147 371z" />
    <glyph glyph-name="product" unicode="&#x220f;" horiz-adv-x="812" 
d="M759 704v-879h-184v739h-339v-739h-183v879h706z" />
    <glyph glyph-name="summation" unicode="&#x2211;" horiz-adv-x="561" 
d="M367 382q-50 -53 -74 -122t-24 -144q0 -28 5 -61t14 -55q-53 12 -91.5 57t-58.5 107t-20 126q0 60 17.5 117t52.5 103l-133 38q77 49 185 75.5t211 26.5q30 0 45 -1q-21 -192 -20 -408z" />
    <glyph glyph-name="radical" unicode="&#x221a;" horiz-adv-x="802" 
d="M593 656.5q85 -48.5 133 -133t48 -187.5t-48 -187.5t-133 -133t-192 -48.5t-192 48.5t-133 132.5t-48 188t48 188t133 132.5t192 48.5t192 -48.5zM563 57q72 42 112.5 115.5t40.5 163.5t-40.5 163.5t-112.5 116t-162 42.5t-162 -42.5t-112.5 -116t-40.5 -163.5
t40.5 -163.5t112.5 -115.5t162 -42t162 42zM325.5 561q86.5 21 169.5 21q21 0 31 -1q-17 -160 -16 -324l-86 112q-40 -41 -59 -96t-19 -114q0 -22 4 -48.5t12 -43.5q-42 10 -72.5 45.5t-46.5 84.5t-16 100q0 47 13.5 92t40.5 81l-104 30q62 40 148.5 61z" />
    <glyph glyph-name="partialdiff" unicode="&#x2202;" horiz-adv-x="602" 
d="M440.5 676.5q65.5 -39.5 96 -124t30.5 -222.5q0 -172 -66.5 -257t-207.5 -85q-139 0 -202.5 61.5t-63.5 197.5q0 138 53.5 199t175.5 61q77 0 128 -28q-7 55 -38.5 80t-90.5 25q-87 0 -173 -26v132q90 26 187 26q106 0 171.5 -39.5zM365.5 155.5q22.5 31.5 22.5 100.5
q0 60 -22 87.5t-70 27.5q-47 0 -68 -29t-21 -95t20.5 -94.5t65.5 -28.5q50 0 72.5 31.5z" />
    <glyph glyph-name="uni00B5" unicode="&#xb5;" horiz-adv-x="602" 
d="M558 495v-495h-133l-14 40q-46 -48 -118 -48q-44 0 -73 11v-211h-176v703h176v-283q0 -44 18 -64t59 -20q44 0 64.5 21.5t20.5 70.5v275h176z" />
    <glyph glyph-name="percent" unicode="%" horiz-adv-x="864" 
d="M69.5 366.5q-42.5 42.5 -42.5 137.5t42.5 137.5t138.5 42.5t138.5 -42.5t42.5 -137.5t-42.5 -137.5t-138.5 -42.5t-138.5 42.5zM530 672h106l-302 -672h-106zM251 441q13 19 13 63t-13 63t-43 19t-43 -19t-13 -63t13 -63t43 -19t43 19zM517.5 30.5
q-42.5 42.5 -42.5 137.5t42.5 137.5t138.5 42.5t138.5 -42.5t42.5 -137.5t-42.5 -137.5t-138.5 -42.5t-138.5 42.5zM699 105q13 19 13 63t-13 63t-43 19t-43 -19t-13 -63t13 -63t43 -19t43 19z" />
    <glyph glyph-name="perthousand" unicode="&#x2030;" horiz-adv-x="1248" 
d="M69.5 366.5q-42.5 42.5 -42.5 137.5t42.5 137.5t138.5 42.5t138.5 -42.5t42.5 -137.5t-42.5 -137.5t-138.5 -42.5t-138.5 42.5zM530 672h106l-302 -672h-106zM251 441q13 19 13 63t-13 63t-43 19t-43 -19t-13 -63t13 -63t43 -19t43 19zM517.5 30.5
q-42.5 42.5 -42.5 137.5t42.5 137.5t138.5 42.5t138.5 -42.5t42.5 -137.5t-42.5 -137.5t-138.5 -42.5t-138.5 42.5zM901.5 30.5q-42.5 42.5 -42.5 137.5t42.5 137.5t138.5 42.5t138.5 -42.5t42.5 -137.5t-42.5 -137.5t-138.5 -42.5t-138.5 42.5zM699 105q13 19 13 63t-13 63
t-43 19t-43 -19t-13 -63t13 -63t43 -19t43 19zM1083 105q13 19 13 63t-13 63t-43 19t-43 -19t-13 -63t13 -63t43 -19t43 19z" />
    <glyph glyph-name="arrowup" unicode="&#x2191;" horiz-adv-x="864" 
d="M717 198l-204 209v-516h-162v516l-204 -209v231l285 285l285 -285v-231z" />
    <glyph glyph-name="arrowright" unicode="&#x2192;" horiz-adv-x="864" 
d="M858 288l-285 -285h-231l209 204h-516v162h516l-209 204h231z" />
    <glyph glyph-name="arrowdown" unicode="&#x2193;" horiz-adv-x="864" 
d="M717 378v-231l-285 -285l-285 285v231l204 -209v516h162v-516z" />
    <glyph glyph-name="arrowleft" unicode="&#x2190;" horiz-adv-x="864" 
d="M829 207h-516l209 -204h-231l-285 285l285 285h231l-209 -204h516v-162z" />
    <glyph glyph-name="lozenge" unicode="&#x25ca;" horiz-adv-x="576" 
d="M570 336l-194 -336h-176l-194 336l194 336h176zM394 336l-106 189l-106 -189l106 -189z" />
    <glyph glyph-name="uniF8FF" unicode="&#xf8ff;" horiz-adv-x="593" 
d="M109 620q-9 9 -9 22t9.5 22t22.5 9t22 -9t9 -22t-9 -22t-22 -9q-14 0 -23 9zM178 620q-9 9 -9 22t9.5 22t22.5 9t22 -9t9 -22t-9 -22t-22 -9q-14 0 -23 9zM247 620q-9 9 -9 22t9.5 22t22.5 9t22 -9t9 -22t-9 -22t-22 -9q-14 0 -23 9zM316 620q-9 9 -9 22t9.5 22t22.5 9
t22 -9t9 -22t-9 -22t-22 -9q-14 0 -23 9zM385 620q-9 9 -9 22t9.5 22t22.5 9t22 -9t9 -22t-9 -22t-22 -9q-14 0 -23 9zM454 620q-9 9 -9 22t9.5 22t22.5 9t22 -9t9 -22t-9 -22t-22 -9q-14 0 -23 9zM109.5 552q-9.5 9 -9.5 22t9.5 22t22.5 9t22 -9t9 -22t-9 -22t-22 -9
t-22.5 9zM109.5 484q-9.5 9 -9.5 22t9.5 22t22.5 9t22 -9t9 -22t-9 -22t-22 -9t-22.5 9zM247 484q-9 9 -9 22t9.5 22t22.5 9t22 -9t9 -22t-9 -22t-22 -9q-14 0 -23 9zM316 484q-9 9 -9 22t9.5 22t22.5 9t22 -9t9 -22t-9 -22t-22 -9q-14 0 -23 9zM385 484q-9 9 -9 22t9.5 22
t22.5 9t22 -9t9 -22t-9 -22t-22 -9q-14 0 -23 9zM454 484q-9 9 -9 22t9.5 22t22.5 9t22 -9t9 -22t-9 -22t-22 -9q-14 0 -23 9zM109.5 416q-9.5 9 -9.5 22t9.5 22t22.5 9t22 -9t9 -22t-9 -22t-22 -9t-22.5 9zM247 416q-9 9 -9 22t9.5 22t22.5 9t22 -9t9 -22t-9 -22t-22 -9
q-14 0 -23 9zM109.5 348q-9.5 9 -9.5 22t9.5 22t22.5 9t22 -9t9 -22t-9 -22t-22 -9t-22.5 9zM247 348q-9 9 -9 22t9.5 22t22.5 9t22 -9t9 -22t-9 -22t-22 -9q-14 0 -23 9zM316 348q-9 9 -9 22t9.5 22t22.5 9t22 -9t9 -22t-9 -22t-22 -9q-14 0 -23 9zM385 348q-9 9 -9 22
t9.5 22t22.5 9t22 -9t9 -22t-9 -22t-22 -9q-14 0 -23 9zM454 348q-9 9 -9 22t9.5 22t22.5 9t22 -9t9 -22t-9 -22t-22 -9q-14 0 -23 9zM109.5 280q-9.5 9 -9.5 22t9.5 22t22.5 9t22 -9t9 -22t-9 -22t-22 -9t-22.5 9zM454 280q-9 9 -9 22t9.5 22t22.5 9t22 -9t9 -22t-9 -22
t-22 -9q-14 0 -23 9zM109.5 212q-9.5 9 -9.5 22t9.5 22t22.5 9t22 -9t9 -22t-9 -22t-22 -9t-22.5 9zM247 212q-9 9 -9 22t9.5 22t22.5 9t22 -9t9 -22t-9 -22t-22 -9q-14 0 -23 9zM316 212q-9 9 -9 22t9.5 22t22.5 9t22 -9t9 -22t-9 -22t-22 -9q-14 0 -23 9zM385 212
q-9 9 -9 22t9.5 22t22.5 9t22 -9t9 -22t-9 -22t-22 -9q-14 0 -23 9zM454 212q-9 9 -9 22t9.5 22t22.5 9t22 -9t9 -22t-9 -22t-22 -9q-14 0 -23 9zM109.5 144q-9.5 9 -9.5 22t9.5 22t22.5 9t22 -9t9 -22t-9 -22t-22 -9t-22.5 9zM109.5 76q-9.5 9 -9.5 22t9.5 22t22.5 9t22 -9
t9 -22t-9 -22t-22 -9t-22.5 9zM247.5 76q-9.5 9 -9.5 22t9.5 22t22.5 9t22 -9t9 -22t-9 -22t-22 -9t-22.5 9zM109.5 8q-9.5 9 -9.5 22t9.5 22t22.5 9t22 -9t9 -22t-9 -22t-22 -9t-22.5 9zM178.5 8q-9.5 9 -9.5 22t9.5 22t22.5 9t22 -9t9 -22t-9 -22t-22 -9t-22.5 9zM247.5 8
q-9.5 9 -9.5 22t9.5 22t22.5 9t22 -9t9 -22t-9 -22t-22 -9t-22.5 9z" />
    <glyph glyph-name="at" unicode="@" horiz-adv-x="1004" 
d="M728 455v-262q0 -19 9 -28t28 -9q28 0 40 31t12 101q0 100 -31.5 162t-99 91t-176.5 29q-115 0 -186 -33t-104.5 -104t-33.5 -186t36.5 -185.5t114 -103.5t203.5 -33q142 0 280 44v-133q-133 -40 -287 -40q-177 0 -286 46.5t-160 145t-51 259.5t49.5 260t155 145.5
t276.5 46.5q160 0 259 -41t145.5 -128t46.5 -227q0 -146 -54.5 -211t-177.5 -65q-40 0 -74.5 12t-58.5 35q-64 -47 -152 -47q-101 0 -146 52t-45 168t45 168t146 52q78 0 130 -37l11 25h136zM559 260q0 38 -14 54.5t-47 16.5q-35 0 -50.5 -19.5t-15.5 -64.5q0 -44 15.5 -64
t50.5 -20q33 0 47 16.5t14 55.5v25z" />
    <glyph glyph-name="ampersand" unicode="&#x26;" horiz-adv-x="700" 
d="M507 0l-33 36q-35 -23 -83 -35.5t-104 -12.5q-134 0 -196.5 48.5t-62.5 153.5q0 60 32 108t98 78q-66 56 -66 132q0 87 56.5 131.5t167.5 44.5t164 -41.5t53 -126.5q0 -58 -35.5 -103t-104.5 -81l74 -79q17 34 17 82h161q-2 -62 -19.5 -115t-48.5 -88l121 -132h-191z
M257 503q0 -18 10.5 -34t34.5 -37q34 16 50 33t16 40q0 50 -55 50q-56 0 -56 -52zM372 144l-128 137q-48 -29 -48 -78q0 -40 23 -61.5t68 -21.5q50 0 85 24z" />
    <glyph glyph-name="paragraph" unicode="&#xb6;" horiz-adv-x="620" 
d="M567 672v-816h-147v684h-86v-325h-63q-251 0 -251 229q0 228 251 228h296z" />
    <glyph glyph-name="section" unicode="&#xa7;" horiz-adv-x="573" 
d="M498 133q31 -37 31 -96q0 -102 -61 -147.5t-197 -45.5q-127 0 -232 32v138q106 -34 217 -34q49 0 68 13t19 44q0 25 -25 36t-80 21q-64 12 -106 27t-73 53t-31 106q0 70 50 120q-34 39 -34 95q0 101 61.5 145t197.5 44q111 0 207 -26v-138q-96 28 -193 28q-48 0 -67 -12
t-19 -41q0 -23 24 -32.5t77 -19.5q64 -11 107 -26.5t74.5 -54.5t31.5 -110q0 -70 -47 -119zM230.5 246q22.5 -11 73.5 -23q28 -5 51 -12q11 17 11 37q0 28 -22.5 40t-71.5 23q-39 10 -50 13q-14 -15 -14 -40q0 -27 22.5 -38z" />
    <glyph glyph-name="copyright" unicode="&#xa9;" horiz-adv-x="832" 
d="M124 57q-91 89 -91 279t91 279t292 89t292 -89t91 -279t-91 -279t-292 -89t-292 89zM628.5 121q70.5 68 70.5 215q0 150 -66.5 216.5t-216.5 66.5t-216.5 -66.5t-66.5 -216.5q0 -147 70.5 -215t212.5 -68t212.5 68zM264 171q-53 51 -53 165t52 165t170 51q84 0 146 -27
l-56 -87q-30 11 -65 11q-60 0 -86.5 -26.5t-26.5 -86.5t27 -86.5t89 -26.5q50 0 112 16v-103q-70 -16 -136 -16q-120 0 -173 51z" />
    <glyph glyph-name="registered" unicode="&#xae;" horiz-adv-x="832" 
d="M708 615q91 -89 91 -279t-91 -279t-292 -89t-292 89t-91 279t91 279t292 89t292 -89zM628.5 121q70.5 68 70.5 215q0 150 -66.5 216.5t-216.5 66.5t-216.5 -66.5t-66.5 -216.5q0 -147 70.5 -215t212.5 -68t212.5 68zM538 279l87 -151h-138l-71 137h-56v-137h-123v416h207
q88 0 127 -33t39 -107q0 -98 -72 -125zM360 363h73q25 0 36.5 9.5t11.5 31.5t-11 32t-37 10h-73v-83z" />
    <glyph glyph-name="trademark" unicode="&#x2122;" horiz-adv-x="966" 
d="M21 672h396l-66 -101h-78v-315h-133v315h-119v101zM926 672v-416h-121v225l-73 -129h-85l-73 129v-225h-121v416h123l112 -198l115 198h123z" />
    <glyph glyph-name="degree" unicode="&#xb0;" horiz-adv-x="378" 
d="M73.5 419.5q-39.5 38.5 -39.5 112.5q0 75 40 113.5t115 38.5q76 0 115.5 -39t39.5 -113t-39.5 -112.5t-115.5 -38.5t-115.5 38.5zM233 488q15 15 15 44q0 59 -59 59t-59 -59q0 -28 15.5 -43.5t43.5 -15.5q29 0 44 15z" />
    <glyph glyph-name="bar" unicode="|" horiz-adv-x="240" 
d="M47 736h146v-960h-146v960z" />
    <glyph glyph-name="brokenbar" unicode="&#xa6;" horiz-adv-x="240" 
d="M47 688h146v-384h-146v384zM47 208h146v-384h-146v384z" />
    <glyph glyph-name="dagger" unicode="&#x2020;" horiz-adv-x="506" 
d="M481 393h-154v-393h-147v393h-155v132h155v147h147v-147h154v-132z" />
    <glyph glyph-name="uni2113" unicode="&#x2113;" horiz-adv-x="425" 
d="M223.5 140q17.5 -16 57.5 -16q32 0 80 8v-134q-46 -10 -101 -10q-115 0 -165.5 46t-50.5 151v339q0 102 43.5 147t141.5 45q90 0 133.5 -44t43.5 -140q0 -166 -200 -304v-35q0 -37 17.5 -53zM214 565q-8 -15 -8 -49v-126q33 32 48.5 64t15.5 71q0 29 -7 42t-23 13
q-18 0 -26 -15z" />
    <glyph glyph-name="daggerdbl" unicode="&#x2021;" horiz-adv-x="506" 
d="M327 393v-114h154v-132h-154v-147h-147v147h-155v132h155v114h-155v132h155v147h147v-147h154v-132h-154z" />
    <glyph glyph-name="estimated" unicode="&#x212e;" horiz-adv-x="960" 
d="M287.5 31.5q-88.5 47.5 -140 128.5t-51.5 176t51.5 176t140 128.5t192.5 47.5t192.5 -47.5t140 -128.5t51.5 -176q0 -11 -1 -16h-623v-196q44 -51 106.5 -79.5t133.5 -28.5q72 0 135 29.5t108 82.5h66q-54 -67 -135 -105.5t-174 -38.5q-104 0 -192.5 47.5zM720 352v196
q-45 51 -107.5 79.5t-132.5 28.5q-71 0 -133.5 -28.5t-106.5 -79.5v-196h480z" />
    <glyph glyph-name="uni2116" unicode="&#x2116;" horiz-adv-x="1190" 
d="M712 672v-672h-177l-312 422v-422h-169v672h176l313 -423v423h169zM836 377.5q-44 40.5 -44 131.5t44 131t142 40t142 -40t44 -131t-44 -131.5t-142 -40.5t-142 40.5zM1021 454q13 17 13 55t-13 55t-43 17q-29 0 -42 -17t-13 -55t13 -55t42 -17q30 0 43 17zM799 299h358
v-100h-358v100z" />
    <glyph glyph-name="asciicircum" unicode="^" horiz-adv-x="576" 
d="M400 227l-112 270l-112 -270h-169l193 445h176l193 -445h-169z" />
    <glyph glyph-name="uni0308" unicode="&#x308;" 
d="M-311 554.5q-22 21.5 -22 70.5q0 50 22 71.5t74 21.5q51 0 73.5 -22t22.5 -71t-22.5 -70.5t-73.5 -21.5q-52 0 -74 21.5zM-76.5 554.5q-22.5 21.5 -22.5 70.5t22.5 71t73.5 22q52 0 74 -21.5t22 -71.5q0 -49 -22 -70.5t-74 -21.5q-51 0 -73.5 21.5z" />
    <glyph glyph-name="uni0307" unicode="&#x307;" 
d="M-194 554.5q-22 21.5 -22 70.5q0 50 22 71.5t74 21.5t74 -21.5t22 -71.5q0 -49 -22 -70.5t-74 -21.5t-74 21.5z" />
    <glyph glyph-name="gravecomb" unicode="&#x300;" 
d="M-327 704h180l124 -157h-151z" />
    <glyph glyph-name="acutecomb" unicode="&#x301;" 
d="M-93 704h180l-153 -157h-151z" />
    <glyph glyph-name="uni030B" unicode="&#x30b;" 
d="M-210 704h180l-149 -157h-155zM24 704h180l-149 -157h-155z" />
    <glyph glyph-name="uni0302" unicode="&#x302;" 
d="M-59 547l-61 68l-61 -68h-147l123 157h170l123 -157h-147z" />
    <glyph glyph-name="uni030C" unicode="&#x30c;" 
d="M88 704l-123 -157h-170l-123 157h147l61 -68l61 68h147z" />
    <glyph glyph-name="uni0306" unicode="&#x306;" 
d="M-259.5 575q-43.5 40 -43.5 129h122q0 -29 14.5 -42t46.5 -13t46.5 13t14.5 42h122q0 -89 -43.5 -129t-139.5 -40t-139.5 40z" />
    <glyph glyph-name="uni030A" unicode="&#x30a;" 
d="M-220.5 541.5q-30.5 25.5 -30.5 83.5q0 59 30.5 84.5t100.5 25.5t100.5 -25.5t30.5 -84.5q0 -58 -30.5 -83.5t-100.5 -25.5t-100.5 25.5zM-90.5 596q9.5 9 9.5 29q0 21 -9.5 30t-29.5 9t-29.5 -9t-9.5 -30q0 -20 9.5 -29t29.5 -9t29.5 9z" />
    <glyph glyph-name="tildecomb" unicode="&#x303;" 
d="M-303 564q0 71 27.5 102.5t91.5 31.5q22 0 38.5 -5.5t36.5 -15.5q3 -1 12 -5.5t16 -4.5q12 0 17.5 7.5t5.5 23.5v5h121v-16q0 -71 -27.5 -102.5t-91.5 -31.5q-22 0 -38.5 5.5t-36.5 15.5q-3 1 -12 5.5t-16 4.5q-12 0 -17.5 -7.5t-5.5 -23.5v-5h-121v16z" />
    <glyph glyph-name="uni0304" unicode="&#x304;" 
d="M-292 684h344v-117h-344v117z" />
    <glyph glyph-name="uni0315" unicode="&#x315;" 
d="M-154 672h147l-72 -186h-118z" />
    <glyph glyph-name="uni0326" unicode="&#x326;" 
d="M-173 -51h153l-65 -159h-123z" />
    <glyph glyph-name="uni0327" unicode="&#x327;" 
d="M9 -102q0 -47 -36.5 -68.5t-118.5 -21.5q-48 0 -91 12v77q38 -12 67 -12q23 0 33 4t10 13q0 11 -9 14.5t-35 3.5h-8v80h118v-33q70 -12 70 -69z" />
    <glyph glyph-name="uni0328" unicode="&#x328;" 
d="M-210.5 -167.5q-26.5 19.5 -26.5 62.5q0 31 19 59.5t68 60.5l118 -15q-34 -25 -46.5 -40.5t-12.5 -30.5q0 -25 26 -25q13 0 33 5v-84q-48 -12 -96 -12q-56 0 -82.5 19.5z" />
    <glyph glyph-name="uni0308.case" 
d="M-311 730.5q-22 21.5 -22 70.5q0 50 22 71.5t74 21.5q51 0 73.5 -22t22.5 -71t-22.5 -70.5t-73.5 -21.5q-52 0 -74 21.5zM-76.5 730.5q-22.5 21.5 -22.5 70.5t22.5 71t73.5 22q52 0 74 -21.5t22 -71.5q0 -49 -22 -70.5t-74 -21.5q-51 0 -73.5 21.5z" />
    <glyph glyph-name="uni0307.case" 
d="M-194 730.5q-22 21.5 -22 70.5q0 50 22 71.5t74 21.5t74 -21.5t22 -71.5q0 -49 -22 -70.5t-74 -21.5t-74 21.5z" />
    <glyph glyph-name="gravecomb.case" 
d="M-327 880h180l124 -157h-151z" />
    <glyph glyph-name="acutecomb.case" 
d="M-93 880h180l-153 -157h-151z" />
    <glyph glyph-name="uni030B.case" 
d="M-210 880h180l-149 -157h-155zM24 880h180l-149 -157h-155z" />
    <glyph glyph-name="uni0302.case" 
d="M-205 880h170l123 -157h-147l-61 68l-61 -68h-147z" />
    <glyph glyph-name="uni030C.case" 
d="M-328 880h147l61 -68l61 68h147l-123 -157h-170z" />
    <glyph glyph-name="uni0306.case" 
d="M-259.5 751q-43.5 40 -43.5 129h122q0 -29 14.5 -42t46.5 -13t46.5 13t14.5 42h122q0 -89 -43.5 -129t-139.5 -40t-139.5 40z" />
    <glyph glyph-name="uni030A.case" 
d="M-220.5 717.5q-30.5 25.5 -30.5 83.5q0 59 30.5 84.5t100.5 25.5t100.5 -25.5t30.5 -84.5q0 -58 -30.5 -83.5t-100.5 -25.5t-100.5 25.5zM-90.5 772q9.5 9 9.5 29q0 21 -9.5 30t-29.5 9t-29.5 -9t-9.5 -30q0 -20 9.5 -29t29.5 -9t29.5 9z" />
    <glyph glyph-name="tildecomb.case" 
d="M-303 740q0 71 27.5 102.5t91.5 31.5q22 0 38.5 -5.5t36.5 -15.5q3 -1 12 -5.5t16 -4.5q12 0 17.5 7.5t5.5 23.5v5h121v-16q0 -71 -27.5 -102.5t-91.5 -31.5q-22 0 -38.5 5.5t-36.5 15.5q-3 1 -12 5.5t-16 4.5q-12 0 -17.5 -7.5t-5.5 -23.5v-5h-121v16z" />
    <glyph glyph-name="uni0304.case" 
d="M-292 860h344v-117h-344v117z" />
    <glyph glyph-name="acutecomb.loclPLK" 
d="M-159 704h163l-74 -157h-147z" />
    <glyph glyph-name="acutecomb.case.loclPLK" 
d="M-159 880h163l-74 -157h-147z" />
    <glyph glyph-name="acute" unicode="&#xb4;" horiz-adv-x="240" 
d="M147 704h180l-153 -157h-151z" />
    <glyph glyph-name="breve" unicode="&#x2d8;" horiz-adv-x="240" 
d="M-19.5 575q-43.5 40 -43.5 129h122q0 -29 14.5 -42t46.5 -13t46.5 13t14.5 42h122q0 -89 -43.5 -129t-139.5 -40t-139.5 40z" />
    <glyph glyph-name="caron" unicode="&#x2c7;" horiz-adv-x="240" 
d="M328 704l-123 -157h-170l-123 157h147l61 -68l61 68h147z" />
    <glyph glyph-name="acute.case" horiz-adv-x="240" 
d="M147 880h180l-153 -157h-151z" />
    <glyph glyph-name="breve.case" horiz-adv-x="240" 
d="M-19.5 751q-43.5 40 -43.5 129h122q0 -29 14.5 -42t46.5 -13t46.5 13t14.5 42h122q0 -89 -43.5 -129t-139.5 -40t-139.5 40z" />
    <glyph glyph-name="caron.case" horiz-adv-x="240" 
d="M-88 880h147l61 -68l61 68h147l-123 -157h-170z" />
    <glyph glyph-name="circumflex.case" horiz-adv-x="240" 
d="M35 880h170l123 -157h-147l-61 68l-61 -68h-147z" />
    <glyph glyph-name="dieresis.case" horiz-adv-x="240" 
d="M-71 730.5q-22 21.5 -22 70.5q0 50 22 71.5t74 21.5q51 0 73.5 -22t22.5 -71t-22.5 -70.5t-73.5 -21.5q-52 0 -74 21.5zM163.5 730.5q-22.5 21.5 -22.5 70.5t22.5 71t73.5 22q52 0 74 -21.5t22 -71.5q0 -49 -22 -70.5t-74 -21.5q-51 0 -73.5 21.5z" />
    <glyph glyph-name="dotaccent.case" horiz-adv-x="240" 
d="M46 730.5q-22 21.5 -22 70.5q0 50 22 71.5t74 21.5t74 -21.5t22 -71.5q0 -49 -22 -70.5t-74 -21.5t-74 21.5z" />
    <glyph glyph-name="grave.case" horiz-adv-x="240" 
d="M-87 880h180l124 -157h-151z" />
    <glyph glyph-name="hungarumlaut.case" horiz-adv-x="240" 
d="M30 880h180l-149 -157h-155zM264 880h180l-149 -157h-155z" />
    <glyph glyph-name="macron.case" horiz-adv-x="240" 
d="M-52 860h344v-117h-344v117z" />
    <glyph glyph-name="ring.case" horiz-adv-x="240" 
d="M19.5 717.5q-30.5 25.5 -30.5 83.5q0 59 30.5 84.5t100.5 25.5t100.5 -25.5t30.5 -84.5q0 -58 -30.5 -83.5t-100.5 -25.5t-100.5 25.5zM149.5 772q9.5 9 9.5 29q0 21 -9.5 30t-29.5 9t-29.5 -9t-9.5 -30q0 -20 9.5 -29t29.5 -9t29.5 9z" />
    <glyph glyph-name="tilde.case" horiz-adv-x="240" 
d="M-63 740q0 71 27.5 102.5t91.5 31.5q22 0 38.5 -5.5t36.5 -15.5q3 -1 12 -5.5t16 -4.5q12 0 17.5 7.5t5.5 23.5v5h121v-16q0 -71 -27.5 -102.5t-91.5 -31.5q-22 0 -38.5 5.5t-36.5 15.5q-3 1 -12 5.5t-16 4.5q-12 0 -17.5 -7.5t-5.5 -23.5v-5h-121v16z" />
    <glyph glyph-name="cedilla" unicode="&#xb8;" horiz-adv-x="240" 
d="M249 -102q0 -47 -36.5 -68.5t-118.5 -21.5q-48 0 -91 12v77q38 -12 67 -12q23 0 33 4t10 13q0 11 -9 14.5t-35 3.5h-8v80h118v-33q70 -12 70 -69z" />
    <glyph glyph-name="circumflex" unicode="&#x2c6;" horiz-adv-x="240" 
d="M181 547l-61 68l-61 -68h-147l123 157h170l123 -157h-147z" />
    <glyph glyph-name="dieresis" unicode="&#xa8;" horiz-adv-x="240" 
d="M-71 554.5q-22 21.5 -22 70.5q0 50 22 71.5t74 21.5q51 0 73.5 -22t22.5 -71t-22.5 -70.5t-73.5 -21.5q-52 0 -74 21.5zM163.5 554.5q-22.5 21.5 -22.5 70.5t22.5 71t73.5 22q52 0 74 -21.5t22 -71.5q0 -49 -22 -70.5t-74 -21.5q-51 0 -73.5 21.5z" />
    <glyph glyph-name="dotaccent" unicode="&#x2d9;" horiz-adv-x="240" 
d="M46 554.5q-22 21.5 -22 70.5q0 50 22 71.5t74 21.5t74 -21.5t22 -71.5q0 -49 -22 -70.5t-74 -21.5t-74 21.5z" />
    <glyph glyph-name="grave" unicode="`" horiz-adv-x="240" 
d="M-87 704h180l124 -157h-151z" />
    <glyph glyph-name="hungarumlaut" unicode="&#x2dd;" horiz-adv-x="240" 
d="M30 704h180l-149 -157h-155zM264 704h180l-149 -157h-155z" />
    <glyph glyph-name="macron" unicode="&#xaf;" horiz-adv-x="240" 
d="M-52 684h344v-117h-344v117z" />
    <glyph glyph-name="ogonek" unicode="&#x2db;" horiz-adv-x="240" 
d="M29.5 -167.5q-26.5 19.5 -26.5 62.5q0 31 19 59.5t68 60.5l118 -15q-34 -25 -46.5 -40.5t-12.5 -30.5q0 -25 26 -25q13 0 33 5v-84q-48 -12 -96 -12q-56 0 -82.5 19.5z" />
    <glyph glyph-name="ring" unicode="&#x2da;" horiz-adv-x="240" 
d="M19.5 541.5q-30.5 25.5 -30.5 83.5q0 59 30.5 84.5t100.5 25.5t100.5 -25.5t30.5 -84.5q0 -58 -30.5 -83.5t-100.5 -25.5t-100.5 25.5zM149.5 596q9.5 9 9.5 29q0 21 -9.5 30t-29.5 9t-29.5 -9t-9.5 -30q0 -20 9.5 -29t29.5 -9t29.5 9z" />
    <glyph glyph-name="tilde" unicode="&#x2dc;" horiz-adv-x="240" 
d="M-63 564q0 71 27.5 102.5t91.5 31.5q22 0 38.5 -5.5t36.5 -15.5q3 -1 12 -5.5t16 -4.5q12 0 17.5 7.5t5.5 23.5v5h121v-16q0 -71 -27.5 -102.5t-91.5 -31.5q-22 0 -38.5 5.5t-36.5 15.5q-3 1 -12 5.5t-16 4.5q-12 0 -17.5 -7.5t-5.5 -23.5v-5h-121v16z" />
  </font>
</defs>
</svg>
