<?xml version="1.0" standalone="no"?>
<!DOCTYPE svg PUBLIC "-//W3C//DTD SVG 1.1//EN" "http://www.w3.org/Graphics/SVG/1.1/DTD/svg11.dtd" >
<svg xmlns="http://www.w3.org/2000/svg">
<metadata>
WH Hoxton is a licensed version of FS Hackney. Copyright (c) 2014 by Fontsmith Ltd for William Hill PLC. All rights reserved. This font may not be altered in any way without prior permission of Fontsmith Ltd.
</metadata>
<defs>
<font id="WHHoxtonWeb-Regular" horiz-adv-x="0" >
  <font-face 
    font-family="WH Hoxton Web"
    font-weight="400"
    font-stretch="normal"
    units-per-em="1000"
    panose-1="2 2 5 3 3 2 2 2 2 4"
    ascent="800"
    descent="-200"
    x-height="486"
    cap-height="672"
    bbox="-283 -224 1204 904"
    underline-thickness="60"
    underline-position="-40"
    unicode-range="U+000D-FB02"
  />
<missing-glyph horiz-adv-x="500" 
d="M12 672h476v-672h-476v672zM412 624h-324l162 -244zM222 336l-162 244v-488zM440 580l-162 -244l162 -244v488zM412 48l-162 244l-162 -244h324z" />
    <glyph glyph-name="f_f.liga" unicode="ff" horiz-adv-x="705" 
d="M209 486h140l-41 -63h-99v-423h-81v423h-100v63h100v64q0 88 40.5 127t130.5 39q46 0 84 -11v-64q-41 11 -75 11q-52 0 -75.5 -23t-23.5 -76v-67zM578.5 629q-23.5 -23 -23.5 -76v-67h160l-41 -63h-119v-423h-81v423h-106l41 63h65v64q0 88 40.5 127t130.5 39
q45 0 84 -11v-64q-41 11 -75 11q-52 0 -75.5 -23z" />
    <glyph glyph-name="f_f_i.liga" unicode="ffi" horiz-adv-x="951" 
d="M209 486h140l-41 -63h-99v-423h-81v423h-100v63h100v64q0 88 40.5 127t130.5 39q46 0 84 -11v-64q-41 11 -75 11q-52 0 -75.5 -23t-23.5 -76v-67zM578.5 629q-23.5 -23 -23.5 -76v-67h160l-41 -63h-119v-423h-81v423h-106l41 63h65v64q0 88 40.5 127t130.5 39
q45 0 84 -11v-64q-41 11 -75 11q-52 0 -75.5 -23zM796 596q-12 12 -12 38q0 27 12 39t40 12q27 0 39.5 -12t12.5 -39q0 -26 -12.5 -38t-39.5 -12q-28 0 -40 12zM796 486h80v-486h-80v486z" />
    <glyph glyph-name="f_f_l.liga" unicode="ffl" horiz-adv-x="957" 
d="M209 486h140l-41 -63h-99v-423h-81v423h-100v63h100v64q0 88 40.5 127t130.5 39q46 0 84 -11v-64q-41 11 -75 11q-52 0 -75.5 -23t-23.5 -76v-67zM578.5 629q-23.5 -23 -23.5 -76v-67h160l-41 -63h-119v-423h-81v423h-106l41 63h65v64q0 88 40.5 127t130.5 39
q45 0 84 -11v-64q-41 11 -75 11q-52 0 -75.5 -23zM799 704h80v-704h-80v704z" />
    <glyph glyph-name="f_t.liga" unicode="ft" horiz-adv-x="730" 
d="M209 486h121l-41 -63h-80v-423h-81v423h-100v63h100v64q0 88 40.5 127t130.5 39q36 0 69 -10v-64q-35 10 -60 10q-52 0 -75.5 -23t-23.5 -76v-67zM552 74.5q22 -22.5 72 -22.5q31 0 72 9v-64q-37 -9 -84 -9q-86 0 -124.5 37.5t-38.5 120.5v277h-100l41 63h59v137l81 14
v-151h170l-41 -63h-129v-274q0 -52 22 -74.5z" />
    <glyph glyph-name="fi" unicode="fi" horiz-adv-x="605" 
d="M232.5 629q-23.5 -23 -23.5 -76v-67h160l-41 -63h-119v-423h-81v423h-100v63h100v64q0 88 40.5 127t130.5 39q46 0 84 -11v-64q-41 11 -75 11q-52 0 -75.5 -23zM450 596q-12 12 -12 38q0 27 12 39t40 12q27 0 39.5 -12t12.5 -39q0 -26 -12.5 -38t-39.5 -12q-28 0 -40 12z
M450 486h80v-486h-80v486z" />
    <glyph glyph-name="fl" unicode="fl" horiz-adv-x="611" 
d="M232.5 629q-23.5 -23 -23.5 -76v-67h160l-41 -63h-119v-423h-81v423h-100v63h100v64q0 88 40.5 127t130.5 39q46 0 84 -11v-64q-41 11 -75 11q-52 0 -75.5 -23zM453 704h80v-704h-80v704z" />
    <glyph glyph-name="t_t.liga" unicode="tt" horiz-adv-x="742" 
d="M218 74.5q22 -22.5 72 -22.5q31 0 72 9v-64q-37 -9 -84 -9q-86 0 -124.5 37.5t-38.5 120.5v277h-100v63h100v137l81 14v-151h140l-41 -63h-99v-274q0 -52 22 -74.5zM564 74.5q22 -22.5 72 -22.5q31 0 72 9v-64q-37 -9 -84 -9q-86 0 -124.5 37.5t-38.5 120.5v277h-106
l41 63h65v137l81 14v-151h170l-41 -63h-129v-274q0 -52 22 -74.5z" />
    <glyph glyph-name=".notdef" horiz-adv-x="500" 
d="M12 672h476v-672h-476v672zM412 624h-324l162 -244zM222 336l-162 244v-488zM440 580l-162 -244l162 -244v488zM412 48l-162 244l-162 -244h324z" />
    <glyph glyph-name=".null" 
 />
    <glyph glyph-name="nonmarkingreturn" unicode="&#xd;" horiz-adv-x="224" 
 />
    <glyph glyph-name="space" unicode=" " horiz-adv-x="224" 
 />
    <glyph glyph-name="A" unicode="A" horiz-adv-x="648" 
d="M477 179h-307l-66 -179h-84l257 672h94l257 -672h-85zM455 241l-131 356l-131 -356h262z" />
    <glyph glyph-name="Aacute" unicode="&#xc1;" horiz-adv-x="648" 
d="M477 179h-307l-66 -179h-84l257 672h94l257 -672h-85zM455 241l-131 356l-131 -356h262zM392 880h87l-134 -140h-74z" />
    <glyph glyph-name="Abreve" unicode="&#x102;" horiz-adv-x="648" 
d="M477 179h-307l-66 -179h-84l257 672h94l257 -672h-85zM455 241l-131 356l-131 -356h262zM208 766q-36 35 -36 114h58q0 -50 22 -72t72 -22t72 22t22 72h58q0 -79 -36 -114t-116 -35t-116 35z" />
    <glyph glyph-name="uni01CD" unicode="&#x1cd;" horiz-adv-x="648" 
d="M477 179h-307l-66 -179h-84l257 672h94l257 -672h-85zM455 241l-131 356l-131 -356h262zM161 880h73l90 -95l90 95h73l-123 -140h-80z" />
    <glyph glyph-name="Acircumflex" unicode="&#xc2;" horiz-adv-x="648" 
d="M477 179h-307l-66 -179h-84l257 672h94l257 -672h-85zM455 241l-131 356l-131 -356h262zM284 880h80l123 -140h-73l-90 95l-90 -95h-73z" />
    <glyph glyph-name="Adieresis" unicode="&#xc4;" horiz-adv-x="648" 
d="M477 179h-307l-66 -179h-84l257 672h94l257 -672h-85zM455 241l-131 356l-131 -356h262zM186 772.5q-12 11.5 -12 37.5t12 37.5t38 11.5q27 0 39 -11.5t12 -37.5t-12 -37.5t-39 -11.5q-26 0 -38 11.5zM385 772.5q-12 11.5 -12 37.5t12 37.5t39 11.5q26 0 38 -11.5
t12 -37.5t-12 -37.5t-38 -11.5q-27 0 -39 11.5z" />
    <glyph glyph-name="Agrave" unicode="&#xc0;" horiz-adv-x="648" 
d="M477 179h-307l-66 -179h-84l257 672h94l257 -672h-85zM455 241l-131 356l-131 -356h262zM169 880h87l121 -140h-74z" />
    <glyph glyph-name="Amacron" unicode="&#x100;" horiz-adv-x="648" 
d="M477 179h-307l-66 -179h-84l257 672h94l257 -672h-85zM455 241l-131 356l-131 -356h262zM173 839h302v-57h-302v57z" />
    <glyph glyph-name="Aogonek" unicode="&#x104;" horiz-adv-x="648" 
d="M554.5 -129q10.5 -8 34.5 -8q21 0 39 6v-49q-19 -7 -57 -7q-91 0 -91 73q0 30 19 57t61 57h-17l-66 179h-307l-66 -179h-84l257 672h94l257 -672q-47 -35 -65.5 -57.5t-18.5 -44.5q0 -19 10.5 -27zM455 241l-131 356l-131 -356h262z" />
    <glyph glyph-name="Aring" unicode="&#xc5;" horiz-adv-x="648" 
d="M477 179h-307l-66 -179h-84l257 672h94l257 -672h-85zM455 241l-131 356l-131 -356h262zM245.5 738.5q-24.5 22.5 -24.5 71.5t24.5 71.5t78.5 22.5t78.5 -22.5t24.5 -71.5t-24.5 -71.5t-78.5 -22.5t-78.5 22.5zM367 766.5q13 12.5 13 43.5q0 30 -13 43.5t-43 13.5
t-43 -13.5t-13 -43.5t13 -43t43 -13t43 12.5z" />
    <glyph glyph-name="Atilde" unicode="&#xc3;" horiz-adv-x="648" 
d="M477 179h-307l-66 -179h-84l257 672h94l257 -672h-85zM455 241l-131 356l-131 -356h262zM169 761q0 54 21 78t67 24q20 0 36.5 -7.5t38.5 -22.5q17 -11 27 -16t21 -5q22 0 31.5 11.5t9.5 39.5v7h58v-11q0 -54 -21 -78t-67 -24q-20 0 -36.5 7.5t-38.5 22.5q-17 11 -27 16
t-21 5q-22 0 -31.5 -11.5t-9.5 -39.5v-6h-58v10z" />
    <glyph glyph-name="AE" unicode="&#xc6;" horiz-adv-x="939" 
d="M894 64v-64h-390l-31 179h-295l-96 -179h-87l364 672h532l-41 -64h-372l43 -235h293v-62h-281l45 -247h316zM463 241l-62 357l-190 -357h252z" />
    <glyph glyph-name="AEacute" unicode="&#x1fc;" horiz-adv-x="939" 
d="M894 64v-64h-390l-31 179h-295l-96 -179h-87l364 672h532l-41 -64h-372l43 -235h293v-62h-281l45 -247h316zM463 241l-62 357l-190 -357h252zM599 880h87l-134 -140h-74z" />
    <glyph glyph-name="B" unicode="B" horiz-adv-x="643" 
d="M566 292.5q28 -40.5 28 -109.5q0 -96 -49.5 -139.5t-159.5 -43.5h-301v672h285q106 0 153.5 -42.5t47.5 -134.5q0 -59 -22 -95.5t-68 -52.5q58 -14 86 -54.5zM458.5 581q-31.5 28 -103.5 28h-189v-236h189q72 0 103.5 28t31.5 90t-31.5 90zM479.5 92.5
q33.5 29.5 33.5 94.5t-33.5 94.5t-108.5 29.5h-205v-248h205q75 0 108.5 29.5z" />
    <glyph glyph-name="C" unicode="C" horiz-adv-x="607" 
d="M187 24q-70 36 -103.5 112.5t-33.5 199.5t33.5 199.5t103.5 112.5t183 36q103 0 192 -35l-37 -57q-69 25 -144 25q-88 0 -141.5 -28.5t-79 -90t-25.5 -162.5t25.5 -162.5t79 -90t141.5 -28.5q90 0 179 26v-68q-87 -25 -190 -25q-113 0 -183 36z" />
    <glyph glyph-name="Cacute" unicode="&#x106;" horiz-adv-x="607" 
d="M187 24q-70 36 -103.5 112.5t-33.5 199.5t33.5 199.5t103.5 112.5t183 36q103 0 192 -35l-37 -57q-69 25 -144 25q-88 0 -141.5 -28.5t-79 -90t-25.5 -162.5t25.5 -162.5t79 -90t141.5 -28.5q90 0 179 26v-68q-87 -25 -190 -25q-113 0 -183 36zM427 880h87l-134 -140h-74
z" />
    <glyph glyph-name="Cacute.loclPLK" horiz-adv-x="607" 
d="M187 24q-70 36 -103.5 112.5t-33.5 199.5t33.5 199.5t103.5 112.5t183 36q103 0 192 -35l-37 -57q-69 25 -144 25q-88 0 -141.5 -28.5t-79 -90t-25.5 -162.5t25.5 -162.5t79 -90t141.5 -28.5q90 0 179 26v-68q-87 -25 -190 -25q-113 0 -183 36zM360 880h75l-62 -140h-64z
" />
    <glyph glyph-name="Ccaron" unicode="&#x10c;" horiz-adv-x="607" 
d="M187 24q-70 36 -103.5 112.5t-33.5 199.5t33.5 199.5t103.5 112.5t183 36q103 0 192 -35l-37 -57q-69 25 -144 25q-88 0 -141.5 -28.5t-79 -90t-25.5 -162.5t25.5 -162.5t79 -90t141.5 -28.5q90 0 179 26v-68q-87 -25 -190 -25q-113 0 -183 36zM196 880h73l90 -95l90 95
h73l-123 -140h-80z" />
    <glyph glyph-name="Ccedilla" unicode="&#xc7;" horiz-adv-x="607" 
d="M160.5 173.5q25.5 -61.5 79 -90t141.5 -28.5q90 0 179 26v-68q-78 -22 -168 -25v-30q42 -3 61.5 -19t19.5 -49q0 -41 -29.5 -59t-94.5 -18q-40 0 -85 10v48q45 -12 85 -12q31 0 45.5 7t14.5 24q0 18 -14 25t-51 7h-8v67q-150 7 -218 90t-68 257q0 123 33.5 199.5
t103.5 112.5t183 36q103 0 192 -35l-37 -57q-69 25 -144 25q-88 0 -141.5 -28.5t-79 -90t-25.5 -162.5t25.5 -162.5z" />
    <glyph glyph-name="Ccircumflex" unicode="&#x108;" horiz-adv-x="607" 
d="M187 24q-70 36 -103.5 112.5t-33.5 199.5t33.5 199.5t103.5 112.5t183 36q103 0 192 -35l-37 -57q-69 25 -144 25q-88 0 -141.5 -28.5t-79 -90t-25.5 -162.5t25.5 -162.5t79 -90t141.5 -28.5q90 0 179 26v-68q-87 -25 -190 -25q-113 0 -183 36zM319 880h80l123 -140h-73
l-90 95l-90 -95h-73z" />
    <glyph glyph-name="Cdotaccent" unicode="&#x10a;" horiz-adv-x="607" 
d="M187 24q-70 36 -103.5 112.5t-33.5 199.5t33.5 199.5t103.5 112.5t183 36q103 0 192 -35l-37 -57q-69 25 -144 25q-88 0 -141.5 -28.5t-79 -90t-25.5 -162.5t25.5 -162.5t79 -90t141.5 -28.5q90 0 179 26v-68q-87 -25 -190 -25q-113 0 -183 36zM320 772.5
q-12 11.5 -12 37.5t12 37.5t39 11.5t39 -11.5t12 -37.5t-12 -37.5t-39 -11.5t-39 11.5z" />
    <glyph glyph-name="D" unicode="D" horiz-adv-x="706" 
d="M507 637.5q77 -34.5 113 -108.5t36 -193t-36 -193t-113 -108.5t-201 -34.5h-222v672h222q124 0 201 -34.5zM456.5 93.5q59.5 27.5 87.5 86.5t28 156t-28 156t-87.5 86.5t-156.5 27.5h-133v-540h133q97 0 156.5 27.5z" />
    <glyph glyph-name="Eth" unicode="&#xd0;" horiz-adv-x="722" 
d="M523 637.5q77 -34.5 113 -108.5t36 -193t-36 -193t-113 -108.5t-201 -34.5h-222v312h-79v60h79v300h222q124 0 201 -34.5zM472.5 93.5q59.5 27.5 87.5 86.5t28 156t-28 156t-87.5 86.5t-156.5 27.5h-133v-234h181v-60h-181v-246h133q97 0 156.5 27.5z" />
    <glyph glyph-name="Dcaron" unicode="&#x10e;" horiz-adv-x="706" 
d="M507 637.5q77 -34.5 113 -108.5t36 -193t-36 -193t-113 -108.5t-201 -34.5h-222v672h222q124 0 201 -34.5zM456.5 93.5q59.5 27.5 87.5 86.5t28 156t-28 156t-87.5 86.5t-156.5 27.5h-133v-540h133q97 0 156.5 27.5zM174 880h73l90 -95l90 95h73l-123 -140h-80z" />
    <glyph glyph-name="Dcroat" unicode="&#x110;" horiz-adv-x="721" 
d="M523 637.5q77 -34.5 113 -108.5t36 -193t-36 -193t-113 -108.5t-201 -34.5h-222v312h-79v60h79v300h222q124 0 201 -34.5zM472.5 93.5q59.5 27.5 87.5 86.5t28 156t-28 156t-87.5 86.5t-156.5 27.5h-133v-234h181v-60h-181v-246h133q97 0 156.5 27.5z" />
    <glyph glyph-name="E" unicode="E" horiz-adv-x="588" 
d="M543 64v-64h-459v672h455l-41 -64h-331v-235h291v-62h-291v-247h376z" />
    <glyph glyph-name="Eacute" unicode="&#xc9;" horiz-adv-x="588" 
d="M543 64v-64h-459v672h455l-41 -64h-331v-235h291v-62h-291v-247h376zM375 880h87l-134 -140h-74z" />
    <glyph glyph-name="Ebreve" unicode="&#x114;" horiz-adv-x="588" 
d="M543 64v-64h-459v672h455l-41 -64h-331v-235h291v-62h-291v-247h376zM191 766q-36 35 -36 114h58q0 -50 22 -72t72 -22t72 22t22 72h58q0 -79 -36 -114t-116 -35t-116 35z" />
    <glyph glyph-name="Ecaron" unicode="&#x11a;" horiz-adv-x="588" 
d="M543 64v-64h-459v672h455l-41 -64h-331v-235h291v-62h-291v-247h376zM144 880h73l90 -95l90 95h73l-123 -140h-80z" />
    <glyph glyph-name="Ecircumflex" unicode="&#xca;" horiz-adv-x="588" 
d="M543 64v-64h-459v672h455l-41 -64h-331v-235h291v-62h-291v-247h376zM267 880h80l123 -140h-73l-90 95l-90 -95h-73z" />
    <glyph glyph-name="Edieresis" unicode="&#xcb;" horiz-adv-x="588" 
d="M543 64v-64h-459v672h455l-41 -64h-331v-235h291v-62h-291v-247h376zM169 772.5q-12 11.5 -12 37.5t12 37.5t38 11.5q27 0 39 -11.5t12 -37.5t-12 -37.5t-39 -11.5q-26 0 -38 11.5zM368 772.5q-12 11.5 -12 37.5t12 37.5t39 11.5q26 0 38 -11.5t12 -37.5t-12 -37.5
t-38 -11.5q-27 0 -39 11.5z" />
    <glyph glyph-name="Edotaccent" unicode="&#x116;" horiz-adv-x="588" 
d="M543 64v-64h-459v672h455l-41 -64h-331v-235h291v-62h-291v-247h376zM268 772.5q-12 11.5 -12 37.5t12 37.5t39 11.5t39 -11.5t12 -37.5t-12 -37.5t-39 -11.5t-39 11.5z" />
    <glyph glyph-name="Egrave" unicode="&#xc8;" horiz-adv-x="588" 
d="M543 64v-64h-459v672h455l-41 -64h-331v-235h291v-62h-291v-247h376zM152 880h87l121 -140h-74z" />
    <glyph glyph-name="Emacron" unicode="&#x112;" horiz-adv-x="588" 
d="M543 64v-64h-459v672h455l-41 -64h-331v-235h291v-62h-291v-247h376zM156 839h302v-57h-302v57z" />
    <glyph glyph-name="Eogonek" unicode="&#x118;" horiz-adv-x="588" 
d="M477.5 -57.5q-18.5 -22.5 -18.5 -44.5q0 -19 10.5 -27t34.5 -8q21 0 39 6v-49q-19 -7 -57 -7q-91 0 -91 73q0 30 19 57t61 57h-391v672h455l-41 -64h-331v-235h291v-62h-291v-247h376v-64q-47 -35 -65.5 -57.5z" />
    <glyph glyph-name="F" unicode="F" horiz-adv-x="545" 
d="M167 606v-258h280v-64h-280v-284h-83v672h446l-43 -66h-320z" />
    <glyph glyph-name="G" unicode="G" horiz-adv-x="677" 
d="M612 351v-336q-111 -27 -234 -27q-116 0 -188 36t-106 112.5t-34 199.5t35 199.5t108.5 112.5t192.5 36q116 0 212 -33l-37 -57q-68 24 -164 24q-94 0 -152 -28.5t-85.5 -90.5t-27.5 -163t26 -163t81.5 -90.5t146.5 -28.5q79 0 149 16v222h-170l38 59h209z" />
    <glyph glyph-name="Gbreve" unicode="&#x11e;" horiz-adv-x="677" 
d="M612 351v-336q-111 -27 -234 -27q-116 0 -188 36t-106 112.5t-34 199.5t35 199.5t108.5 112.5t192.5 36q116 0 212 -33l-37 -57q-68 24 -164 24q-94 0 -152 -28.5t-85.5 -90.5t-27.5 -163t26 -163t81.5 -90.5t146.5 -28.5q79 0 149 16v222h-170l38 59h209zM262 766
q-36 35 -36 114h58q0 -50 22 -72t72 -22t72 22t22 72h58q0 -79 -36 -114t-116 -35t-116 35z" />
    <glyph glyph-name="Gcircumflex" unicode="&#x11c;" horiz-adv-x="677" 
d="M612 351v-336q-111 -27 -234 -27q-116 0 -188 36t-106 112.5t-34 199.5t35 199.5t108.5 112.5t192.5 36q116 0 212 -33l-37 -57q-68 24 -164 24q-94 0 -152 -28.5t-85.5 -90.5t-27.5 -163t26 -163t81.5 -90.5t146.5 -28.5q79 0 149 16v222h-170l38 59h209zM338 880h80
l123 -140h-73l-90 95l-90 -95h-73z" />
    <glyph glyph-name="Gcommaaccent" unicode="&#x122;" horiz-adv-x="677" 
d="M612 351v-336q-111 -27 -234 -27q-116 0 -188 36t-106 112.5t-34 199.5t35 199.5t108.5 112.5t192.5 36q116 0 212 -33l-37 -57q-68 24 -164 24q-94 0 -152 -28.5t-85.5 -90.5t-27.5 -163t26 -163t81.5 -90.5t146.5 -28.5q79 0 149 16v222h-170l38 59h209zM349 -68h78
l-51 -142h-63z" />
    <glyph glyph-name="Gdotaccent" unicode="&#x120;" horiz-adv-x="677" 
d="M612 351v-336q-111 -27 -234 -27q-116 0 -188 36t-106 112.5t-34 199.5t35 199.5t108.5 112.5t192.5 36q116 0 212 -33l-37 -57q-68 24 -164 24q-94 0 -152 -28.5t-85.5 -90.5t-27.5 -163t26 -163t81.5 -90.5t146.5 -28.5q79 0 149 16v222h-170l38 59h209zM339 772.5
q-12 11.5 -12 37.5t12 37.5t39 11.5t39 -11.5t12 -37.5t-12 -37.5t-39 -11.5t-39 11.5z" />
    <glyph glyph-name="H" unicode="H" horiz-adv-x="738" 
d="M654 672v-672h-83v309h-404v-309h-83v672h83v-297h404v297h83z" />
    <glyph glyph-name="Hbar" unicode="&#x126;" horiz-adv-x="737" 
d="M724 521h-70v-521h-83v306h-404v-306h-83v521h-71v56h71v95h83v-95h404v95h83v-95h70v-56zM571 521h-404v-149h404v149z" />
    <glyph glyph-name="Hcircumflex" unicode="&#x124;" horiz-adv-x="738" 
d="M654 672v-672h-83v309h-404v-309h-83v672h83v-297h404v297h83zM329 880h80l123 -140h-73l-90 95l-90 -95h-73z" />
    <glyph glyph-name="I" unicode="I" horiz-adv-x="251" 
d="M84 672h83v-672h-83v672z" />
    <glyph glyph-name="IJ" unicode="&#x132;" horiz-adv-x="692" 
d="M84 672h83v-672h-83v672zM608 672v-478q0 -107 -50.5 -156.5t-160.5 -49.5q-64 0 -116 13v67q59 -13 104 -13q75 0 107.5 33t32.5 109v409h-187l43 66h227z" />
    <glyph glyph-name="Iacute" unicode="&#xcd;" horiz-adv-x="251" 
d="M84 672h83v-672h-83v672zM193 880h87l-134 -140h-74z" />
    <glyph glyph-name="Iacute_J.loclNLD" horiz-adv-x="692" 
d="M84 672h83v-672h-83v672zM193 880h87l-134 -140h-74zM608 672v-478q0 -107 -50.5 -156.5t-160.5 -49.5q-64 0 -116 13v67q59 -13 104 -13q75 0 107.5 33t32.5 109v409h-187l43 66h227zM635 880h87l-134 -140h-74z" />
    <glyph glyph-name="Ibreve" unicode="&#x12c;" horiz-adv-x="251" 
d="M84 672h83v-672h-83v672zM9 766q-36 35 -36 114h58q0 -50 22 -72t72 -22t72 22t22 72h58q0 -79 -36 -114t-116 -35t-116 35z" />
    <glyph glyph-name="Icircumflex" unicode="&#xce;" horiz-adv-x="251" 
d="M84 672h83v-672h-83v672zM85 880h80l123 -140h-73l-90 95l-90 -95h-73z" />
    <glyph glyph-name="Idieresis" unicode="&#xcf;" horiz-adv-x="251" 
d="M84 672h83v-672h-83v672zM-13 772.5q-12 11.5 -12 37.5t12 37.5t38 11.5q27 0 39 -11.5t12 -37.5t-12 -37.5t-39 -11.5q-26 0 -38 11.5zM186 772.5q-12 11.5 -12 37.5t12 37.5t39 11.5q26 0 38 -11.5t12 -37.5t-12 -37.5t-38 -11.5q-27 0 -39 11.5z" />
    <glyph glyph-name="Idotaccent" unicode="&#x130;" horiz-adv-x="251" 
d="M84 672h83v-672h-83v672zM86 772.5q-12 11.5 -12 37.5t12 37.5t39 11.5t39 -11.5t12 -37.5t-12 -37.5t-39 -11.5t-39 11.5z" />
    <glyph glyph-name="Igrave" unicode="&#xcc;" horiz-adv-x="251" 
d="M84 672h83v-672h-83v672zM-30 880h87l121 -140h-74z" />
    <glyph glyph-name="Imacron" unicode="&#x12a;" horiz-adv-x="251" 
d="M84 672h83v-672h-83v672zM-26 839h302v-57h-302v57z" />
    <glyph glyph-name="Iogonek" unicode="&#x12e;" horiz-adv-x="251" 
d="M101.5 -57.5q-18.5 -22.5 -18.5 -44.5q0 -19 10.5 -27t34.5 -8q21 0 39 6v-49q-19 -7 -57 -7q-91 0 -91 73q0 30 19 57t61 57h-15v672h83v-672q-47 -35 -65.5 -57.5z" />
    <glyph glyph-name="Itilde" unicode="&#x128;" horiz-adv-x="251" 
d="M84 672h83v-672h-83v672zM-30 761q0 54 21 78t67 24q20 0 36.5 -7.5t38.5 -22.5q17 -11 27 -16t21 -5q22 0 31.5 11.5t9.5 39.5v7h58v-11q0 -54 -21 -78t-67 -24q-20 0 -36.5 7.5t-38.5 22.5q-17 11 -27 16t-21 5q-22 0 -31.5 -11.5t-9.5 -39.5v-6h-58v10z" />
    <glyph glyph-name="J" unicode="J" horiz-adv-x="441" 
d="M357 672v-478q0 -107 -50.5 -156.5t-160.5 -49.5q-64 0 -116 13v67q59 -13 104 -13q75 0 107.5 33t32.5 109v409h-187l43 66h227z" />
    <glyph glyph-name="Jcircumflex" unicode="&#x134;" horiz-adv-x="441" 
d="M357 672v-478q0 -107 -50.5 -156.5t-160.5 -49.5q-64 0 -116 13v67q59 -13 104 -13q75 0 107.5 33t32.5 109v409h-187l43 66h227zM200 880h80l123 -140h-73l-90 95l-90 -95h-73z" />
    <glyph glyph-name="K" unicode="K" horiz-adv-x="607" 
d="M246 298h-79v-298h-83v672h83v-335l320 335h96l-295 -309l299 -363h-98z" />
    <glyph glyph-name="Kcommaaccent" unicode="&#x136;" horiz-adv-x="607" 
d="M246 298h-79v-298h-83v672h83v-335l320 335h96l-295 -309l299 -363h-98zM276 -68h78l-51 -142h-63z" />
    <glyph glyph-name="L" unicode="L" horiz-adv-x="513" 
d="M492 66v-66h-408v672h83v-606h325z" />
    <glyph glyph-name="Lacute" unicode="&#x139;" horiz-adv-x="513" 
d="M492 66v-66h-408v672h83v-606h325zM194 880h87l-134 -140h-74z" />
    <glyph glyph-name="Lcaron" unicode="&#x13d;" horiz-adv-x="513" 
d="M492 66v-66h-408v672h83v-606h325zM354 672h71l-62 -178h-56z" />
    <glyph glyph-name="Lcommaaccent" unicode="&#x13b;" horiz-adv-x="513" 
d="M492 66v-66h-408v672h83v-606h325zM264 -68h78l-51 -142h-63z" />
    <glyph glyph-name="Ldot" unicode="&#x13f;" horiz-adv-x="513" 
d="M492 66v-66h-408v672h83v-606h325zM319 317.5q-12 11.5 -12 37.5t12 37.5t39 11.5t39 -11.5t12 -37.5t-12 -37.5t-39 -11.5t-39 11.5z" />
    <glyph glyph-name="Lslash" unicode="&#x141;" horiz-adv-x="529" 
d="M508 66v-66h-408v283l-79 -40v64l79 40v325h83v-284l165 83v-64l-165 -83v-258h325z" />
    <glyph glyph-name="M" unicode="M" horiz-adv-x="818" 
d="M734 672v-672h-77v546l-219 -345h-58l-219 347v-548h-77v672h79l246 -392l246 392h79z" />
    <glyph glyph-name="N" unicode="N" horiz-adv-x="738" 
d="M654 672v-672h-81l-412 558v-558h-77v672h81l412 -558v558h77z" />
    <glyph glyph-name="Nacute" unicode="&#x143;" horiz-adv-x="738" 
d="M654 672v-672h-81l-412 558v-558h-77v672h81l412 -558v558h77zM447 880h87l-134 -140h-74z" />
    <glyph glyph-name="Nacute.loclPLK" horiz-adv-x="738" 
d="M654 672v-672h-81l-412 558v-558h-77v672h81l412 -558v558h77zM380 880h75l-62 -140h-64z" />
    <glyph glyph-name="Ncaron" unicode="&#x147;" horiz-adv-x="738" 
d="M654 672v-672h-81l-412 558v-558h-77v672h81l412 -558v558h77zM216 880h73l90 -95l90 95h73l-123 -140h-80z" />
    <glyph glyph-name="Ncommaaccent" unicode="&#x145;" horiz-adv-x="738" 
d="M654 672v-672h-81l-412 558v-558h-77v672h81l412 -558v558h77zM337 -68h78l-51 -142h-63z" />
    <glyph glyph-name="Eng" unicode="&#x14a;" horiz-adv-x="738" 
d="M654 672v-653q0 -107 -50.5 -156.5t-160.5 -49.5q-63 0 -116 13v67q59 -13 104 -13q74 0 108 28t35 89l-413 560v-557h-77v672h81l412 -558v558h77z" />
    <glyph glyph-name="Ntilde" unicode="&#xd1;" horiz-adv-x="738" 
d="M654 672v-672h-81l-412 558v-558h-77v672h81l412 -558v558h77zM224 761q0 54 21 78t67 24q20 0 36.5 -7.5t38.5 -22.5q17 -11 27 -16t21 -5q22 0 31.5 11.5t9.5 39.5v7h58v-11q0 -54 -21 -78t-67 -24q-20 0 -36.5 7.5t-38.5 22.5q-17 11 -27 16t-21 5q-22 0 -31.5 -11.5
t-9.5 -39.5v-6h-58v10z" />
    <glyph glyph-name="O" unicode="O" horiz-adv-x="738" 
d="M186 24q-70 36 -103 112.5t-33 199.5t33 199.5t103 112.5t183 36t183 -36t103 -112.5t33 -199.5t-33 -199.5t-103 -112.5t-183 -36t-183 36zM504.5 83.5q51.5 28.5 75.5 90t24 162.5t-24 162.5t-75.5 90t-135.5 28.5t-135.5 -28.5t-75.5 -90t-24 -162.5t24 -162.5
t75.5 -90t135.5 -28.5t135.5 28.5z" />
    <glyph glyph-name="Oacute" unicode="&#xd3;" horiz-adv-x="738" 
d="M186 24q-70 36 -103 112.5t-33 199.5t33 199.5t103 112.5t183 36t183 -36t103 -112.5t33 -199.5t-33 -199.5t-103 -112.5t-183 -36t-183 36zM504.5 83.5q51.5 28.5 75.5 90t24 162.5t-24 162.5t-75.5 90t-135.5 28.5t-135.5 -28.5t-75.5 -90t-24 -162.5t24 -162.5
t75.5 -90t135.5 -28.5t135.5 28.5zM437 880h87l-134 -140h-74z" />
    <glyph glyph-name="Oacute.loclPLK" horiz-adv-x="738" 
d="M186 24q-70 36 -103 112.5t-33 199.5t33 199.5t103 112.5t183 36t183 -36t103 -112.5t33 -199.5t-33 -199.5t-103 -112.5t-183 -36t-183 36zM504.5 83.5q51.5 28.5 75.5 90t24 162.5t-24 162.5t-75.5 90t-135.5 28.5t-135.5 -28.5t-75.5 -90t-24 -162.5t24 -162.5
t75.5 -90t135.5 -28.5t135.5 28.5zM370 880h75l-62 -140h-64z" />
    <glyph glyph-name="Obreve" unicode="&#x14e;" horiz-adv-x="738" 
d="M186 24q-70 36 -103 112.5t-33 199.5t33 199.5t103 112.5t183 36t183 -36t103 -112.5t33 -199.5t-33 -199.5t-103 -112.5t-183 -36t-183 36zM504.5 83.5q51.5 28.5 75.5 90t24 162.5t-24 162.5t-75.5 90t-135.5 28.5t-135.5 -28.5t-75.5 -90t-24 -162.5t24 -162.5
t75.5 -90t135.5 -28.5t135.5 28.5zM253 766q-36 35 -36 114h58q0 -50 22 -72t72 -22t72 22t22 72h58q0 -79 -36 -114t-116 -35t-116 35z" />
    <glyph glyph-name="Ocircumflex" unicode="&#xd4;" horiz-adv-x="738" 
d="M186 24q-70 36 -103 112.5t-33 199.5t33 199.5t103 112.5t183 36t183 -36t103 -112.5t33 -199.5t-33 -199.5t-103 -112.5t-183 -36t-183 36zM504.5 83.5q51.5 28.5 75.5 90t24 162.5t-24 162.5t-75.5 90t-135.5 28.5t-135.5 -28.5t-75.5 -90t-24 -162.5t24 -162.5
t75.5 -90t135.5 -28.5t135.5 28.5zM329 880h80l123 -140h-73l-90 95l-90 -95h-73z" />
    <glyph glyph-name="Odieresis" unicode="&#xd6;" horiz-adv-x="738" 
d="M186 24q-70 36 -103 112.5t-33 199.5t33 199.5t103 112.5t183 36t183 -36t103 -112.5t33 -199.5t-33 -199.5t-103 -112.5t-183 -36t-183 36zM504.5 83.5q51.5 28.5 75.5 90t24 162.5t-24 162.5t-75.5 90t-135.5 28.5t-135.5 -28.5t-75.5 -90t-24 -162.5t24 -162.5
t75.5 -90t135.5 -28.5t135.5 28.5zM231 772.5q-12 11.5 -12 37.5t12 37.5t38 11.5q27 0 39 -11.5t12 -37.5t-12 -37.5t-39 -11.5q-26 0 -38 11.5zM430 772.5q-12 11.5 -12 37.5t12 37.5t39 11.5q26 0 38 -11.5t12 -37.5t-12 -37.5t-38 -11.5q-27 0 -39 11.5z" />
    <glyph glyph-name="Ograve" unicode="&#xd2;" horiz-adv-x="738" 
d="M186 24q-70 36 -103 112.5t-33 199.5t33 199.5t103 112.5t183 36t183 -36t103 -112.5t33 -199.5t-33 -199.5t-103 -112.5t-183 -36t-183 36zM504.5 83.5q51.5 28.5 75.5 90t24 162.5t-24 162.5t-75.5 90t-135.5 28.5t-135.5 -28.5t-75.5 -90t-24 -162.5t24 -162.5
t75.5 -90t135.5 -28.5t135.5 28.5zM214 880h87l121 -140h-74z" />
    <glyph glyph-name="Ohungarumlaut" unicode="&#x150;" horiz-adv-x="738" 
d="M186 24q-70 36 -103 112.5t-33 199.5t33 199.5t103 112.5t183 36t183 -36t103 -112.5t33 -199.5t-33 -199.5t-103 -112.5t-183 -36t-183 36zM504.5 83.5q51.5 28.5 75.5 90t24 162.5t-24 162.5t-75.5 90t-135.5 28.5t-135.5 -28.5t-75.5 -90t-24 -162.5t24 -162.5
t75.5 -90t135.5 -28.5t135.5 28.5zM338 880h86l-133 -140h-75zM537 880h87l-133 -140h-75z" />
    <glyph glyph-name="Omacron" unicode="&#x14c;" horiz-adv-x="738" 
d="M186 24q-70 36 -103 112.5t-33 199.5t33 199.5t103 112.5t183 36t183 -36t103 -112.5t33 -199.5t-33 -199.5t-103 -112.5t-183 -36t-183 36zM504.5 83.5q51.5 28.5 75.5 90t24 162.5t-24 162.5t-75.5 90t-135.5 28.5t-135.5 -28.5t-75.5 -90t-24 -162.5t24 -162.5
t75.5 -90t135.5 -28.5t135.5 28.5zM218 839h302v-57h-302v57z" />
    <glyph glyph-name="Oslash" unicode="&#xd8;" horiz-adv-x="737" 
d="M668 499.5q20 -67.5 20 -163.5q0 -123 -33 -199.5t-103 -112.5t-183 -36q-123 0 -197 43l-47 -63h-64l71 95q-42 42 -62.5 109t-20.5 164q0 123 33 199.5t103.5 112.5t183.5 36q123 0 196 -43l48 63h64l-71 -95q42 -42 62 -109.5zM179 125l342 457q-56 38 -152 38
q-86 0 -139 -29t-77.5 -91t-24.5 -164q0 -146 51 -211zM507.5 81q52.5 29 77 91t24.5 164q0 143 -51 210l-342 -457q55 -37 153 -37q86 0 138.5 29z" />
    <glyph glyph-name="Oslashacute" unicode="&#x1fe;" horiz-adv-x="737" 
d="M668 499.5q20 -67.5 20 -163.5q0 -123 -33 -199.5t-103 -112.5t-183 -36q-123 0 -197 43l-47 -63h-64l71 95q-42 42 -62.5 109t-20.5 164q0 123 33 199.5t103.5 112.5t183.5 36q123 0 196 -43l48 63h64l-71 -95q42 -42 62 -109.5zM179 125l342 457q-56 38 -152 38
q-86 0 -139 -29t-77.5 -91t-24.5 -164q0 -146 51 -211zM507.5 81q52.5 29 77 91t24.5 164q0 143 -51 210l-342 -457q55 -37 153 -37q86 0 138.5 29zM437 880h87l-134 -140h-74z" />
    <glyph glyph-name="Otilde" unicode="&#xd5;" horiz-adv-x="738" 
d="M186 24q-70 36 -103 112.5t-33 199.5t33 199.5t103 112.5t183 36t183 -36t103 -112.5t33 -199.5t-33 -199.5t-103 -112.5t-183 -36t-183 36zM504.5 83.5q51.5 28.5 75.5 90t24 162.5t-24 162.5t-75.5 90t-135.5 28.5t-135.5 -28.5t-75.5 -90t-24 -162.5t24 -162.5
t75.5 -90t135.5 -28.5t135.5 28.5zM214 761q0 54 21 78t67 24q20 0 36.5 -7.5t38.5 -22.5q17 -11 27 -16t21 -5q22 0 31.5 11.5t9.5 39.5v7h58v-11q0 -54 -21 -78t-67 -24q-20 0 -36.5 7.5t-38.5 22.5q-17 11 -27 16t-21 5q-22 0 -31.5 -11.5t-9.5 -39.5v-6h-58v10z" />
    <glyph glyph-name="OE" unicode="&#x152;" horiz-adv-x="1031" 
d="M986 64v-64h-586q-124 0 -200.5 34.5t-113 108.5t-36.5 193t36.5 193t113 108.5t200.5 34.5h582l-41 -64h-331v-235h291v-62h-291v-247h376zM527 66v540h-121q-97 0 -156.5 -27.5t-87 -86.5t-27.5 -156t27.5 -156t87 -86.5t156.5 -27.5h121z" />
    <glyph glyph-name="P" unicode="P" horiz-adv-x="627" 
d="M530 623q56 -49 56 -158q0 -108 -56 -157t-180 -49h-184v-259h-82v672h266q124 0 180 -49zM467.5 357q37.5 33 37.5 108t-37.5 108t-123.5 33h-178v-282h178q86 0 123.5 33z" />
    <glyph glyph-name="Thorn" unicode="&#xde;" horiz-adv-x="627" 
d="M530 500q56 -49 56 -158t-56 -158t-180 -49h-184v-135h-82v672h82v-123h184q124 0 180 -49zM467.5 234q37.5 33 37.5 108t-37.5 108t-123.5 33h-178v-282h178q86 0 123.5 33z" />
    <glyph glyph-name="Q" unicode="Q" horiz-adv-x="738" 
d="M656.5 135.5q-33.5 -76.5 -105.5 -112.5l95 -145h-84l-79 121q-52 -11 -113 -11q-113 0 -183.5 36t-103.5 112.5t-33 199.5t33 199.5t103.5 112.5t183.5 36t183.5 -36t103.5 -112.5t33 -199.5q0 -124 -33.5 -200.5zM156.5 172q24.5 -62 76.5 -91t137 -29q43 0 75 7
l-115 176h84l98 -151q50 31 73 92t23 160q0 101 -24.5 162.5t-76.5 90t-137 28.5t-137 -28.5t-76.5 -90t-24.5 -162.5q0 -102 24.5 -164z" />
    <glyph glyph-name="R" unicode="R" horiz-adv-x="643" 
d="M338 275h-172v-275h-82v672h274q121 0 174.5 -46.5t53.5 -152.5q0 -89 -40 -134.5t-126 -54.5l180 -284h-91zM166 339h183q84 0 120 31t36 103q0 73 -36.5 104t-119.5 31h-183v-269z" />
    <glyph glyph-name="Racute" unicode="&#x154;" horiz-adv-x="643" 
d="M338 275h-172v-275h-82v672h274q121 0 174.5 -46.5t53.5 -152.5q0 -89 -40 -134.5t-126 -54.5l180 -284h-91zM166 339h183q84 0 120 31t36 103q0 73 -36.5 104t-119.5 31h-183v-269zM391 880h87l-134 -140h-74z" />
    <glyph glyph-name="Rcaron" unicode="&#x158;" horiz-adv-x="643" 
d="M338 275h-172v-275h-82v672h274q121 0 174.5 -46.5t53.5 -152.5q0 -89 -40 -134.5t-126 -54.5l180 -284h-91zM166 339h183q84 0 120 31t36 103q0 73 -36.5 104t-119.5 31h-183v-269zM160 880h73l90 -95l90 95h73l-123 -140h-80z" />
    <glyph glyph-name="Rcommaaccent" unicode="&#x156;" horiz-adv-x="643" 
d="M338 275h-172v-275h-82v672h274q121 0 174.5 -46.5t53.5 -152.5q0 -89 -40 -134.5t-126 -54.5l180 -284h-91zM166 339h183q84 0 120 31t36 103q0 73 -36.5 104t-119.5 31h-183v-269zM291 -68h78l-51 -142h-63z" />
    <glyph glyph-name="S" unicode="S" horiz-adv-x="588" 
d="M60 21v68q106 -35 220 -35q93 0 133.5 28.5t40.5 94.5q0 42 -23.5 66.5t-59 37t-96.5 26.5q-73 18 -116.5 35t-74.5 54t-31 101q0 97 61.5 142t197.5 45q114 0 207 -38l-37 -57q-49 18 -86.5 23.5t-87.5 5.5q-91 0 -130.5 -27.5t-39.5 -91.5q0 -39 23 -62.5t56.5 -35.5
t93.5 -26q74 -17 118.5 -34.5t76.5 -56t32 -105.5q0 -101 -59.5 -146t-192.5 -45q-123 0 -226 33z" />
    <glyph glyph-name="Sacute" unicode="&#x15a;" horiz-adv-x="588" 
d="M60 21v68q106 -35 220 -35q93 0 133.5 28.5t40.5 94.5q0 42 -23.5 66.5t-59 37t-96.5 26.5q-73 18 -116.5 35t-74.5 54t-31 101q0 97 61.5 142t197.5 45q114 0 207 -38l-37 -57q-49 18 -86.5 23.5t-87.5 5.5q-91 0 -130.5 -27.5t-39.5 -91.5q0 -39 23 -62.5t56.5 -35.5
t93.5 -26q74 -17 118.5 -34.5t76.5 -56t32 -105.5q0 -101 -59.5 -146t-192.5 -45q-123 0 -226 33zM362 880h87l-134 -140h-74z" />
    <glyph glyph-name="Sacute.loclPLK" horiz-adv-x="588" 
d="M60 21v68q106 -35 220 -35q93 0 133.5 28.5t40.5 94.5q0 42 -23.5 66.5t-59 37t-96.5 26.5q-73 18 -116.5 35t-74.5 54t-31 101q0 97 61.5 142t197.5 45q114 0 207 -38l-37 -57q-49 18 -86.5 23.5t-87.5 5.5q-91 0 -130.5 -27.5t-39.5 -91.5q0 -39 23 -62.5t56.5 -35.5
t93.5 -26q74 -17 118.5 -34.5t76.5 -56t32 -105.5q0 -101 -59.5 -146t-192.5 -45q-123 0 -226 33zM295 880h75l-62 -140h-64z" />
    <glyph glyph-name="Scaron" unicode="&#x160;" horiz-adv-x="588" 
d="M60 21v68q106 -35 220 -35q93 0 133.5 28.5t40.5 94.5q0 42 -23.5 66.5t-59 37t-96.5 26.5q-73 18 -116.5 35t-74.5 54t-31 101q0 97 61.5 142t197.5 45q114 0 207 -38l-37 -57q-49 18 -86.5 23.5t-87.5 5.5q-91 0 -130.5 -27.5t-39.5 -91.5q0 -39 23 -62.5t56.5 -35.5
t93.5 -26q74 -17 118.5 -34.5t76.5 -56t32 -105.5q0 -101 -59.5 -146t-192.5 -45q-123 0 -226 33zM131 880h73l90 -95l90 95h73l-123 -140h-80z" />
    <glyph glyph-name="Scedilla" unicode="&#x15e;" horiz-adv-x="588" 
d="M487 39.5q-51 -45.5 -165 -50.5v-31q42 -3 61.5 -19t19.5 -49q0 -41 -29.5 -59t-94.5 -18q-40 0 -85 10v48q45 -12 85 -12q31 0 45.5 7t14.5 24q0 18 -14 25t-51 7h-8v66q-112 3 -206 33v68q106 -35 220 -35q93 0 133.5 28.5t40.5 94.5q0 42 -23.5 66.5t-59 37
t-96.5 26.5q-73 18 -116.5 35t-74.5 54t-31 101q0 97 61.5 142t197.5 45q114 0 207 -38l-37 -57q-49 18 -86.5 23.5t-87.5 5.5q-91 0 -130.5 -27.5t-39.5 -91.5q0 -39 23 -62.5t56.5 -35.5t93.5 -26q74 -17 118.5 -34.5t76.5 -56t32 -105.5q0 -94 -51 -139.5z" />
    <glyph glyph-name="Scircumflex" unicode="&#x15c;" horiz-adv-x="588" 
d="M60 21v68q106 -35 220 -35q93 0 133.5 28.5t40.5 94.5q0 42 -23.5 66.5t-59 37t-96.5 26.5q-73 18 -116.5 35t-74.5 54t-31 101q0 97 61.5 142t197.5 45q114 0 207 -38l-37 -57q-49 18 -86.5 23.5t-87.5 5.5q-91 0 -130.5 -27.5t-39.5 -91.5q0 -39 23 -62.5t56.5 -35.5
t93.5 -26q74 -17 118.5 -34.5t76.5 -56t32 -105.5q0 -101 -59.5 -146t-192.5 -45q-123 0 -226 33zM254 880h80l123 -140h-73l-90 95l-90 -95h-73z" />
    <glyph glyph-name="Scommaaccent" unicode="&#x218;" horiz-adv-x="588" 
d="M60 21v68q106 -35 220 -35q93 0 133.5 28.5t40.5 94.5q0 42 -23.5 66.5t-59 37t-96.5 26.5q-73 18 -116.5 35t-74.5 54t-31 101q0 97 61.5 142t197.5 45q114 0 207 -38l-37 -57q-49 18 -86.5 23.5t-87.5 5.5q-91 0 -130.5 -27.5t-39.5 -91.5q0 -39 23 -62.5t56.5 -35.5
t93.5 -26q74 -17 118.5 -34.5t76.5 -56t32 -105.5q0 -101 -59.5 -146t-192.5 -45q-123 0 -226 33zM262 -68h78l-51 -142h-63z" />
    <glyph glyph-name="uni1E9E" unicode="&#x1e9e;" horiz-adv-x="737" 
d="M641 327q47 -46 47 -138q0 -106 -60.5 -153.5t-194.5 -47.5q-88 0 -162 18v65q79 -19 157 -19q95 0 137 32.5t42 105.5q0 72 -42 104t-138 32h-22v52l162 227q-80 15 -163 15q-128 0 -184 -51.5t-56 -169.5v-399h-80v404q0 147 74.5 213.5t242.5 66.5q128 0 255 -25v-53
l-162 -226q100 -7 147 -53z" />
    <glyph glyph-name="T" unicode="T" horiz-adv-x="586" 
d="M529 606h-192v-606h-83v606h-234v66h551z" />
    <glyph glyph-name="Tbar" unicode="&#x166;" horiz-adv-x="586" 
d="M337 606v-260h152v-59h-152v-287h-83v287h-152v59h152v260h-234v66h551l-42 -66h-192z" />
    <glyph glyph-name="Tcaron" unicode="&#x164;" horiz-adv-x="586" 
d="M529 606h-192v-606h-83v606h-234v66h551zM133 880h73l90 -95l90 95h73l-123 -140h-80z" />
    <glyph glyph-name="uni0162" unicode="&#x162;" horiz-adv-x="586" 
d="M529 606h-192v-606h-83v606h-234v66h551zM254 -68h78l-51 -142h-63z" />
    <glyph glyph-name="uni021A" unicode="&#x21a;" horiz-adv-x="586" 
d="M529 606h-192v-606h-83v606h-234v66h551zM254 -68h78l-51 -142h-63z" />
    <glyph glyph-name="U" unicode="U" horiz-adv-x="734" 
d="M149 51.5q-67 63.5 -67 205.5v415h83v-409q0 -111 47 -159.5t155 -48.5q107 0 154.5 48.5t47.5 159.5v409h83v-415q0 -142 -67 -205.5t-218 -63.5t-218 63.5z" />
    <glyph glyph-name="Uacute" unicode="&#xda;" horiz-adv-x="734" 
d="M149 51.5q-67 63.5 -67 205.5v415h83v-409q0 -111 47 -159.5t155 -48.5q107 0 154.5 48.5t47.5 159.5v409h83v-415q0 -142 -67 -205.5t-218 -63.5t-218 63.5zM435 880h87l-134 -140h-74z" />
    <glyph glyph-name="Ubreve" unicode="&#x16c;" horiz-adv-x="734" 
d="M149 51.5q-67 63.5 -67 205.5v415h83v-409q0 -111 47 -159.5t155 -48.5q107 0 154.5 48.5t47.5 159.5v409h83v-415q0 -142 -67 -205.5t-218 -63.5t-218 63.5zM251 766q-36 35 -36 114h58q0 -50 22 -72t72 -22t72 22t22 72h58q0 -79 -36 -114t-116 -35t-116 35z" />
    <glyph glyph-name="Ucircumflex" unicode="&#xdb;" horiz-adv-x="734" 
d="M149 51.5q-67 63.5 -67 205.5v415h83v-409q0 -111 47 -159.5t155 -48.5q107 0 154.5 48.5t47.5 159.5v409h83v-415q0 -142 -67 -205.5t-218 -63.5t-218 63.5zM327 880h80l123 -140h-73l-90 95l-90 -95h-73z" />
    <glyph glyph-name="Udieresis" unicode="&#xdc;" horiz-adv-x="734" 
d="M149 51.5q-67 63.5 -67 205.5v415h83v-409q0 -111 47 -159.5t155 -48.5q107 0 154.5 48.5t47.5 159.5v409h83v-415q0 -142 -67 -205.5t-218 -63.5t-218 63.5zM229 772.5q-12 11.5 -12 37.5t12 37.5t38 11.5q27 0 39 -11.5t12 -37.5t-12 -37.5t-39 -11.5q-26 0 -38 11.5z
M428 772.5q-12 11.5 -12 37.5t12 37.5t39 11.5q26 0 38 -11.5t12 -37.5t-12 -37.5t-38 -11.5q-27 0 -39 11.5z" />
    <glyph glyph-name="Ugrave" unicode="&#xd9;" horiz-adv-x="734" 
d="M149 51.5q-67 63.5 -67 205.5v415h83v-409q0 -111 47 -159.5t155 -48.5q107 0 154.5 48.5t47.5 159.5v409h83v-415q0 -142 -67 -205.5t-218 -63.5t-218 63.5zM212 880h87l121 -140h-74z" />
    <glyph glyph-name="Uhungarumlaut" unicode="&#x170;" horiz-adv-x="734" 
d="M149 51.5q-67 63.5 -67 205.5v415h83v-409q0 -111 47 -159.5t155 -48.5q107 0 154.5 48.5t47.5 159.5v409h83v-415q0 -142 -67 -205.5t-218 -63.5t-218 63.5zM336 880h86l-133 -140h-75zM535 880h87l-133 -140h-75z" />
    <glyph glyph-name="Umacron" unicode="&#x16a;" horiz-adv-x="734" 
d="M149 51.5q-67 63.5 -67 205.5v415h83v-409q0 -111 47 -159.5t155 -48.5q107 0 154.5 48.5t47.5 159.5v409h83v-415q0 -142 -67 -205.5t-218 -63.5t-218 63.5zM216 839h302v-57h-302v57z" />
    <glyph glyph-name="Uogonek" unicode="&#x172;" horiz-adv-x="734" 
d="M296 -122q0 29 23.5 58t68.5 55q-19 -2 -53 -2q-132 0 -192.5 66t-60.5 202v415h83v-409q0 -111 47 -159.5t155 -48.5q107 0 154.5 48.5t47.5 159.5v409h83v-415q0 -75 -15 -123.5t-49 -80t-94 -54.5q-64 -24 -99 -54t-35 -57q0 -13 9.5 -19t31.5 -6t40 6v-49
q-19 -7 -57 -7q-88 0 -88 65z" />
    <glyph glyph-name="Uring" unicode="&#x16e;" horiz-adv-x="734" 
d="M149 51.5q-67 63.5 -67 205.5v415h83v-409q0 -111 47 -159.5t155 -48.5q107 0 154.5 48.5t47.5 159.5v409h83v-415q0 -142 -67 -205.5t-218 -63.5t-218 63.5zM288.5 738.5q-24.5 22.5 -24.5 71.5t24.5 71.5t78.5 22.5t78.5 -22.5t24.5 -71.5t-24.5 -71.5t-78.5 -22.5
t-78.5 22.5zM410 766.5q13 12.5 13 43.5q0 30 -13 43.5t-43 13.5t-43 -13.5t-13 -43.5t13 -43t43 -13t43 12.5z" />
    <glyph glyph-name="Utilde" unicode="&#x168;" horiz-adv-x="734" 
d="M149 51.5q-67 63.5 -67 205.5v415h83v-409q0 -111 47 -159.5t155 -48.5q107 0 154.5 48.5t47.5 159.5v409h83v-415q0 -142 -67 -205.5t-218 -63.5t-218 63.5zM212 761q0 54 21 78t67 24q20 0 36.5 -7.5t38.5 -22.5q17 -11 27 -16t21 -5q22 0 31.5 11.5t9.5 39.5v7h58v-11
q0 -54 -21 -78t-67 -24q-20 0 -36.5 7.5t-38.5 22.5q-17 11 -27 16t-21 5q-22 0 -31.5 -11.5t-9.5 -39.5v-6h-58v10z" />
    <glyph glyph-name="V" unicode="V" horiz-adv-x="648" 
d="M628 672l-257 -672h-94l-257 672h88l217 -589l217 589h86z" />
    <glyph glyph-name="W" unicode="W" horiz-adv-x="955" 
d="M935 672l-209 -672h-95l-146 478l-165 -478h-92l-208 672h84l173 -576l173 498l-24 78h82l170 -574l173 574h84z" />
    <glyph glyph-name="Wacute" unicode="&#x1e82;" horiz-adv-x="955" 
d="M935 672l-209 -672h-95l-146 478l-165 -478h-92l-208 672h84l173 -576l173 498l-24 78h82l170 -574l173 574h84zM527 880h87l-134 -140h-74z" />
    <glyph glyph-name="Wcircumflex" unicode="&#x174;" horiz-adv-x="955" 
d="M935 672l-209 -672h-95l-146 478l-165 -478h-92l-208 672h84l173 -576l173 498l-24 78h82l170 -574l173 574h84zM419 880h80l123 -140h-73l-90 95l-90 -95h-73z" />
    <glyph glyph-name="Wdieresis" unicode="&#x1e84;" horiz-adv-x="955" 
d="M935 672l-209 -672h-95l-146 478l-165 -478h-92l-208 672h84l173 -576l173 498l-24 78h82l170 -574l173 574h84zM321 772.5q-12 11.5 -12 37.5t12 37.5t38 11.5q27 0 39 -11.5t12 -37.5t-12 -37.5t-39 -11.5q-26 0 -38 11.5zM520 772.5q-12 11.5 -12 37.5t12 37.5
t39 11.5q26 0 38 -11.5t12 -37.5t-12 -37.5t-38 -11.5q-27 0 -39 11.5z" />
    <glyph glyph-name="Wgrave" unicode="&#x1e80;" horiz-adv-x="955" 
d="M935 672l-209 -672h-95l-146 478l-165 -478h-92l-208 672h84l173 -576l173 498l-24 78h82l170 -574l173 574h84zM304 880h87l121 -140h-74z" />
    <glyph glyph-name="X" unicode="X" horiz-adv-x="648" 
d="M526 0l-202 286l-202 -286h-94l243 342l-235 330h94l194 -274l194 274h94l-235 -330l243 -342h-94z" />
    <glyph glyph-name="Y" unicode="Y" horiz-adv-x="610" 
d="M346 283v-283h-83v285l-251 387h94l200 -314l197 314h95z" />
    <glyph glyph-name="Yacute" unicode="&#xdd;" horiz-adv-x="610" 
d="M346 283v-283h-83v285l-251 387h94l200 -314l197 314h95zM368 880h87l-134 -140h-74z" />
    <glyph glyph-name="Ycircumflex" unicode="&#x176;" horiz-adv-x="610" 
d="M346 283v-283h-83v285l-251 387h94l200 -314l197 314h95zM260 880h80l123 -140h-73l-90 95l-90 -95h-73z" />
    <glyph glyph-name="Ydieresis" unicode="&#x178;" horiz-adv-x="610" 
d="M346 283v-283h-83v285l-251 387h94l200 -314l197 314h95zM162 772.5q-12 11.5 -12 37.5t12 37.5t38 11.5q27 0 39 -11.5t12 -37.5t-12 -37.5t-39 -11.5q-26 0 -38 11.5zM361 772.5q-12 11.5 -12 37.5t12 37.5t39 11.5q26 0 38 -11.5t12 -37.5t-12 -37.5t-38 -11.5
q-27 0 -39 11.5z" />
    <glyph glyph-name="Ygrave" unicode="&#x1ef2;" horiz-adv-x="610" 
d="M346 283v-283h-83v285l-251 387h94l200 -314l197 314h95zM145 880h87l121 -140h-74z" />
    <glyph glyph-name="Z" unicode="Z" horiz-adv-x="619" 
d="M575 66v-66h-531v58l419 548h-411v66h515v-58l-418 -548h426z" />
    <glyph glyph-name="Zacute" unicode="&#x179;" horiz-adv-x="619" 
d="M575 66v-66h-531v58l419 548h-411v66h515v-58l-418 -548h426zM378 880h87l-134 -140h-74z" />
    <glyph glyph-name="Zacute.loclPLK" horiz-adv-x="619" 
d="M575 66v-66h-531v58l419 548h-411v66h515v-58l-418 -548h426zM311 880h75l-62 -140h-64z" />
    <glyph glyph-name="Zcaron" unicode="&#x17d;" horiz-adv-x="619" 
d="M575 66v-66h-531v58l419 548h-411v66h515v-58l-418 -548h426zM147 880h73l90 -95l90 95h73l-123 -140h-80z" />
    <glyph glyph-name="Zdotaccent" unicode="&#x17b;" horiz-adv-x="619" 
d="M575 66v-66h-531v58l419 548h-411v66h515v-58l-418 -548h426zM271 772.5q-12 11.5 -12 37.5t12 37.5t39 11.5t39 -11.5t12 -37.5t-12 -37.5t-39 -11.5t-39 11.5z" />
    <glyph glyph-name="a" unicode="a" horiz-adv-x="560" 
d="M525 67v-63q-22 -10 -55 -10q-66 0 -77 55q-45 -61 -163 -61q-95 0 -140 34.5t-45 108.5t48 107.5t154 33.5h136v47q0 62 -34 89t-111 27q-75 0 -150 -24v64q77 23 159 23q112 0 162.5 -43.5t50.5 -141.5v-210q0 -22 8 -31.5t24 -9.5q15 0 33 5zM350 71.5
q33 25.5 33 80.5v66h-130q-69 0 -99 -20t-30 -66q0 -44 29 -65t92 -21q72 0 105 25.5z" />
    <glyph glyph-name="aacute" unicode="&#xe1;" horiz-adv-x="560" 
d="M525 67v-63q-22 -10 -55 -10q-66 0 -77 55q-45 -61 -163 -61q-95 0 -140 34.5t-45 108.5t48 107.5t154 33.5h136v47q0 62 -34 89t-111 27q-75 0 -150 -24v64q77 23 159 23q112 0 162.5 -43.5t50.5 -141.5v-210q0 -22 8 -31.5t24 -9.5q15 0 33 5zM350 71.5
q33 25.5 33 80.5v66h-130q-69 0 -99 -20t-30 -66q0 -44 29 -65t92 -21q72 0 105 25.5zM338 704h87l-134 -140h-74z" />
    <glyph glyph-name="abreve" unicode="&#x103;" horiz-adv-x="560" 
d="M525 67v-63q-22 -10 -55 -10q-66 0 -77 55q-45 -61 -163 -61q-95 0 -140 34.5t-45 108.5t48 107.5t154 33.5h136v47q0 62 -34 89t-111 27q-75 0 -150 -24v64q77 23 159 23q112 0 162.5 -43.5t50.5 -141.5v-210q0 -22 8 -31.5t24 -9.5q15 0 33 5zM350 71.5
q33 25.5 33 80.5v66h-130q-69 0 -99 -20t-30 -66q0 -44 29 -65t92 -21q72 0 105 25.5zM154 590q-36 35 -36 114h58q0 -50 22 -72t72 -22t72 22t22 72h58q0 -79 -36 -114t-116 -35t-116 35z" />
    <glyph glyph-name="uni01CE" unicode="&#x1ce;" horiz-adv-x="560" 
d="M525 67v-63q-22 -10 -55 -10q-66 0 -77 55q-45 -61 -163 -61q-95 0 -140 34.5t-45 108.5t48 107.5t154 33.5h136v47q0 62 -34 89t-111 27q-75 0 -150 -24v64q77 23 159 23q112 0 162.5 -43.5t50.5 -141.5v-210q0 -22 8 -31.5t24 -9.5q15 0 33 5zM350 71.5
q33 25.5 33 80.5v66h-130q-69 0 -99 -20t-30 -66q0 -44 29 -65t92 -21q72 0 105 25.5zM433 704l-123 -140h-80l-123 140h73l90 -95l90 95h73z" />
    <glyph glyph-name="acircumflex" unicode="&#xe2;" horiz-adv-x="560" 
d="M525 67v-63q-22 -10 -55 -10q-66 0 -77 55q-45 -61 -163 -61q-95 0 -140 34.5t-45 108.5t48 107.5t154 33.5h136v47q0 62 -34 89t-111 27q-75 0 -150 -24v64q77 23 159 23q112 0 162.5 -43.5t50.5 -141.5v-210q0 -22 8 -31.5t24 -9.5q15 0 33 5zM350 71.5
q33 25.5 33 80.5v66h-130q-69 0 -99 -20t-30 -66q0 -44 29 -65t92 -21q72 0 105 25.5zM360 564l-90 95l-90 -95h-73l123 140h80l123 -140h-73z" />
    <glyph glyph-name="adieresis" unicode="&#xe4;" horiz-adv-x="560" 
d="M525 67v-63q-22 -10 -55 -10q-66 0 -77 55q-45 -61 -163 -61q-95 0 -140 34.5t-45 108.5t48 107.5t154 33.5h136v47q0 62 -34 89t-111 27q-75 0 -150 -24v64q77 23 159 23q112 0 162.5 -43.5t50.5 -141.5v-210q0 -22 8 -31.5t24 -9.5q15 0 33 5zM350 71.5
q33 25.5 33 80.5v66h-130q-69 0 -99 -20t-30 -66q0 -44 29 -65t92 -21q72 0 105 25.5zM132 596.5q-12 11.5 -12 37.5t12 37.5t38 11.5q27 0 39 -11.5t12 -37.5t-12 -37.5t-39 -11.5q-26 0 -38 11.5zM331 596.5q-12 11.5 -12 37.5t12 37.5t39 11.5q26 0 38 -11.5t12 -37.5
t-12 -37.5t-38 -11.5q-27 0 -39 11.5z" />
    <glyph glyph-name="agrave" unicode="&#xe0;" horiz-adv-x="560" 
d="M525 67v-63q-22 -10 -55 -10q-66 0 -77 55q-45 -61 -163 -61q-95 0 -140 34.5t-45 108.5t48 107.5t154 33.5h136v47q0 62 -34 89t-111 27q-75 0 -150 -24v64q77 23 159 23q112 0 162.5 -43.5t50.5 -141.5v-210q0 -22 8 -31.5t24 -9.5q15 0 33 5zM350 71.5
q33 25.5 33 80.5v66h-130q-69 0 -99 -20t-30 -66q0 -44 29 -65t92 -21q72 0 105 25.5zM115 704h87l121 -140h-74z" />
    <glyph glyph-name="amacron" unicode="&#x101;" horiz-adv-x="560" 
d="M525 67v-63q-22 -10 -55 -10q-66 0 -77 55q-45 -61 -163 -61q-95 0 -140 34.5t-45 108.5t48 107.5t154 33.5h136v47q0 62 -34 89t-111 27q-75 0 -150 -24v64q77 23 159 23q112 0 162.5 -43.5t50.5 -141.5v-210q0 -22 8 -31.5t24 -9.5q15 0 33 5zM350 71.5
q33 25.5 33 80.5v66h-130q-69 0 -99 -20t-30 -66q0 -44 29 -65t92 -21q72 0 105 25.5zM119 663h302v-57h-302v57z" />
    <glyph glyph-name="aogonek" unicode="&#x105;" horiz-adv-x="560" 
d="M459 -56q-19 -23 -19 -46q0 -19 10.5 -27t34.5 -8q21 0 39 6v-49q-19 -7 -57 -7q-91 0 -91 73q0 29 17.5 54.5t56.5 55.5q-47 6 -57 53q-45 -61 -163 -61q-95 0 -140 34.5t-45 108.5t48 107.5t154 33.5h136v47q0 62 -34 89t-111 27q-75 0 -150 -24v64q77 23 159 23
q112 0 162.5 -43.5t50.5 -141.5v-210q0 -22 8 -31.5t24 -9.5q15 0 33 5v-63q-47 -37 -66 -60zM350 71.5q33 25.5 33 80.5v66h-130q-69 0 -99 -20t-30 -66q0 -44 29 -65t92 -21q72 0 105 25.5z" />
    <glyph glyph-name="aring" unicode="&#xe5;" horiz-adv-x="560" 
d="M525 67v-63q-22 -10 -55 -10q-66 0 -77 55q-45 -61 -163 -61q-95 0 -140 34.5t-45 108.5t48 107.5t154 33.5h136v47q0 62 -34 89t-111 27q-75 0 -150 -24v64q77 23 159 23q112 0 162.5 -43.5t50.5 -141.5v-210q0 -22 8 -31.5t24 -9.5q15 0 33 5zM350 71.5
q33 25.5 33 80.5v66h-130q-69 0 -99 -20t-30 -66q0 -44 29 -65t92 -21q72 0 105 25.5zM191.5 562.5q-24.5 22.5 -24.5 71.5t24.5 71.5t78.5 22.5t78.5 -22.5t24.5 -71.5t-24.5 -71.5t-78.5 -22.5t-78.5 22.5zM313 590.5q13 12.5 13 43.5q0 30 -13 43.5t-43 13.5t-43 -13.5
t-13 -43.5t13 -43t43 -13t43 12.5z" />
    <glyph glyph-name="atilde" unicode="&#xe3;" horiz-adv-x="560" 
d="M525 67v-63q-22 -10 -55 -10q-66 0 -77 55q-45 -61 -163 -61q-95 0 -140 34.5t-45 108.5t48 107.5t154 33.5h136v47q0 62 -34 89t-111 27q-75 0 -150 -24v64q77 23 159 23q112 0 162.5 -43.5t50.5 -141.5v-210q0 -22 8 -31.5t24 -9.5q15 0 33 5zM350 71.5
q33 25.5 33 80.5v66h-130q-69 0 -99 -20t-30 -66q0 -44 29 -65t92 -21q72 0 105 25.5zM115 585q0 54 21 78t67 24q20 0 36.5 -7.5t38.5 -22.5q17 -11 27 -16t21 -5q22 0 31.5 11.5t9.5 39.5v7h58v-11q0 -54 -21 -78t-67 -24q-20 0 -36.5 7.5t-38.5 22.5q-17 11 -27 16t-21 5
q-22 0 -31.5 -11.5t-9.5 -39.5v-6h-58v10z" />
    <glyph glyph-name="ae" unicode="&#xe6;" horiz-adv-x="863" 
d="M820 220h-362q3 -91 46.5 -130t141.5 -39q78 0 156 24v-64q-72 -23 -162 -23q-84 0 -138.5 23t-82.5 73q-35 -96 -186 -96q-97 0 -142.5 34.5t-45.5 108.5t48 107.5t154 33.5h136v47q0 62 -34 89t-111 27q-75 0 -150 -24v64q77 23 159 23q75 0 119 -22.5t61 -69.5
q45 92 184 92q111 0 160.5 -58.5t49.5 -188.5zM496 400.5q-36 -39.5 -38 -126.5h285q-2 89 -32.5 127.5t-100.5 38.5q-78 0 -114 -39.5zM350.5 71.5q32.5 25.5 32.5 80.5v66h-130q-69 0 -99 -20t-30 -66q0 -44 29.5 -65t93.5 -21q71 0 103.5 25.5z" />
    <glyph glyph-name="aeacute" unicode="&#x1fd;" horiz-adv-x="863" 
d="M820 220h-362q3 -91 46.5 -130t141.5 -39q78 0 156 24v-64q-72 -23 -162 -23q-84 0 -138.5 23t-82.5 73q-35 -96 -186 -96q-97 0 -142.5 34.5t-45.5 108.5t48 107.5t154 33.5h136v47q0 62 -34 89t-111 27q-75 0 -150 -24v64q77 23 159 23q75 0 119 -22.5t61 -69.5
q45 92 184 92q111 0 160.5 -58.5t49.5 -188.5zM496 400.5q-36 -39.5 -38 -126.5h285q-2 89 -32.5 127.5t-100.5 38.5q-78 0 -114 -39.5zM350.5 71.5q32.5 25.5 32.5 80.5v66h-130q-69 0 -99 -20t-30 -66q0 -44 29.5 -65t93.5 -21q71 0 103.5 25.5zM501 704h87l-134 -140h-74
z" />
    <glyph glyph-name="b" unicode="b" horiz-adv-x="572" 
d="M480 438q50 -60 50 -195t-50 -195t-161 -60q-64 0 -106 16.5t-67 51.5l-6 -56h-62v704h80v-268q24 32 63 47t98 15q111 0 161 -60zM413.5 96.5q34.5 44.5 34.5 146.5t-34.5 146.5t-113.5 44.5q-76 0 -109 -32.5t-33 -106.5v-104q0 -74 33 -106.5t109 -32.5
q79 0 113.5 44.5z" />
    <glyph glyph-name="c" unicode="c" horiz-adv-x="463" 
d="M99 48q-57 60 -57 195q0 134 57 194.5t183 60.5q84 0 146 -26l-35 -54q-50 16 -100 16q-90 0 -129.5 -44.5t-39.5 -146.5t39.5 -146.5t129.5 -44.5q68 0 131 20v-65q-61 -19 -142 -19q-126 0 -183 60z" />
    <glyph glyph-name="cacute" unicode="&#x107;" horiz-adv-x="463" 
d="M99 48q-57 60 -57 195q0 134 57 194.5t183 60.5q84 0 146 -26l-35 -54q-50 16 -100 16q-90 0 -129.5 -44.5t-39.5 -146.5t39.5 -146.5t129.5 -44.5q68 0 131 20v-65q-61 -19 -142 -19q-126 0 -183 60zM336 704h87l-134 -140h-74z" />
    <glyph glyph-name="cacute.loclPLK" horiz-adv-x="463" 
d="M99 48q-57 60 -57 195q0 134 57 194.5t183 60.5q84 0 146 -26l-35 -54q-50 16 -100 16q-90 0 -129.5 -44.5t-39.5 -146.5t39.5 -146.5t129.5 -44.5q68 0 131 20v-65q-61 -19 -142 -19q-126 0 -183 60zM280 704h75l-62 -140h-64z" />
    <glyph glyph-name="ccaron" unicode="&#x10d;" horiz-adv-x="463" 
d="M99 48q-57 60 -57 195q0 134 57 194.5t183 60.5q84 0 146 -26l-35 -54q-50 16 -100 16q-90 0 -129.5 -44.5t-39.5 -146.5t39.5 -146.5t129.5 -44.5q68 0 131 20v-65q-61 -19 -142 -19q-126 0 -183 60zM431 704l-123 -140h-80l-123 140h73l90 -95l90 95h73z" />
    <glyph glyph-name="ccedilla" unicode="&#xe7;" horiz-adv-x="463" 
d="M163.5 96.5q39.5 -44.5 129.5 -44.5q68 0 131 20v-65q-55 -17 -128 -19v-30q42 -3 61.5 -19t19.5 -49q0 -41 -29.5 -59t-94.5 -18q-40 0 -85 10v48q45 -12 85 -12q31 0 45.5 7t14.5 24q0 18 -14 25t-51 7h-8v68q-103 9 -150.5 69.5t-47.5 183.5q0 134 57 194.5t183 60.5
q84 0 146 -26l-35 -54q-50 16 -100 16q-90 0 -129.5 -44.5t-39.5 -146.5t39.5 -146.5z" />
    <glyph glyph-name="ccircumflex" unicode="&#x109;" horiz-adv-x="463" 
d="M99 48q-57 60 -57 195q0 134 57 194.5t183 60.5q84 0 146 -26l-35 -54q-50 16 -100 16q-90 0 -129.5 -44.5t-39.5 -146.5t39.5 -146.5t129.5 -44.5q68 0 131 20v-65q-61 -19 -142 -19q-126 0 -183 60zM358 564l-90 95l-90 -95h-73l123 140h80l123 -140h-73z" />
    <glyph glyph-name="cdotaccent" unicode="&#x10b;" horiz-adv-x="463" 
d="M99 48q-57 60 -57 195q0 134 57 194.5t183 60.5q84 0 146 -26l-35 -54q-50 16 -100 16q-90 0 -129.5 -44.5t-39.5 -146.5t39.5 -146.5t129.5 -44.5q68 0 131 20v-65q-61 -19 -142 -19q-126 0 -183 60zM229 596.5q-12 11.5 -12 37.5t12 37.5t39 11.5t39 -11.5t12 -37.5
t-12 -37.5t-39 -11.5t-39 11.5z" />
    <glyph glyph-name="d" unicode="d" horiz-adv-x="573" 
d="M495 704v-704h-63l-6 57q-25 -36 -66.5 -52.5t-105.5 -16.5q-112 0 -162 60t-50 195t50 195t162 60q59 0 97.5 -15t63.5 -47v268h80zM415 295q0 74 -33 106.5t-109 32.5q-80 0 -114.5 -44.5t-34.5 -146.5t34.5 -146.5t114.5 -44.5q76 0 109 32.5t33 106.5v104z" />
    <glyph glyph-name="eth" unicode="&#xf0;" horiz-adv-x="567" 
d="M479 504q36 -97 36 -241t-57 -209.5t-182 -65.5q-122 0 -177 59t-55 190q0 132 52.5 190.5t169.5 58.5q56 0 94 -16.5t60 -50.5q-25 133 -111 188l-77 -64h-72l105 87q-54 22 -133 25v61q111 -3 190 -38l46 38h72l-75 -63q78 -52 114 -149zM396 93.5q37 44.5 37 146.5
q0 96 -36 140.5t-115 44.5q-83 0 -119.5 -44t-36.5 -144t35 -144t115 -44q83 0 120 44.5z" />
    <glyph glyph-name="dcaron" unicode="&#x10f;" horiz-adv-x="656" 
d="M495 704v-704h-63l-6 57q-25 -36 -66.5 -52.5t-105.5 -16.5q-112 0 -162 60t-50 195t50 195t162 60q59 0 97.5 -15t63.5 -47v268h80zM415 295q0 74 -33 106.5t-109 32.5q-80 0 -114.5 -44.5t-34.5 -146.5t34.5 -146.5t114.5 -44.5q76 0 109 32.5t33 106.5v104zM603 704
h71l-62 -178h-56z" />
    <glyph glyph-name="dcroat" unicode="&#x111;" horiz-adv-x="573" 
d="M562 569h-67v-569h-63l-6 57q-25 -36 -66.5 -52.5t-105.5 -16.5q-112 0 -162 60t-50 195t50 195t162 60q59 0 97.5 -15t63.5 -47v133h-176v56h176v79h80v-79h67v-56zM415 295q0 74 -33 106.5t-109 32.5q-80 0 -114.5 -44.5t-34.5 -146.5t34.5 -146.5t114.5 -44.5
q76 0 109 32.5t33 106.5v104z" />
    <glyph glyph-name="e" unicode="e" horiz-adv-x="525" 
d="M482 220h-361q3 -91 46.5 -130t141.5 -39q77 0 155 24v-64q-70 -23 -161 -23q-137 0 -199 60t-62 195q0 134 54.5 194.5t176.5 60.5q111 0 160.5 -58.5t49.5 -188.5q0 -22 -1 -31zM159 400.5q-36 -39.5 -38 -126.5h285q-2 89 -32.5 127.5t-100.5 38.5q-78 0 -114 -39.5z
" />
    <glyph glyph-name="eacute" unicode="&#xe9;" horiz-adv-x="525" 
d="M482 220h-361q3 -91 46.5 -130t141.5 -39q77 0 155 24v-64q-70 -23 -161 -23q-137 0 -199 60t-62 195q0 134 54.5 194.5t176.5 60.5q111 0 160.5 -58.5t49.5 -188.5q0 -22 -1 -31zM159 400.5q-36 -39.5 -38 -126.5h285q-2 89 -32.5 127.5t-100.5 38.5q-78 0 -114 -39.5z
M339 704h87l-134 -140h-74z" />
    <glyph glyph-name="ebreve" unicode="&#x115;" horiz-adv-x="525" 
d="M482 220h-361q3 -91 46.5 -130t141.5 -39q77 0 155 24v-64q-70 -23 -161 -23q-137 0 -199 60t-62 195q0 134 54.5 194.5t176.5 60.5q111 0 160.5 -58.5t49.5 -188.5q0 -22 -1 -31zM159 400.5q-36 -39.5 -38 -126.5h285q-2 89 -32.5 127.5t-100.5 38.5q-78 0 -114 -39.5z
M155 590q-36 35 -36 114h58q0 -50 22 -72t72 -22t72 22t22 72h58q0 -79 -36 -114t-116 -35t-116 35z" />
    <glyph glyph-name="ecaron" unicode="&#x11b;" horiz-adv-x="525" 
d="M482 220h-361q3 -91 46.5 -130t141.5 -39q77 0 155 24v-64q-70 -23 -161 -23q-137 0 -199 60t-62 195q0 134 54.5 194.5t176.5 60.5q111 0 160.5 -58.5t49.5 -188.5q0 -22 -1 -31zM159 400.5q-36 -39.5 -38 -126.5h285q-2 89 -32.5 127.5t-100.5 38.5q-78 0 -114 -39.5z
M434 704l-123 -140h-80l-123 140h73l90 -95l90 95h73z" />
    <glyph glyph-name="ecircumflex" unicode="&#xea;" horiz-adv-x="525" 
d="M482 220h-361q3 -91 46.5 -130t141.5 -39q77 0 155 24v-64q-70 -23 -161 -23q-137 0 -199 60t-62 195q0 134 54.5 194.5t176.5 60.5q111 0 160.5 -58.5t49.5 -188.5q0 -22 -1 -31zM159 400.5q-36 -39.5 -38 -126.5h285q-2 89 -32.5 127.5t-100.5 38.5q-78 0 -114 -39.5z
M361 564l-90 95l-90 -95h-73l123 140h80l123 -140h-73z" />
    <glyph glyph-name="edieresis" unicode="&#xeb;" horiz-adv-x="525" 
d="M482 220h-361q3 -91 46.5 -130t141.5 -39q77 0 155 24v-64q-70 -23 -161 -23q-137 0 -199 60t-62 195q0 134 54.5 194.5t176.5 60.5q111 0 160.5 -58.5t49.5 -188.5q0 -22 -1 -31zM159 400.5q-36 -39.5 -38 -126.5h285q-2 89 -32.5 127.5t-100.5 38.5q-78 0 -114 -39.5z
M133 596.5q-12 11.5 -12 37.5t12 37.5t38 11.5q27 0 39 -11.5t12 -37.5t-12 -37.5t-39 -11.5q-26 0 -38 11.5zM332 596.5q-12 11.5 -12 37.5t12 37.5t39 11.5q26 0 38 -11.5t12 -37.5t-12 -37.5t-38 -11.5q-27 0 -39 11.5z" />
    <glyph glyph-name="edotaccent" unicode="&#x117;" horiz-adv-x="525" 
d="M482 220h-361q3 -91 46.5 -130t141.5 -39q77 0 155 24v-64q-70 -23 -161 -23q-137 0 -199 60t-62 195q0 134 54.5 194.5t176.5 60.5q111 0 160.5 -58.5t49.5 -188.5q0 -22 -1 -31zM159 400.5q-36 -39.5 -38 -126.5h285q-2 89 -32.5 127.5t-100.5 38.5q-78 0 -114 -39.5z
M232 596.5q-12 11.5 -12 37.5t12 37.5t39 11.5t39 -11.5t12 -37.5t-12 -37.5t-39 -11.5t-39 11.5z" />
    <glyph glyph-name="egrave" unicode="&#xe8;" horiz-adv-x="525" 
d="M482 220h-361q3 -91 46.5 -130t141.5 -39q77 0 155 24v-64q-70 -23 -161 -23q-137 0 -199 60t-62 195q0 134 54.5 194.5t176.5 60.5q111 0 160.5 -58.5t49.5 -188.5q0 -22 -1 -31zM159 400.5q-36 -39.5 -38 -126.5h285q-2 89 -32.5 127.5t-100.5 38.5q-78 0 -114 -39.5z
M116 704h87l121 -140h-74z" />
    <glyph glyph-name="emacron" unicode="&#x113;" horiz-adv-x="525" 
d="M482 220h-361q3 -91 46.5 -130t141.5 -39q77 0 155 24v-64q-70 -23 -161 -23q-137 0 -199 60t-62 195q0 134 54.5 194.5t176.5 60.5q111 0 160.5 -58.5t49.5 -188.5q0 -22 -1 -31zM159 400.5q-36 -39.5 -38 -126.5h285q-2 89 -32.5 127.5t-100.5 38.5q-78 0 -114 -39.5z
M120 663h302v-57h-302v57z" />
    <glyph glyph-name="eogonek" unicode="&#x119;" horiz-adv-x="525" 
d="M482 220h-361q3 -91 46.5 -130t141.5 -39q77 0 155 24v-64q-47 -38 -65.5 -63t-18.5 -50q0 -19 10.5 -27t34.5 -8q21 0 39 6v-49q-19 -7 -57 -7q-91 0 -91 73q0 28 17 53.5t54 53.5q-45 -5 -84 -5q-137 0 -199 60t-62 195q0 134 54.5 194.5t176.5 60.5q111 0 160.5 -58.5
t49.5 -188.5q0 -22 -1 -31zM159 400.5q-36 -39.5 -38 -126.5h285q-2 89 -32.5 127.5t-100.5 38.5q-78 0 -114 -39.5z" />
    <glyph glyph-name="f" unicode="f" horiz-adv-x="359" 
d="M232.5 629q-23.5 -23 -23.5 -76v-67h160l-41 -63h-119v-423h-81v423h-100v63h100v64q0 88 40.5 127t130.5 39q46 0 84 -11v-64q-41 11 -75 11q-52 0 -75.5 -23z" />
    <glyph glyph-name="g" unicode="g" horiz-adv-x="542" 
d="M450 62.5q57 -32.5 57 -104.5q0 -75 -58 -110t-177 -35q-84 0 -135 13.5t-74 43t-23 78.5q0 39 24 69t62 41q-22 14 -23 49l51 79q-100 34 -100 148q0 83 53 123.5t159 40.5q54 0 93 -10l36 80h87l-67 -103q63 -40 63 -131q0 -83 -53 -123.5t-159 -40.5q-28 0 -52 3
l-36 -78h100q115 0 172 -32.5zM164.5 412q-30.5 -24 -30.5 -78q0 -53 31 -77.5t101 -24.5t101 24.5t31 77.5q0 54 -30.5 78t-101.5 24t-101.5 -24zM390.5 -108q34.5 17 34.5 61t-37.5 62t-118.5 18q-78 0 -112.5 -18t-34.5 -61q0 -45 34.5 -62t115.5 -17q84 0 118.5 17z" />
    <glyph glyph-name="gbreve" unicode="&#x11f;" horiz-adv-x="542" 
d="M153 590q-36 35 -36 114h58q0 -50 22 -72t72 -22t72 22t22 72h58q0 -79 -36 -114t-116 -35t-116 35zM450 62.5q57 -32.5 57 -104.5q0 -75 -58 -110t-177 -35q-84 0 -135 13.5t-74 43t-23 78.5q0 39 24 69t62 41q-22 14 -23 49l51 79q-100 34 -100 148q0 83 53 123.5
t159 40.5t159 -40.5t53 -123.5t-53 -123.5t-159 -40.5q-28 0 -52 3l-36 -78h100q115 0 172 -32.5zM164.5 412q-30.5 -24 -30.5 -78q0 -53 31 -77.5t101 -24.5t101 24.5t31 77.5q0 54 -30.5 78t-101.5 24t-101.5 -24zM390.5 -108q34.5 17 34.5 61t-37.5 62t-118.5 18
q-78 0 -112.5 -18t-34.5 -61q0 -45 34.5 -62t115.5 -17q84 0 118.5 17z" />
    <glyph glyph-name="gcircumflex" unicode="&#x11d;" horiz-adv-x="542" 
d="M179 564h-73l123 140h80l123 -140h-73l-90 95zM450 62.5q57 -32.5 57 -104.5q0 -75 -58 -110t-177 -35q-84 0 -135 13.5t-74 43t-23 78.5q0 39 24 69t62 41q-22 14 -23 49l51 79q-100 34 -100 148q0 83 53 123.5t159 40.5t159 -40.5t53 -123.5t-53 -123.5t-159 -40.5
q-28 0 -52 3l-36 -78h100q115 0 172 -32.5zM164.5 412q-30.5 -24 -30.5 -78q0 -53 31 -77.5t101 -24.5t101 24.5t31 77.5q0 54 -30.5 78t-101.5 24t-101.5 -24zM390.5 -108q34.5 17 34.5 61t-37.5 62t-118.5 18q-78 0 -112.5 -18t-34.5 -61q0 -45 34.5 -62t115.5 -17
q84 0 118.5 17z" />
    <glyph glyph-name="gcommaaccent" unicode="&#x123;" horiz-adv-x="542" 
d="M297 554h-71l55 150h56zM450 62.5q57 -32.5 57 -104.5q0 -75 -58 -110t-177 -35q-84 0 -135 13.5t-74 43t-23 78.5q0 39 24 69t62 41q-22 14 -23 49l51 79q-100 34 -100 148q0 83 53 123.5t159 40.5q54 0 93 -10l36 80h87l-67 -103q63 -40 63 -131q0 -83 -53 -123.5
t-159 -40.5q-28 0 -52 3l-36 -78h100q115 0 172 -32.5zM164.5 412q-30.5 -24 -30.5 -78q0 -53 31 -77.5t101 -24.5t101 24.5t31 77.5q0 54 -30.5 78t-101.5 24t-101.5 -24zM390.5 -108q34.5 17 34.5 61t-37.5 62t-118.5 18q-78 0 -112.5 -18t-34.5 -61q0 -45 34.5 -62
t115.5 -17q84 0 118.5 17z" />
    <glyph glyph-name="gdotaccent" unicode="&#x121;" horiz-adv-x="542" 
d="M229 596.5q-12 11.5 -12 37.5t12 37.5t39 11.5t39 -11.5t12 -37.5t-12 -37.5t-39 -11.5t-39 11.5zM450 62.5q57 -32.5 57 -104.5q0 -75 -58 -110t-177 -35q-84 0 -135 13.5t-74 43t-23 78.5q0 39 24 69t62 41q-22 14 -23 49l51 79q-100 34 -100 148q0 83 53 123.5
t159 40.5q54 0 93 -10l36 80h87l-67 -103q63 -40 63 -131q0 -83 -53 -123.5t-159 -40.5q-28 0 -52 3l-36 -78h100q115 0 172 -32.5zM164.5 412q-30.5 -24 -30.5 -78q0 -53 31 -77.5t101 -24.5t101 24.5t31 77.5q0 54 -30.5 78t-101.5 24t-101.5 -24zM390.5 -108
q34.5 17 34.5 61t-37.5 62t-118.5 18q-78 0 -112.5 -18t-34.5 -61q0 -45 34.5 -62t115.5 -17q84 0 118.5 17z" />
    <glyph glyph-name="h" unicode="h" horiz-adv-x="574" 
d="M459.5 452.5q44.5 -45.5 44.5 -146.5v-306h-80v303q0 69 -29 99t-94 30q-76 0 -109.5 -33t-33.5 -107v-292h-80v704h80v-271q41 65 158 65q99 0 143.5 -45.5z" />
    <glyph glyph-name="hbar" unicode="&#x127;" horiz-adv-x="574" 
d="M459.5 452.5q44.5 -45.5 44.5 -146.5v-306h-80v303q0 69 -29 99t-94 30q-76 0 -109.5 -33t-33.5 -107v-292h-80v569h-73v56h73v79h80v-79h170v-56h-170v-136q41 65 158 65q99 0 143.5 -45.5z" />
    <glyph glyph-name="hcircumflex" unicode="&#x125;" horiz-adv-x="574" 
d="M118 835l-90 -95h-73l123 140h80l123 -140h-73zM459.5 452.5q44.5 -45.5 44.5 -146.5v-306h-80v303q0 69 -29 99t-94 30q-76 0 -109.5 -33t-33.5 -107v-292h-80v704h80v-271q41 65 158 65q99 0 143.5 -45.5z" />
    <glyph glyph-name="i" unicode="i" horiz-adv-x="230" 
d="M75 596q-12 12 -12 38q0 27 12 39t40 12q27 0 39.5 -12t12.5 -39q0 -26 -12.5 -38t-39.5 -12q-28 0 -40 12zM75 486h80v-486h-80v486z" />
    <glyph glyph-name="dotlessi" unicode="&#x131;" horiz-adv-x="230" 
d="M75 486h80v-486h-80v486z" />
    <glyph glyph-name="iacute" unicode="&#xed;" horiz-adv-x="230" 
d="M75 486h80v-486h-80v486zM183 704h87l-134 -140h-74z" />
    <glyph glyph-name="iacute_j.loclNLD" horiz-adv-x="474" 
d="M75 486h80v-486h-80v486zM183 704h87l-134 -140h-74zM150 -178v64q41 -9 72 -9q50 0 72.5 22.5t22.5 74.5v512h80v-515q0 -83 -38.5 -120.5t-124.5 -37.5q-46 0 -84 9zM425 704h87l-134 -140h-74z" />
    <glyph glyph-name="ibreve" unicode="&#x12d;" horiz-adv-x="230" 
d="M75 486h80v-486h-80v486zM-1 590q-36 35 -36 114h58q0 -50 22 -72t72 -22t72 22t22 72h58q0 -79 -36 -114t-116 -35t-116 35z" />
    <glyph glyph-name="icircumflex" unicode="&#xee;" horiz-adv-x="230" 
d="M75 486h80v-486h-80v486zM205 564l-90 95l-90 -95h-73l123 140h80l123 -140h-73z" />
    <glyph glyph-name="idieresis" unicode="&#xef;" horiz-adv-x="230" 
d="M75 486h80v-486h-80v486zM-23 596.5q-12 11.5 -12 37.5t12 37.5t38 11.5q27 0 39 -11.5t12 -37.5t-12 -37.5t-39 -11.5q-26 0 -38 11.5zM176 596.5q-12 11.5 -12 37.5t12 37.5t39 11.5q26 0 38 -11.5t12 -37.5t-12 -37.5t-38 -11.5q-27 0 -39 11.5z" />
    <glyph glyph-name="i.loclTRK" horiz-adv-x="230" 
d="M75 486h80v-486h-80v486zM76 596.5q-12 11.5 -12 37.5t12 37.5t39 11.5t39 -11.5t12 -37.5t-12 -37.5t-39 -11.5t-39 11.5z" />
    <glyph glyph-name="igrave" unicode="&#xec;" horiz-adv-x="230" 
d="M75 486h80v-486h-80v486zM-40 704h87l121 -140h-74z" />
    <glyph glyph-name="ij" unicode="&#x133;" horiz-adv-x="474" 
d="M75 596q-12 12 -12 38q0 27 12 39t40 12q27 0 39.5 -12t12.5 -39q0 -26 -12.5 -38t-39.5 -12q-28 0 -40 12zM75 486h80v-486h-80v486zM317 596q-12 12 -12 38q0 27 12 39t40 12q27 0 39.5 -12t12.5 -39q0 -26 -12.5 -38t-39.5 -12q-28 0 -40 12zM150 -178v64q41 -9 72 -9
q50 0 72.5 22.5t22.5 74.5v512h80v-515q0 -83 -38.5 -120.5t-124.5 -37.5q-46 0 -84 9z" />
    <glyph glyph-name="imacron" unicode="&#x12b;" horiz-adv-x="230" 
d="M75 486h80v-486h-80v486zM-36 663h302v-57h-302v57z" />
    <glyph glyph-name="iogonek" unicode="&#x12f;" horiz-adv-x="230" 
d="M75 596q-12 12 -12 38q0 27 12 39t40 12q27 0 39.5 -12t12.5 -39q0 -26 -12.5 -38t-39.5 -12q-28 0 -40 12zM75 486h80v-486q-47 -35 -65.5 -57.5t-18.5 -44.5q0 -19 10.5 -27t34.5 -8q21 0 39 6v-49q-19 -7 -57 -7q-91 0 -91 73q0 30 19 57t61 57h-12v486z" />
    <glyph glyph-name="itilde" unicode="&#x129;" horiz-adv-x="230" 
d="M75 486h80v-486h-80v486zM-40 585q0 54 21 78t67 24q20 0 36.5 -7.5t38.5 -22.5q17 -11 27 -16t21 -5q22 0 31.5 11.5t9.5 39.5v7h58v-11q0 -54 -21 -78t-67 -24q-20 0 -36.5 7.5t-38.5 22.5q-17 11 -27 16t-21 5q-22 0 -31.5 -11.5t-9.5 -39.5v-6h-58v10z" />
    <glyph glyph-name="j" unicode="j" horiz-adv-x="244" 
d="M87 596q-12 12 -12 38q0 27 12 39t40 12q27 0 39.5 -12t12.5 -39q0 -26 -12.5 -38t-39.5 -12q-28 0 -40 12zM-80 -178v64q41 -9 72 -9q50 0 72.5 22.5t22.5 74.5v512h80v-515q0 -83 -38.5 -120.5t-124.5 -37.5q-46 0 -84 9z" />
    <glyph glyph-name="uni0237" unicode="&#x237;" horiz-adv-x="244" 
d="M-80 -178v64q41 -9 72 -9q50 0 72.5 22.5t22.5 74.5v512h80v-515q0 -83 -38.5 -120.5t-124.5 -37.5q-46 0 -84 9z" />
    <glyph glyph-name="jcircumflex" unicode="&#x135;" horiz-adv-x="244" 
d="M-80 -178v64q41 -9 72 -9q50 0 72.5 22.5t22.5 74.5v512h80v-515q0 -83 -38.5 -120.5t-124.5 -37.5q-46 0 -84 9zM217 564l-90 95l-90 -95h-73l123 140h80l123 -140h-73z" />
    <glyph glyph-name="k" unicode="k" horiz-adv-x="491" 
d="M206 215h-48v-215h-80v704h80v-445l215 227h92l-213 -220l219 -266h-92z" />
    <glyph glyph-name="kcommaaccent" unicode="&#x137;" horiz-adv-x="491" 
d="M206 215h-48v-215h-80v704h80v-445l215 227h92l-213 -220l219 -266h-92zM217 -68h78l-51 -142h-63z" />
    <glyph glyph-name="kgreenlandic" unicode="&#x138;" horiz-adv-x="486" 
d="M202 205h-49v-205h-80v486h80v-235l215 235h92l-213 -230l219 -256h-92z" />
    <glyph glyph-name="l" unicode="l" horiz-adv-x="236" 
d="M78 704h80v-704h-80v704z" />
    <glyph glyph-name="lacute" unicode="&#x13a;" horiz-adv-x="236" 
d="M195 880h87l-136 -134h-73zM86 704h80v-704h-80v704z" />
    <glyph glyph-name="lcaron" unicode="&#x13e;" horiz-adv-x="320" 
d="M78 704h80v-704h-80v704zM267 704h71l-62 -178h-56z" />
    <glyph glyph-name="lcommaaccent" unicode="&#x13c;" horiz-adv-x="236" 
d="M78 704h80v-704h-80v704zM86 -68h78l-51 -142h-63z" />
    <glyph glyph-name="ldot" unicode="&#x140;" horiz-adv-x="315" 
d="M78 704h80v-704h-80v704zM231 322.5q-11 10.5 -11 35.5t11 35.5t37 10.5q25 0 36 -10.5t11 -35.5t-11 -35.5t-36 -10.5q-26 0 -37 10.5z" />
    <glyph glyph-name="lslash" unicode="&#x142;" horiz-adv-x="286" 
d="M281 395l-90 -45v-350h-80v310l-106 -53v64l106 53v330h80v-290l90 45v-64z" />
    <glyph glyph-name="m" unicode="m" horiz-adv-x="873" 
d="M761 455q42 -43 42 -138v-317h-80v314q0 63 -26 90.5t-86 27.5q-71 0 -102 -29.5t-31 -99.5v-303h-80v314q0 63 -26 90.5t-86 27.5q-71 0 -102 -29.5t-31 -99.5v-303h-80v486h62l6 -58q22 34 63.5 52t98.5 18q119 0 150 -75q25 38 67 56.5t105 18.5q94 0 136 -43z" />
    <glyph glyph-name="n" unicode="n" horiz-adv-x="569" 
d="M454.5 452.5q44.5 -45.5 44.5 -146.5v-306h-80v303q0 69 -29 99t-94 30q-76 0 -109.5 -33t-33.5 -107v-292h-80v486h62l6 -59q48 71 170 71q99 0 143.5 -45.5z" />
    <glyph glyph-name="nacute" unicode="&#x144;" horiz-adv-x="569" 
d="M454.5 452.5q44.5 -45.5 44.5 -146.5v-306h-80v303q0 69 -29 99t-94 30q-76 0 -109.5 -33t-33.5 -107v-292h-80v486h62l6 -59q48 71 170 71q99 0 143.5 -45.5zM354 704h87l-134 -140h-74z" />
    <glyph glyph-name="nacute.loclPLK" horiz-adv-x="569" 
d="M454.5 452.5q44.5 -45.5 44.5 -146.5v-306h-80v303q0 69 -29 99t-94 30q-76 0 -109.5 -33t-33.5 -107v-292h-80v486h62l6 -59q48 71 170 71q99 0 143.5 -45.5zM298 704h75l-62 -140h-64z" />
    <glyph glyph-name="ncaron" unicode="&#x148;" horiz-adv-x="569" 
d="M454.5 452.5q44.5 -45.5 44.5 -146.5v-306h-80v303q0 69 -29 99t-94 30q-76 0 -109.5 -33t-33.5 -107v-292h-80v486h62l6 -59q48 71 170 71q99 0 143.5 -45.5zM449 704l-123 -140h-80l-123 140h73l90 -95l90 95h73z" />
    <glyph glyph-name="ncommaaccent" unicode="&#x146;" horiz-adv-x="569" 
d="M454.5 452.5q44.5 -45.5 44.5 -146.5v-306h-80v303q0 69 -29 99t-94 30q-76 0 -109.5 -33t-33.5 -107v-292h-80v486h62l6 -59q48 71 170 71q99 0 143.5 -45.5zM254 -68h78l-51 -142h-63z" />
    <glyph glyph-name="eng" unicode="&#x14b;" horiz-adv-x="569" 
d="M454.5 452.5q44.5 -45.5 44.5 -146.5v-335q0 -83 -38.5 -120.5t-124.5 -37.5q-45 0 -84 9v64q41 -9 72 -9q50 0 72.5 22.5t22.5 74.5v329q0 69 -29 99t-94 30q-76 0 -109.5 -33t-33.5 -107v-292h-80v486h62l6 -59q48 71 170 71q99 0 143.5 -45.5z" />
    <glyph glyph-name="ntilde" unicode="&#xf1;" horiz-adv-x="569" 
d="M454.5 452.5q44.5 -45.5 44.5 -146.5v-306h-80v303q0 69 -29 99t-94 30q-76 0 -109.5 -33t-33.5 -107v-292h-80v486h62l6 -59q48 71 170 71q99 0 143.5 -45.5zM131 585q0 54 21 78t67 24q20 0 36.5 -7.5t38.5 -22.5q17 -11 27 -16t21 -5q22 0 31.5 11.5t9.5 39.5v7h58
v-11q0 -54 -21 -78t-67 -24q-20 0 -36.5 7.5t-38.5 22.5q-17 11 -27 16t-21 5q-22 0 -31.5 -11.5t-9.5 -39.5v-6h-58v10z" />
    <glyph glyph-name="o" unicode="o" horiz-adv-x="563" 
d="M99 48q-57 60 -57 195q0 134 57 194.5t183 60.5t182.5 -60.5t56.5 -194.5q0 -135 -56.5 -195t-182.5 -60t-183 60zM402 96.5q37 44.5 37 146.5t-37 146.5t-120 44.5q-84 0 -121 -44.5t-37 -146.5t37 -146.5t121 -44.5q83 0 120 44.5z" />
    <glyph glyph-name="oacute" unicode="&#xf3;" horiz-adv-x="563" 
d="M99 48q-57 60 -57 195q0 134 57 194.5t183 60.5t182.5 -60.5t56.5 -194.5q0 -135 -56.5 -195t-182.5 -60t-183 60zM402 96.5q37 44.5 37 146.5t-37 146.5t-120 44.5q-84 0 -121 -44.5t-37 -146.5t37 -146.5t121 -44.5q83 0 120 44.5zM350 704h87l-134 -140h-74z" />
    <glyph glyph-name="oacute.loclPLK" horiz-adv-x="563" 
d="M99 48q-57 60 -57 195q0 134 57 194.5t183 60.5t182.5 -60.5t56.5 -194.5q0 -135 -56.5 -195t-182.5 -60t-183 60zM402 96.5q37 44.5 37 146.5t-37 146.5t-120 44.5q-84 0 -121 -44.5t-37 -146.5t37 -146.5t121 -44.5q83 0 120 44.5zM294 704h75l-62 -140h-64z" />
    <glyph glyph-name="obreve" unicode="&#x14f;" horiz-adv-x="563" 
d="M99 48q-57 60 -57 195q0 134 57 194.5t183 60.5t182.5 -60.5t56.5 -194.5q0 -135 -56.5 -195t-182.5 -60t-183 60zM402 96.5q37 44.5 37 146.5t-37 146.5t-120 44.5q-84 0 -121 -44.5t-37 -146.5t37 -146.5t121 -44.5q83 0 120 44.5zM166 590q-36 35 -36 114h58
q0 -50 22 -72t72 -22t72 22t22 72h58q0 -79 -36 -114t-116 -35t-116 35z" />
    <glyph glyph-name="ocircumflex" unicode="&#xf4;" horiz-adv-x="563" 
d="M99 48q-57 60 -57 195q0 134 57 194.5t183 60.5t182.5 -60.5t56.5 -194.5q0 -135 -56.5 -195t-182.5 -60t-183 60zM402 96.5q37 44.5 37 146.5t-37 146.5t-120 44.5q-84 0 -121 -44.5t-37 -146.5t37 -146.5t121 -44.5q83 0 120 44.5zM372 564l-90 95l-90 -95h-73l123 140
h80l123 -140h-73z" />
    <glyph glyph-name="odieresis" unicode="&#xf6;" horiz-adv-x="563" 
d="M99 48q-57 60 -57 195q0 134 57 194.5t183 60.5t182.5 -60.5t56.5 -194.5q0 -135 -56.5 -195t-182.5 -60t-183 60zM402 96.5q37 44.5 37 146.5t-37 146.5t-120 44.5q-84 0 -121 -44.5t-37 -146.5t37 -146.5t121 -44.5q83 0 120 44.5zM144 596.5q-12 11.5 -12 37.5
t12 37.5t38 11.5q27 0 39 -11.5t12 -37.5t-12 -37.5t-39 -11.5q-26 0 -38 11.5zM343 596.5q-12 11.5 -12 37.5t12 37.5t39 11.5q26 0 38 -11.5t12 -37.5t-12 -37.5t-38 -11.5q-27 0 -39 11.5z" />
    <glyph glyph-name="ograve" unicode="&#xf2;" horiz-adv-x="563" 
d="M99 48q-57 60 -57 195q0 134 57 194.5t183 60.5t182.5 -60.5t56.5 -194.5q0 -135 -56.5 -195t-182.5 -60t-183 60zM402 96.5q37 44.5 37 146.5t-37 146.5t-120 44.5q-84 0 -121 -44.5t-37 -146.5t37 -146.5t121 -44.5q83 0 120 44.5zM127 704h87l121 -140h-74z" />
    <glyph glyph-name="ohungarumlaut" unicode="&#x151;" horiz-adv-x="563" 
d="M99 48q-57 60 -57 195q0 134 57 194.5t183 60.5t182.5 -60.5t56.5 -194.5q0 -135 -56.5 -195t-182.5 -60t-183 60zM402 96.5q37 44.5 37 146.5t-37 146.5t-120 44.5q-84 0 -121 -44.5t-37 -146.5t37 -146.5t121 -44.5q83 0 120 44.5zM251 704h86l-133 -140h-75zM450 704
h87l-133 -140h-75z" />
    <glyph glyph-name="omacron" unicode="&#x14d;" horiz-adv-x="563" 
d="M99 48q-57 60 -57 195q0 134 57 194.5t183 60.5t182.5 -60.5t56.5 -194.5q0 -135 -56.5 -195t-182.5 -60t-183 60zM402 96.5q37 44.5 37 146.5t-37 146.5t-120 44.5q-84 0 -121 -44.5t-37 -146.5t37 -146.5t121 -44.5q83 0 120 44.5zM131 663h302v-57h-302v57z" />
    <glyph glyph-name="oslash" unicode="&#xf8;" horiz-adv-x="563" 
d="M506 362.5q15 -49.5 15 -119.5q0 -135 -56.5 -195t-182.5 -60q-88 0 -142 29l-36 -49h-57l57 75q-62 59 -62 200q0 134 57 194.5t183 60.5q89 0 141 -29l37 49h56l-56 -75q31 -31 46 -80.5zM147 101l236 315q-36 24 -101 24q-89 0 -128 -46t-39 -151q0 -95 32 -142z
M409 92q39 46 39 151q0 96 -32 142l-236 -315q37 -24 102 -24q88 0 127 46z" />
    <glyph glyph-name="oslashacute" unicode="&#x1ff;" horiz-adv-x="563" 
d="M506 362.5q15 -49.5 15 -119.5q0 -135 -56.5 -195t-182.5 -60q-88 0 -142 29l-36 -49h-57l57 75q-62 59 -62 200q0 134 57 194.5t183 60.5q89 0 141 -29l37 49h56l-56 -75q31 -31 46 -80.5zM147 101l236 315q-36 24 -101 24q-89 0 -128 -46t-39 -151q0 -95 32 -142z
M409 92q39 46 39 151q0 96 -32 142l-236 -315q37 -24 102 -24q88 0 127 46zM350 704h87l-134 -140h-74z" />
    <glyph glyph-name="otilde" unicode="&#xf5;" horiz-adv-x="563" 
d="M99 48q-57 60 -57 195q0 134 57 194.5t183 60.5t182.5 -60.5t56.5 -194.5q0 -135 -56.5 -195t-182.5 -60t-183 60zM402 96.5q37 44.5 37 146.5t-37 146.5t-120 44.5q-84 0 -121 -44.5t-37 -146.5t37 -146.5t121 -44.5q83 0 120 44.5zM127 585q0 54 21 78t67 24
q20 0 36.5 -7.5t38.5 -22.5q17 -11 27 -16t21 -5q22 0 31.5 11.5t9.5 39.5v7h58v-11q0 -54 -21 -78t-67 -24q-20 0 -36.5 7.5t-38.5 22.5q-17 11 -27 16t-21 5q-22 0 -31.5 -11.5t-9.5 -39.5v-6h-58v10z" />
    <glyph glyph-name="oe" unicode="&#x153;" horiz-adv-x="924" 
d="M881 220h-361q3 -91 46 -130t141 -39q78 0 156 24v-64q-72 -23 -162 -23q-89 0 -142.5 28.5t-76.5 88.5q-17 -57 -68 -87t-132 -30q-126 0 -183 60t-57 195q0 134 57 194.5t183 60.5q80 0 129 -28t69 -86q21 59 68 86.5t124 27.5q111 0 160.5 -58.5t49.5 -188.5z
M558 400.5q-36 -39.5 -38 -126.5h284q-2 89 -32 127.5t-100 38.5q-78 0 -114 -39.5zM402 96.5q37 44.5 37 146.5t-37 146.5t-120 44.5q-84 0 -121 -44.5t-37 -146.5t37 -146.5t121 -44.5q83 0 120 44.5z" />
    <glyph glyph-name="p" unicode="p" horiz-adv-x="568" 
d="M476 438q50 -60 50 -195t-50 -195t-161 -60q-59 0 -98 15t-63 47v-225h-80v661h62l6 -57q25 36 67 52.5t106 16.5q111 0 161 -60zM409.5 96.5q34.5 44.5 34.5 146.5t-34.5 146.5t-113.5 44.5q-76 0 -109 -32.5t-33 -106.5v-104q0 -74 33 -106.5t109 -32.5
q79 0 113.5 44.5z" />
    <glyph glyph-name="thorn" unicode="&#xfe;" horiz-adv-x="572" 
d="M480 438q50 -60 50 -195t-50 -195t-161 -60q-59 0 -98 15t-63 47v-225h-80v879h80v-268q24 32 63 47t98 15q111 0 161 -60zM413.5 96.5q34.5 44.5 34.5 146.5t-34.5 146.5t-113.5 44.5q-76 0 -109 -32.5t-33 -106.5v-104q0 -74 33 -106.5t109 -32.5q79 0 113.5 44.5z" />
    <glyph glyph-name="q" unicode="q" horiz-adv-x="569" 
d="M495 486v-661h-80v225q-25 -32 -63.5 -47t-97.5 -15q-112 0 -162 60t-50 195t50 195t162 60q64 0 105.5 -16.5t66.5 -52.5l6 57h63zM382 84.5q33 32.5 33 106.5v104q0 74 -33 106.5t-109 32.5q-80 0 -114.5 -44.5t-34.5 -146.5t34.5 -146.5t114.5 -44.5q76 0 109 32.5z
" />
    <glyph glyph-name="r" unicode="r" horiz-adv-x="367" 
d="M346 486v-64q-21 6 -44 6q-78 0 -113.5 -37t-35.5 -116v-275h-80v486h61l8 -69q42 77 153 77q33 0 51 -8z" />
    <glyph glyph-name="racute" unicode="&#x155;" horiz-adv-x="367" 
d="M346 486v-64q-21 6 -44 6q-78 0 -113.5 -37t-35.5 -116v-275h-80v486h61l8 -69q42 77 153 77q33 0 51 -8zM270 704h87l-134 -140h-74z" />
    <glyph glyph-name="rcaron" unicode="&#x159;" horiz-adv-x="367" 
d="M346 486v-64q-21 6 -44 6q-78 0 -113.5 -37t-35.5 -116v-275h-80v486h61l8 -69q42 77 153 77q33 0 51 -8zM365 704l-123 -140h-80l-123 140h73l90 -95l90 95h73z" />
    <glyph glyph-name="rcommaaccent" unicode="&#x157;" horiz-adv-x="367" 
d="M346 486v-64q-21 6 -44 6q-78 0 -113.5 -37t-35.5 -116v-275h-80v486h61l8 -69q42 77 153 77q33 0 51 -8zM81 -68h78l-51 -142h-63z" />
    <glyph glyph-name="s" unicode="s" horiz-adv-x="463" 
d="M57 12v65q80 -27 164 -27q121 0 121 81q0 28 -16.5 44.5t-41 24.5t-66.5 16q-55 11 -88 23t-56.5 40t-23.5 79q0 70 47.5 105t145.5 35q90 0 160 -26l-35 -54q-29 10 -56.5 14t-62.5 4q-117 0 -117 -77q0 -38 30 -54t91 -27q54 -11 88 -23.5t58 -41.5t24 -81
q0 -73 -48 -108.5t-148 -35.5q-93 0 -170 24z" />
    <glyph glyph-name="sacute" unicode="&#x15b;" horiz-adv-x="463" 
d="M57 12v65q80 -27 164 -27q121 0 121 81q0 28 -16.5 44.5t-41 24.5t-66.5 16q-55 11 -88 23t-56.5 40t-23.5 79q0 70 47.5 105t145.5 35q90 0 160 -26l-35 -54q-29 10 -56.5 14t-62.5 4q-117 0 -117 -77q0 -38 30 -54t91 -27q54 -11 88 -23.5t58 -41.5t24 -81
q0 -73 -48 -108.5t-148 -35.5q-93 0 -170 24zM303 704h87l-134 -140h-74z" />
    <glyph glyph-name="sacute.loclPLK" horiz-adv-x="463" 
d="M57 12v65q80 -27 164 -27q121 0 121 81q0 28 -16.5 44.5t-41 24.5t-66.5 16q-55 11 -88 23t-56.5 40t-23.5 79q0 70 47.5 105t145.5 35q90 0 160 -26l-35 -54q-29 10 -56.5 14t-62.5 4q-117 0 -117 -77q0 -38 30 -54t91 -27q54 -11 88 -23.5t58 -41.5t24 -81
q0 -73 -48 -108.5t-148 -35.5q-93 0 -170 24zM247 704h75l-62 -140h-64z" />
    <glyph glyph-name="scaron" unicode="&#x161;" horiz-adv-x="463" 
d="M57 12v65q80 -27 164 -27q121 0 121 81q0 28 -16.5 44.5t-41 24.5t-66.5 16q-55 11 -88 23t-56.5 40t-23.5 79q0 70 47.5 105t145.5 35q90 0 160 -26l-35 -54q-29 10 -56.5 14t-62.5 4q-117 0 -117 -77q0 -38 30 -54t91 -27q54 -11 88 -23.5t58 -41.5t24 -81
q0 -73 -48 -108.5t-148 -35.5q-93 0 -170 24zM398 704l-123 -140h-80l-123 140h73l90 -95l90 95h73z" />
    <glyph glyph-name="scedilla" unicode="&#x15f;" horiz-adv-x="463" 
d="M383.5 30.5q-39.5 -35.5 -120.5 -41.5v-31q42 -3 61.5 -19t19.5 -49q0 -41 -29.5 -59t-94.5 -18q-40 0 -85 10v48q45 -12 85 -12q31 0 45.5 7t14.5 24q0 18 -14 25t-51 7h-8v66q-83 3 -150 24v65q80 -27 164 -27q121 0 121 81q0 28 -16.5 44.5t-41 24.5t-66.5 16
q-55 11 -88 23t-56.5 40t-23.5 79q0 70 47.5 105t145.5 35q90 0 160 -26l-35 -54q-29 10 -56.5 14t-62.5 4q-117 0 -117 -77q0 -38 30 -54t91 -27q54 -11 88 -23.5t58 -41.5t24 -81q0 -66 -39.5 -101.5z" />
    <glyph glyph-name="scircumflex" unicode="&#x15d;" horiz-adv-x="463" 
d="M57 12v65q80 -27 164 -27q121 0 121 81q0 28 -16.5 44.5t-41 24.5t-66.5 16q-55 11 -88 23t-56.5 40t-23.5 79q0 70 47.5 105t145.5 35q90 0 160 -26l-35 -54q-29 10 -56.5 14t-62.5 4q-117 0 -117 -77q0 -38 30 -54t91 -27q54 -11 88 -23.5t58 -41.5t24 -81
q0 -73 -48 -108.5t-148 -35.5q-93 0 -170 24zM325 564l-90 95l-90 -95h-73l123 140h80l123 -140h-73z" />
    <glyph glyph-name="scommaaccent" unicode="&#x219;" horiz-adv-x="463" 
d="M57 12v65q80 -27 164 -27q121 0 121 81q0 28 -16.5 44.5t-41 24.5t-66.5 16q-55 11 -88 23t-56.5 40t-23.5 79q0 70 47.5 105t145.5 35q90 0 160 -26l-35 -54q-29 10 -56.5 14t-62.5 4q-117 0 -117 -77q0 -38 30 -54t91 -27q54 -11 88 -23.5t58 -41.5t24 -81
q0 -73 -48 -108.5t-148 -35.5q-93 0 -170 24zM203 -68h78l-51 -142h-63z" />
    <glyph glyph-name="germandbls" unicode="&#xdf;" horiz-adv-x="574" 
d="M505 312q33 -46 33 -122q0 -107 -52 -154.5t-168 -47.5q-52 0 -95 7v66q42 -9 84 -9q82 0 117 33.5t35 110.5q0 75 -37.5 108t-122.5 33h-40v62h32q74 0 106 29t32 96q0 68 -30.5 98t-100.5 30q-76 0 -109.5 -38.5t-33.5 -126.5v-487h-77v493q0 117 52.5 170t170.5 53
q108 0 156.5 -44t48.5 -142q0 -66 -24 -104t-74 -54q64 -14 97 -60z" />
    <glyph glyph-name="germandbls.calt" horiz-adv-x="737" 
d="M641 327q47 -46 47 -138q0 -106 -60.5 -153.5t-194.5 -47.5q-88 0 -162 18v65q79 -19 157 -19q95 0 137 32.5t42 105.5q0 72 -42 104t-138 32h-22v52l162 227q-80 15 -163 15q-128 0 -184 -51.5t-56 -169.5v-399h-80v404q0 147 74.5 213.5t242.5 66.5q128 0 255 -25v-53
l-162 -226q100 -7 147 -53z" />
    <glyph glyph-name="longs" unicode="&#x17f;" horiz-adv-x="353" 
d="M383 705v-64q-41 11 -75 11q-52 0 -75.5 -23t-23.5 -76v-553h-81v423h-100v63h100v64q0 88 40.5 127t130.5 39q46 0 84 -11z" />
    <glyph glyph-name="t" unicode="t" horiz-adv-x="395" 
d="M217 74.5q22 -22.5 72 -22.5q31 0 72 9v-64q-37 -9 -84 -9q-85 0 -123.5 37.5t-38.5 120.5v277h-100v63h100v137l80 14v-151h170l-41 -63h-129v-274q0 -52 22 -74.5z" />
    <glyph glyph-name="tbar" unicode="&#x167;" horiz-adv-x="396" 
d="M218 72.5q22 -22.5 72 -22.5q31 0 72 9v-62q-37 -9 -84 -9q-86 0 -124.5 37.5t-38.5 120.5v73h-92v53h92v154h-100v60h100v137l81 14v-151h170l-39 -60h-131v-154h140v-53h-140v-72q0 -52 22 -74.5z" />
    <glyph glyph-name="tcaron" unicode="&#x165;" horiz-adv-x="395" 
d="M313 526h-56l47 178h71zM195 423v-274q0 -52 22 -74.5t72 -22.5q31 0 72 9v-64q-37 -9 -84 -9q-85 0 -123.5 37.5t-38.5 120.5v277h-100v63h100v137l80 14v-151h170l-41 -63h-129z" />
    <glyph glyph-name="uni0163" unicode="&#x163;" horiz-adv-x="395" 
d="M217 74.5q22 -22.5 72 -22.5q31 0 72 9v-64q-37 -9 -84 -9q-85 0 -123.5 37.5t-38.5 120.5v277h-100v63h100v137l80 14v-151h170l-41 -63h-129v-274q0 -52 22 -74.5zM225 -68h78l-51 -142h-63z" />
    <glyph glyph-name="uni021B" unicode="&#x21b;" horiz-adv-x="395" 
d="M217 74.5q22 -22.5 72 -22.5q31 0 72 9v-64q-37 -9 -84 -9q-85 0 -123.5 37.5t-38.5 120.5v277h-100v63h100v137l80 14v-151h170l-41 -63h-129v-274q0 -52 22 -74.5zM225 -68h78l-51 -142h-63z" />
    <glyph glyph-name="u" unicode="u" horiz-adv-x="566" 
d="M120 34.5q-50 46.5 -50 150.5v301h80v-295q0 -74 31 -106.5t102 -32.5t102 32.5t31 106.5v295h80v-301q0 -104 -50 -150.5t-163 -46.5t-163 46.5z" />
    <glyph glyph-name="uacute" unicode="&#xfa;" horiz-adv-x="566" 
d="M120 34.5q-50 46.5 -50 150.5v301h80v-295q0 -74 31 -106.5t102 -32.5t102 32.5t31 106.5v295h80v-301q0 -104 -50 -150.5t-163 -46.5t-163 46.5zM351 704h87l-134 -140h-74z" />
    <glyph glyph-name="ubreve" unicode="&#x16d;" horiz-adv-x="566" 
d="M120 34.5q-50 46.5 -50 150.5v301h80v-295q0 -74 31 -106.5t102 -32.5t102 32.5t31 106.5v295h80v-301q0 -104 -50 -150.5t-163 -46.5t-163 46.5zM167 590q-36 35 -36 114h58q0 -50 22 -72t72 -22t72 22t22 72h58q0 -79 -36 -114t-116 -35t-116 35z" />
    <glyph glyph-name="ucircumflex" unicode="&#xfb;" horiz-adv-x="566" 
d="M120 34.5q-50 46.5 -50 150.5v301h80v-295q0 -74 31 -106.5t102 -32.5t102 32.5t31 106.5v295h80v-301q0 -104 -50 -150.5t-163 -46.5t-163 46.5zM373 564l-90 95l-90 -95h-73l123 140h80l123 -140h-73z" />
    <glyph glyph-name="udieresis" unicode="&#xfc;" horiz-adv-x="566" 
d="M120 34.5q-50 46.5 -50 150.5v301h80v-295q0 -74 31 -106.5t102 -32.5t102 32.5t31 106.5v295h80v-301q0 -104 -50 -150.5t-163 -46.5t-163 46.5zM145 596.5q-12 11.5 -12 37.5t12 37.5t38 11.5q27 0 39 -11.5t12 -37.5t-12 -37.5t-39 -11.5q-26 0 -38 11.5zM344 596.5
q-12 11.5 -12 37.5t12 37.5t39 11.5q26 0 38 -11.5t12 -37.5t-12 -37.5t-38 -11.5q-27 0 -39 11.5z" />
    <glyph glyph-name="ugrave" unicode="&#xf9;" horiz-adv-x="566" 
d="M120 34.5q-50 46.5 -50 150.5v301h80v-295q0 -74 31 -106.5t102 -32.5t102 32.5t31 106.5v295h80v-301q0 -104 -50 -150.5t-163 -46.5t-163 46.5zM128 704h87l121 -140h-74z" />
    <glyph glyph-name="uhungarumlaut" unicode="&#x171;" horiz-adv-x="566" 
d="M120 34.5q-50 46.5 -50 150.5v301h80v-295q0 -74 31 -106.5t102 -32.5t102 32.5t31 106.5v295h80v-301q0 -104 -50 -150.5t-163 -46.5t-163 46.5zM252 704h86l-133 -140h-75zM451 704h87l-133 -140h-75z" />
    <glyph glyph-name="umacron" unicode="&#x16b;" horiz-adv-x="566" 
d="M120 34.5q-50 46.5 -50 150.5v301h80v-295q0 -74 31 -106.5t102 -32.5t102 32.5t31 106.5v295h80v-301q0 -104 -50 -150.5t-163 -46.5t-163 46.5zM132 663h302v-57h-302v57z" />
    <glyph glyph-name="uogonek" unicode="&#x173;" horiz-adv-x="566" 
d="M205 -122q0 29 23.5 58t68.5 55q-20 -2 -27 -2q-104 0 -152 46.5t-48 149.5v301h80v-295q0 -74 31 -106.5t102 -32.5t102 32.5t31 106.5v295h80v-301q0 -52 -10 -85t-32.5 -56.5t-65.5 -46.5q-60 -32 -89.5 -58t-29.5 -51q0 -13 9.5 -19t31.5 -6t40 6v-49q-19 -7 -57 -7
q-88 0 -88 65z" />
    <glyph glyph-name="uring" unicode="&#x16f;" horiz-adv-x="566" 
d="M120 34.5q-50 46.5 -50 150.5v301h80v-295q0 -74 31 -106.5t102 -32.5t102 32.5t31 106.5v295h80v-301q0 -104 -50 -150.5t-163 -46.5t-163 46.5zM204.5 562.5q-24.5 22.5 -24.5 71.5t24.5 71.5t78.5 22.5t78.5 -22.5t24.5 -71.5t-24.5 -71.5t-78.5 -22.5t-78.5 22.5z
M326 590.5q13 12.5 13 43.5q0 30 -13 43.5t-43 13.5t-43 -13.5t-13 -43.5t13 -43t43 -13t43 12.5z" />
    <glyph glyph-name="utilde" unicode="&#x169;" horiz-adv-x="566" 
d="M120 34.5q-50 46.5 -50 150.5v301h80v-295q0 -74 31 -106.5t102 -32.5t102 32.5t31 106.5v295h80v-301q0 -104 -50 -150.5t-163 -46.5t-163 46.5zM128 585q0 54 21 78t67 24q20 0 36.5 -7.5t38.5 -22.5q17 -11 27 -16t21 -5q22 0 31.5 11.5t9.5 39.5v7h58v-11
q0 -54 -21 -78t-67 -24q-20 0 -36.5 7.5t-38.5 22.5q-17 11 -27 16t-21 5q-22 0 -31.5 -11.5t-9.5 -39.5v-6h-58v10z" />
    <glyph glyph-name="v" unicode="v" horiz-adv-x="508" 
d="M486 486l-188 -486h-89l-187 486h84l148 -406l147 406h85z" />
    <glyph glyph-name="w" unicode="w" horiz-adv-x="760" 
d="M735 486l-152 -486h-88l-109 330l-123 -330h-86l-152 486h82l117 -402l129 346l-18 56h78l123 -400l117 400h82z" />
    <glyph glyph-name="wacute" unicode="&#x1e83;" horiz-adv-x="760" 
d="M735 486l-152 -486h-88l-109 330l-123 -330h-86l-152 486h82l117 -402l129 346l-18 56h78l123 -400l117 400h82zM448 704h87l-134 -140h-74z" />
    <glyph glyph-name="wcircumflex" unicode="&#x175;" horiz-adv-x="760" 
d="M735 486l-152 -486h-88l-109 330l-123 -330h-86l-152 486h82l117 -402l129 346l-18 56h78l123 -400l117 400h82zM470 564l-90 95l-90 -95h-73l123 140h80l123 -140h-73z" />
    <glyph glyph-name="wdieresis" unicode="&#x1e85;" horiz-adv-x="760" 
d="M735 486l-152 -486h-88l-109 330l-123 -330h-86l-152 486h82l117 -402l129 346l-18 56h78l123 -400l117 400h82zM242 596.5q-12 11.5 -12 37.5t12 37.5t38 11.5q27 0 39 -11.5t12 -37.5t-12 -37.5t-39 -11.5q-26 0 -38 11.5zM441 596.5q-12 11.5 -12 37.5t12 37.5
t39 11.5q26 0 38 -11.5t12 -37.5t-12 -37.5t-38 -11.5q-27 0 -39 11.5z" />
    <glyph glyph-name="wgrave" unicode="&#x1e81;" horiz-adv-x="760" 
d="M735 486l-152 -486h-88l-109 330l-123 -330h-86l-152 486h82l117 -402l129 346l-18 56h78l123 -400l117 400h82zM225 704h87l121 -140h-74z" />
    <glyph glyph-name="x" unicode="x" horiz-adv-x="508" 
d="M390 0l-136 196l-136 -196h-88l175 247l-169 239h88l130 -190l130 190h88l-169 -239l175 -247h-88z" />
    <glyph glyph-name="y" unicode="y" horiz-adv-x="506" 
d="M484 486l-182 -515q-22 -62 -45.5 -96t-53 -48t-72.5 -14q-36 0 -63 11v65q32 -10 57 -10q41 0 63.5 22t40.5 74l9 25h-32l-186 486h84l153 -423l142 423h85z" />
    <glyph glyph-name="yacute" unicode="&#xfd;" horiz-adv-x="506" 
d="M484 486l-182 -515q-22 -62 -45.5 -96t-53 -48t-72.5 -14q-36 0 -63 11v65q32 -10 57 -10q41 0 63.5 22t40.5 74l9 25h-32l-186 486h84l153 -423l142 423h85zM321 704h87l-134 -140h-74z" />
    <glyph glyph-name="ycircumflex" unicode="&#x177;" horiz-adv-x="506" 
d="M484 486l-182 -515q-22 -62 -45.5 -96t-53 -48t-72.5 -14q-36 0 -63 11v65q32 -10 57 -10q41 0 63.5 22t40.5 74l9 25h-32l-186 486h84l153 -423l142 423h85zM343 564l-90 95l-90 -95h-73l123 140h80l123 -140h-73z" />
    <glyph glyph-name="ydieresis" unicode="&#xff;" horiz-adv-x="506" 
d="M484 486l-182 -515q-22 -62 -45.5 -96t-53 -48t-72.5 -14q-36 0 -63 11v65q32 -10 57 -10q41 0 63.5 22t40.5 74l9 25h-32l-186 486h84l153 -423l142 423h85zM115 596.5q-12 11.5 -12 37.5t12 37.5t38 11.5q27 0 39 -11.5t12 -37.5t-12 -37.5t-39 -11.5q-26 0 -38 11.5z
M314 596.5q-12 11.5 -12 37.5t12 37.5t39 11.5q26 0 38 -11.5t12 -37.5t-12 -37.5t-38 -11.5q-27 0 -39 11.5z" />
    <glyph glyph-name="ygrave" unicode="&#x1ef3;" horiz-adv-x="506" 
d="M484 486l-182 -515q-22 -62 -45.5 -96t-53 -48t-72.5 -14q-36 0 -63 11v65q32 -10 57 -10q41 0 63.5 22t40.5 74l9 25h-32l-186 486h84l153 -423l142 423h85zM98 704h87l121 -140h-74z" />
    <glyph glyph-name="z" unicode="z" horiz-adv-x="481" 
d="M437 63v-63h-393v55l284 368h-276v63h377v-56l-284 -367h292z" />
    <glyph glyph-name="zacute" unicode="&#x17a;" horiz-adv-x="481" 
d="M437 63v-63h-393v55l284 368h-276v63h377v-56l-284 -367h292zM309 704h87l-134 -140h-74z" />
    <glyph glyph-name="zacute.loclPLK" horiz-adv-x="481" 
d="M437 63v-63h-393v55l284 368h-276v63h377v-56l-284 -367h292zM253 704h75l-62 -140h-64z" />
    <glyph glyph-name="zcaron" unicode="&#x17e;" horiz-adv-x="481" 
d="M437 63v-63h-393v55l284 368h-276v63h377v-56l-284 -367h292zM404 704l-123 -140h-80l-123 140h73l90 -95l90 95h73z" />
    <glyph glyph-name="zdotaccent" unicode="&#x17c;" horiz-adv-x="481" 
d="M437 63v-63h-393v55l284 368h-276v63h377v-56l-284 -367h292zM202 596.5q-12 11.5 -12 37.5t12 37.5t39 11.5t39 -11.5t12 -37.5t-12 -37.5t-39 -11.5t-39 11.5z" />
    <glyph glyph-name="ordfeminine" unicode="&#xaa;" horiz-adv-x="433" 
d="M376 399v-48q-18 -6 -37 -6q-23 0 -36.5 8t-18.5 27q-30 -39 -106 -39q-64 0 -94 23.5t-30 73.5t32.5 72.5t104.5 22.5h87v27q0 39 -22 56t-73 17q-48 0 -99 -14v47q50 14 106 14q77 0 111.5 -29.5t34.5 -94.5v-119q0 -23 5 -32t18 -9q7 0 17 3zM257 401q21 16 21 51v41
h-83q-43 0 -62.5 -13t-19.5 -41t18.5 -41t57.5 -13q47 0 68 16zM57 278h318v-50h-318v50z" />
    <glyph glyph-name="ordmasculine" unicode="&#xba;" horiz-adv-x="404" 
d="M78.5 381q-38.5 40 -38.5 129q0 90 38.5 130t123.5 40q86 0 124 -40t38 -130q0 -89 -38 -129t-124 -40q-85 0 -123.5 40zM279 418q23 28 23 92q0 65 -23 92.5t-77 27.5q-53 0 -76.5 -28t-23.5 -92t23.5 -92t76.5 -28q54 0 77 28zM43 278h318v-50h-318v50z" />
    <glyph glyph-name="uni0394" unicode="&#x394;" horiz-adv-x="679" 
d="M640 54v-54h-601v54l254 618h94zM124 66h432l-216 529z" />
    <glyph glyph-name="uni03A9" unicode="&#x3a9;" horiz-adv-x="737" 
d="M711 66v-66h-277v61q84 52 124.5 126t40.5 175q0 136 -54 195.5t-176 59.5t-176.5 -59.5t-54.5 -195.5q0 -101 40.5 -175t124.5 -126v-61h-277v66h181q-77 57 -114.5 132.5t-37.5 175.5q0 163 74.5 236.5t239.5 73.5t239 -73.5t74 -236.5q0 -100 -37.5 -175.5
t-114.5 -132.5h181z" />
    <glyph glyph-name="uni03BC" unicode="&#x3bc;" horiz-adv-x="567" 
d="M497 486v-486h-63l-6 60q-42 -71 -152 -71q-46 0 -77.5 14t-47.5 40v-251h-80v694h80v-298q0 -71 29.5 -102.5t96.5 -31.5q74 0 107 32.5t33 106.5v293h80z" />
    <glyph glyph-name="pi" unicode="&#x3c0;" horiz-adv-x="846" 
d="M231 15.5q-85 48.5 -133 132.5t-48 188t48 188t133 132.5t192 48.5t192 -48.5t133 -133t48 -187.5t-48 -187.5t-133 -133t-192 -48.5t-192 48.5zM356 100q-4 28 -4 52q0 63 20.5 121t62.5 102l91 -119q-1 173 16 344q-10 1 -31 1q-88 0 -180 -22.5t-158 -64.5l110 -32
q-29 -38 -43 -85.5t-14 -98.5q0 -54 16.5 -106t49 -89.5t76.5 -48.5q-8 18 -12 46z" />
    <glyph glyph-name="zero" unicode="0" horiz-adv-x="622" 
d="M161.5 24q-57.5 36 -84.5 112.5t-27 199.5t27 199.5t84.5 112.5t149.5 36t149.5 -36t84.5 -112.5t27 -199.5t-27 -199.5t-84.5 -112.5t-149.5 -36t-149.5 36zM448 120.5q42 65.5 42 215.5t-42 215.5t-137 65.5t-137 -65.5t-42 -215.5q0 -149 42 -215t137 -66t137 65.5z
" />
    <glyph glyph-name="one" unicode="1" horiz-adv-x="348" 
d="M248 672v-672h-80v600l-138 -57v66l153 63h65z" />
    <glyph glyph-name="two" unicode="2" horiz-adv-x="510" 
d="M460 66v-66h-440v60l265 258q45 44 66.5 84.5t21.5 81.5q0 71 -36.5 102t-119.5 31q-88 0 -176 -30v68q83 29 188 29q118 0 171.5 -45.5t53.5 -146.5q0 -54 -24.5 -103.5t-76.5 -99.5l-227 -223h334z" />
    <glyph glyph-name="three" unicode="3" horiz-adv-x="516" 
d="M425.5 280.5q35.5 -41.5 35.5 -104.5q0 -98 -64 -143t-206 -45q-91 0 -166 26v64q78 -27 160 -27q105 0 150.5 28.5t45.5 96.5q0 67 -44 97.5t-146 30.5h-56v65h52q98 0 139.5 29t41.5 101q0 65 -34.5 93.5t-120.5 28.5q-45 0 -95 -7.5t-93 -22.5v65q41 13 94 20.5
t100 7.5q228 0 228 -181q0 -136 -128 -165q71 -16 106.5 -57.5z" />
    <glyph glyph-name="four" unicode="4" horiz-adv-x="570" 
d="M550 148h-100v-148h-74v148h-346v60l302 464h78l-300 -461h266v211h74v-211h100v-63z" />
    <glyph glyph-name="five" unicode="5" horiz-adv-x="533" 
d="M428 346q60 -47 60 -153q0 -108 -64 -156.5t-205 -48.5q-91 0 -169 25v66q81 -27 163 -27q103 0 148 33.5t45 108.5q0 74 -47 107t-154 33q-53 0 -133 -7v345h399l-41 -63h-284v-219q44 3 88 3q134 0 194 -47z" />
    <glyph glyph-name="six" unicode="6" horiz-adv-x="585" 
d="M487.5 377.5q52.5 -51.5 52.5 -164.5q0 -118 -57 -171.5t-182 -53.5q-86 0 -139 32.5t-77.5 101.5t-24.5 182q0 135 30 218t95.5 122.5t171.5 39.5q87 0 154 -28l-36 -55q-50 19 -112 19q-81 0 -130 -29.5t-71 -91t-23 -161.5q17 47 61 69t120 22q115 0 167.5 -51.5z
M424 89.5q38 37.5 38 121.5q0 82 -35 119t-116 37q-86 0 -125.5 -34.5t-39.5 -108.5q0 -172 154 -172q86 0 124 37.5z" />
    <glyph glyph-name="seven" unicode="7" horiz-adv-x="466" 
d="M446 672v-57l-284 -615h-81l280 606h-356v66h441z" />
    <glyph glyph-name="eight" unicode="8" horiz-adv-x="589" 
d="M504 289q35 -39 35 -116q0 -98 -57.5 -141.5t-186.5 -43.5t-187 44t-58 141q0 76 35 115.5t118 55.5q-71 14 -104 53t-33 110q0 94 54 135.5t175 41.5t175 -41.5t54 -135.5q0 -70 -33 -109.5t-104 -53.5q82 -16 117 -55zM178.5 415.5q34.5 -29.5 116.5 -38.5
q82 9 116.5 38.5t34.5 88.5q0 63 -35 90t-116 27t-116 -27t-35 -90q0 -59 34.5 -88.5zM422.5 80q38.5 29 38.5 96q0 65 -37 95t-129 40q-92 -10 -129 -40t-37 -95q0 -67 38.5 -96t127.5 -29t127.5 29z" />
    <glyph glyph-name="nine" unicode="9" horiz-adv-x="585" 
d="M428 651.5q53 -32.5 77.5 -101.5t24.5 -182q0 -135 -30 -218t-95.5 -122.5t-171.5 -39.5q-79 0 -148 21v65q74 -22 142 -22q81 0 130 29.5t71 91t23 161.5q-17 -47 -61 -69t-120 -22q-115 0 -167.5 51.5t-52.5 164.5q0 118 57 171.5t182 53.5q86 0 139 -32.5z
M404.5 339.5q39.5 34.5 39.5 108.5q0 172 -154 172q-86 0 -124 -37.5t-38 -121.5q0 -82 35 -119t116 -37q86 0 125.5 34.5z" />
    <glyph glyph-name="uni00B9" unicode="&#xb9;" horiz-adv-x="263" 
d="M198 800v-416h-61v360l-107 -45v51l120 50h48z" />
    <glyph glyph-name="uni00B2" unicode="&#xb2;" horiz-adv-x="347" 
d="M307 434v-50h-277v44l160 155q53 52 53 96q0 42 -21 60t-70 18q-58 0 -110 -17v51q52 17 119 17q75 0 109.5 -29t34.5 -93q0 -62 -63 -123l-132 -129h197z" />
    <glyph glyph-name="uni00B3" unicode="&#xb3;" horiz-adv-x="351" 
d="M316 493q0 -61 -43 -89t-128 -28q-59 0 -110 15v49q51 -15 105 -15q61 0 87.5 16.5t26.5 53.5q0 38 -25.5 56t-78.5 18h-42v46h42q51 0 75 18t24 56q0 37 -25.5 53.5t-83.5 16.5q-54 0 -105 -15v49q51 15 110 15q82 0 124 -28t42 -89q0 -77 -75 -99q80 -21 80 -99z" />
    <glyph glyph-name="fraction" unicode="&#x2044;" horiz-adv-x="128" 
d="M189 672h52l-302 -672h-52z" />
    <glyph glyph-name="onehalf" unicode="&#xbd;" horiz-adv-x="864" 
d="M198 672h48v-416h-61v360l-107 -45v51zM609 672l-302 -672h-52l302 672h52zM813 50v-50h-277v44l160 155q53 52 53 96q0 42 -21 60t-70 18q-58 0 -110 -17v51q52 17 119 17q75 0 109.5 -29t34.5 -93q0 -62 -63 -123l-132 -129h197z" />
    <glyph glyph-name="onequarter" unicode="&#xbc;" horiz-adv-x="864" 
d="M198 672h48v-416h-61v360l-107 -45v51zM609 672l-302 -672h-52l302 672h52zM842 90h-61v-90h-55v90h-212v45l182 281h59l-181 -279h152v128h55v-128h61v-47z" />
    <glyph glyph-name="threequarters" unicode="&#xbe;" horiz-adv-x="864" 
d="M283 276q-43 -28 -128 -28q-59 0 -110 15v49q51 -15 105 -15q61 0 87.5 16.5t26.5 53.5q0 38 -25.5 56t-78.5 18h-42v46h42q51 0 75 18t24 56q0 37 -25.5 53.5t-83.5 16.5q-54 0 -105 -15v49q51 15 110 15q82 0 124 -28t42 -89q0 -77 -75 -99q80 -21 80 -99
q0 -61 -43 -89zM609 672l-302 -672h-52l302 672h52zM842 90h-61v-90h-55v90h-212v45l182 281h59l-181 -279h152v128h55v-128h61v-47z" />
    <glyph glyph-name="asterisk" unicode="*" horiz-adv-x="472" 
d="M97 330l93 129l-151 49l17 54l151 -49v159h57v-159l151 49l18 -54l-151 -49l93 -129l-46 -33l-93 129l-93 -129z" />
    <glyph glyph-name="backslash" unicode="\" horiz-adv-x="310" 
d="M239 0l-239 672h71l239 -672h-71z" />
    <glyph glyph-name="periodcentered" unicode="&#xb7;" horiz-adv-x="231" 
d="M74 206.5q-13 12.5 -13 40.5t13 40.5t42 12.5t41.5 -12t12.5 -41t-12.5 -41t-41.5 -12t-42 12.5z" />
    <glyph glyph-name="bullet" unicode="&#x2022;" horiz-adv-x="480" 
d="M137 184.5q-41 40.5 -41 103.5t41 103.5t103 40.5t103 -40.5t41 -103.5t-41 -103.5t-103 -40.5t-103 40.5z" />
    <glyph glyph-name="colon" unicode=":" horiz-adv-x="247" 
d="M82 3.5q-13 12.5 -13 40.5t13 40.5t42 12.5t41.5 -12t12.5 -41t-12.5 -41t-41.5 -12t-42 12.5zM82 401.5q-13 12.5 -13 40.5t13 40.5t42 12.5t41.5 -12t12.5 -41t-12.5 -41t-41.5 -12t-42 12.5z" />
    <glyph glyph-name="comma" unicode="," horiz-adv-x="231" 
d="M88 83h84l-76 -227h-65z" />
    <glyph glyph-name="ellipsis" unicode="&#x2026;" horiz-adv-x="865" 
d="M103 3.5q-13 12.5 -13 40.5t13 40.5t42 12.5t41.5 -12t12.5 -41t-12.5 -41t-41.5 -12t-42 12.5zM391 3.5q-13 12.5 -13 40.5t13 40.5t42 12.5t41.5 -12t12.5 -41t-12.5 -41t-41.5 -12t-42 12.5zM679 3.5q-13 12.5 -13 40.5t13 40.5t42 12.5t41.5 -12t12.5 -41t-12.5 -41
t-41.5 -12t-42 12.5z" />
    <glyph glyph-name="exclam" unicode="!" horiz-adv-x="248" 
d="M83 672h81l-4 -468h-73zM82.5 3q-12.5 12 -12.5 40q0 29 12.5 41t41.5 12t41.5 -12.5t12.5 -40.5t-12.5 -40t-41.5 -12t-41.5 12z" />
    <glyph glyph-name="exclamdown" unicode="&#xa1;" horiz-adv-x="248" 
d="M82.5 402q-12.5 12 -12.5 41q0 28 12.5 40t41.5 12t41.5 -12t12.5 -40t-12.5 -40.5t-41.5 -12.5t-41.5 12zM87 282h73l4 -458h-81z" />
    <glyph glyph-name="numbersign" unicode="#" horiz-adv-x="653" 
d="M499 439l-26 -206h121v-56h-128l-22 -177h-62l22 177h-195l-22 -177h-62l22 177h-121v56h128l26 206h-121v56h128l22 177h62l-22 -177h195l22 177h62l-22 -177h121v-56h-128zM437 439h-195l-26 -206h195z" />
    <glyph glyph-name="period" unicode="." horiz-adv-x="231" 
d="M74 3.5q-13 12.5 -13 40.5t13 40.5t42 12.5t41.5 -12t12.5 -41t-12.5 -41t-41.5 -12t-42 12.5z" />
    <glyph glyph-name="question" unicode="?" horiz-adv-x="444" 
d="M148 217q0 42 13.5 73.5t33 52.5t50.5 48q39 33 57.5 58t18.5 62q0 58 -32.5 83.5t-107.5 25.5q-73 0 -150 -28v65q77 27 159 27q112 0 162 -39.5t50 -128.5q0 -41 -14 -71.5t-34 -52t-53 -48.5q-43 -35 -64 -63t-21 -69v-8h-68v13zM140.5 3q-12.5 12 -12.5 40
q0 29 12.5 41t41.5 12t41.5 -12.5t12.5 -40.5t-12.5 -40t-41.5 -12t-41.5 12z" />
    <glyph glyph-name="questiondown" unicode="&#xbf;" horiz-adv-x="412" 
d="M220.5 402q-12.5 12 -12.5 41q0 28 12.5 40t41.5 12t41.5 -12t12.5 -40t-12.5 -40.5t-41.5 -12.5t-41.5 12zM91.5 -148.5q-50.5 38.5 -50.5 123.5q0 40 14 70.5t34 51t54 48.5q43 34 64 61.5t21 67.5v8h68v-14q0 -41 -13.5 -71.5t-32.5 -50.5t-51 -47q-40 -35 -58 -58.5
t-18 -59.5q0 -56 32.5 -80t107.5 -24q72 0 149 28v-65q-76 -27 -158 -27q-112 0 -162.5 38.5z" />
    <glyph glyph-name="quotedbl" unicode="&#x22;" horiz-adv-x="430" 
d="M81 672h69v-227h-69v227zM280 672h69v-227h-69v227z" />
    <glyph glyph-name="quotesingle" unicode="'" horiz-adv-x="231" 
d="M81 672h69v-227h-69v227z" />
    <glyph glyph-name="semicolon" unicode=";" horiz-adv-x="247" 
d="M96 83h84l-76 -227h-65zM82 401.5q-13 12.5 -13 40.5t13 40.5t42 12.5t41.5 -12t12.5 -41t-12.5 -41t-41.5 -12t-42 12.5z" />
    <glyph glyph-name="slash" unicode="/" horiz-adv-x="310" 
d="M239 672h71l-239 -672h-71z" />
    <glyph glyph-name="underscore" unicode="_" horiz-adv-x="480" 
d="M0 -97h480v-62h-480v62z" />
    <glyph glyph-name="braceleft" unicode="{" horiz-adv-x="311" 
d="M116 288q69 -22 69 -115v-149q0 -48 20.5 -68.5t68.5 -20.5h11v-63h-22q-80 0 -116 35.5t-36 113.5v146q0 48 -21 69t-69 21h-11v62h11q48 0 69 21t21 69v146q0 78 36 113.5t116 35.5h22v-63h-11q-48 0 -68.5 -20.5t-20.5 -68.5v-149q0 -93 -69 -115z" />
    <glyph glyph-name="braceright" unicode="}" horiz-adv-x="311" 
d="M301 319v-62h-11q-48 0 -69 -21t-21 -69v-146q0 -78 -36 -113.5t-116 -35.5h-22v63h11q48 0 68.5 20.5t20.5 68.5v149q0 93 69 115q-69 22 -69 115v149q0 48 -20.5 68.5t-68.5 20.5h-11v63h22q80 0 116 -35.5t36 -113.5v-146q0 -48 21 -69t69 -21h11z" />
    <glyph glyph-name="bracketleft" unicode="[" horiz-adv-x="311" 
d="M169 641v-706h116v-63h-190v832h190v-63h-116z" />
    <glyph glyph-name="bracketright" unicode="]" horiz-adv-x="311" 
d="M216 704v-832h-190v63h116v706h-116v63h190z" />
    <glyph glyph-name="parenleft" unicode="(" horiz-adv-x="311" 
d="M107 62.5q-34 105.5 -34 225.5t34 225.5t99 190.5h80q-67 -86 -102 -192t-35 -224t35 -224t102 -192h-80q-65 85 -99 190.5z" />
    <glyph glyph-name="parenright" unicode=")" horiz-adv-x="311" 
d="M204 513.5q34 -105.5 34 -225.5t-34 -225.5t-99 -190.5h-80q67 86 102 192t35 224t-35 224t-102 192h80q65 -85 99 -190.5z" />
    <glyph glyph-name="emdash" unicode="&#x2014;" horiz-adv-x="864" 
d="M26 278h812v-62h-812v62z" />
    <glyph glyph-name="endash" unicode="&#x2013;" horiz-adv-x="576" 
d="M26 278h524v-62h-524v62z" />
    <glyph glyph-name="hyphen" unicode="-" horiz-adv-x="320" 
d="M26 278h268v-62h-268v62z" />
    <glyph glyph-name="uni00AD" unicode="&#xad;" horiz-adv-x="320" 
d="M26 278h268v-62h-268v62z" />
    <glyph glyph-name="guillemotleft" unicode="&#xab;" horiz-adv-x="494" 
d="M114 243l132 -193h-76l-139 193l139 193h76zM329 243l132 -193h-76l-139 193l139 193h76z" />
    <glyph glyph-name="guillemotright" unicode="&#xbb;" horiz-adv-x="494" 
d="M248 243l-139 -193h-76l132 193l-132 193h76zM463 243l-139 -193h-76l132 193l-132 193h76z" />
    <glyph glyph-name="guilsinglleft" unicode="&#x2039;" horiz-adv-x="279" 
d="M114 243l132 -193h-76l-139 193l139 193h76z" />
    <glyph glyph-name="guilsinglright" unicode="&#x203a;" horiz-adv-x="279" 
d="M248 243l-139 -193h-76l132 193l-132 193h76z" />
    <glyph glyph-name="quotedblbase" unicode="&#x201e;" horiz-adv-x="430" 
d="M88 83h84l-76 -227h-65zM287 83h84l-76 -227h-65z" />
    <glyph glyph-name="quotedblleft" unicode="&#x201c;" horiz-adv-x="430" 
d="M128 445h-84l76 227h65zM327 445h-84l76 227h65z" />
    <glyph glyph-name="quotedblright" unicode="&#x201d;" horiz-adv-x="430" 
d="M104 672h84l-76 -227h-65zM303 672h84l-76 -227h-65z" />
    <glyph glyph-name="quoteleft" unicode="&#x2018;" horiz-adv-x="231" 
d="M119 672h66l-58 -227h-83z" />
    <glyph glyph-name="quoteright" unicode="&#x2019;" horiz-adv-x="231" 
d="M104 672h84l-76 -227h-65z" />
    <glyph glyph-name="quotesinglbase" unicode="&#x201a;" horiz-adv-x="231" 
d="M88 83h84l-76 -227h-65z" />
    <glyph glyph-name="uni2003" unicode="&#x2003;" horiz-adv-x="864" 
 />
    <glyph glyph-name="uni2002" unicode="&#x2002;" horiz-adv-x="576" 
 />
    <glyph glyph-name="uni200A" unicode="&#x200a;" horiz-adv-x="54" 
 />
    <glyph glyph-name="uni00A0" unicode="&#xa0;" horiz-adv-x="224" 
 />
    <glyph glyph-name="uni2009" unicode="&#x2009;" horiz-adv-x="173" 
 />
    <glyph glyph-name="cent" unicode="&#xa2;" horiz-adv-x="481" 
d="M171.5 189.5q39.5 -44.5 129.5 -44.5q68 0 131 20v-65q-51 -16 -117 -19v-164h-74v166q-100 11 -145.5 71.5t-45.5 181.5t45.5 181.5t145.5 71.5v166h74v-165q68 -3 121 -25l-35 -54q-50 16 -100 16q-90 0 -129.5 -44.5t-39.5 -146.5t39.5 -146.5z" />
    <glyph glyph-name="currency" unicode="&#xa4;" horiz-adv-x="576" 
d="M451 222l73 -74l-48 -48l-74 73q-39 -26 -114 -26t-114 26l-74 -73l-48 48l73 74q-26 39 -26 114t26 114l-73 74l48 48l74 -73q39 26 114 26t114 -26l74 73l48 -48l-73 -74q26 -39 26 -114t-26 -114zM192 240q29 -29 96 -29t96 29t29 96t-29 96t-96 29t-96 -29t-29 -96
t29 -96z" />
    <glyph glyph-name="dollar" unicode="$" horiz-adv-x="545" 
d="M452 70.5q-45 -42.5 -142 -49.5v-165h-74v164q-97 5 -176 31v66q96 -33 199 -33q83 0 118.5 25.5t35.5 83.5q0 36 -21 57.5t-51.5 33t-85.5 24.5q-65 16 -105.5 31.5t-68.5 49.5t-28 92q0 81 43.5 121.5t139.5 47.5v166h74v-165q90 -5 161 -29l-36 -55q-72 21 -148 21
q-81 0 -115.5 -24t-34.5 -81q0 -34 20 -54.5t50.5 -31.5t83.5 -23q66 -15 107 -31t70 -51.5t29 -96.5q0 -82 -45 -124.5z" />
    <glyph glyph-name="Euro" unicode="&#x20ac;" horiz-adv-x="556" 
d="M248 96.5q49 -47.5 151 -47.5q67 0 136 20v-62q-66 -19 -145 -19q-134 0 -201.5 62.5t-82.5 191.5h-69v51h65q-1 14 -1 43q0 19 2 55h-66v51h71q17 123 84 182.5t198 59.5q82 0 148 -23l-33 -52q-49 14 -106 14q-98 0 -147 -44.5t-63 -136.5h256v-51h-261q-2 -34 -2 -55
q0 -29 1 -43h262v-51h-258q12 -98 61 -145.5z" />
    <glyph glyph-name="florin" unicode="&#x192;" horiz-adv-x="431" 
d="M282 597q-21 -23 -21 -71v-104h126v-63h-126v-218q0 -79 -36.5 -116t-113.5 -37q-36 0 -73 8v64q32 -8 60 -8q42 0 62.5 21.5t20.5 67.5v218h-119v63h119v104q0 81 37.5 119.5t117.5 38.5q48 0 88 -14l-36 -55q-22 5 -39 5q-46 0 -67 -23z" />
    <glyph glyph-name="sterling" unicode="&#xa3;" horiz-adv-x="497" 
d="M472 64v-64h-432v64h90v247h-74v62h74v98q0 111 52 162t166 51q66 0 123 -19l-36 -56q-32 9 -75 9q-79 0 -113 -34.5t-34 -115.5v-95h197v-62h-197v-247h259z" />
    <glyph glyph-name="yen" unicode="&#xa5;" horiz-adv-x="568" 
d="M347 337h141v-50h-163v-100h163v-50h-163v-137h-82v137h-163v50h163v100h-163v50h140l-216 335h91l189 -300l189 300h91z" />
    <glyph glyph-name="dotmath" unicode="&#x22c5;" horiz-adv-x="231" 
d="M74 206.5q-13 12.5 -13 40.5t13 40.5t42 12.5t41.5 -12t12.5 -41t-12.5 -41t-41.5 -12t-42 12.5z" />
    <glyph glyph-name="plus" unicode="+" horiz-adv-x="576" 
d="M502 254h-180v-180h-68v180h-180v68h180v180h68v-180h180v-68z" />
    <glyph glyph-name="minus" unicode="&#x2212;" horiz-adv-x="576" 
d="M74 322h428v-68h-428v68z" />
    <glyph glyph-name="multiply" unicode="&#xd7;" horiz-adv-x="576" 
d="M336 288l150 -150l-48 -48l-150 150l-150 -150l-48 48l150 150l-150 150l48 48l150 -150l150 150l48 -48z" />
    <glyph glyph-name="divide" unicode="&#xf7;" horiz-adv-x="576" 
d="M251 428.5q-11 10.5 -11 35.5t11 35.5t37 10.5t37 -10.5t11 -35.5t-11 -35.5t-37 -10.5t-37 10.5zM74 319h428v-62h-428v62zM251 76.5q-11 10.5 -11 35.5t11 35.5t37 10.5t37 -10.5t11 -35.5t-11 -35.5t-37 -10.5t-37 10.5z" />
    <glyph glyph-name="equal" unicode="=" horiz-adv-x="576" 
d="M74 422h428v-69h-428v69zM74 223h428v-69h-428v69z" />
    <glyph glyph-name="notequal" unicode="&#x2260;" horiz-adv-x="576" 
d="M346 353l-44 -130h200v-69h-223l-51 -154h-72l51 154h-133v69h156l44 130h-200v69h223l51 154h72l-51 -154h133v-69h-156z" />
    <glyph glyph-name="greater" unicode="&#x3e;" horiz-adv-x="576" 
d="M502 326v-76l-428 -177v72l345 143l-345 143v72z" />
    <glyph glyph-name="less" unicode="&#x3c;" horiz-adv-x="576" 
d="M502 431l-345 -143l345 -143v-72l-428 177v76l428 177v-72z" />
    <glyph glyph-name="greaterequal" unicode="&#x2265;" horiz-adv-x="576" 
d="M502 414v-77l-428 -171v72l346 137l-346 137v73zM74 68h428v-68h-428v68z" />
    <glyph glyph-name="lessequal" unicode="&#x2264;" horiz-adv-x="576" 
d="M502 512l-346 -137l346 -137v-72l-428 171v77l428 171v-73zM74 68h428v-68h-428v68z" />
    <glyph glyph-name="plusminus" unicode="&#xb1;" horiz-adv-x="576" 
d="M502 410v-69h-180v-180h-68v180h-180v69h180v179h68v-179h180zM74 68h428v-68h-428v68z" />
    <glyph glyph-name="approxequal" unicode="&#x2248;" horiz-adv-x="576" 
d="M327.5 326.5q-23.5 10.5 -52.5 29.5q-27 18 -45.5 26.5t-43.5 8.5q-33 0 -59.5 -13t-52.5 -41v75q45 47 118 47q34 0 58 -10.5t51 -29.5q29 -18 46.5 -26t42.5 -8q33 0 59.5 13t52.5 40v-75q-45 -47 -118 -47q-33 0 -56.5 10.5zM326 127.5q-24 10.5 -51 29.5
q-29 18 -46.5 26t-42.5 8q-33 0 -59.5 -13t-52.5 -40v75q45 47 118 47q33 0 56.5 -10.5t52.5 -29.5q27 -18 45.5 -26.5t43.5 -8.5q33 0 59.5 13t52.5 41v-75q-45 -47 -118 -47q-34 0 -58 10.5z" />
    <glyph glyph-name="logicalnot" unicode="&#xac;" horiz-adv-x="576" 
d="M502 322v-248h-69v180h-359v68h428z" />
    <glyph glyph-name="asciitilde" unicode="~" horiz-adv-x="576" 
d="M327.5 214q-27.5 17 -58.5 48q-27 25 -43.5 36t-37.5 11q-39 0 -57 -24.5t-19 -77.5h-68q1 89 34 130.5t104 41.5q39 0 66.5 -17t58.5 -48q27 -25 43.5 -36t37.5 -11q39 0 57 24.5t19 77.5h68q-1 -89 -34 -130.5t-104 -41.5q-39 0 -66.5 17z" />
    <glyph glyph-name="infinity" unicode="&#x221e;" horiz-adv-x="785" 
d="M708.5 434.5q40.5 -45.5 40.5 -146.5t-40.5 -146.5t-131.5 -45.5q-68 0 -108 29.5t-76 105.5q-36 -76 -76.5 -105.5t-107.5 -29.5q-91 0 -132 45.5t-41 146.5t41 146.5t132 45.5q67 0 107.5 -29.5t76.5 -105.5q36 76 76 105.5t108 29.5q91 0 131.5 -45.5zM272.5 171.5
q22.5 11.5 41.5 38.5t40 78q-21 51 -40 78t-41.5 38.5t-55.5 11.5q-56 0 -81 -30t-25 -98t25 -98t81 -30q33 0 55.5 11.5zM650 190q25 30 25 98t-25 98t-82 30q-48 0 -77 -27t-60 -101q31 -74 60 -101t77 -27q57 0 82 30z" />
    <glyph glyph-name="integral" unicode="&#x222b;" horiz-adv-x="402" 
d="M89 -213v66q27 -7 56 -7q52 0 74.5 23t22.5 76q0 40 -18.5 106.5t-55.5 175.5q-42 124 -63 201t-21 129q0 83 37.5 121t119.5 38q42 0 71 -7v-66q-27 7 -56 7q-51 0 -74 -23t-23 -76q0 -40 18.5 -106.5t55.5 -175.5q41 -120 63 -199t22 -131q0 -83 -37.5 -121t-120.5 -38
q-40 0 -71 7z" />
    <glyph glyph-name="uni2126" unicode="&#x2126;" horiz-adv-x="737" 
d="M711 66v-66h-277v61q84 52 124.5 126t40.5 175q0 136 -54 195.5t-176 59.5t-176.5 -59.5t-54.5 -195.5q0 -101 40.5 -175t124.5 -126v-61h-277v66h181q-77 57 -114.5 132.5t-37.5 175.5q0 163 74.5 236.5t239.5 73.5t239 -73.5t74 -236.5q0 -100 -37.5 -175.5
t-114.5 -132.5h181z" />
    <glyph glyph-name="uni2206" unicode="&#x2206;" horiz-adv-x="679" 
d="M640 54v-54h-601v54l254 618h94zM124 66h432l-216 529z" />
    <glyph glyph-name="product" unicode="&#x220f;" horiz-adv-x="786" 
d="M702 704v-879h-83v813h-452v-813h-83v879h618z" />
    <glyph glyph-name="summation" unicode="&#x2211;" horiz-adv-x="581" 
d="M377 382q-50 -53 -74 -122t-24 -144q0 -28 5 -61t14 -55q-53 12 -91.5 57t-58.5 107t-20 126q0 60 17.5 117t52.5 103l-133 38q77 49 185 75.5t211 26.5q30 0 45 -1q-21 -192 -20 -408z" />
    <glyph glyph-name="radical" unicode="&#x221a;" horiz-adv-x="846" 
d="M615 656.5q85 -48.5 133 -133t48 -187.5t-48 -187.5t-133 -133t-192 -48.5t-192 48.5t-133 132.5t-48 188t48 188t133 132.5t192 48.5t192 -48.5zM585 57q72 42 112.5 115.5t40.5 163.5t-40.5 163.5t-112.5 116t-162 42.5t-162 -42.5t-112.5 -116t-40.5 -163.5
t40.5 -163.5t112.5 -115.5t162 -42t162 42zM347.5 561q86.5 21 169.5 21q21 0 31 -1q-17 -160 -16 -324l-86 112q-40 -41 -59 -96t-19 -114q0 -22 4 -48.5t12 -43.5q-42 10 -72.5 45.5t-46.5 84.5t-16 100q0 47 13.5 92t40.5 81l-104 30q62 40 148.5 61z" />
    <glyph glyph-name="partialdiff" unicode="&#x2202;" horiz-adv-x="567" 
d="M404 674q57 -42 84 -134t27 -245q0 -159 -57 -233t-182 -74q-122 0 -177 60.5t-55 194.5t50.5 194.5t161.5 60.5q126 0 173 -76q-9 122 -53 177t-130 55q-76 0 -151 -27v64q72 25 157 25q95 0 152 -42zM395.5 103q37.5 51 37.5 153q0 90 -38.5 134t-122.5 44
q-77 0 -111.5 -44.5t-34.5 -146.5t35 -146.5t115 -44.5q82 0 119.5 51z" />
    <glyph glyph-name="uni00B5" unicode="&#xb5;" horiz-adv-x="567" 
d="M497 486v-486h-63l-6 60q-42 -71 -152 -71q-46 0 -77.5 14t-47.5 40v-251h-80v694h80v-298q0 -71 29.5 -102.5t96.5 -31.5q74 0 107 32.5t33 106.5v293h80z" />
    <glyph glyph-name="percent" unicode="%" horiz-adv-x="864" 
d="M83 366.5q-39 42.5 -39 137.5t39 137.5t125 42.5t125 -42.5t39 -137.5t-39 -137.5t-125 -42.5t-125 42.5zM557 672h52l-302 -672h-52zM287.5 403.5q24.5 30.5 24.5 100.5t-24.5 100.5t-79.5 30.5t-79.5 -30.5t-24.5 -100.5t24.5 -100.5t79.5 -30.5t79.5 30.5zM531 30.5
q-39 42.5 -39 137.5t39 137.5t125 42.5t125 -42.5t39 -137.5t-39 -137.5t-125 -42.5t-125 42.5zM735.5 67.5q24.5 30.5 24.5 100.5t-24.5 100.5t-79.5 30.5t-79.5 -30.5t-24.5 -100.5t24.5 -100.5t79.5 -30.5t79.5 30.5z" />
    <glyph glyph-name="perthousand" unicode="&#x2030;" horiz-adv-x="1248" 
d="M83 366.5q-39 42.5 -39 137.5t39 137.5t125 42.5t125 -42.5t39 -137.5t-39 -137.5t-125 -42.5t-125 42.5zM557 672h52l-302 -672h-52zM287.5 403.5q24.5 30.5 24.5 100.5t-24.5 100.5t-79.5 30.5t-79.5 -30.5t-24.5 -100.5t24.5 -100.5t79.5 -30.5t79.5 30.5zM531 30.5
q-39 42.5 -39 137.5t39 137.5t125 42.5t125 -42.5t39 -137.5t-39 -137.5t-125 -42.5t-125 42.5zM915 30.5q-39 42.5 -39 137.5t39 137.5t125 42.5t125 -42.5t39 -137.5t-39 -137.5t-125 -42.5t-125 42.5zM735.5 67.5q24.5 30.5 24.5 100.5t-24.5 100.5t-79.5 30.5
t-79.5 -30.5t-24.5 -100.5t24.5 -100.5t79.5 -30.5t79.5 30.5zM1119.5 67.5q24.5 30.5 24.5 100.5t-24.5 100.5t-79.5 30.5t-79.5 -30.5t-24.5 -100.5t24.5 -100.5t79.5 -30.5t79.5 30.5z" />
    <glyph glyph-name="arrowup" unicode="&#x2191;" horiz-adv-x="864" 
d="M700 305l-231 234v-631h-74v631l-231 -234v107l268 267l268 -267v-107z" />
    <glyph glyph-name="arrowright" unicode="&#x2192;" horiz-adv-x="864" 
d="M823 288l-267 -268h-107l234 231h-631v74h631l-234 231h107z" />
    <glyph glyph-name="arrowdown" unicode="&#x2193;" horiz-adv-x="864" 
d="M700 271v-107l-268 -267l-268 267v107l231 -234v631h74v-631z" />
    <glyph glyph-name="arrowleft" unicode="&#x2190;" horiz-adv-x="864" 
d="M812 251h-631l234 -231h-107l-267 268l267 268h107l-234 -231h631v-74z" />
    <glyph glyph-name="lozenge" unicode="&#x25ca;" horiz-adv-x="576" 
d="M535 336l-207 -336h-80l-207 336l207 336h80zM453 336l-165 266l-165 -266l165 -268z" />
    <glyph glyph-name="uniF8FF" unicode="&#xf8ff;" horiz-adv-x="593" 
d="M109 620q-9 9 -9 22t9.5 22t22.5 9t22 -9t9 -22t-9 -22t-22 -9q-14 0 -23 9zM178 620q-9 9 -9 22t9.5 22t22.5 9t22 -9t9 -22t-9 -22t-22 -9q-14 0 -23 9zM247 620q-9 9 -9 22t9.5 22t22.5 9t22 -9t9 -22t-9 -22t-22 -9q-14 0 -23 9zM316 620q-9 9 -9 22t9.5 22t22.5 9
t22 -9t9 -22t-9 -22t-22 -9q-14 0 -23 9zM385 620q-9 9 -9 22t9.5 22t22.5 9t22 -9t9 -22t-9 -22t-22 -9q-14 0 -23 9zM454 620q-9 9 -9 22t9.5 22t22.5 9t22 -9t9 -22t-9 -22t-22 -9q-14 0 -23 9zM109.5 552q-9.5 9 -9.5 22t9.5 22t22.5 9t22 -9t9 -22t-9 -22t-22 -9
t-22.5 9zM109.5 484q-9.5 9 -9.5 22t9.5 22t22.5 9t22 -9t9 -22t-9 -22t-22 -9t-22.5 9zM247 484q-9 9 -9 22t9.5 22t22.5 9t22 -9t9 -22t-9 -22t-22 -9q-14 0 -23 9zM316 484q-9 9 -9 22t9.5 22t22.5 9t22 -9t9 -22t-9 -22t-22 -9q-14 0 -23 9zM385 484q-9 9 -9 22t9.5 22
t22.5 9t22 -9t9 -22t-9 -22t-22 -9q-14 0 -23 9zM454 484q-9 9 -9 22t9.5 22t22.5 9t22 -9t9 -22t-9 -22t-22 -9q-14 0 -23 9zM109.5 416q-9.5 9 -9.5 22t9.5 22t22.5 9t22 -9t9 -22t-9 -22t-22 -9t-22.5 9zM247 416q-9 9 -9 22t9.5 22t22.5 9t22 -9t9 -22t-9 -22t-22 -9
q-14 0 -23 9zM109.5 348q-9.5 9 -9.5 22t9.5 22t22.5 9t22 -9t9 -22t-9 -22t-22 -9t-22.5 9zM247 348q-9 9 -9 22t9.5 22t22.5 9t22 -9t9 -22t-9 -22t-22 -9q-14 0 -23 9zM316 348q-9 9 -9 22t9.5 22t22.5 9t22 -9t9 -22t-9 -22t-22 -9q-14 0 -23 9zM385 348q-9 9 -9 22
t9.5 22t22.5 9t22 -9t9 -22t-9 -22t-22 -9q-14 0 -23 9zM454 348q-9 9 -9 22t9.5 22t22.5 9t22 -9t9 -22t-9 -22t-22 -9q-14 0 -23 9zM109.5 280q-9.5 9 -9.5 22t9.5 22t22.5 9t22 -9t9 -22t-9 -22t-22 -9t-22.5 9zM454 280q-9 9 -9 22t9.5 22t22.5 9t22 -9t9 -22t-9 -22
t-22 -9q-14 0 -23 9zM109.5 212q-9.5 9 -9.5 22t9.5 22t22.5 9t22 -9t9 -22t-9 -22t-22 -9t-22.5 9zM247 212q-9 9 -9 22t9.5 22t22.5 9t22 -9t9 -22t-9 -22t-22 -9q-14 0 -23 9zM316 212q-9 9 -9 22t9.5 22t22.5 9t22 -9t9 -22t-9 -22t-22 -9q-14 0 -23 9zM385 212
q-9 9 -9 22t9.5 22t22.5 9t22 -9t9 -22t-9 -22t-22 -9q-14 0 -23 9zM454 212q-9 9 -9 22t9.5 22t22.5 9t22 -9t9 -22t-9 -22t-22 -9q-14 0 -23 9zM109.5 144q-9.5 9 -9.5 22t9.5 22t22.5 9t22 -9t9 -22t-9 -22t-22 -9t-22.5 9zM109.5 76q-9.5 9 -9.5 22t9.5 22t22.5 9t22 -9
t9 -22t-9 -22t-22 -9t-22.5 9zM247.5 76q-9.5 9 -9.5 22t9.5 22t22.5 9t22 -9t9 -22t-9 -22t-22 -9t-22.5 9zM109.5 8q-9.5 9 -9.5 22t9.5 22t22.5 9t22 -9t9 -22t-9 -22t-22 -9t-22.5 9zM178.5 8q-9.5 9 -9.5 22t9.5 22t22.5 9t22 -9t9 -22t-9 -22t-22 -9t-22.5 9zM247.5 8
q-9.5 9 -9.5 22t9.5 22t22.5 9t22 -9t9 -22t-9 -22t-22 -9t-22.5 9z" />
    <glyph glyph-name="at" unicode="@" horiz-adv-x="977" 
d="M680 451v-297q0 -37 16 -53.5t52 -16.5q55 0 78.5 49.5t23.5 154.5q0 121 -36 196t-113.5 110t-203.5 35q-132 0 -213 -39.5t-119 -124t-38 -222.5t40 -222.5t126 -124t226 -39.5t274 44v-64q-131 -41 -277 -41q-163 0 -263.5 46t-148 144t-47.5 257t46 257t143 144
t254 46q149 0 241 -41t135.5 -128t43.5 -227t-43.5 -205.5t-140.5 -65.5q-43 0 -72.5 16t-42.5 46q-23 -32 -60.5 -47t-93.5 -15q-97 0 -140 52t-43 168t43 168t140 52q53 0 88.5 -14t56.5 -44l4 46h64zM603 284q0 61 -27.5 88t-89.5 27q-66 0 -94.5 -36.5t-28.5 -119.5
t28.5 -119.5t94.5 -36.5q62 0 89.5 27t27.5 88v82z" />
    <glyph glyph-name="ampersand" unicode="&#x26;" horiz-adv-x="673" 
d="M572 0l-81 82q-35 -46 -88.5 -70t-119.5 -24q-119 0 -176.5 46.5t-57.5 142.5q0 132 154 200q-48 42 -69 79.5t-21 78.5q0 149 182 149q88 0 130.5 -36t42.5 -108q0 -56 -37 -99.5t-117 -82.5l170 -173q21 54 21 141h75q-2 -123 -44 -196l127 -130h-91zM214 600.5
q-25 -22.5 -25 -68.5q0 -31 18.5 -60t61.5 -67q65 29 94 60t29 71q0 44 -24 65.5t-75 21.5q-54 0 -79 -22.5zM442 133l-197 199q-118 -55 -118 -150q0 -66 38.5 -98.5t117.5 -32.5q104 0 159 82z" />
    <glyph glyph-name="paragraph" unicode="&#xb6;" horiz-adv-x="593" 
d="M510 672v-816h-69v753h-120v-350h-54q-226 0 -226 206q0 207 226 207h243z" />
    <glyph glyph-name="section" unicode="&#xa7;" horiz-adv-x="556" 
d="M459 110q31 -36 31 -93q0 -90 -54 -131.5t-174 -41.5q-110 0 -203 31v66q95 -33 197 -33q81 0 115.5 25.5t34.5 83.5q0 36 -20.5 57t-51 32.5t-83.5 24.5q-64 15 -104 31t-67.5 50t-27.5 92q0 77 49 119q-33 35 -33 92q0 89 53.5 129t172.5 40q100 0 181 -25v-66
q-85 27 -175 27q-80 0 -114 -24.5t-34 -80.5q0 -34 20 -54t49.5 -30.5t80.5 -22.5q65 -15 106 -31.5t69.5 -52t28.5 -96.5q0 -75 -47 -118zM425 227q0 37 -20 59.5t-49.5 33.5t-78.5 24q-41 11 -66 20t-46 22q-31 -25 -31 -81q0 -35 19 -56t47.5 -32t77.5 -24
q44 -12 70.5 -21t47.5 -24q29 29 29 79z" />
    <glyph glyph-name="copyright" unicode="&#xa9;" horiz-adv-x="832" 
d="M201.5 6.5q-82.5 38.5 -121 119.5t-38.5 210t38.5 210t121 119.5t214.5 38.5t214.5 -38.5t121 -119.5t38.5 -210t-38.5 -210t-121 -119.5t-214.5 -38.5t-214.5 38.5zM662.5 88.5q77.5 76.5 77.5 247.5q0 116 -33 187t-104 104t-187 33t-187 -33t-104 -104t-33 -187
q0 -171 77.5 -247.5t246.5 -76.5t246.5 76.5zM275.5 171q-47.5 51 -47.5 165t47.5 165t154.5 51q67 0 124 -19l-29 -44q-39 12 -85 12q-79 0 -113.5 -38t-34.5 -127t34.5 -127t113.5 -38q49 0 112 17v-52q-61 -16 -122 -16q-107 0 -154.5 51z" />
    <glyph glyph-name="registered" unicode="&#xae;" horiz-adv-x="832" 
d="M630.5 665.5q82.5 -38.5 121 -119.5t38.5 -210t-38.5 -210t-121 -119.5t-214.5 -38.5t-214.5 38.5t-121 119.5t-38.5 210t38.5 210t121 119.5t214.5 38.5t214.5 -38.5zM662.5 88.5q77.5 76.5 77.5 247.5q0 116 -33 187t-104 104t-187 33t-187 -33t-104 -104t-33 -187
q0 -171 77.5 -247.5t246.5 -76.5t246.5 76.5zM562.5 335q-24.5 -29 -75.5 -36l109 -171h-68l-101 165h-100v-165h-59v416h173q77 0 111.5 -29t34.5 -96q0 -55 -24.5 -84zM327 342h110q47 0 68 18t21 59q0 42 -20.5 59t-68.5 17h-110v-153z" />
    <glyph glyph-name="trademark" unicode="&#x2122;" horiz-adv-x="929" 
d="M24 672h363l-32 -50h-126v-366h-62v366h-143v50zM869 672v-416h-60v322l-128 -202h-42l-126 202v-322h-60v416h62l145 -235l147 235h62z" />
    <glyph glyph-name="degree" unicode="&#xb0;" horiz-adv-x="343" 
d="M79 467.5q-32 31.5 -32 91.5q0 59 32.5 90.5t92.5 31.5q59 0 91.5 -31.5t32.5 -90.5q0 -60 -32 -91.5t-92 -31.5q-61 0 -93 31.5zM228.5 502q19.5 20 19.5 57t-19.5 56.5t-56.5 19.5t-57 -19.5t-20 -56.5t20 -57t57 -20t56.5 20z" />
    <glyph glyph-name="bar" unicode="|" horiz-adv-x="240" 
d="M86 736h68v-960h-68v960z" />
    <glyph glyph-name="brokenbar" unicode="&#xa6;" horiz-adv-x="240" 
d="M86 688h68v-384h-68v384zM86 208h68v-384h-68v384z" />
    <glyph glyph-name="dagger" unicode="&#x2020;" horiz-adv-x="471" 
d="M437 445h-167v-445h-69v445h-167v63h167v164h69v-164h167v-63z" />
    <glyph glyph-name="uni2113" unicode="&#x2113;" horiz-adv-x="381" 
d="M167.5 74.5q22.5 -22.5 74.5 -22.5q30 0 75 9v-64q-37 -9 -84 -9q-85 0 -123.5 37.5t-38.5 120.5v399q0 90 33.5 130.5t107.5 40.5q69 0 101 -37.5t32 -119.5q0 -89 -51 -165.5t-149 -138.5v-106q0 -52 22.5 -74.5zM161.5 627q-16.5 -25 -16.5 -84v-212
q69 48 102.5 103.5t33.5 121.5q0 52 -15 74t-50 22q-38 0 -54.5 -25z" />
    <glyph glyph-name="daggerdbl" unicode="&#x2021;" horiz-adv-x="471" 
d="M270 445v-218h167v-63h-167v-164h-69v164h-167v63h167v218h-167v63h167v164h69v-164h167v-63h-167z" />
    <glyph glyph-name="estimated" unicode="&#x212e;" horiz-adv-x="960" 
d="M287.5 31.5q-88.5 47.5 -140 128.5t-51.5 176t51.5 176t140 128.5t192.5 47.5t192.5 -47.5t140 -128.5t51.5 -176q0 -11 -1 -16h-623v-196q44 -51 106.5 -79.5t133.5 -28.5q72 0 135 29.5t108 82.5h66q-54 -67 -135 -105.5t-174 -38.5q-104 0 -192.5 47.5zM720 352v196
q-45 51 -107.5 79.5t-132.5 28.5q-71 0 -133.5 -28.5t-106.5 -79.5v-196h480z" />
    <glyph glyph-name="uni2116" unicode="&#x2116;" horiz-adv-x="1142" 
d="M654 672v-672h-81l-412 558v-558h-77v672h81l412 -558v558h77zM816.5 381q-38.5 40 -38.5 129q0 90 38.5 130t123.5 40q86 0 124 -40t38 -130q0 -89 -38 -129t-124 -40q-85 0 -123.5 40zM1017 418q23 28 23 92q0 65 -23 92.5t-77 27.5q-53 0 -76.5 -28t-23.5 -92
t23.5 -92t76.5 -28q54 0 77 28zM781 278h318v-50h-318v50z" />
    <glyph glyph-name="asciicircum" unicode="^" horiz-adv-x="576" 
d="M447 244l-159 347l-159 -347h-78l196 428h82l196 -428h-78z" />
    <glyph glyph-name="uni0308" unicode="&#x308;" 
d="M-258 596.5q-12 11.5 -12 37.5t12 37.5t38 11.5q27 0 39 -11.5t12 -37.5t-12 -37.5t-39 -11.5q-26 0 -38 11.5zM-59 596.5q-12 11.5 -12 37.5t12 37.5t39 11.5q26 0 38 -11.5t12 -37.5t-12 -37.5t-38 -11.5q-27 0 -39 11.5z" />
    <glyph glyph-name="uni0307" unicode="&#x307;" 
d="M-159 596.5q-12 11.5 -12 37.5t12 37.5t39 11.5t39 -11.5t12 -37.5t-12 -37.5t-39 -11.5t-39 11.5z" />
    <glyph glyph-name="gravecomb" unicode="&#x300;" 
d="M-275 704h87l121 -140h-74z" />
    <glyph glyph-name="acutecomb" unicode="&#x301;" 
d="M-52 704h87l-134 -140h-74z" />
    <glyph glyph-name="uni030B" unicode="&#x30b;" 
d="M-151 704h86l-133 -140h-75zM48 704h87l-133 -140h-75z" />
    <glyph glyph-name="uni0302" unicode="&#x302;" 
d="M-30 564l-90 95l-90 -95h-73l123 140h80l123 -140h-73z" />
    <glyph glyph-name="uni030C" unicode="&#x30c;" 
d="M43 704l-123 -140h-80l-123 140h73l90 -95l90 95h73z" />
    <glyph glyph-name="uni0306" unicode="&#x306;" 
d="M-236 590q-36 35 -36 114h58q0 -50 22 -72t72 -22t72 22t22 72h58q0 -79 -36 -114t-116 -35t-116 35z" />
    <glyph glyph-name="uni030A" unicode="&#x30a;" 
d="M-198.5 562.5q-24.5 22.5 -24.5 71.5t24.5 71.5t78.5 22.5t78.5 -22.5t24.5 -71.5t-24.5 -71.5t-78.5 -22.5t-78.5 22.5zM-77 590.5q13 12.5 13 43.5q0 30 -13 43.5t-43 13.5t-43 -13.5t-13 -43.5t13 -43t43 -13t43 12.5z" />
    <glyph glyph-name="tildecomb" unicode="&#x303;" 
d="M-275 585q0 54 21 78t67 24q20 0 36.5 -7.5t38.5 -22.5q17 -11 27 -16t21 -5q22 0 31.5 11.5t9.5 39.5v7h58v-11q0 -54 -21 -78t-67 -24q-20 0 -36.5 7.5t-38.5 22.5q-17 11 -27 16t-21 5q-22 0 -31.5 -11.5t-9.5 -39.5v-6h-58v10z" />
    <glyph glyph-name="uni0304" unicode="&#x304;" 
d="M-271 663h302v-57h-302v57z" />
    <glyph glyph-name="uni0315" unicode="&#x315;" 
d="M-117 672h71l-62 -178h-56z" />
    <glyph glyph-name="uni0326" unicode="&#x326;" 
d="M-140 -68h78l-51 -142h-63z" />
    <glyph glyph-name="uni0327" unicode="&#x327;" 
d="M-30.5 -61q19.5 -16 19.5 -49q0 -41 -29.5 -59t-94.5 -18q-40 0 -85 10v48q45 -12 85 -12q31 0 45.5 7t14.5 24q0 18 -14 25t-51 7h-8v88h56v-52q42 -3 61.5 -19z" />
    <glyph glyph-name="uni0328" unicode="&#x328;" 
d="M-228 -114q0 32 21.5 60t69.5 62l57 -8q-47 -35 -65.5 -57.5t-18.5 -44.5q0 -19 10.5 -27t34.5 -8q21 0 39 6v-49q-19 -7 -57 -7q-91 0 -91 73z" />
    <glyph glyph-name="uni0308.case" 
d="M-258 772.5q-12 11.5 -12 37.5t12 37.5t38 11.5q27 0 39 -11.5t12 -37.5t-12 -37.5t-39 -11.5q-26 0 -38 11.5zM-59 772.5q-12 11.5 -12 37.5t12 37.5t39 11.5q26 0 38 -11.5t12 -37.5t-12 -37.5t-38 -11.5q-27 0 -39 11.5z" />
    <glyph glyph-name="uni0307.case" 
d="M-159 772.5q-12 11.5 -12 37.5t12 37.5t39 11.5t39 -11.5t12 -37.5t-12 -37.5t-39 -11.5t-39 11.5z" />
    <glyph glyph-name="gravecomb.case" 
d="M-275 880h87l121 -140h-74z" />
    <glyph glyph-name="acutecomb.case" 
d="M-52 880h87l-134 -140h-74z" />
    <glyph glyph-name="uni030B.case" 
d="M-151 880h86l-133 -140h-75zM48 880h87l-133 -140h-75z" />
    <glyph glyph-name="uni0302.case" 
d="M-160 880h80l123 -140h-73l-90 95l-90 -95h-73z" />
    <glyph glyph-name="uni030C.case" 
d="M-283 880h73l90 -95l90 95h73l-123 -140h-80z" />
    <glyph glyph-name="uni0306.case" 
d="M-236 766q-36 35 -36 114h58q0 -50 22 -72t72 -22t72 22t22 72h58q0 -79 -36 -114t-116 -35t-116 35z" />
    <glyph glyph-name="uni030A.case" 
d="M-198.5 738.5q-24.5 22.5 -24.5 71.5t24.5 71.5t78.5 22.5t78.5 -22.5t24.5 -71.5t-24.5 -71.5t-78.5 -22.5t-78.5 22.5zM-77 766.5q13 12.5 13 43.5q0 30 -13 43.5t-43 13.5t-43 -13.5t-13 -43.5t13 -43t43 -13t43 12.5z" />
    <glyph glyph-name="tildecomb.case" 
d="M-275 761q0 54 21 78t67 24q20 0 36.5 -7.5t38.5 -22.5q17 -11 27 -16t21 -5q22 0 31.5 11.5t9.5 39.5v7h58v-11q0 -54 -21 -78t-67 -24q-20 0 -36.5 7.5t-38.5 22.5q-17 11 -27 16t-21 5q-22 0 -31.5 -11.5t-9.5 -39.5v-6h-58v10z" />
    <glyph glyph-name="uni0304.case" 
d="M-271 839h302v-57h-302v57z" />
    <glyph glyph-name="acutecomb.loclPLK" 
d="M-129 704h75l-62 -140h-64z" />
    <glyph glyph-name="acutecomb.case.loclPLK" 
d="M-129 880h75l-62 -140h-64z" />
    <glyph glyph-name="acute" unicode="&#xb4;" horiz-adv-x="240" 
d="M188 704h87l-134 -140h-74z" />
    <glyph glyph-name="breve" unicode="&#x2d8;" horiz-adv-x="240" 
d="M4 590q-36 35 -36 114h58q0 -50 22 -72t72 -22t72 22t22 72h58q0 -79 -36 -114t-116 -35t-116 35z" />
    <glyph glyph-name="caron" unicode="&#x2c7;" horiz-adv-x="240" 
d="M283 704l-123 -140h-80l-123 140h73l90 -95l90 95h73z" />
    <glyph glyph-name="acute.case" horiz-adv-x="240" 
d="M188 880h87l-134 -140h-74z" />
    <glyph glyph-name="breve.case" horiz-adv-x="240" 
d="M4 766q-36 35 -36 114h58q0 -50 22 -72t72 -22t72 22t22 72h58q0 -79 -36 -114t-116 -35t-116 35z" />
    <glyph glyph-name="caron.case" horiz-adv-x="240" 
d="M-43 880h73l90 -95l90 95h73l-123 -140h-80z" />
    <glyph glyph-name="circumflex.case" horiz-adv-x="240" 
d="M80 880h80l123 -140h-73l-90 95l-90 -95h-73z" />
    <glyph glyph-name="dieresis.case" horiz-adv-x="240" 
d="M-18 772.5q-12 11.5 -12 37.5t12 37.5t38 11.5q27 0 39 -11.5t12 -37.5t-12 -37.5t-39 -11.5q-26 0 -38 11.5zM181 772.5q-12 11.5 -12 37.5t12 37.5t39 11.5q26 0 38 -11.5t12 -37.5t-12 -37.5t-38 -11.5q-27 0 -39 11.5z" />
    <glyph glyph-name="dotaccent.case" horiz-adv-x="240" 
d="M81 772.5q-12 11.5 -12 37.5t12 37.5t39 11.5t39 -11.5t12 -37.5t-12 -37.5t-39 -11.5t-39 11.5z" />
    <glyph glyph-name="grave.case" horiz-adv-x="240" 
d="M-35 880h87l121 -140h-74z" />
    <glyph glyph-name="hungarumlaut.case" horiz-adv-x="240" 
d="M89 880h86l-133 -140h-75zM288 880h87l-133 -140h-75z" />
    <glyph glyph-name="macron.case" horiz-adv-x="240" 
d="M-31 839h302v-57h-302v57z" />
    <glyph glyph-name="ring.case" horiz-adv-x="240" 
d="M41.5 738.5q-24.5 22.5 -24.5 71.5t24.5 71.5t78.5 22.5t78.5 -22.5t24.5 -71.5t-24.5 -71.5t-78.5 -22.5t-78.5 22.5zM163 766.5q13 12.5 13 43.5q0 30 -13 43.5t-43 13.5t-43 -13.5t-13 -43.5t13 -43t43 -13t43 12.5z" />
    <glyph glyph-name="tilde.case" horiz-adv-x="240" 
d="M-35 761q0 54 21 78t67 24q20 0 36.5 -7.5t38.5 -22.5q17 -11 27 -16t21 -5q22 0 31.5 11.5t9.5 39.5v7h58v-11q0 -54 -21 -78t-67 -24q-20 0 -36.5 7.5t-38.5 22.5q-17 11 -27 16t-21 5q-22 0 -31.5 -11.5t-9.5 -39.5v-6h-58v10z" />
    <glyph glyph-name="cedilla" unicode="&#xb8;" horiz-adv-x="240" 
d="M209.5 -61q19.5 -16 19.5 -49q0 -41 -29.5 -59t-94.5 -18q-40 0 -85 10v48q45 -12 85 -12q31 0 45.5 7t14.5 24q0 18 -14 25t-51 7h-8v88h56v-52q42 -3 61.5 -19z" />
    <glyph glyph-name="circumflex" unicode="&#x2c6;" horiz-adv-x="240" 
d="M210 564l-90 95l-90 -95h-73l123 140h80l123 -140h-73z" />
    <glyph glyph-name="dieresis" unicode="&#xa8;" horiz-adv-x="240" 
d="M-18 596.5q-12 11.5 -12 37.5t12 37.5t38 11.5q27 0 39 -11.5t12 -37.5t-12 -37.5t-39 -11.5q-26 0 -38 11.5zM181 596.5q-12 11.5 -12 37.5t12 37.5t39 11.5q26 0 38 -11.5t12 -37.5t-12 -37.5t-38 -11.5q-27 0 -39 11.5z" />
    <glyph glyph-name="dotaccent" unicode="&#x2d9;" horiz-adv-x="240" 
d="M81 596.5q-12 11.5 -12 37.5t12 37.5t39 11.5t39 -11.5t12 -37.5t-12 -37.5t-39 -11.5t-39 11.5z" />
    <glyph glyph-name="grave" unicode="`" horiz-adv-x="240" 
d="M-35 704h87l121 -140h-74z" />
    <glyph glyph-name="hungarumlaut" unicode="&#x2dd;" horiz-adv-x="240" 
d="M89 704h86l-133 -140h-75zM288 704h87l-133 -140h-75z" />
    <glyph glyph-name="macron" unicode="&#xaf;" horiz-adv-x="240" 
d="M-31 663h302v-57h-302v57z" />
    <glyph glyph-name="ogonek" unicode="&#x2db;" horiz-adv-x="240" 
d="M12 -114q0 32 21.5 60t69.5 62l57 -8q-47 -35 -65.5 -57.5t-18.5 -44.5q0 -19 10.5 -27t34.5 -8q21 0 39 6v-49q-19 -7 -57 -7q-91 0 -91 73z" />
    <glyph glyph-name="ring" unicode="&#x2da;" horiz-adv-x="240" 
d="M41.5 562.5q-24.5 22.5 -24.5 71.5t24.5 71.5t78.5 22.5t78.5 -22.5t24.5 -71.5t-24.5 -71.5t-78.5 -22.5t-78.5 22.5zM163 590.5q13 12.5 13 43.5q0 30 -13 43.5t-43 13.5t-43 -13.5t-13 -43.5t13 -43t43 -13t43 12.5z" />
    <glyph glyph-name="tilde" unicode="&#x2dc;" horiz-adv-x="240" 
d="M-35 585q0 54 21 78t67 24q20 0 36.5 -7.5t38.5 -22.5q17 -11 27 -16t21 -5q22 0 31.5 11.5t9.5 39.5v7h58v-11q0 -54 -21 -78t-67 -24q-20 0 -36.5 7.5t-38.5 22.5q-17 11 -27 16t-21 5q-22 0 -31.5 -11.5t-9.5 -39.5v-6h-58v10z" />
  </font>
</defs>
</svg>
