<?xml version="1.0" encoding="utf-8"?><svg xmlns="http://www.w3.org/2000/svg" xmlns:xlink="http://www.w3.org/1999/xlink" width="240" height="360"><defs><path id="a" d="M.113.394h10.429v10.431H.113z"/><path id="c" d="M0 .602h117.8V106.57H0z"/><linearGradient id="e" x1="0%" y1="0%" y2="100%"><stop offset="0%" stop-color="#002879"/><stop offset="100%" stop-color="#00143C"/></linearGradient></defs><g fill="none" fill-rule="evenodd"><path fill="#FABF62" d="M142.094 306.348l-3.466 1.733c1.404-.441 2.548-1.035 3.466-1.733"/><path fill="#61C4F2" d="M112.268 276.587c-9.418.789-19.727 2.122-28.46-4.212-9.612-6.972-12.08-19.435-12.835-26.676-1.13 2.285-2.564 5.852-3.07 10.389-2.324 20.84 7.924 36.224 30.414 36.224h38.133c6.984 0 11.408 9.421 5.36 14.036l19.007-9.543 15.067-19.095c-27.66-2.984-48.872-2.359-63.616-1.123"/><path fill="#263357" d="M138.195 265.626a9.098 9.098 0 1 0 0-18.195 9.098 9.098 0 0 0 0 18.195"/><path fill="#FFF" d="M44.311 77.612c2.464 0 4.457-2.008 4.457-4.485V54.066c0-24.112 19.49-43.73 43.444-43.73h5.57c2.463 0 4.456-2.008 4.456-4.485 0-2.476-1.993-4.485-4.455-4.485h-5.57c-28.868 0-52.357 23.64-52.357 52.7v19.061c0 2.477 1.993 4.485 4.455 4.485" opacity=".2"/><g opacity=".2" transform="translate(110.903 .5)"><mask id="b" fill="#fff"><use xlink:href="#a"/></mask><path fill="#FFF" d="M4.415 10.733c.324.046.601.092.925.092 2.541 0 4.667-1.802 5.129-4.297a5.212 5.212 0 0 0-.877-3.882A5.078 5.078 0 0 0 6.217.475C3.398-.033.673 1.907.21 4.725c-.277 1.34.047 2.727.879 3.882a5.031 5.031 0 0 0 3.326 2.126" mask="url(#b)"/></g><path fill="#FFF" fill-opacity=".2" d="M233.978 241.46c-2.81-.555-5.528 1.432-6.035 4.205-.231 1.386.093 2.725.875 3.88.783 1.156 1.981 1.895 3.363 2.172.276.047.6.047.876.047 2.533 0 4.699-1.803 5.114-4.298.275-1.34-.047-2.726-.876-3.881a5.009 5.009 0 0 0-3.317-2.125m-1.062 15.502a4.484 4.484 0 0 0-4.485 4.486c0 24.11-19.617 43.728-43.73 43.728a4.484 4.484 0 0 0-4.484 4.485 4.484 4.484 0 0 0 4.484 4.485c29.057 0 52.7-23.64 52.7-52.698a4.484 4.484 0 0 0-4.485-4.486"/><path fill="#F86464" d="M179.218 147.969c-1.39 2.907-4.262 4.697-7.537 4.697h-10.186v58.68c0 2.46-2.019 4.473-4.487 4.473-2.467 0-4.486-2.013-4.486-4.473v-59.262c0-4.607 3.77-8.364 8.39-8.364h9.557l-28.85-36.676-28.85 36.676h8.928c4.621 0 8.39 3.757 8.39 8.364v32.426c0 2.46-2.018 4.473-4.486 4.473s-4.487-2.013-4.487-4.473v-31.844h-9.556c-3.232 0-6.149-1.79-7.54-4.697-1.435-2.907-1.031-6.306.944-8.81l30.061-38.197c3.23-4.07 10.006-4.07 13.191 0l30.062 38.196c2.02 2.505 2.379 5.904.942 8.81M125.6 202.402c-2.468 0-4.487-2.013-4.487-4.473 0-2.459 2.019-4.472 4.487-4.472s4.486 2.013 4.486 4.472c0 2.46-2.018 4.473-4.486 4.473m72.597-69.684l3.68-2.325V63.749H76.244v165.487h125.632v-12.97c-4.98-1.61-8.66-6.127-8.794-11.584-.09-5.01 2.826-9.348 7.044-11.45h.045a8.087 8.087 0 0 1 1.705-.715V188.4c-.987.224-1.93.358-2.917.358-5.518.045-10.723-3.443-12.472-8.945a12.484 12.484 0 0 1-.584-3.847c0-5.456 3.545-10.6 9.063-12.344l6.91-2.147v-5.278c-3.05-.804-5.878-2.683-7.672-5.546-3.86-6.038-2.064-14.089 3.993-17.935"/><g transform="translate(0 252.63)"><mask id="d" fill="#fff"><use xlink:href="#c"/></mask><path fill="#FFF" d="M1.506 26.351a4.455 4.455 0 0 0-.373 6.306c1.641 1.85 4.473 2.01 6.324.374L31.33 12.639l70.103 69.794c.018.024.02.054.04.078.035.046.092.06.13.105l5.384 5.792-11.284 10.418a4.453 4.453 0 0 0-.24 6.313 4.48 4.48 0 0 0 3.286 1.431 4.48 4.48 0 0 0 3.047-1.19l14.57-13.456a4.45 4.45 0 0 0 1.43-3.106 4.438 4.438 0 0 0-1.19-3.208l-4.957-5.332L30.577.602 1.506 26.351z" mask="url(#d)"/></g><path fill="#EBCDA6" d="M213.935 221.439c-.265.044-.525.094-.794.129.268-.031.53-.087.794-.13m1.698 0c-.253.062-.502.129-.76.182.256-.053.508-.118.76-.181m-.796 0c-.274.057-.553.097-.83.142.277-.046.558-.087.83-.142"/><path fill="#EBCDA6" d="M210.542 221.614c1.193.03 2.349-.033 3.465-.175-.598.069-1.202.113-1.812.124l-1.653.05zm0-31.367l2.432-.769 4.733-1.06 1.81-.579c.188-.059.37-.125.555-.191l-9.53.638v1.961zM93.595 283.37c-14.375 0-26.028-11.641-26.028-26.002V58.438c0-7.474 3.16-14.205 8.214-18.949-5.201 4.713-8.473 11.513-8.473 19.064V91.99c-2.794-1.687-5.908-2.422-8.903-2.25-7.687.435-15.532 6.85-15.65 18.27-.22 21.162-7.806 39.97-14.5 56.563-6.79 16.826-12.652 31.357-8.873 44.004l.727 2.391c2.706 8.829 8.665 28.317 10.562 42.421l81.042 79.82c4.448-3.44 7.625-5.853 8.93-6.773 3.704-2.665 8.985-4.837 15.102-7.352 14.735-6.063 33.08-13.607 45.484-34.26.26-.43.384-.897.485-1.363h3.199a25.64 25.64 0 0 0 10.033-2.032 25.972 25.972 0 0 1-9.873 1.942H93.595zm127.344-125.91l-.938-2.736s-4.223 1.483-9.46 1.952v3.246l10.398-2.462z"/><path fill="#EBCDA6" d="M192.359 205.15c.355 7.842 9.393 16.351 17.757 16.567v35.857c0 10.612-6.498 19.742-15.743 23.648 9.486-3.877 16.169-13.16 16.169-24.003v-66.972l-11.098 3.473s-7.44 3.59-7.085 11.43m-7.974-172.21c14.19 0 25.732 11.56 25.732 25.768v61.487s-22.42 13.821-19.12 26.092c2.75 10.22 12.138 11.563 19.545 10.891V58.593c0-14.378-11.64-26.035-25.998-26.035H93.172c-6.886 0-13.142 2.686-17.793 7.062 4.57-4.15 10.628-6.68 17.268-6.68h91.738z"/><path fill="#C8A07F" d="M92.708 286.473s23.914 18.338 42.65 16.243c18.737-2.096 35.391-3.93 35.391-3.93s9.883-10.297 11.186-15.104c1.305-4.806-89.227 2.791-89.227 2.791"/><path fill="#FFF" d="M193.812 285.577H83.692c-10.026 0-18.154-8.11-18.154-18.113V47.23c0-10.004 8.128-18.114 18.153-18.114h110.12c10.026 0 18.153 8.11 18.153 18.114v220.235c0 10.004-8.127 18.113-18.152 18.113"/><path fill="url(#e)" fill-opacity=".7" d="M84.506 252.809c-3.593 0-6.506-2.919-6.506-6.52V50.52c0-3.6 2.913-6.519 6.506-6.519h108.288c3.593 0 6.506 2.919 6.506 6.519v195.77c0 3.601-2.913 6.52-6.506 6.52H84.506z" transform="translate(0 .5)"/><path fill="#EBCDA6" d="M216.459 188.875l1.108-.36-4.763 1.08-13.432 4.308s-7.365 3.642-7.013 11.596c.352 7.955 9.298 16.587 17.576 16.806l1.464-.046c.54-.01 1.077-.05 1.606-.113.24-.032.473-.078.709-.118.248-.04.496-.077.74-.13.23-.047.452-.109.677-.164 3.036-.782 5.808-2.422 8.03-4.82 3.15-3.307 4.794-7.655 4.706-12.23-.09-4.666-2.043-8.833-5.15-11.914-1.775-1.72-3.905-3.08-6.258-3.895m-5.45-32.137l-17.727 7.592s-11.645 6.008-6.599 16.862c5.046 10.853 14.985 8.922 14.985 8.922l18.976-2.81c8.74-3.068 13.56-12.556 10.764-21.493a17.292 17.292 0 0 0-10.745-11.087"/><path fill="#EBCDA6" d="M233.804 125.66a17.62 17.62 0 0 0-14.898-8.192c-3.07 0-6.049.77-8.668 2.353 0 0-22.62 13.96-19.29 26.352 4.782 17.797 29.493 8.952 29.493 8.952l7.946-5.069c8.173-5.205 10.61-16.158 5.417-24.396m3.403-52.813c-3.28-5.144-8.895-8.231-15.095-8.231-3.368 0-6.649.939-9.523 2.728l-.315.18v42.146l19.452-12.304c8.31-5.235 10.781-16.242 5.48-24.519"/><path fill="#000" fill-opacity=".2" d="M148.615 269.115a9.231 9.231 0 1 1-18.461 0 9.231 9.231 0 0 1 18.461 0"/></g></svg>