<svg xmlns="http://www.w3.org/2000/svg" id="Layer_1" viewBox="0 0 607 400">
  <style>
    .st1{display:inline}.st1,.st4,.st5{fill:none;stroke:#fff}.st5{opacity:.6;enable-background:new}.st10,.st8{fill-rule:evenodd;clip-rule:evenodd;fill:#fff}.st10{display:inline;fill:#faff05}
  </style>
  <g id="Desktop-Watcher-3" transform="translate(-590 -139)">
    <g id="Page-1" transform="translate(590 139)">
      <g id="track">
        <g id="grid">
          <g id="Fill-30" opacity=".6">
            <path id="path-1" fill="#0af" fill-opacity=".3" fill-rule="evenodd" d="M407.6 399.1H199.4C89.5 399.1 0 309.6 0 199.5 0 89.5 89.5 0 199.4 0h208.2C517.5 0 607 89.5 607 199.5c0 110.1-89.5 199.6-199.4 199.6z" clip-rule="evenodd"/>
            <path d="M407.6 398.6c109.7 0 198.9-89.3 198.9-199 0-109.8-89.2-199-198.9-199H199.4C89.7.5.5 89.8.5 199.5c0 109.8 89.2 199 198.9 199h208.2z" class="st4"/>
          </g>
          <path id="circle" d="M408.2 380.4c99.3 0 180.1-80.9 180.1-180.2 0-99.4-80.8-180.2-180.1-180.2H200c-99.3 0-180.1 80.9-180.1 180.2 0 99.4 80.8 180.2 180.1 180.2h208.2z" class="st5"/>
          <path d="M407.6 361c88.9 0 161.2-72.4 161.2-161.4S496.5 38.1 407.6 38.1H199.4c-88.9 0-161.2 72.4-161.2 161.4S110.5 361 199.4 361h208.2z" class="st5"/>
          <path d="M198.8 341.6h208.1c77.9 0 141.3-63.4 141.3-141.4S484.8 58.7 406.9 58.7H198.8c-77.9 0-141.3 63.4-141.3 141.4s63.4 141.5 141.3 141.5z" class="st5"/>
          <path fill="none" stroke="#fff" d="M407.7 322.2c68.1 0 123.5-55.6 123.5-123.8 0-68.3-55.4-123.8-123.5-123.8H199.3c-68.1 0-123.5 55.6-123.5 123.8 0 68.3 55.4 123.8 123.5 123.8h208.4z" opacity=".8"/>
          <path fill="#00143c" fill-opacity=".7" fill-rule="evenodd" stroke="#fff" stroke-opacity=".3" d="M198.9 97c-56.8 0-103 46.3-103 103.1 0 56.9 46.2 103.1 103 103.1h207.9c56.8 0 103-46.3 103-103.1 0-56.9-46.2-103.1-103-103.1H198.9z" clip-rule="evenodd"/>
        </g>
        <g id="start-boxes" transform="translate(233.321 380.866)">
          <path id="Stroke-9" d="M9.6 0v18.2h9.5V0z" class="st8"/>
          <path d="M.5.5v17.2h8.6V.5H.5z" class="st4"/>
        </g>
        <path d="M10.1.5v17.2h8.6V.5h-8.6z" class="st4" transform="translate(233.321 361.731)"/>
        <path d="M0 0v18.2h9.6V0z" class="st8" transform="translate(233.321 361.731)"/>
        <path d="M10.1.5v17.2h8.6V.5h-8.6z" class="st4" transform="translate(233.321 322.551)"/>
        <path d="M0 0v18.2h9.6V0z" class="st8" transform="translate(233.321 322.551)"/>
        <g>
          <path d="M9.6 0v18.2h9.5V0z" class="st8" transform="translate(233.321 342.597)"/>
          <path d="M.5.5v17.2h8.6V.5H.5z" class="st4" transform="translate(233.321 342.597)"/>
        </g>
        <g>
          <path d="M9.6 0v18.2h9.5V0z" class="st8" transform="translate(233.321 303.417)"/>
          <path d="M.5.5v17.2h8.6V.5H.5z" class="st4" transform="translate(233.321 303.417)"/>
        </g>
      </g>
    </g>
  </g>
</svg>
