<svg xmlns="http://www.w3.org/2000/svg" xmlns:xlink="http://www.w3.org/1999/xlink" width="40" height="50" viewBox="0 0 40 50">
  <defs>
    <rect id="avatar_1-a" width="40" height="40" y="10" rx="20"/>
    <rect id="avatar_1-b" width="40" height="50" rx="20"/>
    <polygon id="avatar_1-d" points=".132 .043 10.712 .043 10.712 18.862 .132 18.862"/>
    <polygon id="avatar_1-f" points=".165 .043 10.791 .043 10.791 18.862 .165 18.862"/>
    <polygon id="avatar_1-h" points=".049 .094 5.987 .094 5.987 3.261 .049 3.261"/>
    <polygon id="avatar_1-j" points="0 .071 13.13 .071 13.13 26.85 0 26.85"/>
  </defs>
  <g fill="none" fill-rule="evenodd" transform="translate(0 -2.5)">
    <use fill="#E5685E" xlink:href="#avatar_1-a"/>
    <rect width="39" height="39" x=".5" y="10.5" stroke="#FFF" rx="19.5"/>
    <mask id="avatar_1-c" fill="#fff">
      <use xlink:href="#avatar_1-b"/>
    </mask>
    <g mask="url(#avatar_1-c)">
      <g transform="translate(6.667 5.333)">
        <g transform="translate(.667 16)">
          <path fill="#303331" d="M23.3240685,11.1521655 C23.2087306,10.6506683 23.1534432,10.3655876 23.142726,10.1643931 L23.0313007,10.1643931 C23.4149099,9.6647159 23.7063168,9.13310573 23.8973559,8.57783535 L23.8987168,8.57899354 C23.9084133,8.54987328 23.9158984,8.5200912 23.9238938,8.49064003 C23.9963628,8.26826715 24.053011,8.04208878 24.0912869,7.81210492 C24.7312593,4.43878773 23.0115674,0.0393123487 23.0115674,0.0393123487 C23.184234,1.107 23.0190524,2.41708071 22.7419352,3.64492978 C22.5229972,4.61797659 22.2336317,5.53907022 21.9866248,6.24738741 C21.7550984,6.90888055 21.5615076,7.38373931 21.4958432,7.54158434 C20.6080133,9.36739144 19.0240731,10.8614592 17.0299857,11.7833801 C17.1630156,11.4271533 17.2416087,11.0227789 17.2416087,10.5902768 C17.2416087,10.3991751 17.2225559,10.2161808 17.1951674,10.0379847 C17.3918202,10.0164754 17.5828593,9.98884423 17.7596087,9.94433656 C18.0413191,9.8945343 18.298703,9.80369895 18.5198524,9.66173769 C18.9762708,9.36854964 19.2812869,8.85894512 19.3299398,8.04506699 C19.3299398,8.04506699 18.1534248,9.88791606 16.3189053,8.2571816 C16.3189053,8.2571816 14.2116915,5.73877563 12.3479122,6.7465682 C10.4882156,5.73877563 8.37930069,8.2571816 8.37930069,8.2571816 C6.54852368,9.88791606 5.36843632,8.04506699 5.36843632,8.04506699 C5.40194897,8.62929217 5.54671678,9.03135028 5.80256966,9.33678208 L5.81549839,9.34852946 C5.81549839,9.34852946 5.86330069,9.39254076 5.93100644,9.4514431 C5.99582023,9.50968362 6.09942023,9.58645521 6.24282713,9.66173769 C6.24282713,9.66173769 6.24605931,9.66289588 6.24963172,9.66570864 C6.39014667,9.73735109 6.57114897,9.81015174 6.79774207,9.8629322 C6.97704322,9.91389266 7.22132828,9.92547458 7.52362253,9.91240355 C7.48143402,10.1281582 7.45625701,10.354502 7.45625701,10.5902768 C7.45625701,11.0227789 7.53399954,11.4271533 7.66839034,11.7833801 C5.67430299,10.8614592 4.09036276,9.36739144 3.20321333,7.54158434 C3.13771908,7.38373931 2.94242713,6.90888055 2.71175126,6.24738741 C2.46406391,5.53907022 2.17622943,4.61797659 1.95576046,3.64492978 C1.67932368,2.41708071 1.51346161,1.107 1.68680874,0.0393123487 C1.68680874,0.0393123487 -0.0330533333,4.43878773 0.60725931,7.81210492 C0.644854713,8.04208878 0.702183448,8.26826715 0.773121379,8.49064003 C0.782477701,8.5200912 0.790813333,8.54987328 0.79965931,8.57899354 L0.802381149,8.57783535 C0.992909885,9.13310573 1.28363632,9.6647159 1.66690529,10.1643931 L1.55513977,10.1643931 C1.54493287,10.3655876 1.48896506,10.6506683 1.37362713,11.1521655 C1.06435816,12.5284286 0.141144368,12.8886263 0.141144368,12.8886263 C0.141144368,12.8886263 1.56721793,12.3639653 1.91136046,12.007573 C2.07841333,11.8350024 2.51935126,11.3617982 2.6552731,11.2125569 C2.65986621,11.2166933 2.66411908,11.2191751 2.66956276,11.2236425 C2.58960874,11.3821493 2.40350299,11.8939048 2.66599034,12.8791953 C3.01081333,14.1680977 4.42463862,15.0360799 4.42463862,15.0360799 C4.42463862,15.0360799 3.57712598,14.0112454 3.81256506,12.8886263 C3.81256506,12.8886263 3.76289149,13.3394939 5.14201333,14.5893487 C6.45717195,15.7855956 8.08942483,17.068707 8.3030892,17.0840944 C8.28539724,17.046205 9.0306708,15.8153777 9.01280874,15.308255 C10.0180179,15.5713301 11.0660961,17.2781743 12.1553421,17.2781743 C12.2196455,17.2781743 12.2844593,17.2753616 12.3484225,17.2738725 L12.3497834,17.2738725 C12.4132363,17.2753616 12.4782202,17.2781743 12.543034,17.2781743 C13.6314294,17.2781743 14.6803582,15.5713301 15.6857375,15.308255 C15.6685559,15.8153777 16.3792961,17.2593123 16.361434,17.2980291 C16.5744179,17.2816489 18.2406938,15.7855956 19.5565329,14.5893487 C20.9356547,13.3394939 20.885811,12.8886263 20.885811,12.8886263 C21.1212501,14.0112454 20.2735674,15.0360799 20.2735674,15.0360799 C20.2735674,15.0360799 21.6870524,14.1680977 22.0315352,12.8791953 C22.2950432,11.8939048 22.1085972,11.3821493 22.0289834,11.2236425 C22.0335766,11.2191751 22.0383398,11.2166933 22.0432731,11.2125569 C22.1790248,11.3617982 22.6204731,11.8350024 22.7863352,12.007573 C23.130988,12.3639653 24.5574018,12.8886263 24.5574018,12.8886263 C24.5574018,12.8886263 23.6331674,12.5284286 23.3240685,11.1521655"/>
          <g transform="translate(1.701 10.424)">
            <mask id="avatar_1-e" fill="#fff">
              <use xlink:href="#avatar_1-d"/>
            </mask>
            <path fill="#D8B892" d="M10.712308,0.183110169 L10.712308,18.8621013 L0.38377931,18.8621013 C0.212303448,18.7970771 0.132009195,18.7629931 0.132009195,18.7629931 C0.132009195,17.0018793 0.327811494,15.5275008 0.650009195,14.2955153 C0.761944828,13.858546 0.891402299,13.4492078 1.0314069,13.0703136 C2.34741609,9.57207708 4.75522299,8.45938539 5.86488276,8.12499879 C6.22535632,8.01579782 6.44922759,7.98849758 6.44922759,7.98849758 C6.49124598,7.98849758 6.52288736,7.985023 6.56150345,7.97823931 L6.56490575,7.97823931 C6.89033563,7.9271134 7.15282299,7.6506364 7.36631724,7.21035795 C7.52384368,6.88275504 7.65687356,6.46646772 7.76183448,5.9816816 C7.80385287,5.79405448 7.83872644,5.60295278 7.87377011,5.39811824 C7.92293333,5.04999879 7.97192644,4.69162107 8.01394483,4.3127268 C8.03129655,4.08075747 8.05596322,3.85888095 8.08386207,3.61979701 C8.17487356,2.47666142 8.19937011,1.22746852 8.19937011,0.0431343826 C8.19937011,0.0431343826 9.58886897,0.183110169 10.712308,0.183110169" mask="url(#avatar_1-e)"/>
          </g>
          <g transform="translate(12.248 10.424)">
            <mask id="avatar_1-g" fill="#fff">
              <use xlink:href="#avatar_1-f"/>
            </mask>
            <path fill="#EBCDA6" d="M10.7912074,18.7629931 C10.7912074,18.7629931 10.7001959,18.7970771 10.5462418,18.8621013 L0.165147586,18.8621013 L0.165147586,0.183110169 L0.189814253,0.183110169 C1.30985103,0.183110169 2.71329931,0.0431343826 2.71329931,0.0431343826 C2.71329931,1.21721025 2.73762575,2.45283575 2.83220966,3.5961368 C2.85670621,3.81801332 2.88120276,4.04667353 2.8987246,4.27185916 C2.94074299,4.66432082 2.98973609,5.03626594 3.04910621,5.38107627 L3.04910621,5.38785997 C3.06679816,5.54487772 3.09809931,5.68485351 3.12616828,5.83161299 C3.2277269,6.31954278 3.35020966,6.74625383 3.50076138,7.09089871 C3.68618667,7.51413519 3.91022805,7.81443785 4.18683494,7.93042252 C4.27410391,7.96798103 4.36528552,7.98849758 4.46327172,7.98849758 C4.46327172,7.98849758 4.51923954,7.99528128 4.62079816,8.01579782 L4.62420046,8.01579782 C4.79210391,8.04988176 5.08266023,8.12168967 5.45368092,8.26497458 C6.67170391,8.72907869 8.71580506,9.95080589 9.88823724,13.0703136 C10.0316441,13.4492078 10.1612717,13.858546 10.2732074,14.2955153 C10.5952349,15.5275008 10.7912074,17.0018793 10.7912074,18.7629931" mask="url(#avatar_1-g)"/>
          </g>
        </g>
        <g transform="translate(10 29.333)">
          <mask id="avatar_1-i" fill="#fff">
            <use xlink:href="#avatar_1-h"/>
          </mask>
          <path fill="#B39078" d="M5.98678235,1.79536508 L5.98678235,1.80330159 C5.71660588,2.17949206 4.80954706,3.26139683 3.01325294,3.26139683 L2.99595882,3.26139683 C1.29548824,3.25377778 0.301429412,2.14044444 0.0485470588,1.81107937 C0.100782353,1.48171429 0.153017647,1.13679365 0.196782353,0.77615873 C0.214252941,0.564412698 0.240370588,0.344888889 0.266488235,0.117587302 C1.09484118,0.30568254 2.0019,0.423301587 2.96101765,0.439015873 L2.99595882,0.439015873 C3.99001765,0.423301587 4.90554706,0.297746032 5.76019412,0.0939365079 C5.78631176,0.30568254 5.81242941,0.525206349 5.8299,0.736952381 C5.87348824,1.11330159 5.92572353,1.46615873 5.98678235,1.79536508" mask="url(#avatar_1-i)"/>
        </g>
        <g transform="translate(0 5)">
          <mask id="avatar_1-k" fill="#fff">
            <use xlink:href="#avatar_1-j"/>
          </mask>
          <path fill="#C8A07F" d="M13.0475667,0.0706833333 C2.32473333,0.0706833333 2.26706667,9.08501667 2.7449,14.9875167 C2.01173333,13.5880167 -0.1706,14.0161833 0.0105666667,16.22235 C0.183566667,18.3461833 3.3014,19.4286833 3.21423333,19.1941833 C4.83806667,23.5595167 9.13556667,26.8501833 13.0475667,26.8501833 L13.1299,26.8501833 L13.1299,0.0706833333 L13.0475667,0.0706833333" mask="url(#avatar_1-k)"/>
        </g>
        <path fill="#A2806C" d="M0.694216667,20.2920333 C1.22121667,19.4358667 2.04488333,19.8063667 2.24238333,19.9958667 C2.45655,20.2015333 2.62938333,20.4650333 2.49771667,20.9672 C2.42355,21.2552 2.12721667,21.2800333 2.19305,21.7080333 C2.27538333,22.1937 2.49771667,22.2185333 2.62938333,22.3337 C2.75305,22.4408667 2.90955,22.5230333 2.98355,22.7288667 C3.06588333,22.9345333 3.07421667,23.1488667 3.03305,23.3380333 C2.95071667,23.6838667 2.44821667,23.4038667 2.11071667,23.2557 C1.88838333,23.1488667 1.18005,22.5477 0.998883333,22.3502 C0.554216667,21.8398667 0.34005,20.8518667 0.694216667,20.2920333"/>
        <path fill="#D4AF90" d="M13.1051833,5.07068333 C23.82785,5.07068333 23.8855167,14.0850167 23.4160167,19.9875167 C24.1490167,18.5880167 26.3231833,19.0161833 26.1420167,21.22235 C25.9771833,23.3461833 22.8530167,24.42935 22.93835,24.1941833 C21.3566833,28.5595167 17.0170167,31.8501833 13.1051833,31.8501833 L13.0475167,31.8501833 L13.02285,5.07068333 L13.1051833,5.07068333"/>
        <path fill="#A2806C" d="M25.4583833,20.2920333 C24.9313833,19.4358667 24.11605,19.8063667 23.9102167,19.9958667 C23.69605,20.2015333 23.5312167,20.4650333 23.6548833,20.9672 C23.72905,21.2552 24.0253833,21.2800333 23.95955,21.7080333 C23.8772167,22.1937 23.6548833,22.2185333 23.5312167,22.3337 C23.4077167,22.4408667 23.24305,22.5230333 23.16905,22.7288667 C23.0947167,22.9345333 23.0783833,23.1488667 23.11955,23.3380333 C23.2018833,23.6838667 23.7043833,23.4038667 24.0418833,23.2557 C24.27255,23.1488667 24.97255,22.5477 25.1537167,22.3502 C25.6067167,21.8398667 25.81255,20.8518667 25.4583833,20.2920333"/>
        <path fill="#D8B892" d="M12.9631,7.61446667 C9.43843333,7.61446667 6.85243333,8.64346667 5.29576667,10.6686333 C3.11343333,13.5088 3.19576667,17.8389667 3.9946,20.9508 C4.24176667,21.9056333 4.37343333,24.4658 4.5381,25.4043 C5.3041,29.6109667 9.92426667,31.8501333 12.9631,31.8501333 L13.0454333,31.8501333 L13.0454333,7.61446667 L12.9961,7.61446667"/>
        <path fill="#EBCDA6" d="M20.6221167,10.6769667 C19.07395,8.65996667 16.52095,7.63096667 13.04545,7.61446667 L13.04545,31.8501333 C16.52095,31.8091333 20.67995,29.3558 21.3881167,25.4043 C21.5611167,24.4658 21.6846167,21.9056333 21.9316167,20.9508 C22.7386167,17.8471333 22.8211167,13.5253 20.6221167,10.6769667"/>
        <path fill="#B18973" d="M12.5410417 27.5662765C12.50485 27.5587209 12.4690167 27.5515251 12.4324667 27.54325 12.4683 27.5511653 12.499475 27.5576415 12.5410417 27.5662765M12.4059333 27.5393106C12.37225 27.5306757 12.34215 27.5209614 12.3091833 27.5119667L12.3056 27.5134058C12.3056 27.5134058 12.3428667 27.5238397 12.4059333 27.5393106"/>
        <path fill="#D4AF90" d="M10.9995667,24.58175 C10.9589,23.7444167 12.5292333,24.27575 13.0469,24.3019167 C13.4560667,24.3229167 14.7007333,24.0380833 14.8077333,24.1115833 C15.5399,24.6079167 14.0319,25.6080833 13.0209,25.6080833 C12.7515667,25.6080833 11.0239,25.0869167 10.9995667,24.58175"/>
        <path fill="#362A1F" d="M10.1033333,7.67501667 L10.0073,7.77179974 L10.0230667,7.8038209 C10.0549583,7.75560926 10.0710833,7.70703783 10.1033333,7.67501667"/>
        <path fill="#AE8973" d="M12.5718583 27.0753225C12.5345917 27.0674071 12.4976833 27.0598516 12.4604167 27.0512167 12.4969667 27.0594918 12.5292167 27.0663278 12.5718583 27.0753225M12.4329917 27.0471802C12.3985917 27.0385452 12.3674167 27.0284712 12.3337333 27.0191167L12.33015 27.0209156C12.33015 27.0209156 12.3681333 27.0313495 12.4329917 27.0471802"/>
        <path fill="#FFFFFE" d="M5.35323333,17.0737833 C5.35323333,17.0737833 6.17123333,20.4487833 7.5759,20.7242833 C8.98023333,20.9996167 10.5002333,20.4522833 10.5002333,20.4522833 C10.5002333,20.4522833 10.6455667,16.4857833 9.92623333,15.96745 C9.2079,15.44695 7.5514,14.6947833 5.35323333,17.0737833"/>
        <path fill="#CDAE8E" d="M10.5021667,20.4417833 C10.5021667,20.4417833 10.47,20.4511167 10.3976667,20.4812833 C10.3798333,19.2647833 10.268,17.5937833 9.81883333,17.2736167 C9.15116667,16.78195 7.6435,16.0901167 5.62933333,17.9826167 C5.44616667,17.4596167 5.35433333,17.0632833 5.35433333,17.0632833 C7.55633333,14.6797833 9.21433333,15.4307833 9.9275,15.9516167 C10.6473333,16.47195 10.5021667,20.4417833 10.5021667,20.4417833"/>
        <path fill="#39221A" d="M9.67045,18.7230333 C9.67045,19.4908667 9.05161667,20.1133667 8.28828333,20.1133667 C7.52478333,20.1133667 6.90595,19.4908667 6.90595,18.7230333 C6.90595,17.9553667 7.52478333,17.3328667 8.28828333,17.3328667 C9.05161667,17.3328667 9.67045,17.9553667 9.67045,18.7230333"/>
        <path fill="#6C3526" d="M8.224,19.6489667 C7.82483333,19.6158 7.5185,19.2106333 7.55466667,18.7651333 C7.59033333,18.3198 7.9585,17.9714667 8.358,18.0051333 C8.75716667,18.0381333 9.063,18.4428 9.02783333,18.8881333 C8.99133333,19.3333 8.62316667,19.6824667 8.224,19.6489667"/>
        <path fill="#1B1712" d="M8.25851667,19.4883333 C7.98068333,19.4645 7.69251667,19.158 7.72301667,18.7803333 C7.75435,18.4015 8.08785,18.1458333 8.36585,18.1688333 C8.64368333,18.1926667 8.93118333,18.5003333 8.90068333,18.8781667 C8.87001667,19.2561667 8.53568333,19.5113333 8.25851667,19.4883333"/>
        <path fill="#FFFFFE" d="M8.03341667 18.5566833C8.02191667 18.6931833 7.88275 18.79285 7.72308333 18.7796833 7.56308333 18.7660167 7.44258333 18.6440167 7.45341667 18.50835 7.46491667 18.37135 7.60341667 18.27135 7.76308333 18.2845167 7.92375 18.2975167 8.04425 18.4196833 8.03341667 18.5566833M8.99715628 19.4076038C8.98996887 19.5059821 8.90433612 19.5787385 8.80617676 19.5688282 8.70719597 19.5598847 8.63347377 19.4704499 8.6396344 19.3723133 8.6468218 19.2736933 8.73265991 19.2009369 8.83040857 19.2108472 8.92938935 19.2197907 9.00413832 19.3082587 8.99715628 19.4076038"/>
        <path fill="#AE8973" d="M12.5938417 27.4730794C12.556575 27.465164 12.5196667 27.4579683 12.4824 27.4493333 12.51895 27.4572487 12.5512 27.4644444 12.5938417 27.4730794M12.4549583 27.4452802C12.4205583 27.4362854 12.3893833 27.4262114 12.3557 27.4172167L12.3521167 27.4186558C12.3521167 27.4186558 12.3901 27.4290897 12.4549583 27.4452802"/>
        <path fill="#B18973" d="M13.1260167 26.9531667L13.126375 26.9531667 13.1260167 26.9531667zM12.535225 27.3790214C12.49545 27.3703865 12.4553167 27.3624712 12.4159 27.3531167 12.4549583 27.3617516 12.4893583 27.3696669 12.535225 27.3790214M12.3867417 27.3487624C12.349475 27.3394079 12.3165083 27.3286143 12.2803167 27.3189L12.2760167 27.3203392C12.2760167 27.3203392 12.3175833 27.3314926 12.3867417 27.3487624"/>
        <polygon fill="#B18973" points="13.126 27.33 13.126 27.33 13.126 27.33"/>
        <path fill="#B18973" d="M13.0846833 26.8120667L13.0850417 26.8120667 13.0846833 26.8120667zM12.4938917 27.2379048C12.4541167 27.2292698 12.4139833 27.2213545 12.3745667 27.212 12.413625 27.2206349 12.448025 27.2281905 12.4938917 27.2379048M12.3454083 27.2078389C12.3081417 27.1984844 12.275175 27.1876907 12.2389833 27.1776167L12.2346833 27.1794156C12.2346833 27.1794156 12.27625 27.190569 12.3454083 27.2078389"/>
        <polygon fill="#B18973" points="13.085 27.189 13.085 27.189 13.085 27.189"/>
        <path fill="#B18973" d="M12.6202 27.2179587C12.5815 27.2096836 12.5431583 27.202128 12.5048167 27.1931333 12.5424417 27.2017683 12.5757667 27.208964 12.6202 27.2179587M12.4764333 27.1890262C12.4406 27.1800315 12.4087083 27.1692378 12.3735917 27.1598833L12.36965 27.1616823C12.36965 27.1616823 12.409425 27.1724759 12.4764333 27.1890262"/>
        <path fill="#FFFFFE" d="M20.8218333,16.9588667 C20.8218333,16.9588667 20.0036667,20.3340333 18.5993333,20.6093667 C17.1948333,20.8848667 15.6748333,20.3373667 15.6748333,20.3373667 C15.6748333,20.3373667 15.5295,16.3710333 16.2486667,15.8525333 C16.9671667,15.3320333 18.6236667,14.5800333 20.8218333,16.9588667"/>
        <path fill="#CDAE8E" d="M15.6729,20.3268667 C15.6729,20.3268667 15.7050667,20.3363667 15.7774,20.3665333 C15.7952333,19.1498667 15.9070667,17.4788667 16.3562333,17.1588667 C17.0237333,16.6672 18.5315667,15.9752 20.5457333,17.8677 C20.7289,17.3447 20.8207333,16.9483667 20.8207333,16.9483667 C18.6187333,14.5650333 16.9607333,15.3158667 16.2475667,15.8368667 C15.5277333,16.3572 15.6729,20.3268667 15.6729,20.3268667"/>
        <path fill="#39221A" d="M16.50445,18.6082833 C16.50445,19.37595 17.12345,19.99845 17.8867833,19.99845 C18.6502833,19.99845 19.2691167,19.37595 19.2691167,18.6082833 C19.2691167,17.8406167 18.6502833,17.2181167 17.8867833,17.2181167 C17.12345,17.2181167 16.50445,17.8406167 16.50445,18.6082833"/>
        <path fill="#6C3526" d="M17.95105,19.5340667 C18.3502167,19.5009 18.65655,19.0959 18.6203833,18.6504 C18.58455,18.2050667 18.21655,17.8565667 17.81705,17.8902333 C17.4178833,17.9232333 17.11205,18.3279 17.1472167,18.7732333 C17.1837167,19.2185667 17.5518833,19.5677333 17.95105,19.5340667"/>
        <path fill="#1B1712" d="M17.91655,19.3734167 C18.1943833,19.3495833 18.48255,19.0430833 18.45205,18.6655833 C18.4207167,18.2865833 18.0872167,18.0309167 17.8092167,18.0539167 C17.5312167,18.07775 17.2438833,18.3855833 17.2743833,18.76325 C17.3048833,19.14125 17.6393833,19.3964167 17.91655,19.3734167"/>
        <path fill="#FFFFFE" d="M18.1414833 18.44195C18.1529833 18.5782833 18.2923167 18.6781167 18.4519833 18.66495 18.6119833 18.6512833 18.7324833 18.5291167 18.72165 18.3936167 18.71015 18.25645 18.57165 18.1566167 18.4119833 18.1697833 18.2513167 18.1827833 18.1308167 18.3047833 18.1414833 18.44195M17.2454185 19.2926201C17.2526059 19.3909876 17.3382389 19.4639777 17.4363985 19.4540685 17.5351742 19.4448843 17.6091019 19.355701 17.6029413 19.2573335 17.5957538 19.1587244 17.5099155 19.085976 17.4121666 19.0961269 17.3131856 19.1050694 17.2384364 19.1932859 17.2454185 19.2926201"/>
        <path fill="#0B0B09" d="M11.3436333 17.0199C11.3331333 17.0035667 11.0781333 16.6137333 10.5571333 16.2120667 10.2306333 15.9604 9.9108 15.7685667 9.57896667 15.6259 9.17563333 15.4552333 8.74113333 15.3349 8.3203 15.2769 7.93963333 15.2344 7.51796667 15.2455667 7.0258 15.3124 6.64996667 15.3844 6.28363333 15.4965667 5.9723 15.6345667 5.75063333 15.7112333 5.57546667 15.8194 5.43463333 15.9060667 5.3808 15.9394 5.33196667 15.9694 5.28246667 15.9962333L4.61146667 16.4204 5.38463333 16.2379C5.4208 16.2285667 5.45963333 16.2182333 5.50146667 16.2070667 5.66146667 16.1644 5.86063333 16.1114 6.09396667 16.0769 6.14863333 16.0689 6.20413333 16.0579 6.26096667 16.0464 6.35813333 16.0269 6.45863333 16.0069 6.56413333 16.0019 6.68113333 15.9939 6.80263333 15.9852333 6.92746667 15.9760667L7.0898 15.9644C7.51796667 15.9590667 7.87963333 15.9915667 8.20096667 16.0660667 8.55196667 16.1270667 8.91313333 16.2409 9.24396667 16.3950667 9.55646667 16.5455667 9.85613333 16.6947333 10.0899667 16.8672333 10.5623 17.1842333 10.8251333 17.4485667 10.8274667 17.4512333L10.8274667 17.4514C10.8924667 17.5169 10.9791333 17.5509 11.0664667 17.5509 11.1298 17.5509 11.1936333 17.5329 11.2493 17.4959 11.4048 17.3935667 11.4484667 17.1825667 11.3494667 17.0302333L11.3436333 17.0199zM20.95985 15.99305C20.91535 15.9693833 20.8665167 15.9393833 20.8125167 15.90605 20.6716833 15.8192167 20.4966833 15.7113833 20.2815167 15.63705 19.96385 15.49655 19.59735 15.3843833 19.2171833 15.31155 18.7291833 15.2457167 18.30735 15.2342167 17.9250167 15.2772167 17.50635 15.3348833 17.07185 15.4552167 16.66785 15.62605 16.3406833 15.7668833 16.01185 15.9638833 15.6901833 16.21205 15.1785167 16.60655 14.9241833 16.9893833 14.9050167 17.0187167L14.90035 17.0257167C14.81385 17.15955 14.83235 17.3383833 14.9440167 17.4512167 15.0076833 17.5157167 15.0921833 17.5512167 15.1820167 17.5512167L15.18235 17.5512167C15.2721833 17.55105 15.3565167 17.51555 15.41985 17.4512167L15.4225167 17.4482167C15.4475167 17.42355 15.7025167 17.1727167 16.1605167 16.86505 16.3906833 16.69505 16.6906833 16.54555 17.0021833 16.39555 17.33435 16.2408833 17.6955167 16.12705 18.0511833 16.0652167 18.36785 15.99155 18.7300167 15.9597167 19.1526833 15.9642167L19.3231833 15.9763833C19.44685 15.9852167 19.56735 15.9938833 19.6850167 16.0018833 19.78885 16.0068833 19.88935 16.0268833 19.9866833 16.0463833 20.04335 16.0578833 20.09885 16.0688833 20.15335 16.0768833 20.38685 16.1113833 20.5860167 16.1643833 20.7460167 16.20705 20.7876833 16.2183833 20.8266833 16.2287167 20.86385 16.23805L21.6366833 16.42055 20.95985 15.99305z"/>
        <path fill="#B28B73" d="M12.353675 27.8732421C12.314975 27.8649669 12.2759167 27.8574114 12.2372167 27.8484167 12.2755583 27.8566918 12.3092417 27.8642474 12.353675 27.8732421M12.208775 27.844336C12.1725833 27.8349815 12.1403333 27.8245476 12.1048583 27.8148333L12.1009167 27.8166323C12.1009167 27.8166323 12.1414083 27.8274259 12.208775 27.844336"/>
        <path fill="#ECCEA7" d="M11.0641833,28.5562 C11.0236833,28.0137 12.5670167,28.6700333 13.0736833,28.6855333 C13.47785,28.6992 14.6925167,28.6052 14.8045167,28.5620333 C15.6536833,28.2427 14.7581833,29.4693667 13.0485167,29.5337 C12.2651833,29.5652 11.0875167,28.8853667 11.0641833,28.5562"/>
        <path fill="#D5BA96" d="M16.0884333,27.5101333 C15.6694333,27.4894667 15.2392667,27.8404667 14.7354333,27.7868 C14.7149333,27.7766333 14.7046,27.7766333 14.6831,27.7766333 C14.5674333,27.7559667 14.4527667,27.7766333 14.3267667,27.8074667 C14.1699333,27.8404667 14.0121,27.9043 13.8646,27.9559667 C13.6127667,28.0384667 13.3289333,28.1043 13.0369333,28.0818 L13.0369333,28.0836333 C13.0309333,28.0836333 13.0269333,28.0818 13.0207667,28.0818 C13.0146,28.0818 13.0104333,28.0836333 13.0044333,28.0836333 L13.0044333,28.0818 C12.7124333,28.1043 12.4286,28.0384667 12.1767667,27.9559667 C12.0294333,27.9043 11.8714333,27.8404667 11.7147667,27.8074667 C11.5887667,27.7766333 11.4739333,27.7559667 11.3582667,27.7766333 C11.3367667,27.7766333 11.3266,27.7766333 11.3061,27.7868 C10.8021,27.8404667 10.3719333,27.4894667 9.95293333,27.5101333 C9.8371,27.5204667 9.6691,27.4894667 9.57493333,27.4894667 C9.59543333,27.4998 9.6171,27.5101333 9.6386,27.5204667 C10.8327667,28.1058 11.8632667,29.2026333 13.0044333,29.1674667 L13.0207667,29.1674667 L13.0369333,29.1674667 C14.1781,29.2026333 15.2087667,28.1058 16.4029333,27.5204667 C16.4246,27.5101333 16.4461,27.4998 16.4666,27.4894667 C16.3722667,27.4894667 16.2042667,27.5204667 16.0884333,27.5101333"/>
        <path fill="#BB987C" d="M16.4395,27.4766167 C16.4395,27.4766167 15.225,27.0062833 14.3613333,27.2821167 C14.3613333,27.2821167 14.0398333,27.4082833 13.7066667,27.4852833 C13.504,27.56445 13.2585,27.5876167 13.0206667,27.57795 C12.8388333,27.5706167 12.6661667,27.5476167 12.5243333,27.5226167 C12.4773333,27.5152833 12.4303333,27.5057833 12.382,27.4952833 C12.3613333,27.4911167 12.3458333,27.4876167 12.3278333,27.4837833 C12.2986667,27.47695 12.2703333,27.4712833 12.2416667,27.4637833 C12.2101667,27.4561167 12.1916667,27.45095 12.1916667,27.45095 L12.1933333,27.4502833 C11.9171667,27.3751167 11.68,27.2821167 11.68,27.2821167 C10.8165,27.0062833 9.602,27.4766167 9.602,27.4766167 C9.58533333,27.4842833 9.57483333,27.48945 9.57483333,27.48945 C9.66916667,27.48945 9.83716667,27.52045 9.953,27.5101167 C10.3718333,27.48945 10.8021667,27.8406167 11.306,27.7867833 C11.3265,27.7766167 11.3368333,27.7766167 11.3583333,27.7766167 C11.474,27.75595 11.5888333,27.7766167 11.7146667,27.80745 C11.8715,27.8406167 12.0291667,27.9042833 12.1768333,27.95595 C12.4286667,28.03845 12.7125,28.10445 13.0045,28.0817833 L13.0045,28.0837833 C13.0105,28.0837833 13.0145,28.0817833 13.0206667,28.0817833 C13.0268333,28.0817833 13.031,28.0837833 13.037,28.0837833 L13.037,28.0817833 C13.329,28.10445 13.6128333,28.03845 13.8646667,27.95595 C14.0121667,27.9042833 14.17,27.8406167 14.3266667,27.80745 C14.4526667,27.7766167 14.5675,27.75595 14.6831667,27.7766167 C14.7046667,27.7766167 14.7148333,27.7766167 14.7353333,27.7867833 C15.2393333,27.8406167 15.6695,27.48945 16.0885,27.5101167 C16.2043333,27.52045 16.3723333,27.48945 16.4665,27.48945 C16.4665,27.48945 16.4561667,27.4842833 16.4395,27.4766167"/>
        <path fill="#BB987C" d="M10.981,27.7630667 C11.0031667,27.7687333 13.2565,28.4589 15.0191667,27.7782333 L14.8161667,27.6409 L12.4338333,27.6409 L10.981,27.7630667 Z"/>
        <path fill="#F1B429" d="M21.9951667,43.7518333 C22.0123333,44.4153333 22.0363333,44.9483333 22.0603333,45.3333333 L4.62016667,45.3333333 C4.675,44.467 4.73333333,42.8786667 4.706,40.7335 L3.3035,40.7335 C3.41316667,40.2933333 3.54,39.8808333 3.67716667,39.4991667 C4.87383333,36.2298333 6.98966667,35.03 8.15883333,34.6036667 C8.1555,34.638 8.1555,34.676 8.1555,34.7103333 C8.1555,36.6011667 10.3981667,38.1345 13.1618333,38.1345 C15.9256667,38.1345 18.1683333,36.6011667 18.1683333,34.7103333 C18.1683333,34.669 18.1683333,34.6278333 18.165,34.59 C18.2231667,34.6105 18.2815,34.6346667 18.3431667,34.6586667 C19.5365,35.1263333 21.5391667,36.357 22.6878333,39.4991667 C22.8283333,39.8808333 22.9553333,40.2933333 23.065,40.7335 L21.9778333,40.7335 C21.9608333,41.9195 21.971,42.9336667 21.9951667,43.7518333"/>
        <path fill="#303331" d="M16.0065667,31.2681167 C14.2559,31.3776167 13.8184,29.9517833 13.8184,29.9517833 C13.6567333,29.46595 13.3609,29.3096167 13.0522333,29.30495 L13.0522333,29.3042833 C13.0500667,29.3042833 13.0477333,29.3042833 13.0454,29.3046167 C13.0432333,29.3042833 13.0410667,29.3042833 13.0387333,29.3042833 L13.0387333,29.30495 C12.7300667,29.3096167 12.4342333,29.46595 12.2727333,29.9517833 C12.2727333,29.9517833 11.8352333,31.3776167 10.0844,31.2681167 C10.0844,31.2681167 11.2155667,32.6696167 13.0387333,32.7126167 L13.0387333,32.7132833 C13.0410667,32.7132833 13.0432333,32.7132833 13.0454,32.71295 C13.0477333,32.7132833 13.0500667,32.7132833 13.0522333,32.7132833 L13.0522333,32.7126167 C14.8757333,32.6696167 16.0065667,31.2681167 16.0065667,31.2681167"/>
        <path fill="#343534" d="M28.5171333,7.28731667 C28.4799667,7.38215 28.4056333,7.47381667 28.3049667,7.56215 C28.4448,7.39715 28.5171333,7.28731667 28.5171333,7.28731667 C28.2889667,7.43481667 28.0713,7.55948333 27.8589667,7.67281667 C23.8758,9.79465 22.7658,6.06715 22.7658,6.06715 C23.1811333,2.55431667 27.4576333,2.60398333 27.4576333,2.60398333 C27.4576333,2.60398333 23.8221333,0.847316667 22.4214667,4.29115 C22.2343,2.43765 23.2408,0.637316667 23.2408,0.637316667 C21.6184667,0.982483333 20.9373,2.29531667 20.6511333,3.41598333 C19.6493,1.49081667 20.6869667,0.0609833333 20.6869667,0.0609833333 L15.1226333,2.27331667 C15.8453,1.69898333 16.9739667,0.637316667 16.9739667,0.637316667 C16.9739667,0.637316667 15.2474667,0.814483333 12.5814667,1.57015 C10.7063,2.10198333 9.58496667,3.04631667 8.9553,3.47981667 L8.93863333,1.91081667 C8.93863333,1.91081667 6.21363333,3.78531667 3.63246667,6.24748333 C1.05346667,8.70698333 0.0634666667,11.0209833 0.0634666667,13.6233167 C0.0634666667,16.2243167 1.21996667,18.83115 1.97896667,19.6053167 C2.73663333,20.37965 2.4938,21.5018167 2.72096667,21.5018167 C2.72096667,21.5018167 3.26763333,21.5224833 3.18596667,18.9579833 C3.4853,16.0459833 4.8268,14.8823167 5.57613333,14.4549833 C6.89513333,13.76015 8.88296667,13.6343167 11.8561333,15.14265 L11.8548,15.1379833 C13.6908,16.20715 14.4293,14.7889833 17.0223,14.0729833 C21.4446333,12.85315 23.2793,16.0543167 22.9078,17.7064833 C22.3378,20.25015 23.1314667,21.7143167 23.4346333,21.6458167 C23.4346333,21.6458167 23.4471333,20.9998167 23.7213,20.4248167 C24.5379667,18.7089833 25.2228,19.90165 25.3494667,17.57615 C25.4968,14.85315 25.9738,13.8584833 25.8206333,12.4034833 C25.7344667,11.58215 25.4389667,10.6028167 25.2048,9.91815 C28.1748,9.86965 28.5171333,7.28731667 28.5171333,7.28731667"/>
        <path fill="#D77B2E" d="M18.16835,34.7103333 C18.16835,36.6011667 15.9256833,38.1345 13.16185,38.1345 C10.3981833,38.1345 8.15551667,36.6011667 8.15551667,34.7103333 C8.15551667,34.676 8.15551667,34.638 8.15885,34.6036667 C8.24818333,34.5693333 8.33368333,34.5418333 8.41268333,34.5178333 C8.76585,34.4078333 8.98518333,34.3803333 8.98518333,34.3803333 C9.02635,34.3803333 9.05735,34.3768333 9.09518333,34.37 C9.86318333,35.4081667 11.2896833,36.9003333 13.16185,36.938 C13.57685,36.9483333 14.0121833,36.8865 14.46485,36.7351667 C15.4080167,36.4155 16.4365167,35.7038333 17.5270167,34.4078333 L17.5305167,34.4078333 C17.6676833,34.4353333 17.8871833,34.4903333 18.16485,34.59 C18.16835,34.6278333 18.16835,34.669 18.16835,34.7103333"/>
      </g>
    </g>
  </g>
</svg>
