<svg xmlns="http://www.w3.org/2000/svg" xmlns:xlink="http://www.w3.org/1999/xlink" width="40" height="50" viewBox="0 0 40 50">
  <defs>
    <rect id="avatar2-a" width="40" height="40" y="10" rx="20"/>
    <rect id="avatar2-b" width="40" height="50" rx="20"/>
    <polygon id="avatar2-d" points=".132 .091 10.875 .091 10.875 19.422 .132 19.422"/>
    <polygon id="avatar2-f" points=".048 .14 5.859 .14 5.859 3.531 .048 3.531"/>
    <polygon id="avatar2-h" points="0 .006 13.604 .006 13.604 27.31 0 27.31"/>
    <polygon id="avatar2-j" points=".122 .032 27.705 .032 27.705 22.101 .122 22.101"/>
  </defs>
  <g fill="none" fill-rule="evenodd" transform="translate(0 -2.5)">
    <use fill="#0AC98A" xlink:href="#avatar2-a"/>
    <rect width="39" height="39" x=".5" y="10.5" stroke="#FFF" rx="19.5"/>
    <mask id="avatar2-c" fill="#fff">
      <use xlink:href="#avatar2-b"/>
    </mask>
    <g mask="url(#avatar2-c)">
      <g transform="translate(6 4.667)">
        <g transform="translate(2.763 26.545)">
          <mask id="avatar2-e" fill="#fff">
            <use xlink:href="#avatar2-d"/>
          </mask>
          <path fill="#D8B892" d="M10.8753044,0.234872593 L10.8753044,19.4223244 L0.387967068,19.4223244 C0.217175904,19.3548578 0.132212048,19.3206133 0.132212048,19.3206133 C0.132212048,16.8713689 0.495208032,14.9616874 1.04850924,13.4726504 C2.38323614,9.87851704 4.82715582,8.73703556 5.95206345,8.39288741 C6.32127631,8.27993185 6.54853735,8.25267259 6.54853735,8.25267259 C6.58860161,8.25267259 6.62573012,8.24926519 6.66372209,8.24296148 C6.99390683,8.19048741 7.26209558,7.90665037 7.47709558,7.45380593 C7.63735261,7.11732444 7.77101526,6.68816148 7.87981044,6.19153185 C7.92332851,5.99799111 7.95700321,5.8025763 7.99154137,5.59148741 C8.04283052,5.23660593 8.09325622,4.86536889 8.1367743,4.47641333 C8.15335261,4.23976889 8.17908353,4.0119837 8.20481446,3.76682074 C8.29772209,2.59296889 8.32431647,1.30786519 8.32431647,0.0912503704 C8.32431647,0.0912503704 9.73260964,0.234872593 10.8753044,0.234872593" mask="url(#avatar2-e)"/>
          <path fill="#EBCDA6" d="M21.6615522,19.3206815 C21.6615522,19.3206815 21.5677811,19.3547556 21.4135683,19.4222222 L10.8752871,19.4222222 L10.8752871,0.234940741 L10.9008454,0.234940741 C12.0357691,0.234940741 13.4616767,0.0911481481 13.4616767,0.0911481481 C13.4616767,1.29924444 13.4863715,2.5668 13.5801426,3.7415037 C13.6060462,3.96997037 13.6316044,4.20559259 13.6485281,4.4344 C13.6918735,4.83988148 13.74299,5.21997778 13.8023956,5.57485926 L13.8023956,5.5826963 C13.8193193,5.74386667 13.8528213,5.88748889 13.8794157,6.03911852 C13.9828574,6.53847407 14.108749,6.97717778 14.2600261,7.32933333 C14.4484317,7.76735556 14.6779378,8.073 14.9557972,8.19396296 C15.0442149,8.23331852 15.1381586,8.25274074 15.236247,8.25274074 C15.236247,8.25274074 15.639998,8.30078519 16.2445884,8.53555556 C17.4793273,9.01395556 19.5531707,10.2692444 20.7443916,13.4725481 C21.2978655,14.9617556 21.6615522,16.871437 21.6615522,19.3206815"/>
        </g>
        <g transform="translate(10.707 30.123)">
          <mask id="avatar2-g" fill="#fff">
            <use xlink:href="#avatar2-f"/>
          </mask>
          <path fill="#B39078" d="M5.85867229,1.96120148 L5.85867229,1.96954963 C5.59411004,2.37247556 4.70665221,3.5308237 2.94866024,3.5308237 L2.93173655,3.5308237 C1.26768835,3.52247556 0.294921285,2.33056444 0.0476281124,1.97806815 C0.0987445783,1.62540148 0.149861044,1.25620889 0.192515663,0.87014963 C0.209612048,0.643386667 0.235342972,0.408445926 0.260901205,0.164986667 C1.07151165,0.366534815 1.95896948,0.492268148 2.89771647,0.509134815 L2.93173655,0.509134815 C3.90450361,0.492268148 4.80042329,0.358016296 5.63676466,0.139771852 C5.66232289,0.366534815 5.68805382,0.601475556 5.70497751,0.828068148 C5.74763213,1.23099407 5.79892129,1.60870519 5.85867229,1.96120148" mask="url(#avatar2-g)"/>
        </g>
        <g transform="translate(0 .138)">
          <g transform="translate(0 4.77)">
            <mask id="avatar2-i" fill="#fff">
              <use xlink:href="#avatar2-h"/>
            </mask>
            <path fill="#C8A07F" d="M13.5191309,0.00601407407 C2.40889799,0.00601407407 2.34914699,9.19698444 2.84407871,15.2151474 C2.08458474,13.7882956 -0.176800803,14.2247844 0.0109140562,16.4741844 C0.190167068,18.6397622 3.42069317,19.7434215 3.3303759,19.5042215 C5.01290201,23.9551474 9.46573333,27.3102511 13.5191309,27.3102511 L13.6044402,27.3102511 L13.6044402,0.00601407407 L13.5191309,0.00601407407" mask="url(#avatar2-i)"/>
          </g>
          <path fill="#A2806C" d="M0.719257028,20.2960689 C1.26530522,19.4230911 2.11874297,19.8008022 2.32355422,19.9940022 C2.54528916,20.2037281 2.72454217,20.4724022 2.58794378,20.9843652 C2.51126908,21.2782541 2.20405221,21.3032985 2.27226506,21.7397874 C2.3575743,22.2350541 2.58794378,22.2602689 2.72454217,22.3776541 C2.85267871,22.4868615 3.01466265,22.5708541 3.09151004,22.78058 C3.17681928,22.9904763 3.18528112,23.2087207 3.14262651,23.4017504 C3.05731727,23.7542467 2.53682731,23.4688763 2.18695582,23.3177578 C1.95658635,23.2087207 1.2226506,22.5960689 1.03493574,22.3945207 C0.574196787,21.8742096 0.352289157,20.86698 0.719257028,20.2960689"/>
          <path fill="#D4AF90" d="M13.5788301,4.77638444 C24.6890631,4.77638444 24.7488141,13.9673548 24.2623442,19.9855178 C25.0218382,18.5586659 27.2747618,18.9951548 27.0868743,21.2445548 C26.9162558,23.4101326 23.6791675,24.5144733 23.7674124,24.2745919 C22.1285771,28.7255178 17.6322277,32.0806215 13.5788301,32.0806215 L13.5190791,32.0806215 L13.4935209,4.77638444 L13.5788301,4.77638444"/>
          <path fill="#A2806C" d="M26.3786867,20.2960689 C25.8324659,19.4230911 24.9876627,19.8008022 24.7743896,19.9940022 C24.5524819,20.2037281 24.3818635,20.4724022 24.51,20.9843652 C24.5866747,21.2782541 24.8937189,21.3032985 24.8256787,21.7397874 C24.7403695,22.2350541 24.51,22.2602689 24.3818635,22.3776541 C24.2537269,22.4868615 24.0832811,22.5708541 24.0064337,22.78058 C23.9295863,22.9904763 23.9126627,23.2087207 23.9553173,23.4017504 C24.0406265,23.7542467 24.5611165,23.4688763 24.910988,23.3177578 C25.149992,23.2087207 25.8751205,22.5960689 26.063008,22.3945207 C26.5323815,21.8742096 26.7454819,20.86698 26.3786867,20.2960689"/>
          <path fill="#D8B892" d="M13.4317667,7.36996667 C9.77952972,7.36996667 7.10005984,8.41927778 5.4873008,10.4839963 C3.22591526,13.3797815 3.31139719,17.7947593 4.13893133,20.9675667 C4.39503173,21.9412333 4.53163012,24.5516481 4.70224859,25.5086185 C5.49576265,29.7976926 10.2829233,32.0806556 13.4317667,32.0806556 L13.5170759,32.0806556 L13.5170759,7.36996667 L13.4657867,7.36996667"/>
          <path fill="#EBCDA6" d="M21.3676153,10.4924467 C19.7633181,8.4360763 17.118041,7.38676519 13.5170932,7.36989852 L13.5170932,32.0805874 C17.118041,32.0386763 21.4273663,29.5374689 22.161302,25.5085504 C22.3403823,24.55158 22.4683462,21.9413356 22.7242739,20.9674985 C23.5606153,17.8032096 23.6459245,13.39658 21.3676153,10.4924467"/>
          <path fill="#D4AF90" d="M11.4336827,24.4945911 C11.3913735,23.6406948 13.0186386,24.182643 13.5550161,24.2093911 C13.9789719,24.2306874 15.2686265,23.9402059 15.379494,24.0151689 C16.1381245,24.5213393 14.5756185,25.5410059 13.5280763,25.5410059 C13.249008,25.5410059 11.4588956,25.0096207 11.4336827,24.4945911"/>
          <path fill="#FFFFFE" d="M5.54684458,17.0146844 C5.54684458,17.0146844 6.39441084,20.4558252 7.8496759,20.7367659 C9.30476827,21.0173659 10.879708,20.4592326 10.879708,20.4592326 C10.879708,20.4592326 11.0302944,16.4149807 10.2851337,15.8866622 C9.54083655,15.3559585 7.82429036,14.5889511 5.54684458,17.0146844"/>
          <path fill="#CDAE8E" d="M10.8817112,20.4487207 C10.8817112,20.4487207 10.8483819,20.4582615 10.7734341,20.4890985 C10.7549562,19.2486319 10.6390807,17.5449281 10.1736791,17.2184985 C9.48205261,16.7172689 7.91989197,16.0117652 5.83275141,17.9412096 C5.64296426,17.4081207 5.54781165,17.0040022 5.54781165,17.0040022 C7.8295747,14.5736689 9.54732972,15.3393133 10.2864462,15.8703578 C11.0322976,16.4010615 10.8817112,20.4487207 10.8817112,20.4487207"/>
          <path fill="#39221A" d="M10.0201052,18.6963422 C10.0201052,19.4791941 9.37873173,20.1136533 8.58780803,20.1136533 C7.79688434,20.1136533 7.15551084,19.4791941 7.15551084,18.6963422 C7.15551084,17.9134904 7.79688434,17.2788607 8.58780803,17.2788607 C9.37873173,17.2788607 10.0201052,17.9134904 10.0201052,18.6963422"/>
          <path fill="#6C3526" d="M8.5213739,19.6402963 C8.10760683,19.606563 7.7902012,19.1934148 7.82784779,18.7392074 C7.86480361,18.2851704 8.24610482,17.9299481 8.66004458,17.9641926 C9.07363896,17.9979259 9.3906992,18.410563 9.35408876,18.8646 C9.31644217,19.318637 8.93479558,19.6747111 8.5213739,19.6402963"/>
          <path fill="#1B1712" d="M8.55696546,19.4764852 C8.26908996,19.4522926 7.97050763,19.139663 8.00211004,18.7546259 C8.0345759,18.3685667 8.38030281,18.1077296 8.66817831,18.1312407 C8.95622651,18.1554333 9.25411807,18.4692556 9.22251566,18.8542926 C9.19074056,19.2398407 8.8441502,19.4999963 8.55696546,19.4764852"/>
          <path fill="#FFFFFE" d="M8.32390201 18.5266363C8.31198635 18.6658289 8.16761687 18.76754 8.00217912 18.7540807 7.83656867 18.7401104 7.71154056 18.61574 7.72276546 18.4773993 7.73468112 18.3376956 7.87818715 18.2358141 8.04379759 18.2492733 8.2100988 18.2625622 8.33495422 18.3869326 8.32390201 18.5266363M21.5743779 16.8975548C21.5743779 16.8975548 20.7268116 20.3388659 19.2715466 20.6196363 17.8162815 20.9004067 16.2413418 20.3422733 16.2413418 20.3422733 16.2413418 20.3422733 16.0909281 16.2980215 16.8360888 15.7695326 17.5803859 15.2388289 19.2969321 14.4719919 21.5743779 16.8975548"/>
          <path fill="#CDAE8E" d="M16.2395112,20.3315911 C16.2395112,20.3315911 16.2728406,20.3411319 16.3476157,20.3719689 C16.3660936,19.1316726 16.4819691,17.4277985 16.9475434,17.1013689 C17.6391699,16.6001393 19.2013305,15.8946356 21.2882984,17.8242504 C21.4780855,17.2909911 21.5734108,16.8868726 21.5734108,16.8868726 C19.2916478,14.4567096 17.5737201,15.2223541 16.8347763,15.7533985 C16.0889249,16.2839319 16.2395112,20.3315911 16.2395112,20.3315911"/>
          <path fill="#39221A" d="M17.1011,18.5792978 C17.1011,19.3621496 17.7423008,19.9966089 18.5332245,19.9966089 C19.3243209,19.9966089 19.9655217,19.3621496 19.9655217,18.5792978 C19.9655217,17.7964459 19.3243209,17.1618163 18.5332245,17.1618163 C17.7423008,17.1618163 17.1011,17.7964459 17.1011,18.5792978"/>
          <path fill="#6C3526" d="M18.5998486,19.5231667 C19.0136157,19.4894333 19.3308486,19.0762852 19.2933747,18.6220778 C19.2564189,18.1680407 18.8751177,17.8128185 18.4610052,17.8472333 C18.0475835,17.8807963 17.7305233,18.2934333 17.7671337,18.7474704 C17.8047803,19.2015074 18.1862542,19.5575815 18.5998486,19.5231667"/>
          <path fill="#1B1712" d="M18.5640843,19.3593556 C18.8519598,19.335163 19.1505422,19.0225333 19.1189398,18.6376667 C19.0864739,18.251437 18.7409197,17.9906 18.4530442,18.0141111 C18.164996,18.0383037 17.8671044,18.3521259 17.8987068,18.7373333 C17.9304819,19.1227111 18.2768996,19.3828667 18.5640843,19.3593556"/>
          <path fill="#FFFFFE" d="M18.7973205,18.4095919 C18.8092361,18.5486141 18.9536056,18.6504956 19.1188707,18.6368659 C19.2846538,18.6230659 19.4096819,18.4985252 19.3982843,18.3601844 C19.3863687,18.2204807 19.2428627,18.1187696 19.0774249,18.1322289 C18.9111237,18.1455178 18.7860956,18.2697178 18.7973205,18.4095919"/>
          <path fill="#0B0B09" d="M11.7535924 16.9597911C11.7427129 16.9430948 11.478496 16.5457911 10.9386647 16.1362207 10.6005361 15.8793022 10.2689699 15.6838874 9.92514257 15.5383911 9.50723092 15.3646133 9.0571988 15.2417763 8.62098193 15.1826578 8.22672892 15.1392133 7.78964859 15.1507985 7.27969277 15.2187763 6.8902751 15.2920356 6.5107008 15.4066948 6.18828715 15.5472504 5.95843574 15.6256207 5.77711044 15.73568 5.63118675 15.8241022 5.57540763 15.8580059 5.52480924 15.8886726 5.47334739 15.9161022L4.77809438 16.3485022 5.57937952 16.1622874C5.61668072 16.152917 5.65691767 16.1425244 5.70026305 16.1311096 5.86604618 16.0874948 6.07241165 16.0334874 6.31417871 15.9982207 6.37082129 15.9902133 6.42832731 15.9787985 6.48721486 15.9672133 6.58789357 15.9474504 6.6920261 15.9268356 6.80133936 15.9217244 6.92256827 15.913717 7.04845984 15.9046874 7.17780522 15.8954874L7.34617871 15.8835615C7.78964859 15.8781096 8.16438755 15.9113319 8.49733534 15.987317 8.86119478 16.0493319 9.23524297 16.1655244 9.57803414 16.3227763 9.90182932 16.4761096 10.2123273 16.6282504 10.4547851 16.8040726 10.9440181 17.1272652 11.2163514 17.3969615 11.2189418 17.399517L11.2189418 17.3996874C11.2861185 17.466643 11.3759177 17.5012281 11.4664076 17.5012281 11.5322028 17.5012281 11.5981707 17.4828281 11.6558494 17.4451763 11.8169699 17.3407393 11.8623876 17.1255615 11.7596365 16.9703541L11.7535924 16.9597911zM21.7173831 15.91278C21.6712747 15.8885874 21.6206763 15.8579207 21.5647245 15.824017 21.4189735 15.7355948 21.2376482 15.6255356 21.0145317 15.5498911 20.6853831 15.4066096 20.3058088 15.2921207 19.9117285 15.2180096 19.40609 15.1507133 18.9690096 15.1391281 18.5730297 15.1829133 18.1390578 15.2416911 17.688853 15.3645281 17.2704233 15.5384763 16.9314313 15.6820985 16.5907124 15.8831356 16.2574193 16.1361356 15.7270859 16.5382096 15.4635598 16.9286985 15.4437004 16.9586837L15.4388651 16.9658393C15.3494112 17.1019652 15.3685799 17.2846022 15.4842827 17.3996022 15.5500779 17.4653652 15.6376321 17.5013133 15.7307124 17.5013133L15.7310578 17.5013133C15.8241382 17.5013133 15.9115197 17.4650244 15.9771422 17.3994319L15.9800779 17.3965356C16.0058088 17.3713207 16.2701984 17.1155948 16.7445799 16.801943 16.9832386 16.6285059 17.2939092 16.4761948 17.616841 16.3232022 17.9610137 16.1654393 18.3350618 16.049417 18.7035839 15.9862096 19.0316964 15.911417 19.4071261 15.8787059 19.8448972 15.8833059L20.0215598 15.895743C20.1498691 15.904943 20.2745518 15.9136319 20.3966442 15.9218096 20.5042305 15.9269207 20.6081904 15.9473652 20.7090418 15.9671281 20.7677566 15.9788837 20.8252627 15.9901281 20.8817325 15.9983059 21.1236723 16.0334022 21.3300378 16.08758 21.4958209 16.1310244 21.5391663 16.1424393 21.5794032 16.1530022 21.6180859 16.162543L22.4186803 16.3487578 21.7173831 15.91278z"/>
          <path fill="#ECCEA7" d="M11.4640418,28.7221615 C11.4222506,28.1689689 13.0211944,28.8380133 13.546347,28.8540281 C13.9649494,28.8679985 15.2235197,28.77208 15.3397406,28.7281244 C16.2194273,28.402717 15.2917325,29.6530652 13.520098,29.7188281 C12.7086241,29.7508578 11.4882185,29.0577911 11.4640418,28.7221615"/>
          <path fill="#D5BA96" d="M16.6700639,27.6555237 C16.2359193,27.6343978 15.7900317,27.9925163 15.2679876,27.9378274 C15.2467466,27.9272644 15.2362124,27.9272644 15.2137627,27.9272644 C15.0939153,27.9063089 14.975104,27.9272644 14.8445498,27.958783 C14.6820478,27.9925163 14.5186823,28.0575978 14.365851,28.1102422 C14.1049153,28.1942348 13.8108229,28.2615311 13.5082687,28.2383607 L13.5082687,28.2404052 C13.5018791,28.2404052 13.4977345,28.2383607 13.491345,28.2383607 C13.4851281,28.2383607 13.4806382,28.2404052 13.4744213,28.2404052 L13.4744213,28.2383607 C13.1718671,28.2615311 12.8779474,28.1942348 12.616839,28.1102422 C12.4641803,28.0575978 12.3004695,27.9925163 12.1383129,27.958783 C12.0077586,27.9272644 11.8887747,27.9063089 11.7687546,27.9272644 C11.7464775,27.9272644 11.7361161,27.9272644 11.7147024,27.9378274 C11.1924855,27.9925163 10.7467707,27.6343978 10.3127988,27.6555237 C10.192606,27.6660867 10.0185337,27.6343978 9.92096345,27.6343978 C9.94237711,27.6449607 9.96465422,27.6555237 9.98693133,27.6660867 C11.2242606,28.2628941 12.2920076,29.3812052 13.4744213,29.3454274 L13.491345,29.3454274 L13.5082687,29.3454274 C14.6905096,29.3812052 15.7584293,28.2628941 16.9959313,27.6660867 C17.0182084,27.6555237 17.0404855,27.6449607 17.0617265,27.6343978 C16.9639835,27.6343978 16.7899112,27.6660867 16.6700639,27.6555237"/>
          <path fill="#BB987C" d="M17.033647,27.6214156 C17.033647,27.6214156 15.7754221,27.141823 14.8803659,27.4231044 C14.8803659,27.4231044 14.5472454,27.5517341 14.2020365,27.6301044 C13.9920446,27.7110304 13.7376711,27.7345415 13.4914141,27.7248304 L13.4912414,27.7248304 C13.3028357,27.7173341 13.1241008,27.6936526 12.977141,27.6682674 C12.9282695,27.6609415 12.8795707,27.65106 12.8296631,27.640497 C12.8080767,27.6360674 12.7920165,27.63266 12.7735386,27.6285711 C12.743145,27.6215859 12.7137876,27.6159637 12.6840847,27.608297 C12.6516189,27.60046 12.6322775,27.5951785 12.6322775,27.5951785 L12.6340044,27.594497 C12.3478558,27.5178304 12.1022896,27.4231044 12.1022896,27.4231044 C11.207406,27.141823 9.94900843,27.6214156 9.94900843,27.6214156 L9.94918112,27.6214156 C9.93173936,27.6292526 9.92085984,27.6345341 9.92085984,27.6345341 C10.0186028,27.6345341 10.1926751,27.6660526 10.3126952,27.6554896 C10.7468398,27.6345341 11.1925546,27.9924822 11.7145988,27.9377933 C11.7360124,27.9272304 11.7465466,27.9272304 11.7688237,27.9272304 C11.8888438,27.9061044 12.007655,27.9272304 12.1382092,27.9587489 C12.3005386,27.9924822 12.4640767,28.0575637 12.616908,28.1102081 C12.8780165,28.1942007 13.1719361,28.261497 13.4744904,28.2383267 L13.4744904,28.2403711 C13.4807072,28.2403711 13.4850245,28.238497 13.4912414,28.238497 C13.4976309,28.238497 13.5019482,28.2403711 13.5083378,28.2403711 L13.5083378,28.2383267 C13.810892,28.261497 14.1048116,28.1942007 14.3659201,28.1102081 C14.5187514,28.0575637 14.6821169,27.9924822 14.8444462,27.9587489 C14.9750004,27.9272304 15.0939843,27.9061044 15.2138317,27.9272304 C15.2362815,27.9272304 15.246643,27.9272304 15.2680566,27.9377933 C15.7901008,27.9924822 16.2359884,27.6345341 16.6701329,27.6554896 C16.7899803,27.6660526 16.9640526,27.6345341 17.0616229,27.6345341 C17.0616229,27.6345341 17.0510888,27.6292526 17.033647,27.6214156"/>
          <g transform="translate(.863)">
            <mask id="avatar2-k" fill="#fff">
              <use xlink:href="#avatar2-j"/>
            </mask>
            <path fill="#313431" d="M24.3751976,10.3051074 C24.1432739,9.47898148 23.9068602,8.83958148 23.9054787,8.83549259 C23.9073783,8.83702593 23.9398442,8.84315926 24.2615671,8.84315926 C26.2516554,8.83907037 27.3725912,6.9592037 27.3725912,6.9592037 C27.3725912,6.9592037 26.6229406,8.03202593 24.0405229,7.19567778 C21.5176835,6.38028519 21.5822699,3.72318889 17.9564546,2.24062593 C16.0996835,1.48128519 14.9922177,1.58044074 14.349808,1.85746296 C15.0001614,1.33510741 16.3364426,1.38144815 16.3364426,1.38144815 C16.3364426,1.38144815 14.6867277,0.493818519 12.137294,1.28995926 C10.3464908,1.85013704 9.27373574,2.48766296 8.67190843,2.94476667 L9.67714137,2.00807037 C9.67714137,2.00807037 8.96513735,2.25527778 7.95765944,2.75735926 C8.642551,1.45709259 9.9101012,0.0322851852 9.9101012,0.0322851852 C6.67974779,1.20886296 4.00476787,5.4423963 4.00476787,5.4423963 C4.26138635,3.84585556 4.8267759,2.38561111 4.8267759,2.38561111 C-0.686376707,6.39681111 0.170514859,13.6402778 0.170514859,13.6402778 C0.170514859,16.3817074 1.27573574,19.1302926 2.00103695,19.9468778 C2.72720161,20.7629519 2.49458715,21.9470259 2.71183213,21.9470259 C2.71183213,21.9470259 3.148049,21.9621889 3.1629004,19.8942333 C3.18310522,19.6305 3.22800482,19.3067963 3.32574779,19.0236407 C3.32574779,19.0236407 3.99768755,7.46469259 12.1238241,10.8269519 C12.1238241,10.8269519 15.4135831,12.2137667 17.975796,12.4326926 C19.8804024,12.5953963 21.4468803,14.0052111 21.8571936,15.8472556 C22.0525068,16.7234704 22.1010329,17.4952481 22.0093341,17.9441741 C21.466049,20.6263148 22.2241614,22.1707222 22.5142819,22.0983148 C22.5142819,22.0983148 22.5249888,21.4170037 22.7879968,20.8099741 C23.5678683,19.0018333 24.223057,20.2583148 24.3441133,17.8066852 C24.4409928,15.8383963 24.6851775,14.7263889 24.7822297,13.727337 C25.4004627,14.2099963 26.325049,14.5522704 27.7053663,14.5805519 C27.7053663,14.5805519 25.7527518,13.9891963 24.3751976,10.3051074" mask="url(#avatar2-k)"/>
          </g>
          <path fill="#7E562A" d="M20.7625241,35.4629333 C20.4354478,35.2244148 20.0828133,35.0005481 19.6952952,34.799 C19.6952952,34.799 18.6144237,34.4172 18.0628494,34.3340593 C17.9901466,34.3233259 17.9243514,34.3717111 17.8663273,34.4587704 L17.8663273,34.4567259 C17.8663273,34.4567259 17.8649458,34.4608148 17.8649458,34.4614963 C17.7554598,34.6277778 17.6717048,34.9405778 17.6085,35.3024444 C17.3867651,36.0171481 17.0681506,37.0126222 16.8415803,37.5929037 C15.9893514,39.671763 14.8281787,40.6132296 13.6625161,40.5149259 C12.4968534,40.6132296 11.3353353,39.671763 10.4834518,37.5929037 C10.2568815,37.0126222 9.93792169,36.0171481 9.71653213,35.3024444 C9.65246386,34.9405778 9.5693996,34.6277778 9.45991365,34.4614963 C9.45922289,34.4608148 9.45853213,34.4567259 9.45853213,34.4567259 L9.45853213,34.4587704 C9.40033534,34.3717111 9.33505823,34.3233259 9.26131928,34.3340593 C8.71009036,34.4172 7.62904618,34.799 7.62904618,34.799 C7.62904618,34.799 7.46188153,34.8889556 7.19421084,35.0620519 C8.26282129,38.5018296 13.2839779,52.277637 20.7625241,35.4629333"/>
          <path fill="#ECA640" d="M20.7625241,35.4629333 C13.2839779,52.277637 8.26282129,38.5018296 7.19421084,35.0620519 C5.87295382,35.9162889 2.03369277,38.8451259 2.9417008,43.5674519 L4.65479317,43.5674519 C4.35793775,44.5777481 4.8000261,45.3887111 5.10983333,45.800837 L13.6464558,45.800837 L13.6625161,45.800837 L13.6785763,45.800837 L22.2141627,45.800837 C22.524488,45.3887111 22.9664036,44.5777481 22.6698936,43.5674519 L24.4201145,43.5674519 C24.4201145,43.5674519 24.705745,38.3365704 20.7625241,35.4629333"/>
        </g>
      </g>
    </g>
  </g>
</svg>
