<svg xmlns="http://www.w3.org/2000/svg" xmlns:xlink="http://www.w3.org/1999/xlink" width="40" height="50" viewBox="0 0 40 50">
  <defs>
    <rect id="avatar5-a" width="40" height="40" y="10" rx="20"/>
    <rect id="avatar5-b" width="40" height="50" rx="20"/>
    <polygon id="avatar5-d" points=".006 .1 11.695 .1 11.695 21.333 .006 21.333"/>
    <polygon id="avatar5-f" points=".062 .155 6.359 .155 6.359 3.879 .062 3.879"/>
    <polygon id="avatar5-h" points="0 .057 31.939 .057 31.939 32.748 0 32.748"/>
  </defs>
  <g fill="none" fill-rule="evenodd">
    <use fill="#C26183" xlink:href="#avatar5-a"/>
    <rect width="39" height="39" x=".5" y="10.5" stroke="#FFF" rx="19.5"/>
    <mask id="avatar5-c" fill="#fff">
      <use xlink:href="#avatar5-b"/>
    </mask>
    <g mask="url(#avatar5-c)">
      <g transform="translate(4)">
        <g transform="translate(4.304 27.452)">
          <path fill="#D8B892" d="M11.7950503,0.25762807 L11.7950503,21.3332772 L0.429436257,21.3332772 C0.244547368,21.2601076 0.152102924,21.2215579 0.152102924,21.2215579 C0.152102924,19.1656982 0.383214035,17.4562246 0.760477193,16.0317567 C0.875939181,15.5927392 1.00300351,15.1845988 1.14541287,14.7996632 C1.98096842,12.5241076 3.21306199,11.145862 4.34110877,10.3103064 C5.1727345,9.69818947 5.94279298,9.38249357 6.45872281,9.22062222 C6.85919064,9.09374503 7.10545965,9.06661053 7.10545965,9.06661053 C7.15186901,9.06661053 7.19023158,9.06286784 7.23271111,9.05519532 C7.2787462,9.04752281 7.32122573,9.03592047 7.36351813,9.02057544 C7.66386901,8.91652865 7.91032515,8.62403743 8.11430175,8.18894971 C8.2875883,7.81917193 8.42999766,7.34572164 8.54938947,6.80284444 C8.5956117,6.5872655 8.63397427,6.37542924 8.66878129,6.14450526 C8.72641871,5.75170994 8.78031345,5.34356959 8.82653567,4.91634152 C8.84581053,4.65828304 8.87275789,4.40808421 8.90363509,4.13842339 C9.00356491,2.8486924 9.03069942,1.43563977 9.03069942,0.0996865497 C9.03069942,0.0996865497 10.5552842,0.25762807 11.7950503,0.25762807"/>
          <g transform="translate(11.79)">
            <mask id="avatar5-e" fill="#fff">
              <use xlink:href="#avatar5-d"/>
            </mask>
            <path fill="#EBCDA6" d="M11.6946339,21.2216327 C11.6946339,21.2216327 11.594517,21.2601825 11.4251602,21.333352 L0.00565146199,21.333352 L0.00565146199,0.257702924 L0.0325988304,0.257702924 C1.2646924,0.257702924 2.80855205,0.0997614035 2.80855205,0.0997614035 C2.80855205,1.42804211 2.83531228,2.82181988 2.93542924,4.11155088 C2.96630643,4.36174971 2.9932538,4.61980819 3.01252865,4.87000702 C3.05875088,5.31669708 3.11264561,5.73643977 3.17814269,6.12511813 L3.17814269,6.13297778 C3.19741754,6.31000702 3.23203743,6.4677614 3.26272749,6.63337544 C3.37444678,7.18392515 3.50918363,7.66542222 3.67479766,8.05017076 C3.87877427,8.5314807 4.12523041,8.8666386 4.42951111,9.0011883 C4.52176842,9.04366784 4.6258152,9.06668538 4.73360468,9.06668538 C4.73360468,9.06668538 4.7526924,9.06668538 4.78356959,9.07435789 C4.91830643,9.09363275 5.29949942,9.16680234 5.82310175,9.37470877 C6.43147602,9.61723509 7.22455205,10.0291181 8.03316023,10.7377965 L8.03316023,10.7415392 C9.00738246,11.5924398 9.99676257,12.8784281 10.701324,14.799738 C10.8437333,15.1844865 10.9707977,15.592814 11.0862596,16.0318316 C11.4637099,17.4562994 11.6946339,19.1657731 11.6946339,21.2216327" mask="url(#avatar5-e)"/>
          </g>
        </g>
        <g transform="translate(12.912 31.382)">
          <mask id="avatar5-g" fill="#fff">
            <use xlink:href="#avatar5-f"/>
          </mask>
          <path fill="#B39078" d="M6.35927953,2.15511579 L6.35927953,2.16447251 C6.07277661,2.60685848 5.11090526,3.87918596 3.20606316,3.87918596 L3.18753684,3.87918596 C1.38449591,3.86982924 0.330180117,2.56082339 0.0622035088,2.17364211 C0.117595322,1.78627368 0.172987135,1.38075322 0.219209357,0.956706433 C0.237922807,0.707630409 0.265618713,0.44957193 0.29331462,0.182156725 C1.17172398,0.403536842 2.13340819,0.54182924 3.15067135,0.560168421 L3.18753684,0.560168421 C4.24185263,0.54182924 5.21270643,0.394180117 6.1188117,0.154647953 C6.1465076,0.403536842 6.17439064,0.661595322 6.19272982,0.910671345 C6.23895205,1.35305731 6.29453099,1.7679345 6.35927953,2.15511579" mask="url(#avatar5-g)"/>
        </g>
        <g transform="translate(0 .13)">
          <path fill="#C8A07F" d="M15.9703953,3.56300351 C3.93090994,3.56300351 3.8661614,13.6583485 4.40248889,20.2686877 C3.57947135,18.7014363 1.12913216,19.1808749 1.33254737,21.6517988 C1.52660585,24.0302784 5.02751813,25.2427228 4.92945965,24.979986 C6.75271111,29.8686877 11.5781614,33.5541146 15.9703953,33.5541146 L16.0628398,33.5541146 L16.0628398,3.56300351 L15.9703953,3.56300351"/>
          <path fill="#A2806C" d="M2.10006082,20.6099649 C2.69178012,19.6510877 3.61659883,20.0659649 3.83854035,20.2781754 C4.07882105,20.508538 4.27306667,20.803462 4.12504327,21.3659883 C4.04176842,21.6886082 3.70904327,21.7163041 3.7829614,22.1957427 C3.87540585,22.7395556 4.12504327,22.7672515 4.27306667,22.8963743 C4.41173333,23.0161404 4.58745263,23.1083977 4.67072749,23.3389474 C4.76317193,23.5693099 4.77234152,23.8092164 4.7261193,24.0212398 C4.63367485,24.4084211 4.06965146,24.0947836 3.69051696,23.9287953 C3.44087953,23.8092164 2.64574503,23.1360936 2.44214269,22.9147135 C1.94286784,22.3432047 1.7024,21.2368655 2.10006082,20.6099649"/>
          <path fill="#D4AF90" d="M16.0351813,3.56300351 C28.0744795,3.56300351 28.1392281,13.6583485 27.6122573,20.2686877 C28.4352749,18.7014363 30.8764444,19.1808749 30.6730292,21.6517988 C30.4881404,24.0302784 26.9803041,25.2432842 27.0759298,24.979986 C25.3000234,29.8686877 20.4274152,33.5541146 16.0351813,33.5541146 L15.9704327,33.5541146 L15.9425497,3.56300351 L16.0351813,3.56300351"/>
          <path fill="#A2806C" d="M29.9055158,20.6099649 C29.3137965,19.6510877 28.3981474,20.0659649 28.1670363,20.2781754 C27.9267556,20.508538 27.7416795,20.803462 27.8805333,21.3659883 C27.9636211,21.6886082 28.2965333,21.7163041 28.2226152,22.1957427 C28.1301708,22.7395556 27.8805333,22.7672515 27.7416795,22.8963743 C27.6030129,23.0161404 27.418124,23.1083977 27.3348491,23.3389474 C27.2515743,23.5693099 27.2332351,23.8092164 27.2794573,24.0212398 C27.3719018,24.4084211 27.9359251,24.0947836 28.3150596,23.9287953 C28.5740538,23.8092164 29.3600187,23.1360936 29.5634339,22.9147135 C30.0720655,22.3432047 30.3031766,21.2368655 29.9055158,20.6099649"/>
          <path fill="#D8B892" d="M15.8757427,6.41186433 C11.9180351,6.41186433 9.01445614,7.5642386 7.26680702,9.83230877 C4.8162807,13.0130339 4.90891228,17.8624374 5.80584795,21.3476304 C6.08318129,22.416917 6.23120468,25.2841918 6.41609357,26.3353263 C7.27597661,31.0464374 12.4635322,33.5540398 15.8757427,33.5540398 L15.9681871,33.5540398 L15.9681871,6.41186433 L15.9127953,6.41186433"/>
          <path fill="#EBCDA6" d="M24.4753216,9.84151579 C22.7370292,7.58280234 19.8705029,6.43024094 15.9681871,6.41190175 L15.9681871,33.5540772 C19.8705029,33.5080421 24.5400702,30.7605333 25.3353918,26.3353637 C25.5294503,25.2840421 25.668117,22.4169544 25.9454503,21.3474807 C26.8517427,17.8716444 26.9441871,13.0315977 24.4753216,9.84151579"/>
          <path fill="#D4AF90" d="M13.7220491,25.2216327 C13.6762012,24.2835275 15.4395696,24.8788023 16.0208094,24.9081825 C16.4802246,24.9317614 17.877745,24.6125099 17.9978854,24.6948491 C18.8197801,25.2508257 17.1267743,26.3710129 15.9916164,26.3710129 C15.689207,26.3710129 13.7493708,25.7871532 13.7220491,25.2216327"/>
          <path fill="#FFFFFE" d="M7.33133099,17.0056234 C7.33133099,17.0056234 8.24978713,20.7853661 9.82676959,21.0939509 C11.4035649,21.4021614 13.1102316,20.7891088 13.1102316,20.7891088 C13.1102316,20.7891088 13.2734129,16.3469099 12.4659275,15.7666058 C11.6593778,15.1836819 9.79926082,14.3413895 7.33133099,17.0056234"/>
          <path fill="#CDAE8E" d="M13.1124023,20.7775439 C13.1124023,20.7775439 13.0762854,20.7880234 12.9952561,20.8218947 C12.9750456,19.4593684 12.8494784,17.5880234 12.3451509,17.2294737 C11.5956772,16.678924 9.90285848,15.9038129 7.64115088,18.0232982 C7.43567719,17.4377544 7.33237895,16.9938713 7.33237895,16.9938713 C9.80498713,14.3245848 11.6666012,15.1655673 12.4673497,15.7488655 C13.2755836,16.3316023 13.1124023,20.7775439 13.1124023,20.7775439"/>
          <path fill="#39221A" d="M12.1787322,18.8526596 C12.1787322,19.7125427 11.4839018,20.4096187 10.6268257,20.4096187 C9.76956257,20.4096187 9.07473216,19.7125427 9.07473216,18.8526596 C9.07473216,17.9927766 9.76956257,17.2958877 10.6268257,17.2958877 C11.4839018,17.2958877 12.1787322,17.9927766 12.1787322,18.8526596"/>
          <path fill="#6C3526" d="M10.5545544,19.8895719 C10.1063673,19.8525193 9.76241404,19.3987181 9.80320936,18.8998175 C9.84325614,18.4012912 10.2564491,18.0109287 10.7050105,18.0485427 C11.1531977,18.0854082 11.4967766,18.538648 11.4571041,19.0373614 C11.4163088,19.536262 11.0027415,19.927186 10.5545544,19.8895719"/>
          <path fill="#1B1712" d="M10.5932912,19.7097544 C10.281338,19.6829942 9.95778246,19.3396023 9.99202807,18.9168655 C10.0272094,18.4926316 10.4016655,18.2063158 10.7136187,18.2321404 C11.0257591,18.2585263 11.3487532,18.6034152 11.3143205,19.0263392 C11.2798877,19.4496374 10.9044959,19.7353918 10.5932912,19.7097544"/>
          <path fill="#FFFFFE" d="M10.3406409 18.6664421C10.3277287 18.8191439 10.1712842 18.9308632 9.99200936 18.9160795 9.81254737 18.9007345 9.67706199 18.7641263 9.68922573 18.6121731 9.70213801 18.4587228 9.85764678 18.3470035 10.0371088 18.3616 10.2173193 18.3761965 10.3528047 18.5129918 10.3406409 18.6664421M24.6993778 16.8769684C24.6993778 16.8769684 23.7809216 20.6567111 22.2039392 20.965483 20.6271439 21.2736936 18.9204772 20.6606409 18.9204772 20.6606409 18.9204772 20.6606409 18.7572959 16.2184421 19.5647813 15.6379509 20.3715181 15.055214 22.231448 14.2127345 24.6993778 16.8769684"/>
          <path fill="#CDAE8E" d="M18.9183064,20.6488889 C18.9183064,20.6488889 18.9544234,20.6593684 19.0354526,20.6932398 C19.055476,19.3307135 19.1812304,17.4593684 19.6855579,17.1008187 C20.4350316,16.550269 22.1278503,15.7751579 24.3895579,17.8946433 C24.5952187,17.3090994 24.6983298,16.8652164 24.6983298,16.8652164 C22.2257216,14.1959298 20.3642947,15.0369123 19.5633591,15.6202105 C18.7551251,16.2029474 18.9183064,20.6488889 18.9183064,20.6488889"/>
          <path fill="#39221A" d="M19.8519766,18.7241918 C19.8519766,19.5840749 20.546807,20.2809637 21.4040702,20.2809637 C22.2611462,20.2809637 22.9561637,19.5840749 22.9561637,18.7241918 C22.9561637,17.8643088 22.2611462,17.1672327 21.4040702,17.1672327 C20.546807,17.1672327 19.8519766,17.8643088 19.8519766,18.7241918"/>
          <path fill="#6C3526" d="M21.4760608,19.760917 C21.9244351,19.7238643 22.2683883,19.2702503 22.227593,18.7713497 C22.1875462,18.2726363 21.7743532,17.8822737 21.3256047,17.9198877 C20.8776047,17.9569404 20.5340257,18.409993 20.5736982,18.9087064 C20.6144936,19.407607 21.0280608,19.798531 21.4760608,19.760917"/>
          <path fill="#1B1712" d="M21.437324,19.5810994 C21.7494643,19.5543392 22.0730199,19.2109474 22.0387743,18.7882105 C22.003593,18.3639766 21.6289497,18.0776608 21.3169965,18.1034854 C21.0048561,18.1298713 20.6820491,18.4747602 20.7162947,18.8976842 C20.7507275,19.3209825 21.1261193,19.606924 21.437324,19.5810994"/>
          <path fill="#FFFFFE" d="M21.6900678,18.5377871 C21.7029801,18.6904889 21.8594246,18.8022082 22.0386994,18.7876117 C22.2181614,18.7722667 22.3536468,18.6354713 22.341483,18.4837053 C22.3285708,18.3300678 22.173062,18.2183485 21.9936,18.232945 C21.8133895,18.2477287 21.6780912,18.3843368 21.6900678,18.5377871"/>
          <path fill="#0B0B09" d="M14.0573006 16.9453099C14.0455111 16.9269708 13.7591953 16.490386 13.1742129 16.0407018 12.8078035 15.7585029 12.4485053 15.5440468 12.0759205 15.3840468 11.623055 15.1931696 11.1351953 15.0580585 10.6626807 14.9933099 10.2354526 14.9455906 9.7618152 14.9583158 9.20920702 15.0329825 8.78721871 15.1134503 8.37589708 15.2393918 8.02651696 15.3937778 7.77744094 15.4798596 7.58076257 15.6005614 7.42263392 15.6978713 7.36218947 15.7351111 7.30735906 15.7687953 7.25178012 15.798924L6.49837661 16.2738713 7.3666807 16.0693333C7.40691462 16.0592281 7.45070409 16.0474386 7.49786199 16.0350877 7.67732398 15.9873684 7.90094971 15.9278596 8.16293801 15.8891228 8.22431813 15.8803275 8.28682105 15.8677895 8.35025965 15.8550643 8.4595462 15.8333567 8.5723883 15.8107135 8.69084444 15.8050994 8.82221287 15.796117 8.95863392 15.7865731 9.09879766 15.7764678L9.28106667 15.7631813C9.7618152 15.7570058 10.1678971 15.7936842 10.5286924 15.8769591 10.9227977 15.9452632 11.3283181 16.0728889 11.6997801 16.245614 12.0506573 16.4140351 12.3871251 16.5811462 12.6496749 16.7744561 13.180014 17.1292632 13.4751251 17.4253099 13.4779322 17.4283041L13.4779322 17.4284912C13.5507275 17.5020351 13.6480374 17.5400234 13.7459088 17.5400234 13.817207 17.5400234 13.8888795 17.5196257 13.9513825 17.4784561 14.1259789 17.3637427 14.1750082 17.1273918 14.0638503 16.9569123L14.0573006 16.9453099zM24.8543439 15.7952749C24.8045661 15.7687018 24.7495485 15.7350175 24.688917 15.6977778 24.5309754 15.600655 24.3344842 15.4797661 24.0928936 15.3966784 23.7360281 15.2392982 23.3247064 15.1133567 22.8976655 15.0321404 22.3499228 14.9582222 21.8760982 14.9454971 21.4469988 14.9935906 20.9767298 15.058152 20.4888702 15.193076 20.0354433 15.3843275 19.6680982 15.5418947 19.2988819 15.7627135 18.9377123 16.0407953 18.3632094 16.4822456 18.077455 16.9111579 18.0561216 16.9440936L18.0506947 16.9519532C17.9537591 17.1014737 17.974531 17.3020819 18.0999111 17.4283977 18.1712094 17.5004444 18.2662737 17.540117 18.3671392 17.540117L18.3673263 17.540117C18.4681918 17.540117 18.5628819 17.5002573 18.6341801 17.4283977L18.6371743 17.4252164C18.6650573 17.3973333 18.9515602 17.1164444 19.4658058 16.7719298 19.7242386 16.5814269 20.0608936 16.4143158 20.4108351 16.2458947 20.7837942 16.0727953 21.1891275 15.9453567 21.5884725 15.876117 21.9440281 15.7935906 22.3508585 15.757848 22.8252444 15.7629006L23.016683 15.7765614C23.155724 15.7866667 23.2908351 15.7962105 23.4231392 15.805193 23.539724 15.8106199 23.6523789 15.8332632 23.7616655 15.8549708 23.8254784 15.867883 23.887607 15.8802339 23.9489871 15.8892164 24.2109754 15.9277661 24.4346012 15.9872749 24.6142503 16.0349942 24.6612211 16.0475322 24.7050105 16.0591345 24.7467415 16.069614L25.6144842 16.274152 24.8543439 15.7952749z"/>
          <path fill="#ECCEA7" d="M13.8560936,30.1576608 C13.8111813,29.5590175 15.5240234,30.2832281 16.0863626,30.3004444 C16.534924,30.3156023 17.8828538,30.2117427 18.0074854,30.1642105 C18.9497076,29.8118363 17.9560234,31.1653801 16.0584795,31.2366784 C15.1890526,31.2711111 13.8819181,30.5208889 13.8560936,30.1576608"/>
          <path fill="#B35E65" d="M19.5014737,28.7196257 C18.4151579,28.5162105 16.1270643,28.7330994 16.1270643,28.7330994 C14.2403743,29.0465497 12.7636959,28.7132632 12.7528421,28.7259883 C12.7077427,28.7304795 14.2596491,30.7889591 16.1014269,30.6940819 C17.9430175,30.7889591 19.546386,28.7259883 19.5014737,28.7196257"/>
          <path fill="#C96C6C" d="M17.2183953,28.2850433 C16.7290386,28.2309614 16.380407,28.5838971 16.1292725,28.5580725 C15.8738339,28.5818386 15.5420444,28.3554058 15.0496936,28.3505404 C14.3572959,28.3436164 14.019331,28.2827977 12.7528047,28.7259322 C12.7979041,28.8123883 13.6093193,29.2820959 15.1290386,29.3081076 C15.1505591,29.3081076 15.5583251,29.5394058 16.1378807,29.5352889 C16.5007345,29.5330433 16.9985123,29.2908912 17.0179743,29.2908912 C18.5399392,29.2671251 19.4692491,28.8148211 19.5121029,28.7304234 C17.8379977,28.2114994 17.9708632,28.2783064 17.2183953,28.2850433"/>
          <path fill="#EEA744" d="M26.1556959,44.4813099 C26.1517661,46.383345 26.205848,47.8154854 26.2558129,48.6549708 L6.46222222,48.6549708 C6.51218713,47.8154854 6.5700117,46.383345 6.56608187,44.4813099 C6.56608187,44.1193918 6.56608187,43.7458713 6.56233918,43.3534503 L5.06451462,43.3534503 C5.18016374,42.9144327 5.30704094,42.5061053 5.44963743,42.1213567 C6.28500585,39.8458012 7.51709942,38.4673684 8.64533333,37.6318129 L12.1604678,42.1058246 C12.1642105,42.1136842 12.171883,42.1174269 12.1795556,42.1250994 C13.2039298,43.4187602 14.6360702,44.1117193 16.0990877,44.1848889 C17.635462,44.2619883 19.1984094,43.6612865 20.3459181,42.3599532 L20.3575205,42.348538 L24.1265965,38.0631579 C25.1008187,38.9140585 26.0901988,40.2000468 26.7949474,42.1213567 C26.9373567,42.5061053 27.0642339,42.9144327 27.179883,43.3534503 L26.1633684,43.3534503 C26.1596257,43.7458713 26.1556959,44.1193918 26.1556959,44.4813099"/>
          <path fill="#90212F" d="M11.8418339,35.9288702 C11.8418339,35.9288702 11.0579275,39.5439345 16.0590971,39.573876 L16.0590971,40.2662737 C16.0590971,40.2662737 12.8946526,40.7225076 9.05689825,37.1686363 C9.05689825,37.1686363 10.1899977,36.0553731 11.8418339,35.9288702"/>
          <path fill="#611921" d="M20.2289778,35.8786058 C20.2289778,35.8786058 21.0652819,39.5440094 16.0641123,39.5737637 L16.0641123,40.2661614 C16.0641123,40.2661614 19.3700304,40.7369918 23.2079719,37.1831205 C23.2079719,37.1831205 22.1195977,36.1076585 20.2289778,35.8786058"/>
          <mask id="avatar5-i" fill="#fff">
            <use xlink:href="#avatar5-h"/>
          </mask>
          <path fill="#E26A62" d="M30.9435322,10.4266667 C30.7657544,9.94236257 30.580117,9.4928655 30.3916725,9.06189474 L30.3916725,8.87569591 C30.3916725,7.04963743 28.656,4.68276023 25.8989474,2.38194152 C23.1396491,0.0835555556 21.4043509,0.55625731 19.1207485,0.622877193 C19.1207485,0.622877193 19.1138246,0.637847953 19.1027836,0.660304094 C18.0995556,0.46025731 12.7052164,-0.534362573 9.49660819,0.566549708 C5.94984795,1.78554386 3.04683041,3.87508772 0.996210526,9.49061988 C-1.05235088,15.1050292 0.629052632,19.7023626 1.02596491,21.6644678 C2.28556725,27.8762105 8.32608187,31.8105263 8.32608187,31.8105263 C8.32608187,31.8105263 6.80130994,30.1512047 6.11901754,28.4974971 C5.59017544,27.2137544 4.80009357,25.0085614 4.80009357,21.7619649 C4.80009357,21.4958596 4.82516959,21.2243275 4.86783626,20.9505497 C5.73071345,7.77384795 17.8849123,13.8927719 17.8849123,13.8927719 L17.8815439,13.8987602 C17.8815439,13.8987602 24.7643509,15.6868304 23.7513918,24.8122573 C23.7513918,24.8122573 26.2808889,21.634152 25.0613333,17.291883 C26.0233918,18.7562105 27.1385263,20.8506199 27.1385263,22.6996959 C27.1385263,25.9455439 26.347883,28.1503626 25.8196023,29.4339181 C25.1380585,31.0883743 23.6114152,32.7476959 23.6114152,32.7476959 C23.6114152,32.7476959 29.6530526,28.8137544 30.9120936,22.601076 C31.307883,20.6387836 32.991345,16.0405146 30.9435322,10.4266667" mask="url(#avatar5-i)"/>
        </g>
      </g>
    </g>
  </g>
</svg>
