<svg xmlns="http://www.w3.org/2000/svg" xmlns:xlink="http://www.w3.org/1999/xlink" width="40" height="50" viewBox="0 0 40 50">
  <defs>
    <rect id="avatar4-a" width="40" height="40" y="10" rx="20"/>
    <rect id="avatar4-b" width="40" height="50" rx="20"/>
    <polygon id="avatar4-d" points=".106 .099 11.596 .099 11.596 21.091 .106 21.091"/>
    <polygon id="avatar4-f" points=".016 .142 6.494 .142 6.494 3.589 .016 3.589"/>
    <polygon id="avatar4-h" points=".175 .007 14.753 .007 14.753 29.813 .175 29.813"/>
    <polygon id="avatar4-j" points="0 48.727 31.222 48.727 31.222 .068 0 .068"/>
  </defs>
  <g fill="none" fill-rule="evenodd" transform="translate(0 -1)">
    <use fill="#6EAFD7" xlink:href="#avatar4-a"/>
    <rect width="39" height="39" x=".5" y="10.5" stroke="#FFF" rx="19.5"/>
    <mask id="avatar4-c" fill="#fff">
      <use xlink:href="#avatar4-b"/>
    </mask>
    <g mask="url(#avatar4-c)">
      <g transform="translate(3 2)">
        <g transform="translate(5.09 27.636)">
          <mask id="avatar4-e" fill="#fff">
            <use xlink:href="#avatar4-d"/>
          </mask>
          <path fill="#D8B892" d="M11.5964121,0.255033493 L11.5964121,21.0910016 L0.379696392,21.0910016 C0.197023954,21.0177384 0.106149495,20.9805518 0.106149495,20.9805518 C0.106149495,18.3208772 0.494212987,16.2473078 1.08600519,14.6301531 C2.51358384,10.7272249 5.12751746,9.48767145 6.33086522,9.11395534 C6.72557807,8.99129506 6.96883348,8.96169378 6.96883348,8.96169378 C7.01150014,8.96169378 7.05121154,8.95799362 7.09184646,8.95114833 C7.44500087,8.89416587 7.73184646,8.58594258 7.96198788,8.09419139 C8.13320866,7.72880064 8.2761697,7.26276555 8.39271804,6.7234673 C8.43907879,6.51329825 8.4750961,6.3010941 8.51203694,6.07186922 C8.56689408,5.68649761 8.62082771,5.28336523 8.66737316,4.86099203 C8.68528947,4.60420096 8.71262569,4.35666029 8.74014661,4.09043381 C8.83951746,2.81572887 8.8679619,1.42021372 8.8679619,0.0990717703 C8.8679619,0.0990717703 10.3742245,0.255033493 11.5964121,0.255033493" mask="url(#avatar4-e)"/>
          <path fill="#EBCDA6" d="M23.1330355,20.9806258 C23.1330355,20.9806258 23.0327411,21.0176274 22.867985,21.0908906 L11.5964121,21.0908906 L11.5964121,0.255107496 L11.6237483,0.255107496 C12.8376242,0.255107496 14.3627267,0.0991457735 14.3627267,0.0991457735 C14.3627267,1.41085231 14.3891394,2.78731164 14.4896185,4.06294163 C14.5171394,4.31103732 14.5444756,4.56708836 14.5625766,4.81536906 C14.6089374,5.25568804 14.6636098,5.66862584 14.7271481,6.05381244 L14.7271481,6.06232281 C14.7452491,6.23752536 14.7810817,6.39348708 14.8097108,6.55795917 C14.9203486,7.10021754 15.0548133,7.57679809 15.2166141,7.95902456 C15.4183111,8.43468006 15.6635983,8.76658437 15.9607873,8.89794003 C16.0555405,8.94086188 16.1558349,8.96176778 16.2609316,8.96176778 C16.2609316,8.96176778 16.6925853,9.01412504 17.3392346,9.26906603 C18.6598696,9.78838341 20.8779821,11.1515222 22.1522563,14.6302271 C22.7440485,16.2473818 23.1330355,18.3209512 23.1330355,20.9806258"/>
        </g>
        <g transform="translate(13.818 31.273)">
          <mask id="avatar4-g" fill="#fff">
            <use xlink:href="#avatar4-f"/>
          </mask>
          <path fill="#B39078" d="M6.49422674,1.99338528 L6.49422674,2.00187013 C6.19948877,2.41139394 5.20997005,3.5885368 3.25037647,3.5885368 L3.23131765,3.5885368 C1.37645134,3.58005195 0.291831016,2.36862338 0.0161518717,2.01035498 C0.0731358289,1.65208658 0.130119786,1.27667532 0.177670588,0.884294372 C0.196921925,0.653991342 0.225413904,0.415030303 0.253905882,0.167757576 C1.15756364,0.3724329 2.14688984,0.500398268 3.19339251,0.517541126 L3.23131765,0.517541126 C4.31593797,0.500398268 5.31469733,0.363948052 6.24684706,0.14212987 C6.27533904,0.3724329 6.30402353,0.611393939 6.32288984,0.84169697 C6.37044064,1.25104762 6.42761711,1.63494372 6.49422674,1.99338528" mask="url(#avatar4-g)"/>
        </g>
        <path fill="#C8A07F" d="M16.6713799,3.91216766 C4.76627821,3.91216766 4.70225239,13.9453363 5.23259344,20.5149629 C4.41876235,18.9573641 1.99577364,19.4338498 2.19691834,21.8893696 C2.38881076,24.2533863 5.85064615,25.4581774 5.75368219,25.1970587 C7.55658268,30.0558373 12.3281717,33.71838 16.6713799,33.71838 L16.7627925,33.71838 L16.7627925,3.91216766 L16.6713799,3.91216766"/>
        <path fill="#A2806C" d="M2.95586487,20.8540638 C3.54097945,19.9010923 4.45547542,20.3134143 4.67493964,20.5243178 C4.91253835,20.7532616 5.10461581,21.0465552 4.95824465,21.605431 C4.8758993,21.9260638 4.546888,21.9535892 4.61998107,22.4300749 C4.71139365,22.9705385 4.95824465,22.9980638 5.10461581,23.1263914 C5.2417347,23.2454198 5.41549263,23.337109 5.49783798,23.5662387 C5.58925056,23.7951825 5.59831781,24.0336114 5.55261151,24.2443289 C5.46119892,24.6291256 4.90347111,24.3176058 4.52856848,24.1526398 C4.28171748,24.0336114 3.4954582,23.3646343 3.29412846,23.1446176 C2.80042647,22.5766287 2.56264271,21.4771034 2.95586487,20.8540638"/>
        <g transform="translate(16.47 3.906)">
          <mask id="avatar4-i" fill="#fff">
            <use xlink:href="#avatar4-h"/>
          </mask>
          <path fill="#D4AF90" d="M0.266373319,0.00654656489 C12.1712899,0.00654656489 12.2353158,10.0397152 11.714227,16.6093418 C12.5280581,15.051743 14.9419796,15.5282287 14.7408349,17.9837485 C14.5580097,20.3477652 11.0893276,21.5533002 11.183886,21.2914376 C9.42780204,26.1502162 4.6095815,29.8127589 0.266373319,29.8127589 L0.202347499,29.8127589 L0.174775686,0.00654656489 L0.266373319,0.00654656489" mask="url(#avatar4-i)"/>
        </g>
        <path fill="#A2806C" d="M30.4509577,20.8540638 C29.8658431,19.9010923 28.9604144,20.3134143 28.7318829,20.5243178 C28.4942842,20.7532616 28.311274,21.0465552 28.4485779,21.605431 C28.5307382,21.9260638 28.8599346,21.9535892 28.7868415,22.4300749 C28.6954289,22.9705385 28.4485779,22.9980638 28.311274,23.1263914 C28.1741551,23.2454198 27.99133,23.337109 27.9089846,23.5662387 C27.8266393,23.7951825 27.8085048,24.0336114 27.8542111,24.2443289 C27.9456237,24.6291256 28.5033515,24.3176058 28.8782541,24.1526398 C29.1343574,24.0336114 29.9115494,23.3646343 30.1126941,23.1446176 C30.6156484,22.5766287 30.8441799,21.4771034 30.4509577,20.8540638"/>
        <path fill="#D8B892" d="M16.5777653,6.74340819 C12.6642332,6.74340819 9.7930638,7.88887106 8.06492179,10.1427864 C5.64174804,13.3039217 5.73334567,18.1234582 6.62026982,21.5870001 C6.89450758,22.649887 7.04087875,25.4995026 7.22370393,26.5441632 C8.07398903,31.226259 13.2036415,33.7184172 16.5777653,33.7184172 L16.6691778,33.7184172 L16.6691778,6.74340819 L16.6144043,6.74340819"/>
        <path fill="#EBCDA6" d="M25.0813749,10.1520111 C23.3624852,7.90720888 20.5279548,6.76174601 16.6691963,6.7433338 L16.6691963,33.7183428 C20.5279548,33.6725913 25.1454008,30.9421901 25.9318451,26.5440888 C26.1237375,25.4994282 26.2608564,22.6499986 26.5350941,21.5869257 C27.4312706,18.1326829 27.5226832,13.3222595 25.0813749,10.1520111"/>
        <path fill="#B18973" d="M16.0987985 28.9482012C16.0617076 28.9402012 16.0253439 28.9329285 15.9886167 28.9245649 16.0246167 28.9329285 16.0566167 28.939474 16.0987985 28.9482012M15.9494855 28.9174598C15.9156673 28.9087325 15.8847583 28.8989144 15.8513037 28.8898235L15.8476673 28.8916416C15.8476673 28.8916416 15.8854855 28.9018235 15.9494855 28.9174598"/>
        <path fill="#D4AF90" d="M14.397612,25.245972 C14.3522758,24.3138304 16.0959617,24.905253 16.6708988,24.9344522 C17.125001,24.9578859 18.5071075,24.6407867 18.6255367,24.7224328 C19.4386276,25.2749851 17.764519,26.3882731 16.6418466,26.3882731 C16.3428127,26.3882731 14.4246287,25.8081954 14.397612,25.245972"/>
        <path fill="#362A1F" d="M13.3933044,6.81078945 L13.2958498,6.908244 L13.3122134,6.94097127 C13.3445771,6.892244 13.3609407,6.84315309 13.3933044,6.81078945"/>
        <path fill="#AE8973" d="M16.1326657 28.4011456C16.0948476 28.3931456 16.057393 28.3858729 16.0195748 28.3771456 16.0566657 28.3855092 16.089393 28.3920547 16.1326657 28.4011456M15.9794668 28.3697635C15.9445577 28.3606726 15.9129214 28.3508544 15.8787395 28.3413999L15.8747395 28.3428544C15.8747395 28.3428544 15.9140123 28.3537635 15.9794668 28.3697635"/>
        <path fill="#FFFFFE" d="M8.12874406,17.2719026 C8.12874406,17.2719026 9.03694847,21.0283661 10.5963288,21.3350504 C12.155524,21.6415486 13.843141,21.0320858 13.843141,21.0320858 C13.843141,21.0320858 14.0045009,16.6174321 13.2060286,16.040516 C12.4084815,15.4611822 10.5691271,14.6240774 8.12874406,17.2719026"/>
        <path fill="#CDAE8E" d="M13.8452691,21.0206107 C13.8452691,21.0206107 13.8095552,21.0310257 13.7294304,21.0646884 C13.7094455,19.7105538 13.5852798,17.8507342 13.0865816,17.4943928 C12.3454735,16.9472339 10.6715499,16.1770826 8.43508725,18.2835142 C8.23190705,17.7013907 8.12976181,17.2602415 8.12976181,17.2602415 C10.574771,14.6073949 12.4156058,15.4430118 13.2074165,16.0229035 C14.0066289,16.6020514 13.8452691,21.0206107 13.8452691,21.0206107"/>
        <path fill="#39221A" d="M12.9220389,19.1076561 C12.9220389,19.9622432 12.2349642,20.65484 11.3874548,20.65484 C10.5397603,20.65484 9.85268553,19.9622432 9.85268553,19.1076561 C9.85268553,18.253069 10.5397603,17.5602862 11.3874548,17.5602862 C12.2349642,17.5602862 12.9220389,18.253069 12.9220389,19.1076561"/>
        <path fill="#6C3526" d="M11.3159901,20.1381077 C10.8728056,20.1012833 10.5326916,19.650277 10.5730315,19.1544491 C10.6126313,18.6588072 11.0212123,18.2710348 11.4647669,18.3084172 C11.9079514,18.3452416 12.2476953,18.7956899 12.2084656,19.2913319 C12.1681257,19.7869738 11.7591746,20.1756761 11.3159901,20.1381077"/>
        <path fill="#1B1712" d="M11.3542946,19.9592861 C11.0458233,19.9328766 10.7258793,19.5915997 10.7597427,19.1712805 C10.7945313,18.7498454 11.1648077,18.465107 11.473279,18.4907725 C11.7819352,18.517182 12.1013242,18.8597607 12.0672757,19.2800799 C12.0332273,19.7009571 11.6620256,19.9849516 11.3542946,19.9592861"/>
        <path fill="#FFFFFE" d="M11.1044643 18.9223994C11.0916962 19.0743467 10.936998 19.1853779 10.7597242 19.1706854 10.5822653 19.1554348 10.4482922 19.019668 10.4603202 18.8686507 10.4730883 18.7161455 10.6268613 18.6049282 10.8043202 18.6196208 10.9825192 18.6341274 11.1164923 18.7698942 11.1044643 18.9223994M12.1402118 19.8491582C12.1329185 19.9485446 12.0458161 20.0222276 11.9464193 20.0121911 11.8459807 20.0028889 11.7711726 19.9128047 11.777424 19.8134182 11.7847172 19.7140318 11.8718196 19.6403488 11.9712164 19.6503853 12.0714467 19.6596875 12.1475051 19.7487926 12.1402118 19.8491582"/>
        <path fill="#AE8973" d="M16.7796316 28.3370107L16.7799953 28.3370107 16.7796316 28.3370107zM16.1571473 28.8442104C16.1193291 28.8362104 16.0815109 28.8289377 16.0440564 28.8202104 16.0811473 28.828574 16.1135109 28.8351195 16.1571473 28.8442104M16.0036958 28.8127353C15.9687867 28.804008 15.9371503 28.7938262 15.9029685 28.7843717L15.8993321 28.7861899C15.8993321 28.7861899 15.9382412 28.7967353 16.0036958 28.8127353"/>
        <polygon fill="#AE8973" points="16.78 28.796 16.78 28.796 16.78 28.796"/>
        <path fill="#B18973" d="M16.0915111 28.7390332C16.0507839 28.7303059 16.0104202 28.7223059 15.9700566 28.713215 16.0100566 28.7219423 16.0449657 28.7295786 16.0915111 28.7390332M15.9269328 28.7051031C15.8894782 28.6956486 15.85566 28.6847395 15.8189328 28.6749213L15.8149328 28.6763759C15.8149328 28.6763759 15.8567509 28.6880122 15.9269328 28.7051031M16.0453302 28.5819342C16.0049665 28.5732069 15.9646029 28.5655706 15.9242393 28.556116 15.9638756 28.5648433 15.9987847 28.572116 16.0453302 28.5819342M15.8810229 28.5480972C15.8435684 28.538279 15.8097502 28.5277335 15.7730229 28.5179153L15.7690229 28.5193699C15.7690229 28.5193699 15.8108411 28.5310062 15.8810229 28.5480972M16.1859434 28.5600422C16.1466707 28.5516786 16.1077616 28.5440422 16.0688525 28.5349513 16.107398 28.5436786 16.1408525 28.5509513 16.1859434 28.5600422M16.026984 28.5273954C15.990984 28.5183045 15.9582567 28.5077591 15.9226203 28.4979409L15.918984 28.4997591C15.918984 28.4997591 15.958984 28.5110318 16.026984 28.5273954"/>
        <path fill="#FFFFFE" d="M25.3029302,17.144133 C25.3029302,17.144133 24.3947258,20.9005965 22.8353455,21.2072808 C21.2761502,21.5135931 19.5885332,20.9043162 19.5885332,20.9043162 C19.5885332,20.9043162 19.4271733,16.4894765 20.2256456,15.9127464 C21.0233777,15.3334126 22.8625472,14.4961219 25.3029302,17.144133"/>
        <path fill="#CDAE8E" d="M19.5863867,20.8927481 C19.5863867,20.8927481 19.6221005,20.9031631 19.7022253,20.9368258 C19.7220252,19.5828772 19.8463759,17.7228716 20.3450741,17.3667162 C21.0861822,16.8193713 22.7601059,16.04922 24.9965685,18.1556516 C25.1999337,17.5735281 25.3018939,17.1323789 25.3018939,17.1323789 C22.8568848,14.4795323 21.016235,15.3153352 20.2242393,15.8950409 C19.4250268,16.4741888 19.5863867,20.8927481 19.5863867,20.8927481"/>
        <path fill="#39221A" d="M20.5096353,18.9798865 C20.5096353,19.8344736 21.1967101,20.5270704 22.0444045,20.5270704 C22.8919139,20.5270704 23.5791737,19.8344736 23.5791737,18.9798865 C23.5791737,18.1252994 22.8919139,17.4325166 22.0444045,17.4325166 C21.1967101,17.4325166 20.5096353,18.1252994 20.5096353,18.9798865"/>
        <path fill="#6C3526" d="M22.1155916,20.0102451 C22.5589612,19.9734207 22.8990752,19.5224144 22.8587352,19.0267725 C22.8191354,18.5311306 22.4105545,18.1431722 21.9668148,18.1807406 C21.5238154,18.217379 21.1840714,18.6678273 21.2233011,19.1634693 C21.2636411,19.6591112 21.6725921,20.0478135 22.1155916,20.0102451"/>
        <path fill="#1B1712" d="M22.0772871,19.8314235 C22.3859434,19.805014 22.7058875,19.4637371 22.6720241,19.0436039 C22.6372355,18.6219828 22.266774,18.3374304 21.9583027,18.3629099 C21.6496465,18.3893194 21.3304426,18.7320841 21.364306,19.1524033 C21.3983544,19.5730945 21.7695561,19.857089 22.0772871,19.8314235"/>
        <path fill="#FFFFFE" d="M22.3272099 18.7946298C22.3399781 18.9463911 22.4946763 19.0576083 22.6719501 19.0429158 22.8494089 19.0276652 22.983382 18.8918984 22.9713541 18.7408811 22.9585859 18.5881899 22.8048129 18.4771586 22.6273541 18.4918512 22.449155 18.5063578 22.315367 18.6419387 22.3272099 18.7946298M21.3322736 19.721397C21.3395705 19.8207825 21.4265087 19.8942201 21.5261643 19.8844284 21.6264455 19.8748815 21.7015 19.7850429 21.6950369 19.6856574 21.6879485 19.5860271 21.6008019 19.5123447 21.5013547 19.522626 21.400865 19.5316833 21.3249766 19.6210323 21.3322736 19.721397"/>
        <path fill="#0B0B09" d="M14.7796389 17.2120722C14.7679811 17.19366 14.4848611 16.75995 13.9064082 16.3128494 13.5440886 16.0325746 13.1888009 15.8192533 12.8203748 15.6604247 12.3725642 15.4705371 11.89015 15.3364441 11.4229095 15.2719084 11.0004501 15.224669 10.5320994 15.2371298 9.98565939 15.3113366 9.56838128 15.3914948 9.16165078 15.5164747 8.81617041 15.6700958 8.56987456 15.7554615 8.3753915 15.8756058 8.21902786 15.9723164 8.1592581 16.0093269 8.1050397 16.0428036 8.05008112 16.0725607L7.30508704 16.5447689 8.16369919 16.3414906C8.20348402 16.3312616 8.24678472 16.3197307 8.29341625 16.30727 8.47087509 16.2598446 8.69200473 16.2007023 8.95106875 16.16239 9.01176374 16.1534629 9.07356902 16.1411881 9.13629952 16.1285413 9.24436622 16.1067814 9.35594879 16.0844636 9.47308273 16.0786981 9.60298483 16.069957 9.73788316 16.0602859 9.87648241 16.0502429L10.0567169 16.0372241C10.5320994 16.0310867 10.9336486 16.0675392 11.2904168 16.1503012 11.6801231 16.2181846 12.0811172 16.3450243 12.4484329 16.5164997 12.7953937 16.6840694 13.1281059 16.8499653 13.387725 17.0420847 13.9121446 17.3948924 14.2039617 17.6891159 14.2067374 17.6920916L14.2067374 17.6922776C14.2787202 17.7651825 14.3749439 17.8029368 14.4717229 17.8029368 14.5422253 17.8029368 14.6130978 17.7828508 14.6749031 17.7419348 14.8475507 17.6277418 14.8960327 17.3928466 14.7861155 17.2234171L14.7796389 17.2120722zM25.4561665 16.0691015C25.4069444 16.042692 25.3525409 16.0092153 25.2925861 15.9722049 25.1364075 15.8754942 24.9421095 15.7555359 24.7032155 15.6729599 24.3503333 15.5165491 23.9436028 15.3913832 23.5213285 15.3104811 22.9796996 15.2370182 22.5111639 15.2245574 22.086854 15.2721688 21.6218341 15.3365185 21.1394199 15.4706115 20.6910541 15.6604991 20.3278094 15.8170959 19.9627141 16.0365546 19.6055759 16.3129238 19.0374855 16.7518412 18.7549207 17.1779259 18.7338255 17.2108447L18.7284592 17.21847C18.6326055 17.3672555 18.6531456 17.5664422 18.7771262 17.692166 18.8476286 17.763769 18.9416318 17.8031972 19.0413715 17.8031972L19.0415565 17.8031972C19.1412962 17.8030112 19.2349293 17.7635831 19.3054317 17.69198L19.3083925 17.6888183C19.3359643 17.661293 19.6192693 17.3821341 20.1277749 17.0395553 20.3833231 16.8504117 20.7162203 16.6841438 21.0622558 16.516946 21.431052 16.3449127 21.831861 16.218073 22.2267486 16.1492597 22.5783354 16.0674276 22.9806249 16.0319051 23.4497158 16.0369266L23.6390175 16.0505033C23.7765065 16.0603603 23.9101095 16.0700314 24.0409368 16.0787725 24.1562203 16.084352 24.2676179 16.1068558 24.3756846 16.1284297 24.4387852 16.1412625 24.5002203 16.1535373 24.5609153 16.1622784 24.8199793 16.2007767 25.041109 16.259733 25.2187529 16.3073443 25.2651994 16.3198051 25.3085001 16.331336 25.3497653 16.341565L26.2078223 16.5450293 25.4561665 16.0691015z"/>
        <path fill="#B28B73" d="M15.8900359 29.2897155C15.8503996 29.2813518 15.8111268 29.2733518 15.7718541 29.2642609 15.8107632 29.2729882 15.8445814 29.2802609 15.8900359 29.2897155M15.7296146 29.2565191C15.693251 29.2470645 15.6601601 29.2368827 15.6241601 29.2270645L15.6205237 29.2285191C15.6205237 29.2285191 15.661251 29.2397918 15.7296146 29.2565191"/>
        <path fill="#ECCEA7" d="M14.4693543,30.0521735 C14.4243882,29.4482901 16.1379116,30.1786412 16.7004506,30.1961235 C17.1491864,30.211374 18.4977997,30.1066662 18.6223354,30.0588688 C19.5649584,29.7034573 18.5708927,31.0683789 16.6725087,31.1403539 C15.8029788,31.1751325 14.4952607,30.4185579 14.4693543,30.0521735"/>
        <path fill="#D5BA96" d="M20.0477427,28.8878706 C19.5825377,28.8648089 19.1049347,29.255557 18.5453564,29.1958568 C18.5225958,29.1843259 18.511308,29.1843259 18.4874371,29.1843259 C18.3588303,29.1614501 18.2315189,29.1843259 18.0916243,29.2187325 C17.9174963,29.255557 17.742443,29.3266021 17.5786776,29.3840705 C17.2990735,29.4759456 16.9839406,29.5494085 16.6597405,29.5239289 L16.6597405,29.5263467 C16.6530789,29.5263467 16.6484527,29.5241149 16.641606,29.5241149 C16.6349444,29.5241149 16.6303182,29.5263467 16.6236566,29.5263467 L16.6236566,29.5239289 C16.2994565,29.5494085 15.9843236,29.4759456 15.7047195,29.3840705 C15.5409541,29.3266021 15.3657158,29.255557 15.1917728,29.2187325 C15.0518782,29.1843259 14.9243817,29.1614501 14.79596,29.1843259 C14.7720891,29.1843259 14.7608013,29.1843259 14.7378556,29.1958568 C14.1784624,29.255557 13.7008594,28.8648089 13.2356544,28.8878706 C13.1070477,28.8992155 12.9203365,28.8648089 12.8157857,28.8648089 C12.8387314,28.8763398 12.8626023,28.8878706 12.8864732,28.8992155 C14.2125108,29.5508963 15.3566485,30.7716819 16.6236566,30.7326257 L16.641606,30.7326257 L16.6597405,30.7326257 C17.9267486,30.7716819 19.0710713,29.5508963 20.3969239,28.8992155 C20.4207948,28.8878706 20.4446657,28.8763398 20.4676114,28.8648089 C20.3628755,28.8648089 20.1763494,28.8992155 20.0477427,28.8878706"/>
        <path fill="#BB987C" d="M20.4373564,28.8505627 L20.4375415,28.8505627 C20.4375415,28.8505627 19.0891133,28.3270235 18.1300213,28.6340797 C18.1300213,28.6340797 17.7732531,28.774496 17.4031617,28.8600477 C17.1781461,28.9483892 16.9057588,28.9740547 16.6416985,28.9634537 C16.4398137,28.9552705 16.2481063,28.929419 16.0906324,28.9017077 C16.0382644,28.8937105 15.9860815,28.8829235 15.9326033,28.8713926 C15.9094726,28.8665571 15.8922634,28.8628375 15.8724635,28.8583739 C15.8400805,28.8507486 15.8086227,28.8446112 15.7766098,28.8362421 C15.7418212,28.8276869 15.7210961,28.8221074 15.7210961,28.8221074 L15.7231316,28.8211775 C15.4165108,28.7374856 15.1531907,28.6340797 15.1531907,28.6340797 C14.1942838,28.3270235 12.8458556,28.8505627 12.8458556,28.8505627 L12.8460407,28.8505627 C12.827351,28.8591178 12.8158782,28.8648833 12.8158782,28.8648833 C12.920429,28.8648833 13.1069551,28.8992899 13.235747,28.887945 C13.7007669,28.8648833 14.1783699,29.2556314 14.7379481,29.1959312 C14.7607088,29.1844003 14.7719966,29.1844003 14.7958675,29.1844003 C14.9244742,29.1613385 15.0517857,29.1844003 15.1916803,29.2188069 C15.3658083,29.2556314 15.5408615,29.3266765 15.704627,29.3841449 C15.9844161,29.475834 16.299364,29.5492969 16.6235641,29.5240033 L16.6235641,29.5262351 C16.6304108,29.5262351 16.6348519,29.5241893 16.6416985,29.5241893 C16.6485452,29.5241893 16.6529863,29.5262351 16.659833,29.5262351 L16.659833,29.5240033 C16.9840331,29.5492969 17.298981,29.475834 17.5787701,29.3841449 C17.7425356,29.3266765 17.9175888,29.2556314 18.0915318,29.2188069 C18.2314264,29.1844003 18.3589229,29.1613385 18.4875296,29.1844003 C18.5114005,29.1844003 18.5225033,29.1844003 18.545449,29.1959312 C19.1050272,29.2556314 19.5826302,28.8648833 20.0478352,28.887945 C20.176442,28.8992899 20.362968,28.8648833 20.4673338,28.8648833 C20.4673338,28.8648833 20.456046,28.8591178 20.4373564,28.8505627"/>
        <path fill="#BB987C" d="M14.3770165,29.1694845 C14.4016275,29.1756219 16.9036308,29.9437274 18.8604893,29.1862229 L18.6349186,29.0333457 L15.989875,29.0333457 L14.3770165,29.1694845 Z"/>
        <path fill="#5C9E9E" d="M26.5819847,45.5239195 L28.651166,45.5239195 C28.7259245,42.3201943 27.0379374,39.8570493 27.0379374,39.8570493 C26.4637405,39.0636502 25.8379159,38.4621846 25.2180127,38.0035531 C25.1693457,37.9553838 25.1084656,37.9152117 25.0559126,37.8744816 C24.240046,37.2823151 23.4604484,36.9469896 22.8868067,36.7578459 C22.7733736,36.7171159 22.6703032,36.6860569 22.57667,36.653696 C22.1577265,36.5370854 21.8973672,36.5132797 21.8973672,36.5132797 C21.6668002,36.5132797 21.4591789,36.4249382 21.2802397,36.2746648 C21.2802397,36.2746648 21.2802397,36.2668536 21.2704323,36.2668536 C21.2102924,36.2097571 21.1484871,36.1422457 21.0926033,36.0689688 C21.0657717,36.0851492 21.022286,36.1500569 20.9791703,36.2746648 C20.860741,36.5636808 20.3468691,37.6678557 19.5828153,38.6782956 C18.8539202,39.6420541 17.8976039,40.5204469 16.8343311,40.5206329 C14.6546776,40.5213768 12.9206141,36.839492 12.6881967,36.2746648 C12.6469315,36.1500569 12.6027055,36.0851492 12.5795748,36.0689688 C12.5181396,36.1422457 12.4570746,36.2097571 12.3965646,36.2668536 C12.3880525,36.2668536 12.3880525,36.2746648 12.3880525,36.2746648 C12.2081881,36.4249382 12.0037125,36.5132797 11.7698147,36.5132797 C11.7698147,36.5132797 11.4968723,36.5448966 11.0522074,36.6695045 C10.9557986,36.6936822 10.8516179,36.726229 10.7415157,36.7669591 C10.2698341,36.9285774 9.66510468,37.190068 9.02447639,37.5997863 C8.8832865,37.6901735 8.74080129,37.7853963 8.59683572,37.890662 C8.54502292,37.9232089 8.48488306,37.962823 8.43307025,38.0156419 C7.9917362,38.3439001 7.54799656,38.7515725 7.11850543,39.2472144 C6.95344465,39.4378459 6.78986423,39.6387065 6.62998472,39.8570493 C6.62998472,39.8570493 4.97104981,43.4295767 4.9912198,45.5239195 L7.10629242,45.5239195 C7.09889059,46.9602582 7.05447961,48.0530881 7.00895836,48.7272727 L16.8113855,48.7272727 L20.4018276,48.7272727 L26.6628497,48.7272727 C26.6165883,48.054576 26.5653306,46.9598862 26.5581138,45.5239195 L26.5819847,45.5239195 Z"/>
        <mask id="avatar4-k" fill="#fff">
          <use xlink:href="#avatar4-j"/>
        </mask>
        <polygon fill="#498E8C" points="4.169 46.91 8.737 46.91 8.737 43.562 4.169 43.562" mask="url(#avatar4-k)"/>
        <polygon fill="#498E8C" points="25.196 46.91 29.764 46.91 29.764 43.562 25.196 43.562" mask="url(#avatar4-k)"/>
        <path fill="#373734" d="M5.00274814,22.0838323 C5.03809188,22.1664083 5.06455342,22.2504722 5.09212523,22.3339781 L5.40910855,22.3339781 C5.78049532,22.3339781 6.10969166,22.0313854 6.08397031,21.6590495 C6.08174976,21.6261307 6.08211985,21.5954437 6.08545067,21.5669885 C6.06620592,21.5867026 6.04788639,21.6066026 6.02938182,21.6263167 C6.09673846,20.9034049 6.06879656,19.9880017 5.85210802,18.9050287 C5.46425218,16.9741641 7.37781001,9.65633199 11.9941457,11.0829996 C12.4391806,11.2196963 12.8262963,11.3803847 13.1795486,11.5455367 C8.77101926,15.9732092 11.5032194,22.2679545 11.5032194,22.2679545 C11.4138423,17.7928566 14.5610999,14.5651398 16.3834302,13.0761682 C15.2966567,15.6985138 16.2751785,18.4406318 16.2751785,18.4406318 C16.4942726,13.9275936 21.1746341,11.4573813 21.1746341,11.4573813 L20.8165706,10.6944833 C21.8929816,10.4815339 22.9766094,10.5613202 23.9062791,11.0872772 C25.8074388,12.1652286 26.8790386,14.5848539 26.5466965,18.4475131 C26.3914431,20.2543278 26.3999552,21.3936533 26.4728633,22.1128455 C26.4573194,22.1857505 26.4399251,22.2601432 26.4229009,22.3339781 L27.1621586,22.3339781 C27.1554969,22.324121 27.1503157,22.314078 27.143469,22.3044069 C27.2235938,21.9203542 27.3731107,21.4903639 27.6924996,21.1260253 C28.4826449,20.221781 29.6896981,17.1731647 29.6896981,14.1319878 C29.6896981,11.089323 28.657328,8.38477335 25.9654679,5.50651659 C23.2730526,2.62918973 19.3130741,1.23265121 19.3130741,1.23265121 L20.4096551,2.27117446 C19.753668,1.76418765 18.5830687,1.05782817 16.629171,0.436276475 C13.8458982,-0.446765857 12.0452183,0.537636641 12.0452183,0.537636641 C12.0452183,0.537636641 13.496902,0.487049549 14.2085878,1.06080389 C13.5063393,0.756909368 12.2970655,0.651271617 10.2772914,1.49079417 C6.31934847,3.13506065 6.39077612,6.08213074 3.63637052,6.98544511 C0.817754061,7.91330909 3.70091447e-05,6.72321055 3.70091447e-05,6.72321055 C3.70091447e-05,6.72321055 1.2230042,8.80862623 3.39544099,8.81327578 C3.74591759,8.81327578 3.78126132,8.80620847 3.78348187,8.8037907 C3.78070619,8.81290382 2.96928069,11.0409677 2.81291705,12.7051342 C2.65359268,14.4051953 3.15099559,15.5694423 3.30476859,18.7523375 C3.43670619,21.4728816 4.15116772,20.0783889 5.00274814,22.0838323" mask="url(#avatar4-k)"/>
        <path fill="#494845" d="M19.745415,30.9736397 C19.4149233,31.1227972 19.025032,31.2494509 18.5938754,31.3495092 C18.5959109,31.3359325 18.5996118,31.3216119 18.5996118,31.3074773 C18.5996118,30.898503 17.6135032,30.5665252 16.3857248,30.5564822 C15.1581315,30.5665252 14.1720228,30.898503 14.1720228,31.3074773 C14.1720228,31.3216119 14.1757237,31.3359325 14.1777592,31.3495092 C13.7466027,31.2494509 13.3565263,31.1227972 13.0260346,30.9736397 C12.8361777,30.5425335 12.7212643,30.0255037 12.7212643,29.465326 C12.7212643,29.2815759 12.7373633,29.1035911 12.760494,28.929884 C13.4372062,28.2642545 14.4347877,29.1166099 15.5909534,28.9646626 C15.8496473,28.9309999 16.1137076,28.9118437 16.3857248,28.9116577 C16.657742,28.9118437 16.9219873,28.9309999 17.1806812,28.9646626 C18.337032,29.1166099 19.3344284,28.2642545 20.0113257,28.929884 C20.0342713,29.1035911 20.0501853,29.2815759 20.0501853,29.465326 C20.0501853,30.0255037 19.9354569,30.5425335 19.745415,30.9736397 M27.3939098,30.0666057 C27.2791815,29.5309777 27.2225575,29.2261532 27.2127501,29.0107861 L27.0064241,29.0107861 C27.7286576,28.0100172 28.1335376,26.8926376 28.1335376,25.7118382 C28.1335376,24.6461616 27.9238808,23.6368375 27.4018668,22.7167847 L26.34211,22.7167847 C26.3245306,22.8144253 26.3108372,22.9066723 26.3108372,22.9801352 C26.3108372,26.5935786 24.1517237,29.2988722 20.9421056,30.8131373 C21.0919927,30.4155078 21.1813698,29.9578062 21.1813698,29.465326 C21.1813698,28.5460172 20.8810406,27.734392 20.4232374,27.2474912 C19.6701013,26.1656341 18.1473601,27.0815953 16.3857248,27.084013 C14.6240895,27.0815953 13.1015333,26.1656341 12.3483972,27.2474912 C11.8905941,27.734392 11.5902649,28.5460172 11.5902649,29.465326 C11.5902649,29.9578062 11.679642,30.4155078 11.829529,30.8131373 C8.61991092,29.2988722 6.46061237,26.5935786 6.46061237,22.9801352 C6.46061237,22.9064863 6.43988725,22.8147972 6.4117603,22.7167847 L5.19786036,22.7167847 C5.20285659,22.7391026 5.21044346,22.7632802 5.21488456,22.7850401 C4.76596364,23.6866806 4.63809704,24.672571 4.63809704,25.7118382 C4.63809704,26.8926376 5.04297708,28.0100172 5.7650255,29.0107861 L5.55869952,29.0479825 C5.54907714,29.2633496 5.49245315,29.5309777 5.3777248,30.0666057 C5.06684798,31.5358632 4.140139,31.9214037 4.140139,31.9214037 C4.140139,31.9214037 5.57165272,31.3601102 5.91657795,30.9794051 C6.08459946,30.7943531 6.53166993,30.2821588 6.66619817,30.1272358 C6.66878881,30.1348611 6.6736,30.1376508 6.67637569,30.1406265 C6.59828639,30.3087542 6.40879957,30.8560991 6.6736,31.9106168 C7.01945046,33.2872552 8.43764088,34.2153052 8.43764088,34.2153052 C8.43764088,34.2153052 8.25204002,33.9761324 8.07828209,33.598775 C8.18579365,33.8241851 8.30533319,34.0347167 8.43764088,34.2153052 C8.43764088,34.2153052 10.5034913,35.918528 13.0665597,36.5687209 C13.0806231,36.5737424 13.092281,36.5767181 13.100238,36.5772761 C13.0821035,36.536546 13.0565672,35.0477604 13.0391729,34.5048791 C14.0476721,34.7862698 15.0989168,34.9473302 16.192167,34.9473302 C16.2565629,34.9473302 16.3209588,34.9450984 16.3857248,34.9432386 C16.4506758,34.9450984 16.5152568,34.9473302 16.5794677,34.9473302 C17.6727178,34.9473302 18.7237775,34.7862698 19.7324618,34.5048791 C19.7152525,35.0477604 19.6895311,36.8688958 19.6715817,36.9098118 C19.6882358,36.9085099 19.7193235,36.8951192 19.7631793,36.8709416 C20.2561412,36.6596661 22.6356441,35.6027306 24.3561992,34.1851761 C24.3423208,34.2048902 24.3339938,34.2153052 24.3339938,34.2153052 C24.3339938,34.2153052 25.5863832,33.3954967 26.0243864,32.1540672 C26.1109878,31.9360963 26.1663165,31.7153357 26.184451,31.4932733 C26.3108372,30.7089874 26.1624306,30.2847625 26.095259,30.1406265 C26.0980346,30.1376508 26.1030309,30.1348611 26.1054365,30.1272358 C26.2399647,30.2821588 26.6870352,30.7943531 26.8552417,30.9794051 C27.1999819,31.3601102 28.6314956,31.9214037 28.6314956,31.9214037 C28.6314956,31.9214037 27.7046016,31.5358632 27.3939098,30.0666057" mask="url(#avatar4-k)"/>
        <polygon fill="#F1F0EB" points="18.837 44.337 16.705 46.132 14.502 44.337 14.502 41.843 16.715 43.805 18.837 42.039" mask="url(#avatar4-k)"/>
      </g>
    </g>
  </g>
</svg>
