<svg xmlns="http://www.w3.org/2000/svg" xmlns:xlink="http://www.w3.org/1999/xlink" width="40" height="50" viewBox="0 0 40 50">
  <defs>
    <rect id="avatar3-a" width="40" height="40" y="10" rx="20"/>
    <rect id="avatar3-b" width="40" height="50" rx="20"/>
    <polygon id="avatar3-d" points=".165 .153 10.761 .153 10.761 19.337 .165 19.337"/>
    <polygon id="avatar3-f" points=".047 .02 5.755 .02 5.755 3.385 .047 3.385"/>
    <polygon id="avatar3-h" points="0 .135 13.363 .135 13.363 27.235 0 27.235"/>
    <path id="avatar3-j" d="M7.79835108,3.26426824 C7.78545957,3.44084813 7.76340828,3.62658777 7.72744773,3.81809467 C5.8681854,2.88498619 3.24136884,2.36695069 0.331108481,4.2173925 C0.243072978,3.91206706 0.195238659,3.610643 0.171321499,3.3351716 C0.126370809,2.97488757 0.112461538,2.54454832 0.197274162,2.1325286 C0.427794872,0.188284024 3.82013018,0.116362919 4.30220513,0.116362919 C4.34104931,0.115345168 4.38108087,0.114327416 4.4209428,0.114327416 C4.84619329,0.098382643 5.2144497,0.112461538 5.53181854,0.147404339 C5.67650888,0.160295858 5.87123866,0.186248521 6.08564497,0.238153846 C7.3462998,0.523633136 7.52084418,1.18737673 7.53492308,1.25115582 C7.5868284,1.35903748 7.62770809,1.47777515 7.6546785,1.60753846"/>
    <path id="avatar3-l" d="M7.68470217,3.34416174 L7.68470217,3.34517949 C7.66366864,3.50886785 7.63669822,3.65644181 7.61091519,3.781286 C4.6077002,2.26025641 1.96680473,3.1645286 0.248161736,4.22841815 C0.165384615,3.94785799 0.0924457594,3.62048126 0.0575029586,3.26325049 C-0.00339250493,2.39290335 0.177258383,1.74815779 0.177258383,1.74815779 C0.184213018,1.69727022 0.192185404,1.6494359 0.202362919,1.6024497 C0.236118343,1.48778304 0.27513215,1.37294675 0.32008284,1.25607495 C0.32008284,1.25607495 0.32008284,1.25522682 0.321100592,1.25115582 C0.613534517,0.637451677 1.25420907,0.360962525 1.77716371,0.236118343 C1.93593294,0.200327416 2.11268245,0.170303748 2.30826036,0.148422091 C2.31419724,0.147404339 2.31911637,0.147404339 2.32522288,0.147404339 C2.4799211,0.133325444 2.57558974,0.133325444 2.57558974,0.133325444 C2.8870217,0.117380671 3.17843787,0.111443787 3.44983826,0.114327416 C3.46595266,0.115345168 3.48087968,0.115345168 3.49580671,0.116362919 L3.54974753,0.116362919 L3.55076529,0.116362919 C5.91008284,0.164366864 6.80027613,0.88781854 6.80027613,0.88781854 C7.31033925,1.1683787 7.55680473,1.63552663 7.65874951,2.1304931 C7.65976726,2.13354635 7.65976726,2.13642998 7.65976726,2.13948323"/>
  </defs>
  <g fill="none" fill-rule="evenodd" transform="translate(0 -2)">
    <use fill="#E55E8D" xlink:href="#avatar3-a"/>
    <rect width="39" height="39" x=".5" y="10.5" stroke="#FFF" rx="19.5"/>
    <mask id="avatar3-c" fill="#fff">
      <use xlink:href="#avatar3-b"/>
    </mask>
    <g mask="url(#avatar3-c)">
      <g transform="translate(6 4)">
        <g transform="translate(2.714 26.6)">
          <path fill="#313431" d="M4.06778304,10.4625191 C4.06778304,10.4625191 3.2337357,10.1378564 2.28145957,9.15436923 C1.29797239,8.2020931 0.973309665,7.36821538 0.973309665,7.36821538 C0.973309665,7.36821538 1.51611045,7.10597475 2.22175148,6.79556055 L4.64026824,9.21407732 C4.32985404,9.91971834 4.06778304,10.4625191 4.06778304,10.4625191"/>
          <path fill="#BB2446" d="M4.64026824,9.21400947 L2.22175148,6.7954927 C2.71162919,6.58023826 3.27953452,6.34174517 3.79994477,6.15108639 L5.28467456,7.63581617 C5.0941854,8.15639606 4.85586193,8.72413176 4.64026824,9.21400947"/>
          <path fill="#313431" d="M16.6607953,10.4625191 C16.6607953,10.4625191 17.494673,10.1378564 18.4471187,9.15436923 C19.4304363,8.2020931 19.755099,7.36821538 19.755099,7.36821538 C19.755099,7.36821538 19.2124679,7.10597475 18.5066572,6.79556055 L16.0881404,9.21407732 C16.3985546,9.91971834 16.6607953,10.4625191 16.6607953,10.4625191"/>
          <path fill="#BB2446" d="M16.0881404,9.21400947 L18.5066572,6.7954927 C18.0169491,6.58023826 17.4488742,6.34174517 16.9284639,6.15108639 L15.4439037,7.63581617 C15.6343929,8.15639606 15.8727164,8.72413176 16.0881404,9.21400947"/>
          <path fill="#313431" d="M3.12887337,4.8181712 C3.12887337,6.63333097 4.593757,8.10499961 6.40060513,8.10499961 L14.2015006,8.10499961 C16.0083487,8.10499961 17.4730627,6.63333097 17.4730627,4.8181712 C17.4730627,3.35990296 16.527402,2.12401341 15.2185736,1.69418304 C14.8487905,0.772609073 14.0356071,0.132273767 13.0913034,0.132273767 L7.51080237,0.132273767 C6.56649862,0.132273767 5.75348481,0.772439448 5.38336252,1.69418304 C4.07470375,2.12401341 3.12887337,3.35990296 3.12887337,4.8181712"/>
          <path fill="#D8B892" d="M10.6818276,1.14439369 L10.6818276,20.1853365 L0.379638264,20.1853365 C0.212048521,20.119013 0.128253649,20.0842398 0.128253649,20.0842398 C0.128253649,18.8697231 0.219003156,17.7842911 0.376076134,16.8245515 C0.449354241,16.3814903 0.536541617,15.962516 0.63780789,15.5716994 C0.749421302,15.1076047 0.88223787,14.6782832 1.02879408,14.280512 C1.06000513,14.2002793 1.08799329,14.1198769 1.11937396,14.0430367 C1.15431677,13.9558493 1.18925957,13.8722241 1.22403274,13.7884292 C1.25897554,13.7046343 1.29391834,13.6244016 1.33242327,13.5441688 C1.40213925,13.3799716 1.47880986,13.2264607 1.5556501,13.076512 C1.68812742,12.8181728 1.82789862,12.5739124 1.97445483,12.3469538 C2.01295976,12.2841925 2.05129507,12.2248237 2.08963037,12.169017 C2.27808402,11.8899834 2.47349231,11.6316442 2.67246272,11.397731 C2.72826943,11.3349696 2.78407613,11.2686462 2.84005247,11.2092773 C2.89585917,11.146516 2.95166588,11.0871471 3.00747258,11.0279479 C3.06327929,10.9721412 3.12264813,10.9126028 3.17862446,10.8603582 C3.23443116,10.8045515 3.29023787,10.7521373 3.34604458,10.7032852 C3.45765799,10.5986264 3.57283353,10.5009223 3.68444694,10.4137349 C4.23250611,9.97389665 4.75936213,9.67722209 5.20615503,9.48181381 C5.26196174,9.45738777 5.31776844,9.43296174 5.37357515,9.4085357 C5.54811953,9.33881972 5.7051925,9.28284339 5.84479408,9.24094596 C6.20779211,9.12577041 6.43101893,9.10134438 6.43101893,9.10134438 C6.473086,9.10134438 6.50785917,9.09795187 6.54619448,9.09099724 C6.8708572,9.03858304 7.13258895,8.75598738 7.34546864,8.30919448 C7.50254162,7.97418462 7.63162643,7.54842525 7.73984734,7.05634241 C7.78157515,6.86093412 7.81651795,6.66891834 7.84806824,6.45960079 C7.90048245,6.10711953 7.94933452,5.73716686 7.99106233,5.35313531 C8.00853373,5.11939172 8.03295976,4.89260276 8.0573858,4.64834241 C8.15169744,3.48267771 8.17612347,2.20879211 8.17612347,1.00139961 C8.17612347,1.00139961 9.55806036,1.14439369 10.6818276,1.14439369"/>
          <g transform="translate(10.517 .848)">
            <mask id="avatar3-e" fill="#fff">
              <use xlink:href="#avatar3-d"/>
            </mask>
            <path fill="#EBCDA6" d="M10.7605168,19.2360627 C10.7605168,19.2360627 10.6697673,19.2710055 10.5162564,19.337329 L0.165045365,19.337329 L0.165045365,0.296216568 L0.1894714,0.296216568 C1.30628402,0.296216568 2.70586193,0.153222485 2.70586193,0.153222485 C2.70586193,1.35026785 2.73011834,2.61007456 2.82086785,3.77573925 C2.84868639,4.00252821 2.87328205,4.23644142 2.89058383,4.46323037 C2.93265089,4.86456371 2.98150296,5.24147101 3.04070217,5.59395227 L3.04070217,5.6009069 C3.05817357,5.76154201 3.08955424,5.90453609 3.11754241,6.05465444 C3.21863905,6.55012978 3.34093886,6.98640592 3.4910572,7.33549467 C3.67577909,7.77177081 3.89934517,8.0754 4.17498619,8.19396805 C4.25878107,8.23230335 4.3530927,8.25316726 4.45079684,8.25316726 C4.45079684,8.25316726 4.84500592,8.29862682 5.43835503,8.53237041 C5.75250099,8.65467022 6.12228402,8.82904497 6.51666272,9.07686746 C6.59689546,9.12571953 6.68069034,9.18169586 6.7610927,9.23750256 C6.82741617,9.2794 6.89357002,9.32808245 6.96006312,9.37693452 C7.01586982,9.41900158 7.07863116,9.46429152 7.13443787,9.50975108 C7.25656805,9.6038931 7.38226036,9.70855187 7.50778304,9.82372742 C7.55663511,9.86562485 7.60209467,9.91091479 7.65094675,9.95637436 C7.70675345,10.0052264 7.75916765,10.0576406 7.81497436,10.1168398 C7.85330966,10.1517826 7.88825247,10.1867254 7.92302564,10.2250607 C7.99647337,10.301901 8.07314398,10.3856959 8.14659172,10.4728832 C8.1847574,10.5147807 8.22326233,10.5566781 8.25820513,10.601968 C8.42562525,10.7973763 8.58965286,11.010256 8.74672584,11.2441692 C8.81661144,11.3418734 8.87937278,11.4431396 8.94569625,11.5477984 C9.0783432,11.7606781 9.20742801,11.9874671 9.33312032,12.2283349 C9.48663116,12.528402 9.63318738,12.8495026 9.76922682,13.1950292 C9.80077712,13.2716998 9.83215779,13.3521022 9.85997633,13.4323349 C10.0067022,13.8301061 10.1393491,14.2594276 10.2545247,14.7235223 C10.3556213,15.1145085 10.4428087,15.5333132 10.5126943,15.976544 C10.6697673,16.936114 10.7605168,18.021546 10.7605168,19.2360627" mask="url(#avatar3-e)"/>
          </g>
        </g>
        <g transform="translate(10.517 31.18)">
          <mask id="avatar3-g" fill="#fff">
            <use xlink:href="#avatar3-f"/>
          </mask>
          <path fill="#B39078" d="M5.75458738,1.82728797 L5.75458738,1.83559961 C5.49489112,2.23557594 4.62301736,3.38512623 2.89640197,3.38512623 L2.8797787,3.38512623 C1.24526982,3.3768146 0.289601183,2.19384813 0.0466978304,1.84391124 C0.0969069034,1.49414398 0.147115976,1.12758383 0.189013412,0.744230769 C0.205975937,0.519307692 0.231080473,0.286072978 0.25618501,0.0445266272 C1.05240592,0.244345168 1.92411006,0.369358974 2.8461929,0.385982249 L2.8797787,0.385982249 C3.83527771,0.369358974 4.71529349,0.236033531 5.53678856,0.0194220907 C5.5618931,0.244345168 5.58699763,0.477579882 5.60362091,0.702672584 C5.64568797,1.10247929 5.69589704,1.47735108 5.75458738,1.82728797" mask="url(#avatar3-g)"/>
        </g>
        <g transform="translate(0 .138)">
          <g transform="translate(0 5.767)">
            <mask id="avatar3-i" fill="#fff">
              <use xlink:href="#avatar3-h"/>
            </mask>
            <path fill="#C8A07F" d="M13.2790615,0.134512821 C2.36605168,0.134512821 2.30736134,9.25678895 2.79367692,15.2299724 C2.04749546,13.8137712 -0.173577515,14.2469941 0.0108051282,16.4796016 C0.186706509,18.6289231 3.36005562,19.7243629 3.27134162,19.4870572 C4.92383077,23.9046075 9.29778738,27.2346903 13.2790615,27.2346903 L13.3628564,27.2346903 L13.3628564,0.134512821 L13.2790615,0.134512821" mask="url(#avatar3-i)"/>
          </g>
          <path fill="#A2806C" d="M0.706573964,21.3055247 C1.24292899,20.4390789 2.08121696,20.8139507 2.28222288,21.0056272 C2.50019132,21.2137574 2.6760927,21.4804083 2.54208876,21.9886055 C2.46660552,22.2801913 2.16501183,22.3052959 2.23201381,22.7383491 C2.31563905,23.2299231 2.54208876,23.254858 2.6760927,23.3715602 C2.80195464,23.4797811 2.96123274,23.5632367 3.03654635,23.7715365 C3.12034122,23.9796667 3.12882249,24.1962781 3.08692505,24.3879546 C3.00296055,24.7377219 2.49171006,24.4544477 2.14821893,24.3046686 C1.92176923,24.1962781 1.20103156,23.5881716 1.01664892,23.3881834 C0.563919132,22.8716746 0.346120316,21.8719034 0.706573964,21.3055247"/>
          <path fill="#D4AF90" d="M13.337701,5.9017712 C24.2507108,5.9017712 24.3095708,15.0240473 23.8317365,20.9972308 C24.5777483,19.5810296 26.7905097,20.0142525 26.606127,22.24686 C26.4383677,24.3961815 23.2587424,25.4924694 23.3455905,25.2543156 C21.7358469,29.6718659 17.3191448,33.0019487 13.337701,33.0019487 L13.2790107,33.0019487 L13.2539061,5.9017712 L13.337701,5.9017712"/>
          <path fill="#A2806C" d="M25.9103412,21.3055247 C25.3739862,20.4390789 24.5441795,20.8139507 24.3346923,21.0056272 C24.1167239,21.2137574 23.9489645,21.4804083 24.0748264,21.9886055 C24.15014,22.2801913 24.4519034,22.3052959 24.3849014,22.7383491 C24.3011065,23.2299231 24.0748264,23.254858 23.9489645,23.3715602 C23.8232722,23.4797811 23.6556824,23.5632367 23.5803688,23.7715365 C23.504716,23.9796667 23.4880927,24.1962781 23.5299901,24.3879546 C23.613785,24.7377219 24.1252051,24.4544477 24.4686963,24.3046686 C24.7034576,24.1962781 25.4158836,23.5881716 25.6002663,23.3881834 C26.0613077,22.8716746 26.2707949,21.8719034 25.9103412,21.3055247"/>
          <path fill="#D8B892" d="M13.1932481,8.47597002 C9.60601341,8.47597002 6.97393846,9.51729941 5.38980828,11.5667116 C3.16856568,14.4410114 3.25253018,18.8229404 4.06537436,21.9718635 C4.31709822,22.9383882 4.45110217,25.5292442 4.61869191,26.4789759 C5.39828955,30.7358911 10.100471,33.0019148 13.1932481,33.0019148 L13.277043,33.0019148 L13.277043,8.47597002 L13.2268339,8.47597002"/>
          <path fill="#EBCDA6" d="M20.9882237,11.5751081 C19.4125748,9.5340075 16.8142552,8.49267811 13.27706,8.47588521 L13.27706,33.0019996 C16.8142552,32.9604414 21.046914,30.4776367 21.7678213,26.4788911 C21.9437227,25.5291594 22.069415,22.9383034 22.3209692,21.9719483 C23.1422947,18.8311673 23.2260895,14.4575499 20.9882237,11.5751081"/>
          <path fill="#D3AE8F" d="M11.1443278,25.448757 C11.1017519,24.5784099 12.743385,25.1307097 13.2844895,25.1580193 C13.7121148,25.179901 15.0133101,24.8835657 15.1249235,24.959897 C15.8902726,25.4760667 14.3141148,26.5155302 13.2573495,26.5155302 C12.9757716,26.5155302 11.1697716,25.9739168 11.1443278,25.448757"/>
          <path fill="#FFFFFE" d="M5.44829507,18.0486012 C5.44829507,18.0486012 6.28081578,21.4640055 7.71024773,21.7428694 C9.13967968,22.0213941 10.6866619,21.467398 10.6866619,21.467398 C10.6866619,21.467398 10.8344055,17.4535558 10.1024726,16.9290746 C9.37138777,16.4022185 7.68531282,15.6411101 5.44829507,18.0486012"/>
          <path fill="#CDAE8E" d="M10.68846,21.4569321 C10.68846,21.4569321 10.6557223,21.4664312 10.5822746,21.4969637 C10.5641247,20.2659933 10.4503061,18.5748296 9.99299645,18.2508454 C9.31364734,17.7533345 7.77921736,17.0531215 5.72912663,18.9683602 C5.54287811,18.4391294 5.44924497,18.0379657 5.44924497,18.0379657 C7.69050335,15.6258947 9.37776568,16.3858158 10.1037617,16.9128414 C10.8363732,17.4395278 10.68846,21.4569321 10.68846,21.4569321"/>
          <path fill="#39221A" d="M9.84214872,19.7176966 C9.84214872,20.4945803 9.21233018,21.1243988 8.43527692,21.1243988 C7.65839329,21.1243988 7.02857475,20.4945803 7.02857475,19.7176966 C7.02857475,18.9406434 7.65839329,18.3108249 8.43527692,18.3108249 C9.21233018,18.3108249 9.84214872,18.9406434 9.84214872,19.7176966"/>
          <path fill="#6C3526" d="M8.37002209,20.6546047 C7.9636,20.6210189 7.65199842,20.2110347 7.6888071,19.7603404 C7.7251069,19.3096462 8.09980907,18.9569953 8.50640079,18.9909203 C8.91265325,19.0245061 9.22391558,19.4339815 9.18795503,19.8845061 C9.15097673,20.33537 8.77627456,20.6886994 8.37002209,20.6546047"/>
          <path fill="#1B1712" d="M8.40515148,20.4920189 C8.12238619,20.4679321 7.82893452,20.1576876 7.85997594,19.7755219 C7.89203511,19.3923385 8.23145523,19.1334903 8.51422051,19.156729 C8.79715542,19.1808158 9.08975897,19.4922477 9.05871755,19.8744134 C9.02750651,20.257088 8.68723826,20.5152576 8.40515148,20.4920189"/>
          <path fill="#FFFFFE" d="M8.17605562 19.5492249C8.16435148 19.6872998 8.02254477 19.7883964 7.86004379 19.7749961 7.69737318 19.7610868 7.5745645 19.6375996 7.58575976 19.5003728 7.59746391 19.3616193 7.73825286 19.2605227 7.90092347 19.2739231 8.06427258 19.2871538 8.18708126 19.410641 8.17605562 19.5492249M21.191316 17.9324079C21.191316 17.9324079 20.3587953 21.3479819 18.9293633 21.6266761 17.500101 21.9052008 15.9531187 21.3512047 15.9531187 21.3512047 15.9531187 21.3512047 15.8052055 17.3373625 16.5371385 16.8127116 17.2683929 16.2860252 18.9542982 15.5249168 21.191316 17.9324079"/>
          <path fill="#CDAE8E" d="M15.9511511,21.340654 C15.9511511,21.340654 15.9838888,21.3501531 16.0575061,21.3808552 C16.075656,20.1497152 16.1894746,18.4585515 16.6466146,18.1347369 C17.3259637,17.637226 18.8603937,16.9368434 20.9104844,18.8520821 C21.0969026,18.3228513 21.1903661,17.9216876 21.1903661,17.9216876 C18.9491077,15.5097862 17.2618454,16.2695377 16.5358493,16.7967329 C15.8032379,17.3232497 15.9511511,21.340654 15.9511511,21.340654"/>
          <path fill="#39221A" d="M16.7974623,19.6014864 C16.7974623,20.3785396 17.4274505,21.0081886 18.2043341,21.0081886 C18.9812178,21.0081886 19.6112059,20.3785396 19.6112059,19.6014864 C19.6112059,18.8244331 18.9812178,18.1946146 18.2043341,18.1946146 C17.4274505,18.1946146 16.7974623,18.8244331 16.7974623,19.6014864"/>
          <path fill="#6C3526" d="M18.2697416,20.5383266 C18.6759941,20.5047408 18.9877653,20.0949262 18.950787,19.6440623 C18.9144872,19.193368 18.5399546,18.8407172 18.1333629,18.8748118 C17.7271105,18.908228 17.4156785,19.3177034 17.4516391,19.7683976 C17.4886174,20.2190919 17.8634892,20.5724213 18.2697416,20.5383266"/>
          <path fill="#1B1712" d="M18.2346292,20.3757408 C18.5173945,20.351654 18.8106765,20.0414095 18.7796351,19.6594134 C18.7477456,19.2760604 18.4081558,19.0173819 18.1253905,19.0404509 C17.8424556,19.0645377 17.5498521,19.3761393 17.5808935,19.7583049 C17.6121045,20.1409795 17.9525424,20.3991491 18.2346292,20.3757408"/>
          <path fill="#FFFFFE" d="M18.4635554,19.4330316 C18.4752596,19.5711065 18.6170663,19.6722032 18.7795673,19.6588028 C18.9422379,19.6448935 19.0650465,19.5214063 19.0540209,19.3841795 C19.0423168,19.245426 18.9013582,19.1443294 18.7386876,19.1577298 C18.5753385,19.1709606 18.4526994,19.2942781 18.4635554,19.4330316"/>
          <path fill="#0B0B09" d="M11.5450335 17.9941854C11.5343471 17.9775621 11.2748205 17.5831834 10.744572 17.1765917 10.4122761 16.9218146 10.0867653 16.7277633 9.74904142 16.5834122 9.3383787 16.4107337 8.89633531 16.2887732 8.46803156 16.2302525 8.0806075 16.1871677 7.65145562 16.1987022 7.15055227 16.2660434 6.76804734 16.3388126 6.39521105 16.4526312 6.07835108 16.5922327 5.85257988 16.6699211 5.67447337 16.7789901 5.53114004 16.866856 5.47635108 16.9006114 5.42665089 16.9309744 5.37627219 16.9581144L4.69336095 17.3874359 5.48025247 17.2025444C5.51689152 17.193215 5.55658383 17.1828679 5.59915976 17.171503 5.762 17.1284181 5.96470217 17.0746469 6.20217751 17.0398738 6.2578146 17.0317318 6.3142998 17.0205365 6.37197239 17.009002 6.47103353 16.9893254 6.57331755 16.9689704 6.68052071 16.963712 6.79976726 16.9557396 6.92342406 16.9469191 7.05047337 16.9377594L7.21568836 16.9258856C7.65145562 16.9204576 8.01954241 16.9535345 8.34657988 17.0288481 8.70381065 17.0904221 9.07138856 17.2057673 9.40809467 17.3618225 9.72614201 17.5139763 10.0311282 17.6649428 10.2691124 17.8396568 10.7498304 18.1604181 11.0171598 18.4279172 11.0197041 18.4306312 11.085858 18.4971243 11.1738935 18.5313886 11.2627771 18.5313886 11.3274043 18.5313886 11.3923708 18.5132387 11.4490256 18.4759211 11.6071164 18.3722801 11.6517278 18.1585523 11.5509704 18.0045325L11.5450335 17.9941854zM21.3317826 16.9549933C21.2866623 16.9310761 21.2367925 16.9005436 21.1820036 16.8667882 21.0386702 16.7789223 20.8605637 16.6698533 20.6415775 16.5947093 20.3182718 16.4525633 19.9452659 16.3389144 19.5583507 16.265297 19.061688 16.1986343 18.6321968 16.1870998 18.2432462 16.2305239 17.8171475 16.288875 17.3749345 16.4108355 16.9637629 16.583514 16.6307886 16.7258296 16.2961179 16.9254785 15.9687412 17.1766935 15.4479917 17.5756521 15.188974 17.9632458 15.1696367 17.9929302L15.1647176 18.0000544C15.0768517 18.1352458 15.0956801 18.3164055 15.209329 18.4305633 15.2741258 18.495869 15.3601258 18.53166 15.4515538 18.53166L15.4517235 18.53166C15.5431515 18.5314903 15.6291515 18.4956994 15.6936091 18.4305633L15.6963231 18.4276797C15.7217669 18.4025751 15.9812935 18.1488158 16.4474237 17.8373838 16.6816761 17.6653838 16.986832 17.5140781 17.3040312 17.3622635 17.6420943 17.205869 18.0096722 17.0905239 18.3714828 17.0279321 18.6937708 16.9534667 19.0625361 16.9210682 19.4927057 16.9256481L19.6660627 16.9380308C19.7920943 16.9471905 19.9145637 16.9558414 20.0344888 16.9638138 20.1401653 16.9689026 20.2424493 16.9892576 20.3413408 17.0089341 20.399183 17.0204686 20.4556682 17.0316639 20.5111357 17.0398059 20.748611 17.0747487 20.9514828 17.1283503 21.1143231 17.1716047 21.1567294 17.1829696 21.1964217 17.1933168 21.2342481 17.2028158L22.0208004 17.3875377 21.3317826 16.9549933z"/>
          <path fill="#ECCEA7" d="M11.1910426,30.0076899 C11.1503325,29.4648892 12.7027428,30.1213389 13.2126363,30.1369444 C13.619228,30.150684 14.8412083,30.0567116 14.9540091,30.0136268 C15.8080722,29.6940529 14.9071925,30.9209523 13.1873621,30.9855795 C12.3992832,31.0169602 11.2144509,30.3367629 11.1910426,30.0076899"/>
          <path fill="#B35E65" d="M16.3081274,28.7040181 C15.3236225,28.5198051 13.2496146,28.7164008 13.2496146,28.7164008 C11.5394529,29.0005231 10.2007704,28.6982509 10.1909321,28.709955 C10.1500525,28.714026 11.5567546,30.5797341 13.2262063,30.4937341 C14.895658,30.5797341 16.3490071,28.709955 16.3081274,28.7040181"/>
          <path fill="#C96C6C" d="M14.2386655,28.3101822 C13.7950955,28.2611606 13.4790836,28.5810738 13.2516162,28.5576655 C13.0199081,28.5790383 12.7191625,28.3739613 12.2728785,28.3695511 C11.6452651,28.363275 11.3389219,28.3081467 10.1910679,28.7098193 C10.2319475,28.7881862 10.9674426,29.2139456 12.3447996,29.2375235 C12.3643065,29.2375235 12.7339199,29.4471803 13.2594189,29.4432789 C13.5881527,29.441413 14.0393558,29.2219179 14.0571665,29.2219179 C15.436559,29.2003755 16.2789179,28.7903913 16.3177621,28.7138903 C14.8002947,28.2435195 14.9207286,28.3039061 14.2386655,28.3101822"/>
          <path fill="#524547" d="M21.5761108,44.5877602 C21.5654245,44.3735235 21.5513456,44.165054 21.5354008,43.9609949 C21.5067341,43.5963006 21.7935704,43.2862256 22.1592824,43.2862256 L23.7434126,43.2862256 C23.673527,42.8429949 23.5865093,42.4241901 23.485243,42.0332039 L21.3221819,42.0332039 C21.230245,41.3526675 21.747602,40.7418469 22.4367893,40.7418469 L23.0908643,40.7418469 C23.0630458,40.6616142 23.0314955,40.5813815 23.0001148,40.5045412 C22.8640753,40.1590146 22.7175191,39.8380836 22.5638387,39.5378469 C21.3773101,37.2345057 19.7160004,36.25034 18.6690734,35.8420521 C18.6376927,37.5031921 16.3865961,38.8434012 13.6191602,38.8434012 C13.5424895,38.8434012 13.4690418,38.8434012 13.3957637,38.8398391 C10.7016059,38.7701231 8.55533767,37.4404308 8.55533767,35.8071093 C8.55533767,35.7721665 8.5588998,35.7373933 8.5588998,35.7024505 C7.59220552,36.0025176 5.62370454,36.9100126 4.26975582,39.5378469 C4.11607535,39.8380836 3.96951913,40.1590146 3.83331006,40.5045412 C3.80209901,40.5813815 3.77411085,40.6616142 3.74273018,40.7418469 L4.41766903,40.7418469 C5.10702604,40.7418469 5.62404379,41.3526675 5.53227653,42.0332039 L3.35191361,42.0332039 C3.25064734,42.4241901 3.16329034,42.8429949 3.09018185,43.2862256 L4.69517594,43.2862256 C5.06105759,43.2862256 5.34772426,43.5964702 5.31922722,43.9609949 C5.30311282,44.1657325 5.28920355,44.3743716 5.27834753,44.5877602 C5.26070651,44.9019061 5.24679724,45.2230067 5.2398426,45.5544544 C5.22949546,45.8686004 5.22593333,46.1930935 5.22593333,46.5281034 C5.22593333,46.5281034 5.2922568,46.5596536 5.42134162,46.646841 L21.4366789,46.646841 C21.5655941,46.5596536 21.6286947,46.5281034 21.6286947,46.5281034 C21.6286947,46.1930935 21.6249629,45.8686004 21.6146158,45.5544544 C21.6076611,45.2230067 21.5937519,44.9019061 21.5761108,44.5877602"/>
          <path fill="#313431" d="M25.2503972,10.7008935 C25.2163026,10.5772367 25.1822079,10.4593471 25.1482828,10.3448501 L25.1484525,10.3450197 C24.8644998,9.52030178 25.3341921,9.17545365 25.3341921,9.17545365 C25.3341921,9.17545365 25.3304604,9.17341815 25.3255412,9.17087377 C27.2434939,9.04908284 28.3218016,7.22578107 28.3218016,7.22578107 C28.3218016,7.22578107 27.5535688,8.34004931 24.9075846,7.47139842 C22.3224959,6.62445957 22.3886497,3.86482643 18.6733479,2.32479882 C17.5431349,1.85646351 16.3175925,1.77453452 15.3710836,1.8456075 C15.1300462,1.8637574 15.0528667,1.52874753 15.275415,1.4344359 C16.1596714,1.05990335 17.1078765,0.737276134 17.1078765,0.737276134 C17.1078765,0.737276134 15.3230797,0.510317554 12.7106813,1.33741026 C10.8756753,1.91939448 9.77633412,2.58144181 9.15991598,3.0563925 L10.1897108,2.08325247 C10.1897108,2.08325247 9.94137949,2.17077909 9.52969901,2.34701972 C9.18688639,2.49374556 8.86680355,2.09970611 9.07595148,1.79098817 C9.7264643,0.83090927 10.4283736,0.031295858 10.4283736,0.031295858 C8.64357673,0.690289941 7.0241645,2.27255424 5.91074438,3.59054241 C5.53672071,4.03309467 4.82887456,3.6402426 5.00748994,3.08879093 C5.13114675,2.70730375 5.21969112,2.47542604 5.21969112,2.47542604 C-0.429677712,6.64159172 0.448641815,14.1648107 0.448641815,14.1648107 C0.448641815,17.0123097 1.58105996,19.8669329 2.32452742,20.7152288 C3.06833412,21.5626765 2.82984103,22.7924596 3.05255897,22.7924596 C3.05255897,22.7924596 3.4995215,22.8082347 3.51461815,20.6604398 C3.5694071,19.9351223 3.80196331,18.7699665 4.74948994,19.1185464 C4.79986864,19.1400888 4.85126509,19.1646844 4.90181341,19.1845306 C4.9111428,19.189789 4.91996331,19.192503 4.9292927,19.1977613 L4.93031045,19.1977613 C9.68643274,21.0814497 12.1154663,16.3080256 12.1154663,16.3080256 C12.1154663,16.3080256 13.5691546,13.2473077 15.1965393,12.1248974 C15.6760698,11.7939586 16.3024959,11.5424043 17.0615688,11.3081519 C21.3944761,9.97167456 23.1909771,16.8267396 22.8262828,18.6349448 C22.2695728,21.4208698 23.0461172,23.0250158 23.3434702,22.9495325 C23.3434702,22.9495325 23.3546655,22.2421953 23.6242,21.6115286 C24.4233045,19.7336075 25.0945116,21.0385345 25.2186773,18.4921203 C25.283983,17.1458047 25.4147641,16.185217 25.5248509,15.3898442 C25.5949061,14.8848698 26.1173519,14.5915878 26.5923026,14.7768185 C27.1369692,14.9895286 27.8163183,15.1238718 28.6627483,15.1413432 C28.6627483,15.1413432 26.6620185,14.5272998 25.2503972,10.7008935"/>
          <g transform="translate(15.266 17.471)">
            <mask id="avatar3-k" fill="#fff">
              <use xlink:href="#avatar3-j"/>
            </mask>
            <path d="M7.79835108,3.26426824 C7.78545957,3.44084813 7.76340828,3.62658777 7.72744773,3.81809467 C5.8681854,2.88498619 3.24136884,2.36695069 0.331108481,4.2173925 C0.243072978,3.91206706 0.195238659,3.610643 0.171321499,3.3351716 C0.126370809,2.97488757 0.112461538,2.54454832 0.197274162,2.1325286 C0.427794872,0.188284024 3.82013018,0.116362919 4.30220513,0.116362919 C4.34104931,0.115345168 4.38108087,0.114327416 4.4209428,0.114327416 C4.84619329,0.098382643 5.2144497,0.112461538 5.53181854,0.147404339 C5.67650888,0.160295858 5.87123866,0.186248521 6.08564497,0.238153846 C7.3462998,0.523633136 7.52084418,1.18737673 7.53492308,1.25115582 C7.5868284,1.35903748 7.62770809,1.47777515 7.6546785,1.60753846 C7.82430375,2.19342406 7.84839053,2.75929389 7.79835108,3.26426824" mask="url(#avatar3-k)"/>
          </g>
          <g transform="translate(3.901 17.471)">
            <mask id="avatar3-m" fill="#fff">
              <use xlink:href="#avatar3-l"/>
            </mask>
            <path d="M7.68470217,3.34416174 L7.68470217,3.34517949 C7.66366864,3.50886785 7.63669822,3.65644181 7.61091519,3.781286 C4.6077002,2.26025641 1.96680473,3.1645286 0.248161736,4.22841815 C0.165384615,3.94785799 0.0924457594,3.62048126 0.0575029586,3.26325049 C-0.00339250493,2.39290335 0.177258383,1.74815779 0.177258383,1.74815779 C0.184213018,1.69727022 0.192185404,1.6494359 0.202362919,1.6024497 C0.236118343,1.48778304 0.27513215,1.37294675 0.32008284,1.25607495 C0.32008284,1.25607495 0.32008284,1.25522682 0.321100592,1.25115582 C0.613534517,0.637451677 1.25420907,0.360962525 1.77716371,0.236118343 C1.93593294,0.200327416 2.11268245,0.170303748 2.30826036,0.148422091 C2.31419724,0.147404339 2.31911637,0.147404339 2.32522288,0.147404339 C2.4799211,0.133325444 2.57558974,0.133325444 2.57558974,0.133325444 C2.8870217,0.117380671 3.17843787,0.111443787 3.44983826,0.114327416 C3.46595266,0.115345168 3.48087968,0.115345168 3.49580671,0.116362919 L3.54974753,0.116362919 L3.55076529,0.116362919 C5.91008284,0.164366864 6.80027613,0.88781854 6.80027613,0.88781854 C7.31033925,1.1683787 7.55680473,1.63552663 7.65874951,2.1304931 C7.65976726,2.13354635 7.65976726,2.13642998 7.65976726,2.13948323 C7.65976726,2.13948323 7.74559763,2.66040237 7.68470217,3.34416174" mask="url(#avatar3-m)"/>
          </g>
          <path fill="#87CABB" fill-opacity=".5" d="M22.9937538 21.289546C22.9109767 21.7356604 22.754243 22.2128162 22.479959 22.6758931 22.4599432 22.7128714 22.4478998 22.7316998 22.4478998 22.7316998 22.4419629 22.7418773 22.4348387 22.7517156 22.427884 22.7617235 22.3479905 22.8884335 22.2602943 23.0141258 22.1615724 23.1379523 22.0156947 23.3216564 21.8399629 23.4783901 21.6384481 23.5971278 21.4898564 23.6849937 21.2902075 23.7857511 21.0395014 23.8754828 19.8509373 24.3465321 18.4885073 24.0792028 17.8269688 23.8954986 17.8059353 23.8904099 17.6841444 23.8636091 17.5056986 23.7966071 17.4536237 23.7787964 17.4246178 23.7677708 17.4246178 23.7677708 16.3407124 23.3486268 15.8287834 22.5062679 15.5974146 21.6888438 18.507675 19.838402 21.1344915 20.3564375 22.9937538 21.289546M11.512245 21.2526864C11.4793377 21.4104379 11.4462607 21.5290059 11.4274323 21.5939724 11.4164067 21.6289152 11.4103002 21.6479132 11.4103002 21.6479132 11.0800398 23.0361262 10.0490576 23.5960592 9.51711282 23.7967258 9.51711282 23.7967258 9.51609507 23.7967258 9.51524694 23.7977436 9.44722722 23.820643 9.33934556 23.8555858 9.20076174 23.8945996 9.20076174 23.8945996 9.19770848 23.8956174 9.1958426 23.8956174 9.1938071 23.8956174 9.19261972 23.8964655 9.19261972 23.8964655 7.73655661 24.2957633 6.66265917 24.1230848 5.97499842 23.8725483 5.97499842 23.8725483 5.97313254 23.8715306 5.97109704 23.8715306 5.45611479 23.664927 4.97387022 23.3175345 4.59662367 22.7637081 4.57881302 22.7357199 4.56168087 22.7068836 4.54488797 22.6778777 4.481957 22.563211 4.33116016 22.2677239 4.19647771 21.8524813 4.18036331 21.8036292 4.16458817 21.7527416 4.14966114 21.6998185 5.86830414 20.635929 8.50902998 19.7316568 11.512245 21.2526864"/>
          <path fill="#B6252B" d="M23.0648099,20.7358552 C23.0505613,20.9407625 23.0213858,21.1585613 22.9747389,21.3828059 C22.970159,21.4041787 22.9662576,21.4255515 22.9615081,21.4470939 C22.9457329,21.5173187 22.9279223,21.5882221 22.9084154,21.6596343 C22.9040051,21.6757487 22.8989164,21.6918631 22.8943365,21.7079775 C22.8763562,21.7710781 22.8565101,21.8343483 22.8351373,21.8977882 C22.8302181,21.9118671 22.8258079,21.9257763 22.8210584,21.9398552 C22.794088,22.0163562 22.7650821,22.0930268 22.7330229,22.1700367 C22.7298,22.1776698 22.7260682,22.1854726 22.7226757,22.1932753 C22.6941787,22.2607862 22.6629677,22.328297 22.6300604,22.3958079 C22.6209006,22.414297 22.6117408,22.4326166 22.6024114,22.4511057 C22.5661116,22.5225179 22.5276067,22.5939302 22.4860485,22.6650032 C22.4838434,22.6685653 22.4819775,22.672297 22.479942,22.6758592 C22.4599262,22.7128375 22.4478828,22.7318355 22.4478828,22.7318355 C22.4429637,22.7399775 22.4371964,22.7481195 22.4315988,22.7564312 C22.4304114,22.7579578 22.4292241,22.759654 22.4278671,22.7613503 C22.4158237,22.7810268 22.4019144,22.8003641 22.3891925,22.819871 C22.3193069,22.9269045 22.245011,23.0332596 22.1615554,23.1379183 C22.125086,23.1838868 22.0865811,23.228159 22.0465495,23.2705653 C21.9261156,23.3972753 21.7890584,23.5077014 21.6382615,23.5969243 C21.5173187,23.6685061 21.3604154,23.74823 21.172301,23.8242221 C21.1292162,23.8415239 21.086301,23.8588256 21.039654,23.8754489 C20.6853069,24.0160682 20.3155239,24.0896856 19.9532043,24.120727 C19.1011767,24.1933266 18.2915554,24.0242103 17.8272911,23.8951254 C17.821015,23.8939381 17.8042221,23.8902063 17.7808138,23.8842694 C17.7496028,23.876297 17.7046521,23.8637448 17.6481669,23.8459341 C17.6062694,23.8325337 17.558944,23.816589 17.5058513,23.7964036 C17.4530978,23.7784233 17.4244312,23.7673976 17.4244312,23.7673976 C17.4174765,23.7646836 17.4108611,23.7616304 17.4039065,23.7589164 C17.3525101,23.738731 17.3026402,23.7173582 17.2537882,23.6951373 C17.2359775,23.6869953 17.2181669,23.6788533 17.2006955,23.670372 C17.154727,23.6484903 17.109946,23.6260998 17.0663523,23.6026915 C17.0571925,23.5977724 17.0476935,23.5931925 17.0387034,23.5881037 C16.9874765,23.559946 16.9381156,23.5304312 16.889942,23.5000682 C16.8767112,23.4917566 16.8638197,23.4832753 16.8507586,23.4747941 C16.810727,23.4486718 16.7715436,23.4217014 16.7337172,23.3942221 C16.7250663,23.387946 16.7159065,23.3818394 16.7074252,23.3755633 C16.6624746,23.3419775 16.6190505,23.3075436 16.5771531,23.2724312 C16.5678237,23.2644588 16.5588335,23.2564864 16.5496738,23.248514 C16.5145613,23.2181511 16.480297,23.1872793 16.4470505,23.155729 C16.4392477,23.1482655 16.4312753,23.140802 16.4234726,23.1333385 C16.3846284,23.0953424 16.3469716,23.0566679 16.311011,23.0171452 C16.3052438,23.0110387 16.300155,23.0047625 16.2945574,22.998656 C16.2630071,22.9635436 16.2328138,22.9279223 16.2034686,22.8917921 C16.1970229,22.8838197 16.1902379,22.8756777 16.1837921,22.8675357 C16.1503759,22.8254686 16.1181471,22.7828927 16.087445,22.7396383 C16.086088,22.7377724 16.0850702,22.7359065 16.0837132,22.7340406 C16.0541984,22.6921432 16.0262103,22.6497369 15.9990702,22.6068217 C15.9944903,22.5995278 15.9899105,22.5924036 15.9855002,22.5851097 C15.9286757,22.4933424 15.8771097,22.3997093 15.830802,22.3045495 C15.8289361,22.301157 15.8272398,22.2975949 15.825374,22.2940327 C15.7293661,22.095232 15.6545613,21.8913424 15.5973976,21.6888099 C15.5973976,21.6888099 15.5968888,21.6889795 15.5967191,21.6891491 C15.5097014,21.383654 15.4615278,21.0815515 15.4371018,20.8062497 C15.39266,20.4466442 15.3784114,20.0156264 15.4632241,19.603946 C15.6944233,17.6591925 19.0859105,17.5877803 19.5686639,17.587441 C19.6078473,17.5867625 19.6475396,17.586084 19.6875712,17.5857448 C20.1129913,17.5701393 20.4807389,17.5837093 20.7982773,17.6184824 C20.942798,17.6315436 21.1380367,17.6576659 21.3522734,17.709232 C22.6127586,17.9952201 22.787303,18.6584548 22.8012122,18.7229124 C22.8527783,18.8309637 22.893658,18.9491925 22.9211373,19.0791254 C23.0909321,19.6648414 23.1146797,20.2310505 23.0648099,20.7358552 M11.5855909,20.8154095 L11.5855909,20.816088 C11.538944,21.1853621 11.461086,21.4777961 11.4269913,21.5939893 C11.4242773,21.6031491 11.4219026,21.6111215 11.4198671,21.6180761 C11.4135909,21.6374134 11.410368,21.6477606 11.410368,21.6477606 C11.0801077,23.0361432 10.0491254,23.5960761 9.51718067,23.7965732 C9.51718067,23.7965732 9.51616292,23.7965732 9.51514517,23.7977606 C9.47002485,23.8130268 9.40590651,23.8337211 9.32821815,23.8571294 C9.28886509,23.8690032 9.2473069,23.8812162 9.20082959,23.8942773 C9.19947258,23.8946166 9.19777633,23.8951254 9.1962497,23.8952951 L9.19574083,23.8954647 L9.1955712,23.8954647 C9.19404458,23.8958039 9.19302682,23.8961432 9.19302682,23.8961432 C8.76302682,24.0142024 8.36746075,24.0812043 8.00412347,24.1122458 C7.13716884,24.1860327 6.45951598,24.0491452 5.97506627,23.8725653 C5.97506627,23.8725653 5.97370927,23.872226 5.97303077,23.8720564 C5.97252189,23.8718868 5.97184339,23.8715475 5.97150414,23.8713779 C5.78152387,23.7953858 5.59680197,23.6998868 5.41971321,23.5826757 C5.11557515,23.3809913 4.83501499,23.1138316 4.59669152,22.763725 C4.58888876,22.7516817 4.5817645,22.7391294 4.57430099,22.7267467 C4.56463235,22.7106323 4.55445483,22.6943483 4.54495582,22.6782339 C4.50543314,22.6054647 4.43079803,22.4612832 4.34734241,22.2609558 C4.29832071,22.1432359 4.24641538,22.0061787 4.19654556,21.8524982 C4.18043116,21.8034765 4.16448639,21.7527586 4.14955937,21.6998355 C4.14938974,21.6998355 4.14922012,21.7000051 4.14922012,21.7000051 C4.06627337,21.4187665 3.99384339,21.0924075 3.95873097,20.7343286 C3.8978355,19.8643207 4.07848639,19.2192359 4.07848639,19.2192359 C4.08510178,19.1691964 4.09341341,19.1208533 4.10359093,19.0738671 C4.13717673,18.9592004 4.17619053,18.8438552 4.22131085,18.7281708 C4.22131085,18.7281708 4.2216501,18.7263049 4.22249822,18.7222339 C4.5152714,18.1092083 5.15509783,17.8325495 5.67873097,17.7075357 C5.83766982,17.6717448 6.01391045,17.6418907 6.20948836,17.6200091 C6.215086,17.6191609 6.22085325,17.6186521 6.22662051,17.6183128 C6.38080986,17.6044036 6.47732663,17.6049124 6.47732663,17.6049124 C6.78841933,17.5884588 7.07966588,17.5826915 7.35174477,17.586084 C7.36684142,17.5865929 7.38227732,17.5872714 7.39771321,17.5877803 C7.39771321,17.5877803 7.41637199,17.587441 7.45131479,17.587441 L7.45165404,17.587441 C9.81148047,17.635445 10.7015041,18.3594055 10.7015041,18.3594055 C11.2117369,18.6399657 11.4580327,19.1067744 11.5603168,19.6019105 C11.5609953,19.6049637 11.5611649,19.6076777 11.5615041,19.6105613 C11.5615041,19.6105613 11.6471649,20.1314805 11.5855909,20.8154095 M24.6458868,17.917871 C24.6158631,17.7224627 24.475583,17.5614884 24.2850939,17.508226 C20.3401195,16.4061708 17.2683759,17.0519341 17.2683759,17.0519341 C15.6240288,17.3386008 14.9148256,18.289011 14.9148256,18.289011 C14.4471688,18.7868611 13.5118552,18.5756777 13.5118552,18.5756777 C13.5118552,18.5756777 12.5765416,18.7868611 12.1087152,18.289011 C12.1087152,18.289011 11.3996817,17.3386008 9.75533452,17.0519341 C9.75533452,17.0519341 6.68376055,16.4060012 2.73861657,17.508226 C2.54829704,17.561658 2.40801696,17.7222931 2.37782367,17.917871 C2.31370533,18.3322655 2.25925562,19.0183996 2.55898343,19.194301 C2.55898343,19.194301 3.16251006,19.3149045 3.16251006,20.1598079 C3.16251006,20.1598079 3.63033649,22.935725 4.18840355,23.5390821 C4.18840355,23.5390821 4.94272702,24.9271254 7.4923641,24.8516422 C7.4923641,24.8516422 10.9796895,24.9976895 11.6568335,23.0714252 C11.7460564,22.8168178 11.8722576,22.5223483 11.973015,22.2718118 L12.5544903,20.5981195 C12.6158947,20.42137 12.7258118,20.2632793 12.8769479,20.152514 C13.0221471,20.0456501 13.2289203,19.9596501 13.5118552,19.9788178 C13.7947901,19.9598197 14.0015633,20.0458197 14.1467625,20.152514 C14.297729,20.2632793 14.4076462,20.42137 14.4690505,20.5981195 L15.0506955,22.2718118 C15.1514529,22.5223483 15.2774844,22.8168178 15.3670465,23.0714252 C16.0438513,24.9976895 19.5313464,24.8516422 19.5313464,24.8516422 C22.0809834,24.9271254 22.8353069,23.5390821 22.8353069,23.5390821 C23.393374,22.935725 23.8610308,20.1598079 23.8610308,20.1598079 C23.8610308,19.3149045 24.464727,19.194301 24.464727,19.194301 C24.7646245,19.0183996 24.7100051,18.3320959 24.6458868,17.917871"/>
        </g>
      </g>
    </g>
  </g>
</svg>
