<?xml version="1.0" standalone="no"?>
<!DOCTYPE svg PUBLIC "-//W3C//DTD SVG 1.1//EN" "http://www.w3.org/Graphics/SVG/1.1/DTD/svg11.dtd" >
<svg xmlns="http://www.w3.org/2000/svg">
<metadata>
WH Hoxton is a licensed version of FS Hackney. Copyright (c) 2014 by Fontsmith Ltd for William Hill PLC. All rights reserved. This font may not be altered in any way without prior permission of Fontsmith Ltd.
</metadata>
<defs>
<font id="WHHoxtonWeb-Bold" horiz-adv-x="0" >
  <font-face 
    font-family="WH Hoxton Web Bold"
    font-weight="700"
    font-stretch="normal"
    units-per-em="1000"
    panose-1="2 2 5 3 3 2 2 2 2 4"
    ascent="800"
    descent="-200"
    x-height="490"
    cap-height="672"
    bbox="-305 -224 1212 908"
    underline-thickness="90"
    underline-position="-10"
    unicode-range="U+000D-FB02"
  />
<missing-glyph horiz-adv-x="500" 
d="M12 672h476v-672h-476v672zM412 624h-324l162 -244zM222 336l-162 244v-488zM440 580l-162 -244l162 -244v488zM412 48l-162 244l-162 -244h324z" />
    <glyph glyph-name="f_f.liga" unicode="ff" horiz-adv-x="761" 
d="M310 393h-67v-393h-127v393h-92v97h92v40q0 99 47 142.5t155 43.5q47 0 96 -11v-100q-46 11 -81 11q-47 0 -68.5 -19t-21.5 -62v-45h130zM641.5 597q-21.5 -19 -21.5 -62v-45h155l-63 -97h-92v-393h-127v393h-123l63 97h60v40q0 99 47 142.5t155 43.5q47 0 96 -11v-100
q-46 11 -81 11q-47 0 -68.5 -19z" />
    <glyph glyph-name="f_f_i.liga" unicode="ffi" horiz-adv-x="1028" 
d="M310 393h-67v-393h-127v393h-92v97h92v40q0 99 47 142.5t155 43.5q47 0 96 -11v-100q-46 11 -81 11q-47 0 -68.5 -19t-21.5 -62v-45h130zM641.5 597q-21.5 -19 -21.5 -62v-45h155l-63 -97h-92v-393h-127v393h-123l63 97h60v40q0 99 47 142.5t155 43.5q47 0 96 -11v-100
q-46 11 -81 11q-47 0 -68.5 -19zM844 573.5q-18 17.5 -18 56.5q0 38 18 55.5t58 17.5t58 -17.5t18 -55.5q0 -39 -18 -56.5t-58 -17.5t-58 17.5zM838 490h128v-490h-128v490z" />
    <glyph glyph-name="f_f_l.liga" unicode="ffl" horiz-adv-x="1037" 
d="M310 393h-67v-393h-127v393h-92v97h92v40q0 99 47 142.5t155 43.5q47 0 96 -11v-100q-46 11 -81 11q-47 0 -68.5 -19t-21.5 -62v-45h130zM641.5 597q-21.5 -19 -21.5 -62v-45h155l-63 -97h-92v-393h-127v393h-123l63 97h60v40q0 99 47 142.5t155 43.5q47 0 96 -11v-100
q-46 11 -81 11q-47 0 -68.5 -19zM845 704h128v-704h-128v704z" />
    <glyph glyph-name="f_t.liga" unicode="ft" horiz-adv-x="775" 
d="M293 393h-50v-393h-127v393h-92v97h92v40q0 99 44.5 142.5t147.5 43.5q42 0 86 -11v-100q-39 11 -71 11q-41 0 -60.5 -19t-19.5 -62v-45h113zM599 107.5q19 -19.5 63 -19.5q38 0 72 9v-100q-43 -9 -92 -9q-100 0 -144.5 41.5t-44.5 136.5v227h-100l63 97h37v133l127 22
v-155h165l-63 -97h-102v-222q0 -44 19 -63.5z" />
    <glyph glyph-name="fi" unicode="fi" horiz-adv-x="651" 
d="M264.5 597q-21.5 -19 -21.5 -62v-45h155l-63 -97h-92v-393h-127v393h-92v97h92v40q0 99 47 142.5t155 43.5q47 0 96 -11v-100q-46 11 -81 11q-47 0 -68.5 -19zM467 573.5q-18 17.5 -18 56.5q0 38 18 55.5t58 17.5t58 -17.5t18 -55.5q0 -39 -18 -56.5t-58 -17.5t-58 17.5z
M461 490h128v-490h-128v490z" />
    <glyph glyph-name="fl" unicode="fl" horiz-adv-x="660" 
d="M264.5 597q-21.5 -19 -21.5 -62v-45h155l-63 -97h-92v-393h-127v393h-92v97h92v40q0 99 47 142.5t155 43.5q47 0 96 -11v-100q-46 11 -81 11q-47 0 -68.5 -19zM468 704h128v-704h-128v704z" />
    <glyph glyph-name="t_t.liga" unicode="tt" horiz-adv-x="806" 
d="M253 107.5q19 -19.5 63 -19.5q38 0 72 9v-100q-43 -9 -92 -9q-100 0 -144.5 41.5t-44.5 136.5v227h-92v97h92v133l127 22v-155h130l-63 -97h-67v-222q0 -44 19 -63.5zM630 107.5q19 -19.5 63 -19.5q38 0 72 9v-100q-43 -9 -92 -9q-100 0 -144.5 41.5t-44.5 136.5v227
h-123l63 97h60v133l127 22v-155h165l-63 -97h-102v-222q0 -44 19 -63.5z" />
    <glyph glyph-name=".notdef" horiz-adv-x="500" 
d="M12 672h476v-672h-476v672zM412 624h-324l162 -244zM222 336l-162 244v-488zM440 580l-162 -244l162 -244v488zM412 48l-162 244l-162 -244h324z" />
    <glyph glyph-name=".null" 
 />
    <glyph glyph-name="nonmarkingreturn" unicode="&#xd;" horiz-adv-x="224" 
 />
    <glyph glyph-name="space" unicode=" " horiz-adv-x="224" 
 />
    <glyph glyph-name="A" unicode="A" horiz-adv-x="666" 
d="M473 157h-279l-55 -157h-134l253 672h150l253 -672h-133zM438 255l-105 299l-105 -299h210z" />
    <glyph glyph-name="Aacute" unicode="&#xc1;" horiz-adv-x="666" 
d="M473 157h-279l-55 -157h-134l253 672h150l253 -672h-133zM438 255l-105 299l-105 -299h210zM382 880h133l-144 -148h-112z" />
    <glyph glyph-name="Abreve" unicode="&#x102;" horiz-adv-x="666" 
d="M473 157h-279l-55 -157h-134l253 672h150l253 -672h-133zM438 255l-105 299l-105 -299h210zM206.5 758.5q-40.5 37.5 -40.5 121.5h90q0 -39 18.5 -56.5t59.5 -17.5t59.5 17.5t18.5 56.5h90q0 -84 -40.5 -121.5t-127.5 -37.5t-127.5 37.5z" />
    <glyph glyph-name="uni01CD" unicode="&#x1cd;" horiz-adv-x="666" 
d="M473 157h-279l-55 -157h-134l253 672h150l253 -672h-133zM438 255l-105 299l-105 -299h210zM149 880h109l76 -81l76 81h109l-123 -148h-124z" />
    <glyph glyph-name="Acircumflex" unicode="&#xc2;" horiz-adv-x="666" 
d="M473 157h-279l-55 -157h-134l253 672h150l253 -672h-133zM438 255l-105 299l-105 -299h210zM272 880h124l123 -148h-109l-76 81l-76 -81h-109z" />
    <glyph glyph-name="Adieresis" unicode="&#xc4;" horiz-adv-x="666" 
d="M473 157h-279l-55 -157h-134l253 672h150l253 -672h-133zM438 255l-105 299l-105 -299h210zM169.5 752q-17.5 17 -17.5 54t17.5 54t56.5 17q38 0 55.5 -17t17.5 -54t-17.5 -54t-55.5 -17q-39 0 -56.5 17zM386.5 752q-17.5 17 -17.5 54t17.5 54t55.5 17q39 0 56.5 -17
t17.5 -54t-17.5 -54t-56.5 -17q-38 0 -55.5 17z" />
    <glyph glyph-name="Agrave" unicode="&#xc0;" horiz-adv-x="666" 
d="M473 157h-279l-55 -157h-134l253 672h150l253 -672h-133zM438 255l-105 299l-105 -299h210zM153 880h133l123 -148h-112z" />
    <glyph glyph-name="Amacron" unicode="&#x100;" horiz-adv-x="666" 
d="M473 157h-279l-55 -157h-134l253 672h150l253 -672h-133zM438 255l-105 299l-105 -299h210zM173 849h322v-87h-322v87z" />
    <glyph glyph-name="Aogonek" unicode="&#x104;" horiz-adv-x="666" 
d="M600 -105.5q8 -5.5 26 -5.5q8 0 35 3v-73q-38 -6 -65 -6q-55 0 -79.5 18t-24.5 57q0 29 16 54t52 58h-32l-55 157h-279l-55 -157h-134l253 672h150l253 -672q-40 -34 -54.5 -52.5t-14.5 -34.5q0 -13 8 -18.5zM438 255l-105 299l-105 -299h210z" />
    <glyph glyph-name="Aring" unicode="&#xc5;" horiz-adv-x="666" 
d="M473 157h-279l-55 -157h-134l253 672h150l253 -672h-133zM438 255l-105 299l-105 -299h210zM244.5 728q-27.5 24 -27.5 78q0 53 28 77.5t89 24.5t89 -24.5t28 -77.5t-28 -77.5t-89 -24.5q-62 0 -89.5 24zM370.5 769.5q11.5 11.5 11.5 36.5t-11 36t-37 11t-37 -11t-11 -36
t11 -36.5t37 -11.5q25 0 36.5 11.5z" />
    <glyph glyph-name="Atilde" unicode="&#xc3;" horiz-adv-x="666" 
d="M473 157h-279l-55 -157h-134l253 672h150l253 -672h-133zM438 255l-105 299l-105 -299h210zM165 751q0 62 24.5 90t79.5 28q21 0 37 -6.5t37 -18.5q25 -16 39 -16q17 0 24 9.5t7 31.5v5h90v-13q0 -62 -24.5 -90t-79.5 -28q-21 0 -37 6.5t-37 18.5q-25 16 -39 16
q-17 0 -24 -9.5t-7 -31.5v-6h-90v14z" />
    <glyph glyph-name="AE" unicode="&#xc6;" horiz-adv-x="953" 
d="M604 100h307v-100h-423l-24 157h-264l-80 -157h-140l352 672h581l-64 -100h-325l31 -181h276v-98h-260zM448 255l-46 299l-152 -299h198z" />
    <glyph glyph-name="AEacute" unicode="&#x1fc;" horiz-adv-x="953" 
d="M604 100h307v-100h-423l-24 157h-264l-80 -157h-140l352 672h581l-64 -100h-325l31 -181h276v-98h-260zM448 255l-46 299l-152 -299h198zM581 880h133l-144 -148h-112z" />
    <glyph glyph-name="B" unicode="B" horiz-adv-x="657" 
d="M592.5 292q25.5 -40 25.5 -104q0 -99 -50.5 -143.5t-164.5 -44.5h-335v672h319q109 0 158 -43.5t49 -140.5q0 -103 -79 -139q52 -17 77.5 -57zM441.5 553q-24.5 22 -80.5 22h-163v-186h163q56 0 80.5 22t24.5 71t-24.5 71zM461.5 120q25.5 23 25.5 76t-25.5 76t-84.5 23
h-179v-198h179q59 0 84.5 23z" />
    <glyph glyph-name="C" unicode="C" horiz-adv-x="616" 
d="M184 24q-74 36 -109 112.5t-35 199.5q0 124 35 200t109 112t193 36q114 0 204 -35l-59 -90q-56 20 -125 20q-118 0 -169.5 -56.5t-51.5 -186.5q0 -129 51.5 -186t169.5 -57q89 0 181 26v-105q-91 -26 -201 -26q-119 0 -193 36z" />
    <glyph glyph-name="Cacute" unicode="&#x106;" horiz-adv-x="616" 
d="M184 24q-74 36 -109 112.5t-35 199.5q0 124 35 200t109 112t193 36q114 0 204 -35l-59 -90q-56 20 -125 20q-118 0 -169.5 -56.5t-51.5 -186.5q0 -129 51.5 -186t169.5 -57q89 0 181 26v-105q-91 -26 -201 -26q-119 0 -193 36zM411 880h133l-144 -148h-112z" />
    <glyph glyph-name="Cacute.loclPLK" horiz-adv-x="616" 
d="M184 24q-74 36 -109 112.5t-35 199.5q0 124 35 200t109 112t193 36q114 0 204 -35l-59 -90q-56 20 -125 20q-118 0 -169.5 -56.5t-51.5 -186.5q0 -129 51.5 -186t169.5 -57q89 0 181 26v-105q-91 -26 -201 -26q-119 0 -193 36zM351 880h124l-71 -148h-106z" />
    <glyph glyph-name="Ccaron" unicode="&#x10c;" horiz-adv-x="616" 
d="M184 24q-74 36 -109 112.5t-35 199.5q0 124 35 200t109 112t193 36q114 0 204 -35l-59 -90q-56 20 -125 20q-118 0 -169.5 -56.5t-51.5 -186.5q0 -129 51.5 -186t169.5 -57q89 0 181 26v-105q-91 -26 -201 -26q-119 0 -193 36zM178 880h109l76 -81l76 81h109l-123 -148
h-124z" />
    <glyph glyph-name="Ccedilla" unicode="&#xc7;" horiz-adv-x="616" 
d="M227.5 150q51.5 -57 169.5 -57q89 0 181 26v-105q-83 -23 -171 -26v-16q38 -5 56.5 -22.5t18.5 -50.5q0 -46 -33 -66t-107 -20q-46 0 -87 12v65q36 -11 69 -11q58 0 58 22q0 11 -12.5 16.5t-42.5 5.5h-8v67q-146 13 -212.5 95.5t-66.5 250.5q0 124 35 200t109 112t193 36
q114 0 204 -35l-59 -90q-56 20 -125 20q-118 0 -169.5 -56.5t-51.5 -186.5q0 -129 51.5 -186z" />
    <glyph glyph-name="Ccircumflex" unicode="&#x108;" horiz-adv-x="616" 
d="M184 24q-74 36 -109 112.5t-35 199.5q0 124 35 200t109 112t193 36q114 0 204 -35l-59 -90q-56 20 -125 20q-118 0 -169.5 -56.5t-51.5 -186.5q0 -129 51.5 -186t169.5 -57q89 0 181 26v-105q-91 -26 -201 -26q-119 0 -193 36zM301 880h124l123 -148h-109l-76 81l-76 -81
h-109z" />
    <glyph glyph-name="Cdotaccent" unicode="&#x10a;" horiz-adv-x="616" 
d="M184 24q-74 36 -109 112.5t-35 199.5q0 124 35 200t109 112t193 36q114 0 204 -35l-59 -90q-56 20 -125 20q-118 0 -169.5 -56.5t-51.5 -186.5q0 -129 51.5 -186t169.5 -57q89 0 181 26v-105q-91 -26 -201 -26q-119 0 -193 36zM307 751.5q-17 16.5 -17 54.5t17 54.5
t56 16.5t56 -16.5t17 -54.5t-17 -54.5t-56 -16.5t-56 16.5z" />
    <glyph glyph-name="D" unicode="D" horiz-adv-x="720" 
d="M529.5 637.5q77.5 -34.5 114 -108.5t36.5 -193t-36.5 -193t-114 -108.5t-203.5 -34.5h-258v672h258q126 0 203.5 -34.5zM490.5 157q53.5 55 53.5 179t-53.5 179t-174.5 55h-115v-468h115q121 0 174.5 55z" />
    <glyph glyph-name="Eth" unicode="&#xd0;" horiz-adv-x="736" 
d="M545.5 637.5q77.5 -34.5 114 -108.5t36.5 -193t-36.5 -193t-114 -108.5t-203.5 -34.5h-258v296h-65v92h65v284h258q126 0 203.5 -34.5zM506.5 157q53.5 55 53.5 179t-53.5 179t-174.5 55h-115v-182h163v-92h-163v-194h115q121 0 174.5 55z" />
    <glyph glyph-name="Dcaron" unicode="&#x10e;" horiz-adv-x="720" 
d="M529.5 637.5q77.5 -34.5 114 -108.5t36.5 -193t-36.5 -193t-114 -108.5t-203.5 -34.5h-258v672h258q126 0 203.5 -34.5zM490.5 157q53.5 55 53.5 179t-53.5 179t-174.5 55h-115v-468h115q121 0 174.5 55zM158 880h109l76 -81l76 81h109l-123 -148h-124z" />
    <glyph glyph-name="Dcroat" unicode="&#x110;" horiz-adv-x="736" 
d="M545.5 637.5q77.5 -34.5 114 -108.5t36.5 -193t-36.5 -193t-114 -108.5t-203.5 -34.5h-258v296h-65v92h65v284h258q126 0 203.5 -34.5zM506.5 157q53.5 55 53.5 179t-53.5 179t-174.5 55h-115v-182h163v-92h-163v-194h115q121 0 174.5 55z" />
    <glyph glyph-name="E" unicode="E" horiz-adv-x="598" 
d="M201 100h360v-100h-493v672h495l-65 -100h-297v-181h277v-98h-277v-193z" />
    <glyph glyph-name="Eacute" unicode="&#xc9;" horiz-adv-x="598" 
d="M201 100h360v-100h-493v672h495l-65 -100h-297v-181h277v-98h-277v-193zM357 880h133l-144 -148h-112z" />
    <glyph glyph-name="Ebreve" unicode="&#x114;" horiz-adv-x="598" 
d="M201 100h360v-100h-493v672h495l-65 -100h-297v-181h277v-98h-277v-193zM181.5 758.5q-40.5 37.5 -40.5 121.5h90q0 -39 18.5 -56.5t59.5 -17.5t59.5 17.5t18.5 56.5h90q0 -84 -40.5 -121.5t-127.5 -37.5t-127.5 37.5z" />
    <glyph glyph-name="Ecaron" unicode="&#x11a;" horiz-adv-x="598" 
d="M201 100h360v-100h-493v672h495l-65 -100h-297v-181h277v-98h-277v-193zM124 880h109l76 -81l76 81h109l-123 -148h-124z" />
    <glyph glyph-name="Ecircumflex" unicode="&#xca;" horiz-adv-x="598" 
d="M201 100h360v-100h-493v672h495l-65 -100h-297v-181h277v-98h-277v-193zM247 880h124l123 -148h-109l-76 81l-76 -81h-109z" />
    <glyph glyph-name="Edieresis" unicode="&#xcb;" horiz-adv-x="598" 
d="M201 100h360v-100h-493v672h495l-65 -100h-297v-181h277v-98h-277v-193zM144.5 752q-17.5 17 -17.5 54t17.5 54t56.5 17q38 0 55.5 -17t17.5 -54t-17.5 -54t-55.5 -17q-39 0 -56.5 17zM361.5 752q-17.5 17 -17.5 54t17.5 54t55.5 17q39 0 56.5 -17t17.5 -54t-17.5 -54
t-56.5 -17q-38 0 -55.5 17z" />
    <glyph glyph-name="Edotaccent" unicode="&#x116;" horiz-adv-x="598" 
d="M201 100h360v-100h-493v672h495l-65 -100h-297v-181h277v-98h-277v-193zM253 751.5q-17 16.5 -17 54.5t17 54.5t56 16.5t56 -16.5t17 -54.5t-17 -54.5t-56 -16.5t-56 16.5z" />
    <glyph glyph-name="Egrave" unicode="&#xc8;" horiz-adv-x="598" 
d="M201 100h360v-100h-493v672h495l-65 -100h-297v-181h277v-98h-277v-193zM128 880h133l123 -148h-112z" />
    <glyph glyph-name="Emacron" unicode="&#x112;" horiz-adv-x="598" 
d="M201 100h360v-100h-493v672h495l-65 -100h-297v-181h277v-98h-277v-193zM148 849h322v-87h-322v87z" />
    <glyph glyph-name="Eogonek" unicode="&#x118;" horiz-adv-x="598" 
d="M201 100h360v-100q-40 -34 -54.5 -52.5t-14.5 -34.5q0 -13 8 -18.5t26 -5.5q8 0 35 3v-73q-38 -6 -65 -6q-55 0 -79.5 18t-24.5 57q0 29 16 54t52 58h-392v672h495l-65 -100h-297v-181h277v-98h-277v-193z" />
    <glyph glyph-name="F" unicode="F" horiz-adv-x="563" 
d="M201 570v-206h266v-100h-266v-264h-133v672h485l-66 -102h-286z" />
    <glyph glyph-name="G" unicode="G" horiz-adv-x="693" 
d="M638 369v-354q-125 -27 -254 -27q-122 0 -197.5 36t-111 112t-35.5 200t36.5 200t113.5 112t202 36q128 0 225 -36l-59 -90q-65 24 -145 24q-129 0 -186 -57.5t-57 -188.5t54 -188.5t176 -57.5q49 0 115 11v175h-139l60 93h202z" />
    <glyph glyph-name="Gbreve" unicode="&#x11e;" horiz-adv-x="693" 
d="M638 369v-354q-125 -27 -254 -27q-122 0 -197.5 36t-111 112t-35.5 200t36.5 200t113.5 112t202 36q128 0 225 -36l-59 -90q-65 24 -145 24q-129 0 -186 -57.5t-57 -188.5t54 -188.5t176 -57.5q49 0 115 11v175h-139l60 93h202zM256.5 758.5q-40.5 37.5 -40.5 121.5h90
q0 -39 18.5 -56.5t59.5 -17.5t59.5 17.5t18.5 56.5h90q0 -84 -40.5 -121.5t-127.5 -37.5t-127.5 37.5z" />
    <glyph glyph-name="Gcircumflex" unicode="&#x11c;" horiz-adv-x="693" 
d="M638 369v-354q-125 -27 -254 -27q-122 0 -197.5 36t-111 112t-35.5 200t36.5 200t113.5 112t202 36q128 0 225 -36l-59 -90q-65 24 -145 24q-129 0 -186 -57.5t-57 -188.5t54 -188.5t176 -57.5q49 0 115 11v175h-139l60 93h202zM322 880h124l123 -148h-109l-76 81
l-76 -81h-109z" />
    <glyph glyph-name="Gcommaaccent" unicode="&#x122;" horiz-adv-x="693" 
d="M638 369v-354q-125 -27 -254 -27q-122 0 -197.5 36t-111 112t-35.5 200t36.5 200t113.5 112t202 36q128 0 225 -36l-59 -90q-65 24 -145 24q-129 0 -186 -57.5t-57 -188.5t54 -188.5t176 -57.5q49 0 115 11v175h-139l60 93h202zM340 -60h115l-59 -150h-94z" />
    <glyph glyph-name="Gdotaccent" unicode="&#x120;" horiz-adv-x="693" 
d="M638 369v-354q-125 -27 -254 -27q-122 0 -197.5 36t-111 112t-35.5 200t36.5 200t113.5 112t202 36q128 0 225 -36l-59 -90q-65 24 -145 24q-129 0 -186 -57.5t-57 -188.5t54 -188.5t176 -57.5q49 0 115 11v175h-139l60 93h202zM328 751.5q-17 16.5 -17 54.5t17 54.5
t56 16.5t56 -16.5t17 -54.5t-17 -54.5t-56 -16.5t-56 16.5z" />
    <glyph glyph-name="H" unicode="H" horiz-adv-x="750" 
d="M682 672v-672h-133v291h-348v-291h-133v672h133v-279h348v279h133z" />
    <glyph glyph-name="Hbar" unicode="&#x126;" horiz-adv-x="751" 
d="M740 503h-58v-503h-133v286h-348v-286h-133v503h-57v88h57v81h133v-81h348v81h133v-81h58v-88zM549 503h-348v-115h348v115z" />
    <glyph glyph-name="Hcircumflex" unicode="&#x124;" horiz-adv-x="750" 
d="M682 672v-672h-133v291h-348v-291h-133v672h133v-279h348v279h133zM314 880h124l123 -148h-109l-76 81l-76 -81h-109z" />
    <glyph glyph-name="I" unicode="I" horiz-adv-x="269" 
d="M68 672h133v-672h-133v672z" />
    <glyph glyph-name="IJ" unicode="&#x132;" horiz-adv-x="728" 
d="M68 672h133v-672h-133v672zM660 672v-458q0 -118 -56.5 -172t-180.5 -54q-61 0 -124 13v105q52 -13 104 -13q66 0 95 29.5t29 96.5v351h-184l66 102h251z" />
    <glyph glyph-name="Iacute" unicode="&#xcd;" horiz-adv-x="269" 
d="M68 672h133v-672h-133v672zM183 880h133l-144 -148h-112z" />
    <glyph glyph-name="Iacute_J.loclNLD" horiz-adv-x="728" 
d="M68 672h133v-672h-133v672zM183 880h133l-144 -148h-112zM660 672v-458q0 -118 -56.5 -172t-180.5 -54q-61 0 -124 13v105q52 -13 104 -13q66 0 95 29.5t29 96.5v351h-184l66 102h251zM642 880h133l-144 -148h-112z" />
    <glyph glyph-name="Ibreve" unicode="&#x12c;" horiz-adv-x="269" 
d="M68 672h133v-672h-133v672zM7.5 758.5q-40.5 37.5 -40.5 121.5h90q0 -39 18.5 -56.5t59.5 -17.5t59.5 17.5t18.5 56.5h90q0 -84 -40.5 -121.5t-127.5 -37.5t-127.5 37.5z" />
    <glyph glyph-name="Icircumflex" unicode="&#xce;" horiz-adv-x="269" 
d="M68 672h133v-672h-133v672zM73 880h124l123 -148h-109l-76 81l-76 -81h-109z" />
    <glyph glyph-name="Idieresis" unicode="&#xcf;" horiz-adv-x="269" 
d="M68 672h133v-672h-133v672zM-29.5 752q-17.5 17 -17.5 54t17.5 54t56.5 17q38 0 55.5 -17t17.5 -54t-17.5 -54t-55.5 -17q-39 0 -56.5 17zM187.5 752q-17.5 17 -17.5 54t17.5 54t55.5 17q39 0 56.5 -17t17.5 -54t-17.5 -54t-56.5 -17q-38 0 -55.5 17z" />
    <glyph glyph-name="Idotaccent" unicode="&#x130;" horiz-adv-x="269" 
d="M68 672h133v-672h-133v672zM79 751.5q-17 16.5 -17 54.5t17 54.5t56 16.5t56 -16.5t17 -54.5t-17 -54.5t-56 -16.5t-56 16.5z" />
    <glyph glyph-name="Igrave" unicode="&#xcc;" horiz-adv-x="269" 
d="M68 672h133v-672h-133v672zM-46 880h133l123 -148h-112z" />
    <glyph glyph-name="Imacron" unicode="&#x12a;" horiz-adv-x="269" 
d="M68 672h133v-672h-133v672zM-26 849h322v-87h-322v87z" />
    <glyph glyph-name="Iogonek" unicode="&#x12e;" horiz-adv-x="269" 
d="M146.5 -52.5q-14.5 -18.5 -14.5 -34.5q0 -13 8 -18.5t26 -5.5q8 0 35 3v-73q-38 -6 -65 -6q-55 0 -79.5 18t-24.5 57q0 29 16 54t52 58h-32v672h133v-672q-40 -34 -54.5 -52.5z" />
    <glyph glyph-name="Itilde" unicode="&#x128;" horiz-adv-x="269" 
d="M68 672h133v-672h-133v672zM-34 751q0 62 24.5 90t79.5 28q21 0 37 -6.5t37 -18.5q25 -16 39 -16q17 0 24 9.5t7 31.5v5h90v-13q0 -62 -24.5 -90t-79.5 -28q-21 0 -37 6.5t-37 18.5q-25 16 -39 16q-17 0 -24 -9.5t-7 -31.5v-6h-90v14z" />
    <glyph glyph-name="J" unicode="J" horiz-adv-x="459" 
d="M391 672v-458q0 -118 -56.5 -172t-180.5 -54q-61 0 -124 13v105q52 -13 104 -13q66 0 95 29.5t29 96.5v351h-184l66 102h251z" />
    <glyph glyph-name="Jcircumflex" unicode="&#x134;" horiz-adv-x="459" 
d="M391 672v-458q0 -118 -56.5 -172t-180.5 -54q-61 0 -124 13v105q52 -13 104 -13q66 0 95 29.5t29 96.5v351h-184l66 102h251zM202 880h124l123 -148h-109l-76 81l-76 -81h-109z" />
    <glyph glyph-name="K" unicode="K" horiz-adv-x="636" 
d="M261 285h-60v-285h-133v672h133v-298l270 298h151l-279 -303l283 -369h-150z" />
    <glyph glyph-name="Kcommaaccent" unicode="&#x136;" horiz-adv-x="636" 
d="M261 285h-60v-285h-133v672h133v-298l270 298h151l-279 -303l283 -369h-150zM268 -60h115l-59 -150h-94z" />
    <glyph glyph-name="L" unicode="L" horiz-adv-x="527" 
d="M508 102v-102h-440v672h133v-570h307z" />
    <glyph glyph-name="Lacute" unicode="&#x139;" horiz-adv-x="527" 
d="M508 102v-102h-440v672h133v-570h307zM183 880h133l-144 -148h-112z" />
    <glyph glyph-name="Lcaron" unicode="&#x13d;" horiz-adv-x="527" 
d="M508 102v-102h-440v672h133v-570h307zM356 672h109l-67 -181h-88z" />
    <glyph glyph-name="Lcommaaccent" unicode="&#x13b;" horiz-adv-x="527" 
d="M508 102v-102h-440v672h133v-570h307zM251 -60h115l-59 -150h-94z" />
    <glyph glyph-name="Ldot" unicode="&#x13f;" horiz-adv-x="527" 
d="M508 102v-102h-440v672h133v-570h307zM336 304.5q-17 16.5 -17 54.5t17 54.5t56 16.5t56 -16.5t17 -54.5t-17 -54.5t-56 -16.5t-56 16.5z" />
    <glyph glyph-name="Lslash" unicode="&#x141;" horiz-adv-x="543" 
d="M524 102v-102h-440v258l-65 -32v98l65 32v316h133v-249l147 73v-98l-147 -73v-223h307z" />
    <glyph glyph-name="M" unicode="M" horiz-adv-x="830" 
d="M762 672v-672h-123v474l-178 -291h-92l-178 290v-473h-123v672h126l221 -364l221 364h126z" />
    <glyph glyph-name="N" unicode="N" horiz-adv-x="750" 
d="M682 672v-672h-129l-362 490v-490h-123v672h129l362 -490v490h123z" />
    <glyph glyph-name="Nacute" unicode="&#x143;" horiz-adv-x="750" 
d="M682 672v-672h-129l-362 490v-490h-123v672h129l362 -490v490h123zM424 880h133l-144 -148h-112z" />
    <glyph glyph-name="Nacute.loclPLK" horiz-adv-x="750" 
d="M682 672v-672h-129l-362 490v-490h-123v672h129l362 -490v490h123zM364 880h124l-71 -148h-106z" />
    <glyph glyph-name="Ncaron" unicode="&#x147;" horiz-adv-x="750" 
d="M682 672v-672h-129l-362 490v-490h-123v672h129l362 -490v490h123zM191 880h109l76 -81l76 81h109l-123 -148h-124z" />
    <glyph glyph-name="Ncommaaccent" unicode="&#x145;" horiz-adv-x="750" 
d="M682 672v-672h-129l-362 490v-490h-123v672h129l362 -490v490h123zM331 -60h115l-59 -150h-94z" />
    <glyph glyph-name="Eng" unicode="&#x14a;" horiz-adv-x="750" 
d="M682 672v-633q0 -118 -56.5 -172t-180.5 -54q-62 0 -124 13v105q52 -13 104 -13q67 0 98 19t31 61v1l-363 491v-490h-123v672h129l362 -490v490h123z" />
    <glyph glyph-name="Ntilde" unicode="&#xd1;" horiz-adv-x="750" 
d="M682 672v-672h-129l-362 490v-490h-123v672h129l362 -490v490h123zM207 751q0 62 24.5 90t79.5 28q21 0 37 -6.5t37 -18.5q25 -16 39 -16q17 0 24 9.5t7 31.5v5h90v-13q0 -62 -24.5 -90t-79.5 -28q-21 0 -37 6.5t-37 18.5q-25 16 -39 16q-17 0 -24 -9.5t-7 -31.5v-6h-90
v14z" />
    <glyph glyph-name="O" unicode="O" horiz-adv-x="752" 
d="M182.5 24q-73.5 36 -108 112t-34.5 200t34.5 200t108 112t193.5 36t193.5 -36t108 -112.5t34.5 -200.5t-34.5 -200t-108 -111.5t-193.5 -35.5t-193.5 36zM530 150q47 57 47 186t-47 186t-154 57t-154 -57t-47 -186t47 -186t154 -57t154 57z" />
    <glyph glyph-name="Oacute" unicode="&#xd3;" horiz-adv-x="752" 
d="M182.5 24q-73.5 36 -108 112t-34.5 200t34.5 200t108 112t193.5 36t193.5 -36t108 -112.5t34.5 -200.5t-34.5 -200t-108 -111.5t-193.5 -35.5t-193.5 36zM530 150q47 57 47 186t-47 186t-154 57t-154 -57t-47 -186t47 -186t154 -57t154 57zM425 880h133l-144 -148h-112z
" />
    <glyph glyph-name="Oacute.loclPLK" horiz-adv-x="752" 
d="M182.5 24q-73.5 36 -108 112t-34.5 200t34.5 200t108 112t193.5 36t193.5 -36t108 -112.5t34.5 -200.5t-34.5 -200t-108 -111.5t-193.5 -35.5t-193.5 36zM530 150q47 57 47 186t-47 186t-154 57t-154 -57t-47 -186t47 -186t154 -57t154 57zM365 880h124l-71 -148h-106z
" />
    <glyph glyph-name="Obreve" unicode="&#x14e;" horiz-adv-x="752" 
d="M182.5 24q-73.5 36 -108 112t-34.5 200t34.5 200t108 112t193.5 36t193.5 -36t108 -112.5t34.5 -200.5t-34.5 -200t-108 -111.5t-193.5 -35.5t-193.5 36zM530 150q47 57 47 186t-47 186t-154 57t-154 -57t-47 -186t47 -186t154 -57t154 57zM249.5 758.5
q-40.5 37.5 -40.5 121.5h90q0 -39 18.5 -56.5t59.5 -17.5t59.5 17.5t18.5 56.5h90q0 -84 -40.5 -121.5t-127.5 -37.5t-127.5 37.5z" />
    <glyph glyph-name="Ocircumflex" unicode="&#xd4;" horiz-adv-x="752" 
d="M182.5 24q-73.5 36 -108 112t-34.5 200t34.5 200t108 112t193.5 36t193.5 -36t108 -112.5t34.5 -200.5t-34.5 -200t-108 -111.5t-193.5 -35.5t-193.5 36zM530 150q47 57 47 186t-47 186t-154 57t-154 -57t-47 -186t47 -186t154 -57t154 57zM315 880h124l123 -148h-109
l-76 81l-76 -81h-109z" />
    <glyph glyph-name="Odieresis" unicode="&#xd6;" horiz-adv-x="752" 
d="M182.5 24q-73.5 36 -108 112t-34.5 200t34.5 200t108 112t193.5 36t193.5 -36t108 -112.5t34.5 -200.5t-34.5 -200t-108 -111.5t-193.5 -35.5t-193.5 36zM530 150q47 57 47 186t-47 186t-154 57t-154 -57t-47 -186t47 -186t154 -57t154 57zM212.5 752q-17.5 17 -17.5 54
t17.5 54t56.5 17q38 0 55.5 -17t17.5 -54t-17.5 -54t-55.5 -17q-39 0 -56.5 17zM429.5 752q-17.5 17 -17.5 54t17.5 54t55.5 17q39 0 56.5 -17t17.5 -54t-17.5 -54t-56.5 -17q-38 0 -55.5 17z" />
    <glyph glyph-name="Ograve" unicode="&#xd2;" horiz-adv-x="752" 
d="M182.5 24q-73.5 36 -108 112t-34.5 200t34.5 200t108 112t193.5 36t193.5 -36t108 -112.5t34.5 -200.5t-34.5 -200t-108 -111.5t-193.5 -35.5t-193.5 36zM530 150q47 57 47 186t-47 186t-154 57t-154 -57t-47 -186t47 -186t154 -57t154 57zM196 880h133l123 -148h-112z
" />
    <glyph glyph-name="Ohungarumlaut" unicode="&#x150;" horiz-adv-x="752" 
d="M182.5 24q-73.5 36 -108 112t-34.5 200t34.5 200t108 112t193.5 36t193.5 -36t108 -112.5t34.5 -200.5t-34.5 -200t-108 -111.5t-193.5 -35.5t-193.5 36zM530 150q47 57 47 186t-47 186t-154 57t-154 -57t-47 -186t47 -186t154 -57t154 57zM316 880h134l-141 -148h-115z
M533 880h133l-141 -148h-115z" />
    <glyph glyph-name="Omacron" unicode="&#x14c;" horiz-adv-x="752" 
d="M182.5 24q-73.5 36 -108 112t-34.5 200t34.5 200t108 112t193.5 36t193.5 -36t108 -112.5t34.5 -200.5t-34.5 -200t-108 -111.5t-193.5 -35.5t-193.5 36zM530 150q47 57 47 186t-47 186t-154 57t-154 -57t-47 -186t47 -186t154 -57t154 57zM216 849h322v-87h-322v87z" />
    <glyph glyph-name="Oslash" unicode="&#xd8;" horiz-adv-x="751" 
d="M691.5 499q20.5 -67 20.5 -163q0 -124 -34.5 -200t-108.5 -112t-194 -36q-114 0 -188 33l-40 -53h-96l72 96q-43 42 -63.5 109t-20.5 163q0 124 34.5 200t108 112t193.5 36q115 0 188 -33l40 53h96l-72 -96q44 -42 64.5 -109zM199 165l296 395q-46 24 -120 24
q-112 0 -161.5 -58t-49.5 -190q0 -114 35 -171zM537.5 146q49.5 58 49.5 190q0 112 -36 171l-296 -395q47 -24 120 -24q113 0 162.5 58z" />
    <glyph glyph-name="Oslashacute" unicode="&#x1fe;" horiz-adv-x="751" 
d="M691.5 499q20.5 -67 20.5 -163q0 -124 -34.5 -200t-108.5 -112t-194 -36q-114 0 -188 33l-40 -53h-96l72 96q-43 42 -63.5 109t-20.5 163q0 124 34.5 200t108 112t193.5 36q115 0 188 -33l40 53h96l-72 -96q44 -42 64.5 -109zM199 165l296 395q-46 24 -120 24
q-112 0 -161.5 -58t-49.5 -190q0 -114 35 -171zM537.5 146q49.5 58 49.5 190q0 112 -36 171l-296 -395q47 -24 120 -24q113 0 162.5 58zM424 880h133l-144 -148h-112z" />
    <glyph glyph-name="Otilde" unicode="&#xd5;" horiz-adv-x="752" 
d="M182.5 24q-73.5 36 -108 112t-34.5 200t34.5 200t108 112t193.5 36t193.5 -36t108 -112.5t34.5 -200.5t-34.5 -200t-108 -111.5t-193.5 -35.5t-193.5 36zM530 150q47 57 47 186t-47 186t-154 57t-154 -57t-47 -186t47 -186t154 -57t154 57zM208 751q0 62 24.5 90t79.5 28
q21 0 37 -6.5t37 -18.5q25 -16 39 -16q17 0 24 9.5t7 31.5v5h90v-13q0 -62 -24.5 -90t-79.5 -28q-21 0 -37 6.5t-37 18.5q-25 16 -39 16q-17 0 -24 -9.5t-7 -31.5v-6h-90v14z" />
    <glyph glyph-name="OE" unicode="&#x152;" horiz-adv-x="1037" 
d="M640 100h360v-100h-606q-126 0 -203.5 34.5t-114 108.5t-36.5 193t36.5 193t114 108.5t203.5 34.5h608l-65 -100h-297v-181h277v-98h-277v-193zM507 102v468h-103q-121 0 -175 -55t-54 -179t54 -179t175 -55h103z" />
    <glyph glyph-name="P" unicode="P" horiz-adv-x="642" 
d="M551.5 621q59.5 -51 59.5 -166t-59.5 -166.5t-192.5 -51.5h-160v-237h-131v672h291q133 0 192.5 -51zM449.5 367q30.5 27 30.5 88t-30.5 88t-100.5 27h-150v-230h150q70 0 100.5 27z" />
    <glyph glyph-name="Thorn" unicode="&#xde;" horiz-adv-x="639" 
d="M548.5 508q59.5 -51 59.5 -166t-59.5 -166t-192.5 -51h-160v-125h-128v672h128v-113h160q133 0 192.5 -51zM446.5 254q30.5 27 30.5 88t-30.5 88t-100.5 27h-150v-230h150q70 0 100.5 27z" />
    <glyph glyph-name="Q" unicode="Q" horiz-adv-x="752" 
d="M680.5 142q-31.5 -75 -99.5 -112l96 -148h-131l-73 113q-42 -7 -97 -7q-120 0 -193.5 36t-108 112t-34.5 200t34.5 200t108 112t193.5 36t193.5 -36t108 -112t34.5 -200q0 -119 -31.5 -194zM218 146q48 -58 158 -58q12 0 36 2l-104 159h131l78 -120q33 28 49 79t16 128
q0 129 -48 186t-158 57q-109 0 -157.5 -57t-48.5 -186q0 -132 48 -190z" />
    <glyph glyph-name="R" unicode="R" horiz-adv-x="658" 
d="M335 253h-136v-253h-131v672h299q129 0 186.5 -49.5t57.5 -159.5q0 -86 -35.5 -134t-110.5 -61l164 -268h-145zM199 353h153q69 0 98.5 25.5t29.5 84.5t-29.5 84t-98.5 25h-153v-219z" />
    <glyph glyph-name="Racute" unicode="&#x154;" horiz-adv-x="658" 
d="M335 253h-136v-253h-131v672h299q129 0 186.5 -49.5t57.5 -159.5q0 -86 -35.5 -134t-110.5 -61l164 -268h-145zM199 353h153q69 0 98.5 25.5t29.5 84.5t-29.5 84t-98.5 25h-153v-219zM379 880h133l-144 -148h-112z" />
    <glyph glyph-name="Rcaron" unicode="&#x158;" horiz-adv-x="658" 
d="M335 253h-136v-253h-131v672h299q129 0 186.5 -49.5t57.5 -159.5q0 -86 -35.5 -134t-110.5 -61l164 -268h-145zM199 353h153q69 0 98.5 25.5t29.5 84.5t-29.5 84t-98.5 25h-153v-219zM146 880h109l76 -81l76 81h109l-123 -148h-124z" />
    <glyph glyph-name="Rcommaaccent" unicode="&#x156;" horiz-adv-x="658" 
d="M335 253h-136v-253h-131v672h299q129 0 186.5 -49.5t57.5 -159.5q0 -86 -35.5 -134t-110.5 -61l164 -268h-145zM199 353h153q69 0 98.5 25.5t29.5 84.5t-29.5 84t-98.5 25h-153v-219zM286 -60h115l-59 -150h-94z" />
    <glyph glyph-name="S" unicode="S" horiz-adv-x="596" 
d="M52 21v106q116 -37 228 -37q76 0 109 22.5t33 74.5q0 31 -19.5 49.5t-49.5 28.5t-82 22q-72 16 -117.5 33.5t-78 57t-32.5 109.5q0 104 62 150.5t201 46.5q127 0 235 -38l-58 -89q-75 25 -167 25q-73 0 -105.5 -21.5t-32.5 -71.5q0 -30 19 -47.5t47.5 -26.5t80.5 -20
q74 -16 120 -33.5t79.5 -58.5t33.5 -114q0 -106 -63 -153.5t-205 -47.5q-124 0 -238 33z" />
    <glyph glyph-name="Sacute" unicode="&#x15a;" horiz-adv-x="596" 
d="M52 21v106q116 -37 228 -37q76 0 109 22.5t33 74.5q0 31 -19.5 49.5t-49.5 28.5t-82 22q-72 16 -117.5 33.5t-78 57t-32.5 109.5q0 104 62 150.5t201 46.5q127 0 235 -38l-58 -89q-75 25 -167 25q-73 0 -105.5 -21.5t-32.5 -71.5q0 -30 19 -47.5t47.5 -26.5t80.5 -20
q74 -16 120 -33.5t79.5 -58.5t33.5 -114q0 -106 -63 -153.5t-205 -47.5q-124 0 -238 33zM346 880h133l-144 -148h-112z" />
    <glyph glyph-name="Sacute.loclPLK" horiz-adv-x="596" 
d="M52 21v106q116 -37 228 -37q76 0 109 22.5t33 74.5q0 31 -19.5 49.5t-49.5 28.5t-82 22q-72 16 -117.5 33.5t-78 57t-32.5 109.5q0 104 62 150.5t201 46.5q127 0 235 -38l-58 -89q-75 25 -167 25q-73 0 -105.5 -21.5t-32.5 -71.5q0 -30 19 -47.5t47.5 -26.5t80.5 -20
q74 -16 120 -33.5t79.5 -58.5t33.5 -114q0 -106 -63 -153.5t-205 -47.5q-124 0 -238 33zM286 880h124l-71 -148h-106z" />
    <glyph glyph-name="Scaron" unicode="&#x160;" horiz-adv-x="596" 
d="M52 21v106q116 -37 228 -37q76 0 109 22.5t33 74.5q0 31 -19.5 49.5t-49.5 28.5t-82 22q-72 16 -117.5 33.5t-78 57t-32.5 109.5q0 104 62 150.5t201 46.5q127 0 235 -38l-58 -89q-75 25 -167 25q-73 0 -105.5 -21.5t-32.5 -71.5q0 -30 19 -47.5t47.5 -26.5t80.5 -20
q74 -16 120 -33.5t79.5 -58.5t33.5 -114q0 -106 -63 -153.5t-205 -47.5q-124 0 -238 33zM113 880h109l76 -81l76 81h109l-123 -148h-124z" />
    <glyph glyph-name="Scedilla" unicode="&#x15e;" horiz-adv-x="596" 
d="M505.5 43.5q-52.5 -47.5 -169.5 -54.5v-17q38 -5 56.5 -22.5t18.5 -50.5q0 -46 -33 -66t-107 -20q-46 0 -87 12v65q36 -11 69 -11q58 0 58 22q0 11 -12.5 16.5t-42.5 5.5h-8v66q-100 4 -196 32v106q116 -37 228 -37q76 0 109 22.5t33 74.5q0 31 -19.5 49.5t-49.5 28.5
t-82 22q-72 16 -117.5 33.5t-78 57t-32.5 109.5q0 104 62 150.5t201 46.5q127 0 235 -38l-58 -89q-75 25 -167 25q-73 0 -105.5 -21.5t-32.5 -71.5q0 -30 19 -47.5t47.5 -26.5t80.5 -20q74 -16 120 -33.5t79.5 -58.5t33.5 -114q0 -98 -52.5 -145.5z" />
    <glyph glyph-name="Scircumflex" unicode="&#x15c;" horiz-adv-x="596" 
d="M52 21v106q116 -37 228 -37q76 0 109 22.5t33 74.5q0 31 -19.5 49.5t-49.5 28.5t-82 22q-72 16 -117.5 33.5t-78 57t-32.5 109.5q0 104 62 150.5t201 46.5q127 0 235 -38l-58 -89q-75 25 -167 25q-73 0 -105.5 -21.5t-32.5 -71.5q0 -30 19 -47.5t47.5 -26.5t80.5 -20
q74 -16 120 -33.5t79.5 -58.5t33.5 -114q0 -106 -63 -153.5t-205 -47.5q-124 0 -238 33zM236 880h124l123 -148h-109l-76 81l-76 -81h-109z" />
    <glyph glyph-name="Scommaaccent" unicode="&#x218;" horiz-adv-x="596" 
d="M52 21v106q116 -37 228 -37q76 0 109 22.5t33 74.5q0 31 -19.5 49.5t-49.5 28.5t-82 22q-72 16 -117.5 33.5t-78 57t-32.5 109.5q0 104 62 150.5t201 46.5q127 0 235 -38l-58 -89q-75 25 -167 25q-73 0 -105.5 -21.5t-32.5 -71.5q0 -30 19 -47.5t47.5 -26.5t80.5 -20
q74 -16 120 -33.5t79.5 -58.5t33.5 -114q0 -106 -63 -153.5t-205 -47.5q-124 0 -238 33zM253 -60h115l-59 -150h-94z" />
    <glyph glyph-name="uni1E9E" unicode="&#x1e9e;" horiz-adv-x="751" 
d="M670 329.5q42 -47.5 42 -134.5q0 -110 -62.5 -158.5t-202.5 -48.5q-89 0 -166 18v101q76 -19 155 -19q77 0 111 25.5t34 84.5q0 58 -35.5 83t-116.5 25h-26v82l135 186q-59 10 -126 10q-114 0 -163 -46.5t-49 -152.5v-385h-132v396q0 102 35 165t109.5 93t194.5 30
q126 0 273 -25v-83l-137 -188q85 -11 127 -58.5z" />
    <glyph glyph-name="T" unicode="T" horiz-adv-x="599" 
d="M532 570h-161v-570h-133v570h-218v102h579z" />
    <glyph glyph-name="Tbar" unicode="&#x166;" horiz-adv-x="599" 
d="M371 570v-210h140v-93h-140v-267h-133v267h-140v93h140v210h-218v102h579l-67 -102h-161z" />
    <glyph glyph-name="Tcaron" unicode="&#x164;" horiz-adv-x="599" 
d="M532 570h-161v-570h-133v570h-218v102h579zM120 880h109l76 -81l76 81h109l-123 -148h-124z" />
    <glyph glyph-name="uni0162" unicode="&#x162;" horiz-adv-x="599" 
d="M532 570h-161v-570h-133v570h-218v102h579zM250 -60h115l-59 -150h-94z" />
    <glyph glyph-name="uni021A" unicode="&#x21a;" horiz-adv-x="599" 
d="M532 570h-161v-570h-133v570h-218v102h579zM250 -60h115l-59 -150h-94z" />
    <glyph glyph-name="U" unicode="U" horiz-adv-x="746" 
d="M196.5 16.5q-67.5 28.5 -99 88.5t-31.5 158v409h133v-399q0 -96 41 -138t133 -42q93 0 133.5 42t40.5 138v399h133v-409q0 -98 -31.5 -158t-99 -88.5t-176.5 -28.5t-176.5 28.5z" />
    <glyph glyph-name="Uacute" unicode="&#xda;" horiz-adv-x="746" 
d="M196.5 16.5q-67.5 28.5 -99 88.5t-31.5 158v409h133v-399q0 -96 41 -138t133 -42q93 0 133.5 42t40.5 138v399h133v-409q0 -98 -31.5 -158t-99 -88.5t-176.5 -28.5t-176.5 28.5zM422 880h133l-144 -148h-112z" />
    <glyph glyph-name="Ubreve" unicode="&#x16c;" horiz-adv-x="746" 
d="M196.5 16.5q-67.5 28.5 -99 88.5t-31.5 158v409h133v-399q0 -96 41 -138t133 -42q93 0 133.5 42t40.5 138v399h133v-409q0 -98 -31.5 -158t-99 -88.5t-176.5 -28.5t-176.5 28.5zM246.5 758.5q-40.5 37.5 -40.5 121.5h90q0 -39 18.5 -56.5t59.5 -17.5t59.5 17.5t18.5 56.5
h90q0 -84 -40.5 -121.5t-127.5 -37.5t-127.5 37.5z" />
    <glyph glyph-name="Ucircumflex" unicode="&#xdb;" horiz-adv-x="746" 
d="M196.5 16.5q-67.5 28.5 -99 88.5t-31.5 158v409h133v-399q0 -96 41 -138t133 -42q93 0 133.5 42t40.5 138v399h133v-409q0 -98 -31.5 -158t-99 -88.5t-176.5 -28.5t-176.5 28.5zM312 880h124l123 -148h-109l-76 81l-76 -81h-109z" />
    <glyph glyph-name="Udieresis" unicode="&#xdc;" horiz-adv-x="746" 
d="M196.5 16.5q-67.5 28.5 -99 88.5t-31.5 158v409h133v-399q0 -96 41 -138t133 -42q93 0 133.5 42t40.5 138v399h133v-409q0 -98 -31.5 -158t-99 -88.5t-176.5 -28.5t-176.5 28.5zM209.5 752q-17.5 17 -17.5 54t17.5 54t56.5 17q38 0 55.5 -17t17.5 -54t-17.5 -54
t-55.5 -17q-39 0 -56.5 17zM426.5 752q-17.5 17 -17.5 54t17.5 54t55.5 17q39 0 56.5 -17t17.5 -54t-17.5 -54t-56.5 -17q-38 0 -55.5 17z" />
    <glyph glyph-name="Ugrave" unicode="&#xd9;" horiz-adv-x="746" 
d="M196.5 16.5q-67.5 28.5 -99 88.5t-31.5 158v409h133v-399q0 -96 41 -138t133 -42q93 0 133.5 42t40.5 138v399h133v-409q0 -98 -31.5 -158t-99 -88.5t-176.5 -28.5t-176.5 28.5zM193 880h133l123 -148h-112z" />
    <glyph glyph-name="Uhungarumlaut" unicode="&#x170;" horiz-adv-x="746" 
d="M196.5 16.5q-67.5 28.5 -99 88.5t-31.5 158v409h133v-399q0 -96 41 -138t133 -42q93 0 133.5 42t40.5 138v399h133v-409q0 -98 -31.5 -158t-99 -88.5t-176.5 -28.5t-176.5 28.5zM313 880h134l-141 -148h-115zM530 880h133l-141 -148h-115z" />
    <glyph glyph-name="Umacron" unicode="&#x16a;" horiz-adv-x="746" 
d="M196.5 16.5q-67.5 28.5 -99 88.5t-31.5 158v409h133v-399q0 -96 41 -138t133 -42q93 0 133.5 42t40.5 138v399h133v-409q0 -98 -31.5 -158t-99 -88.5t-176.5 -28.5t-176.5 28.5zM213 849h322v-87h-322v87z" />
    <glyph glyph-name="Uogonek" unicode="&#x172;" horiz-adv-x="746" 
d="M319 -168.5q-27 18.5 -27 56.5q0 58 76 101q-23 -1 -51 2q-132 10 -191.5 75t-59.5 197v409h133v-399q0 -96 41 -138t133 -42q93 0 133.5 42t40.5 138v399h133v-409q0 -76 -16 -124.5t-51.5 -81t-98.5 -58.5q-60 -25 -88.5 -45.5t-28.5 -40.5q0 -24 39 -24q8 0 35 3v-73
q-38 -6 -66 -6q-59 0 -86 18.5z" />
    <glyph glyph-name="Uring" unicode="&#x16e;" horiz-adv-x="746" 
d="M196.5 16.5q-67.5 28.5 -99 88.5t-31.5 158v409h133v-399q0 -96 41 -138t133 -42q93 0 133.5 42t40.5 138v399h133v-409q0 -98 -31.5 -158t-99 -88.5t-176.5 -28.5t-176.5 28.5zM284.5 728q-27.5 24 -27.5 78q0 53 28 77.5t89 24.5t89 -24.5t28 -77.5t-28 -77.5
t-89 -24.5q-62 0 -89.5 24zM410.5 769.5q11.5 11.5 11.5 36.5t-11 36t-37 11t-37 -11t-11 -36t11 -36.5t37 -11.5q25 0 36.5 11.5z" />
    <glyph glyph-name="Utilde" unicode="&#x168;" horiz-adv-x="746" 
d="M196.5 16.5q-67.5 28.5 -99 88.5t-31.5 158v409h133v-399q0 -96 41 -138t133 -42q93 0 133.5 42t40.5 138v399h133v-409q0 -98 -31.5 -158t-99 -88.5t-176.5 -28.5t-176.5 28.5zM205 751q0 62 24.5 90t79.5 28q21 0 37 -6.5t37 -18.5q25 -16 39 -16q17 0 24 9.5t7 31.5v5
h90v-13q0 -62 -24.5 -90t-79.5 -28q-21 0 -37 6.5t-37 18.5q-25 16 -39 16q-17 0 -24 -9.5t-7 -31.5v-6h-90v14z" />
    <glyph glyph-name="V" unicode="V" horiz-adv-x="664" 
d="M660 672l-253 -672h-150l-253 672h140l189 -538l189 538h138z" />
    <glyph glyph-name="W" unicode="W" horiz-adv-x="998" 
d="M985 672l-199 -672h-160l-121 403l-139 -403h-155l-198 672h135l144 -524l155 446l-23 78h134l146 -524l146 524h135z" />
    <glyph glyph-name="Wacute" unicode="&#x1e82;" horiz-adv-x="998" 
d="M985 672l-199 -672h-160l-121 403l-139 -403h-155l-198 672h135l144 -524l155 446l-23 78h134l146 -524l146 524h135zM541 880h133l-144 -148h-112z" />
    <glyph glyph-name="Wcircumflex" unicode="&#x174;" horiz-adv-x="998" 
d="M985 672l-199 -672h-160l-121 403l-139 -403h-155l-198 672h135l144 -524l155 446l-23 78h134l146 -524l146 524h135zM431 880h124l123 -148h-109l-76 81l-76 -81h-109z" />
    <glyph glyph-name="Wdieresis" unicode="&#x1e84;" horiz-adv-x="998" 
d="M985 672l-199 -672h-160l-121 403l-139 -403h-155l-198 672h135l144 -524l155 446l-23 78h134l146 -524l146 524h135zM328.5 752q-17.5 17 -17.5 54t17.5 54t56.5 17q38 0 55.5 -17t17.5 -54t-17.5 -54t-55.5 -17q-39 0 -56.5 17zM545.5 752q-17.5 17 -17.5 54t17.5 54
t55.5 17q39 0 56.5 -17t17.5 -54t-17.5 -54t-56.5 -17q-38 0 -55.5 17z" />
    <glyph glyph-name="Wgrave" unicode="&#x1e80;" horiz-adv-x="998" 
d="M985 672l-199 -672h-160l-121 403l-139 -403h-155l-198 672h135l144 -524l155 446l-23 78h134l146 -524l146 524h135zM312 880h133l123 -148h-112z" />
    <glyph glyph-name="X" unicode="X" horiz-adv-x="664" 
d="M503 0l-171 256l-171 -256h-149l236 342l-228 330h149l163 -243l163 243h149l-228 -330l236 -342h-149z" />
    <glyph glyph-name="Y" unicode="Y" horiz-adv-x="616" 
d="M375 279v-279h-133v278l-256 394h150l172 -276l173 276h149z" />
    <glyph glyph-name="Yacute" unicode="&#xdd;" horiz-adv-x="616" 
d="M375 279v-279h-133v278l-256 394h150l172 -276l173 276h149zM357 880h133l-144 -148h-112z" />
    <glyph glyph-name="Ycircumflex" unicode="&#x176;" horiz-adv-x="616" 
d="M375 279v-279h-133v278l-256 394h150l172 -276l173 276h149zM247 880h124l123 -148h-109l-76 81l-76 -81h-109z" />
    <glyph glyph-name="Ydieresis" unicode="&#x178;" horiz-adv-x="616" 
d="M375 279v-279h-133v278l-256 394h150l172 -276l173 276h149zM144.5 752q-17.5 17 -17.5 54t17.5 54t56.5 17q38 0 55.5 -17t17.5 -54t-17.5 -54t-55.5 -17q-39 0 -56.5 17zM361.5 752q-17.5 17 -17.5 54t17.5 54t55.5 17q39 0 56.5 -17t17.5 -54t-17.5 -54t-56.5 -17
q-38 0 -55.5 17z" />
    <glyph glyph-name="Ygrave" unicode="&#x1ef2;" horiz-adv-x="616" 
d="M375 279v-279h-133v278l-256 394h150l172 -276l173 276h149zM128 880h133l123 -148h-112z" />
    <glyph glyph-name="Z" unicode="Z" horiz-adv-x="629" 
d="M593 102v-102h-557v92l383 478h-375v102h541v-92l-384 -478h392z" />
    <glyph glyph-name="Zacute" unicode="&#x179;" horiz-adv-x="629" 
d="M593 102v-102h-557v92l383 478h-375v102h541v-92l-384 -478h392zM362 880h133l-144 -148h-112z" />
    <glyph glyph-name="Zacute.loclPLK" horiz-adv-x="629" 
d="M593 102v-102h-557v92l383 478h-375v102h541v-92l-384 -478h392zM302 880h124l-71 -148h-106z" />
    <glyph glyph-name="Zcaron" unicode="&#x17d;" horiz-adv-x="629" 
d="M593 102v-102h-557v92l383 478h-375v102h541v-92l-384 -478h392zM129 880h109l76 -81l76 81h109l-123 -148h-124z" />
    <glyph glyph-name="Zdotaccent" unicode="&#x17b;" horiz-adv-x="629" 
d="M593 102v-102h-557v92l383 478h-375v102h541v-92l-384 -478h392zM258 751.5q-17 16.5 -17 54.5t17 54.5t56 16.5t56 -16.5t17 -54.5t-17 -54.5t-56 -16.5t-56 16.5z" />
    <glyph glyph-name="a" unicode="a" horiz-adv-x="579" 
d="M549 104v-98q-17 -7 -32.5 -10t-39.5 -3q-38 0 -61 12t-34 37q-24 -27 -63 -40.5t-88 -13.5q-99 0 -145 36.5t-46 114.5q0 75 50.5 110t163.5 35h112v29q0 49 -29.5 70.5t-97.5 21.5q-74 0 -154 -24v98q81 23 169 23q125 0 180 -46.5t55 -152.5v-157q0 -26 8 -35.5
t26 -9.5q10 0 26 3zM340 97q26 19 26 61v44h-102q-51 0 -75 -14.5t-24 -47.5q0 -32 22 -47t69 -15q58 0 84 19z" />
    <glyph glyph-name="aacute" unicode="&#xe1;" horiz-adv-x="579" 
d="M549 104v-98q-17 -7 -32.5 -10t-39.5 -3q-38 0 -61 12t-34 37q-24 -27 -63 -40.5t-88 -13.5q-99 0 -145 36.5t-46 114.5q0 75 50.5 110t163.5 35h112v29q0 49 -29.5 70.5t-97.5 21.5q-74 0 -154 -24v98q81 23 169 23q125 0 180 -46.5t55 -152.5v-157q0 -26 8 -35.5
t26 -9.5q10 0 26 3zM340 97q26 19 26 61v44h-102q-51 0 -75 -14.5t-24 -47.5q0 -32 22 -47t69 -15q58 0 84 19zM324 704h133l-144 -148h-112z" />
    <glyph glyph-name="abreve" unicode="&#x103;" horiz-adv-x="579" 
d="M549 104v-98q-17 -7 -32.5 -10t-39.5 -3q-38 0 -61 12t-34 37q-24 -27 -63 -40.5t-88 -13.5q-99 0 -145 36.5t-46 114.5q0 75 50.5 110t163.5 35h112v29q0 49 -29.5 70.5t-97.5 21.5q-74 0 -154 -24v98q81 23 169 23q125 0 180 -46.5t55 -152.5v-157q0 -26 8 -35.5
t26 -9.5q10 0 26 3zM340 97q26 19 26 61v44h-102q-51 0 -75 -14.5t-24 -47.5q0 -32 22 -47t69 -15q58 0 84 19zM148.5 582.5q-40.5 37.5 -40.5 121.5h90q0 -39 18.5 -56.5t59.5 -17.5t59.5 17.5t18.5 56.5h90q0 -84 -40.5 -121.5t-127.5 -37.5t-127.5 37.5z" />
    <glyph glyph-name="uni01CE" unicode="&#x1ce;" horiz-adv-x="579" 
d="M549 104v-98q-17 -7 -32.5 -10t-39.5 -3q-38 0 -61 12t-34 37q-24 -27 -63 -40.5t-88 -13.5q-99 0 -145 36.5t-46 114.5q0 75 50.5 110t163.5 35h112v29q0 49 -29.5 70.5t-97.5 21.5q-74 0 -154 -24v98q81 23 169 23q125 0 180 -46.5t55 -152.5v-157q0 -26 8 -35.5
t26 -9.5q10 0 26 3zM340 97q26 19 26 61v44h-102q-51 0 -75 -14.5t-24 -47.5q0 -32 22 -47t69 -15q58 0 84 19zM461 704l-123 -148h-124l-123 148h109l76 -81l76 81h109z" />
    <glyph glyph-name="acircumflex" unicode="&#xe2;" horiz-adv-x="579" 
d="M549 104v-98q-17 -7 -32.5 -10t-39.5 -3q-38 0 -61 12t-34 37q-24 -27 -63 -40.5t-88 -13.5q-99 0 -145 36.5t-46 114.5q0 75 50.5 110t163.5 35h112v29q0 49 -29.5 70.5t-97.5 21.5q-74 0 -154 -24v98q81 23 169 23q125 0 180 -46.5t55 -152.5v-157q0 -26 8 -35.5
t26 -9.5q10 0 26 3zM340 97q26 19 26 61v44h-102q-51 0 -75 -14.5t-24 -47.5q0 -32 22 -47t69 -15q58 0 84 19zM352 556l-76 81l-76 -81h-109l123 148h124l123 -148h-109z" />
    <glyph glyph-name="adieresis" unicode="&#xe4;" horiz-adv-x="579" 
d="M549 104v-98q-17 -7 -32.5 -10t-39.5 -3q-38 0 -61 12t-34 37q-24 -27 -63 -40.5t-88 -13.5q-99 0 -145 36.5t-46 114.5q0 75 50.5 110t163.5 35h112v29q0 49 -29.5 70.5t-97.5 21.5q-74 0 -154 -24v98q81 23 169 23q125 0 180 -46.5t55 -152.5v-157q0 -26 8 -35.5
t26 -9.5q10 0 26 3zM340 97q26 19 26 61v44h-102q-51 0 -75 -14.5t-24 -47.5q0 -32 22 -47t69 -15q58 0 84 19zM111.5 576q-17.5 17 -17.5 54t17.5 54t56.5 17q38 0 55.5 -17t17.5 -54t-17.5 -54t-55.5 -17q-39 0 -56.5 17zM328.5 576q-17.5 17 -17.5 54t17.5 54t55.5 17
q39 0 56.5 -17t17.5 -54t-17.5 -54t-56.5 -17q-38 0 -55.5 17z" />
    <glyph glyph-name="agrave" unicode="&#xe0;" horiz-adv-x="579" 
d="M549 104v-98q-17 -7 -32.5 -10t-39.5 -3q-38 0 -61 12t-34 37q-24 -27 -63 -40.5t-88 -13.5q-99 0 -145 36.5t-46 114.5q0 75 50.5 110t163.5 35h112v29q0 49 -29.5 70.5t-97.5 21.5q-74 0 -154 -24v98q81 23 169 23q125 0 180 -46.5t55 -152.5v-157q0 -26 8 -35.5
t26 -9.5q10 0 26 3zM340 97q26 19 26 61v44h-102q-51 0 -75 -14.5t-24 -47.5q0 -32 22 -47t69 -15q58 0 84 19zM95 704h133l123 -148h-112z" />
    <glyph glyph-name="amacron" unicode="&#x101;" horiz-adv-x="579" 
d="M549 104v-98q-17 -7 -32.5 -10t-39.5 -3q-38 0 -61 12t-34 37q-24 -27 -63 -40.5t-88 -13.5q-99 0 -145 36.5t-46 114.5q0 75 50.5 110t163.5 35h112v29q0 49 -29.5 70.5t-97.5 21.5q-74 0 -154 -24v98q81 23 169 23q125 0 180 -46.5t55 -152.5v-157q0 -26 8 -35.5
t26 -9.5q10 0 26 3zM340 97q26 19 26 61v44h-102q-51 0 -75 -14.5t-24 -47.5q0 -32 22 -47t69 -15q58 0 84 19zM115 673h322v-87h-322v87z" />
    <glyph glyph-name="aogonek" unicode="&#x105;" horiz-adv-x="579" 
d="M493 -50q-15 -19 -15 -37q0 -13 8 -18.5t26 -5.5q8 0 35 3v-73q-38 -6 -65 -6q-55 0 -79.5 18t-24.5 57q0 29 15 53.5t49 54.5q-43 9 -60 46q-24 -27 -63 -40.5t-88 -13.5q-99 0 -145 36.5t-46 114.5q0 75 50.5 110t163.5 35h112v29q0 49 -29.5 70.5t-97.5 21.5
q-74 0 -154 -24v98q81 23 169 23q125 0 180 -46.5t55 -152.5v-157q0 -26 8 -35.5t26 -9.5q10 0 26 3v-98q-41 -37 -56 -56zM340 97q26 19 26 61v44h-102q-51 0 -75 -14.5t-24 -47.5q0 -32 22 -47t69 -15q58 0 84 19z" />
    <glyph glyph-name="aring" unicode="&#xe5;" horiz-adv-x="579" 
d="M549 104v-98q-17 -7 -32.5 -10t-39.5 -3q-38 0 -61 12t-34 37q-24 -27 -63 -40.5t-88 -13.5q-99 0 -145 36.5t-46 114.5q0 75 50.5 110t163.5 35h112v29q0 49 -29.5 70.5t-97.5 21.5q-74 0 -154 -24v98q81 23 169 23q125 0 180 -46.5t55 -152.5v-157q0 -26 8 -35.5
t26 -9.5q10 0 26 3zM340 97q26 19 26 61v44h-102q-51 0 -75 -14.5t-24 -47.5q0 -32 22 -47t69 -15q58 0 84 19zM186.5 552q-27.5 24 -27.5 78q0 53 28 77.5t89 24.5t89 -24.5t28 -77.5t-28 -77.5t-89 -24.5q-62 0 -89.5 24zM312.5 593.5q11.5 11.5 11.5 36.5t-11 36t-37 11
t-37 -11t-11 -36t11 -36.5t37 -11.5q25 0 36.5 11.5z" />
    <glyph glyph-name="atilde" unicode="&#xe3;" horiz-adv-x="579" 
d="M549 104v-98q-17 -7 -32.5 -10t-39.5 -3q-38 0 -61 12t-34 37q-24 -27 -63 -40.5t-88 -13.5q-99 0 -145 36.5t-46 114.5q0 75 50.5 110t163.5 35h112v29q0 49 -29.5 70.5t-97.5 21.5q-74 0 -154 -24v98q81 23 169 23q125 0 180 -46.5t55 -152.5v-157q0 -26 8 -35.5
t26 -9.5q10 0 26 3zM340 97q26 19 26 61v44h-102q-51 0 -75 -14.5t-24 -47.5q0 -32 22 -47t69 -15q58 0 84 19zM107 575q0 62 24.5 90t79.5 28q21 0 37 -6.5t37 -18.5q25 -16 39 -16q17 0 24 9.5t7 31.5v5h90v-13q0 -62 -24.5 -90t-79.5 -28q-21 0 -37 6.5t-37 18.5
q-25 16 -39 16q-17 0 -24 -9.5t-7 -31.5v-6h-90v14z" />
    <glyph glyph-name="ae" unicode="&#xe6;" horiz-adv-x="866" 
d="M830 208h-344q4 -65 41.5 -94t118.5 -29q83 0 165 24v-98q-75 -23 -174 -23q-153 0 -219 73q-52 -73 -186 -73q-100 0 -146 36.5t-46 114.5q0 75 50.5 110t163.5 35h112v29q0 49 -29.5 70.5t-97.5 21.5q-74 0 -154 -24v98q81 23 169 23q68 0 111.5 -16.5t65.5 -52.5
q26 34 70.5 51.5t104.5 17.5q120 0 173 -58.5t53 -190.5q0 -31 -2 -45zM517.5 383.5q-27.5 -28.5 -30.5 -93.5h223q-1 65 -26 93.5t-79 28.5q-60 0 -87.5 -28.5zM340.5 97q25.5 19 25.5 61v44h-102q-51 0 -75 -14.5t-24 -47.5q0 -32 22.5 -47t70.5 -15q57 0 82.5 19z" />
    <glyph glyph-name="aeacute" unicode="&#x1fd;" horiz-adv-x="866" 
d="M830 208h-344q4 -65 41.5 -94t118.5 -29q83 0 165 24v-98q-75 -23 -174 -23q-153 0 -219 73q-52 -73 -186 -73q-100 0 -146 36.5t-46 114.5q0 75 50.5 110t163.5 35h112v29q0 49 -29.5 70.5t-97.5 21.5q-74 0 -154 -24v98q81 23 169 23q68 0 111.5 -16.5t65.5 -52.5
q26 34 70.5 51.5t104.5 17.5q120 0 173 -58.5t53 -190.5q0 -31 -2 -45zM517.5 383.5q-27.5 -28.5 -30.5 -93.5h223q-1 65 -26 93.5t-79 28.5q-60 0 -87.5 -28.5zM340.5 97q25.5 19 25.5 61v44h-102q-51 0 -75 -14.5t-24 -47.5q0 -32 22.5 -47t70.5 -15q57 0 82.5 19z
M484 704h133l-144 -148h-112z" />
    <glyph glyph-name="b" unicode="b" horiz-adv-x="590" 
d="M505 441.5q51 -60.5 51 -196.5t-51 -196.5t-166 -60.5q-113 0 -167 60l-10 -48h-98v704h128v-250q51 48 147 48q115 0 166 -60.5zM398 124.5q28 36.5 28 120.5t-28 120.5t-92 36.5q-61 0 -87.5 -28.5t-26.5 -92.5v-72q0 -64 26.5 -92.5t87.5 -28.5q64 0 92 36.5z" />
    <glyph glyph-name="c" unicode="c" horiz-adv-x="481" 
d="M94 48.5q-60 60.5 -60 196.5t60 196.5t196 60.5q93 0 161 -27l-55 -85q-41 12 -85 12q-78 0 -112.5 -37t-34.5 -120t34.5 -120t112.5 -37q67 0 133 20v-101q-67 -19 -154 -19q-136 0 -196 60.5z" />
    <glyph glyph-name="cacute" unicode="&#x107;" horiz-adv-x="481" 
d="M94 48.5q-60 60.5 -60 196.5t60 196.5t196 60.5q93 0 161 -27l-55 -85q-41 12 -85 12q-78 0 -112.5 -37t-34.5 -120t34.5 -120t112.5 -37q67 0 133 20v-101q-67 -19 -154 -19q-136 0 -196 60.5zM321 704h133l-144 -148h-112z" />
    <glyph glyph-name="cacute.loclPLK" horiz-adv-x="481" 
d="M94 48.5q-60 60.5 -60 196.5t60 196.5t196 60.5q93 0 161 -27l-55 -85q-41 12 -85 12q-78 0 -112.5 -37t-34.5 -120t34.5 -120t112.5 -37q67 0 133 20v-101q-67 -19 -154 -19q-136 0 -196 60.5zM271 704h124l-71 -148h-106z" />
    <glyph glyph-name="ccaron" unicode="&#x10d;" horiz-adv-x="481" 
d="M94 48.5q-60 60.5 -60 196.5t60 196.5t196 60.5q93 0 161 -27l-55 -85q-41 12 -85 12q-78 0 -112.5 -37t-34.5 -120t34.5 -120t112.5 -37q67 0 133 20v-101q-67 -19 -154 -19q-136 0 -196 60.5zM458 704l-123 -148h-124l-123 148h109l76 -81l76 81h109z" />
    <glyph glyph-name="ccedilla" unicode="&#xe7;" horiz-adv-x="481" 
d="M198.5 125q34.5 -37 112.5 -37q67 0 133 20v-101q-57 -16 -128 -19v-16q38 -5 56.5 -22.5t18.5 -50.5q0 -46 -33 -66t-107 -20q-47 0 -87 12v65q36 -11 69 -11q58 0 58 22q0 11 -12.5 16.5t-42.5 5.5h-8v68q-102 13 -148 73.5t-46 180.5q0 136 60 196.5t196 60.5
q93 0 161 -27l-55 -85q-41 12 -85 12q-78 0 -112.5 -37t-34.5 -120t34.5 -120z" />
    <glyph glyph-name="ccircumflex" unicode="&#x109;" horiz-adv-x="481" 
d="M94 48.5q-60 60.5 -60 196.5t60 196.5t196 60.5q93 0 161 -27l-55 -85q-41 12 -85 12q-78 0 -112.5 -37t-34.5 -120t34.5 -120t112.5 -37q67 0 133 20v-101q-67 -19 -154 -19q-136 0 -196 60.5zM349 556l-76 81l-76 -81h-109l123 148h124l123 -148h-109z" />
    <glyph glyph-name="cdotaccent" unicode="&#x10b;" horiz-adv-x="481" 
d="M94 48.5q-60 60.5 -60 196.5t60 196.5t196 60.5q93 0 161 -27l-55 -85q-41 12 -85 12q-78 0 -112.5 -37t-34.5 -120t34.5 -120t112.5 -37q67 0 133 20v-101q-67 -19 -154 -19q-136 0 -196 60.5zM217 575.5q-17 16.5 -17 54.5t17 54.5t56 16.5t56 -16.5t17 -54.5
t-17 -54.5t-56 -16.5t-56 16.5z" />
    <glyph glyph-name="d" unicode="d" horiz-adv-x="589" 
d="M525 704v-704h-97l-10 48q-28 -31 -69.5 -45.5t-98.5 -14.5q-114 0 -165 60.5t-51 196.5t51 196.5t165 60.5q98 0 147 -48v250h128zM397 281q0 64 -26.5 92.5t-87.5 28.5q-64 0 -91.5 -36.5t-27.5 -120.5t27.5 -120.5t91.5 -36.5q61 0 87.5 28.5t26.5 92.5v72z" />
    <glyph glyph-name="eth" unicode="&#xf0;" horiz-adv-x="585" 
d="M504.5 512.5q36.5 -91.5 36.5 -231.5q0 -152 -61.5 -222.5t-195.5 -70.5q-131 0 -189.5 58t-58.5 189t53 189t173 58q89 0 136 -46q-16 93 -83 138l-43 -45h-108l75 78q-48 13 -115 16v93q114 -2 192 -28l27 28h108l-60 -63q77 -49 113.5 -140.5zM381.5 119.5
q29.5 36.5 29.5 120.5q0 76 -29 111.5t-92 35.5q-65 0 -94.5 -35.5t-29.5 -116.5t28 -116.5t90 -35.5q68 0 97.5 36.5z" />
    <glyph glyph-name="dcaron" unicode="&#x10f;" horiz-adv-x="689" 
d="M525 704v-704h-97l-10 48q-28 -31 -69.5 -45.5t-98.5 -14.5q-114 0 -165 60.5t-51 196.5t51 196.5t165 60.5q98 0 147 -48v250h128zM397 281q0 64 -26.5 92.5t-87.5 28.5q-64 0 -91.5 -36.5t-27.5 -120.5t27.5 -120.5t91.5 -36.5q61 0 87.5 28.5t26.5 92.5v72zM608 704
h109l-67 -181h-88z" />
    <glyph glyph-name="dcroat" unicode="&#x111;" horiz-adv-x="589" 
d="M582 551h-57v-551h-97l-10 48q-28 -31 -69.5 -45.5t-98.5 -14.5q-114 0 -165 60.5t-51 196.5t51 196.5t165 60.5q98 0 147 -48v97h-164v88h164v65h128v-65h57v-88zM397 281q0 64 -26.5 92.5t-87.5 28.5q-64 0 -91.5 -36.5t-27.5 -120.5t27.5 -120.5t91.5 -36.5
q61 0 87.5 28.5t26.5 92.5v72z" />
    <glyph glyph-name="e" unicode="e" horiz-adv-x="539" 
d="M503 208h-344q4 -65 41.5 -94t118.5 -29q82 0 165 24v-98q-76 -23 -175 -23q-145 0 -210 60.5t-65 196.5t57.5 196.5t187.5 60.5q120 0 173 -58.5t53 -190.5q0 -17 -2 -45zM191 383.5q-28 -28.5 -31 -93.5h222q-1 65 -25.5 93.5t-77.5 28.5q-60 0 -88 -28.5z" />
    <glyph glyph-name="eacute" unicode="&#xe9;" horiz-adv-x="539" 
d="M503 208h-344q4 -65 41.5 -94t118.5 -29q82 0 165 24v-98q-76 -23 -175 -23q-145 0 -210 60.5t-65 196.5t57.5 196.5t187.5 60.5q120 0 173 -58.5t53 -190.5q0 -17 -2 -45zM191 383.5q-28 -28.5 -31 -93.5h222q-1 65 -25.5 93.5t-77.5 28.5q-60 0 -88 -28.5zM325 704h133
l-144 -148h-112z" />
    <glyph glyph-name="ebreve" unicode="&#x115;" horiz-adv-x="539" 
d="M503 208h-344q4 -65 41.5 -94t118.5 -29q82 0 165 24v-98q-76 -23 -175 -23q-145 0 -210 60.5t-65 196.5t57.5 196.5t187.5 60.5q120 0 173 -58.5t53 -190.5q0 -17 -2 -45zM191 383.5q-28 -28.5 -31 -93.5h222q-1 65 -25.5 93.5t-77.5 28.5q-60 0 -88 -28.5zM149.5 582.5
q-40.5 37.5 -40.5 121.5h90q0 -39 18.5 -56.5t59.5 -17.5t59.5 17.5t18.5 56.5h90q0 -84 -40.5 -121.5t-127.5 -37.5t-127.5 37.5z" />
    <glyph glyph-name="ecaron" unicode="&#x11b;" horiz-adv-x="539" 
d="M503 208h-344q4 -65 41.5 -94t118.5 -29q82 0 165 24v-98q-76 -23 -175 -23q-145 0 -210 60.5t-65 196.5t57.5 196.5t187.5 60.5q120 0 173 -58.5t53 -190.5q0 -17 -2 -45zM191 383.5q-28 -28.5 -31 -93.5h222q-1 65 -25.5 93.5t-77.5 28.5q-60 0 -88 -28.5zM462 704
l-123 -148h-124l-123 148h109l76 -81l76 81h109z" />
    <glyph glyph-name="ecircumflex" unicode="&#xea;" horiz-adv-x="539" 
d="M503 208h-344q4 -65 41.5 -94t118.5 -29q82 0 165 24v-98q-76 -23 -175 -23q-145 0 -210 60.5t-65 196.5t57.5 196.5t187.5 60.5q120 0 173 -58.5t53 -190.5q0 -17 -2 -45zM191 383.5q-28 -28.5 -31 -93.5h222q-1 65 -25.5 93.5t-77.5 28.5q-60 0 -88 -28.5zM353 556
l-76 81l-76 -81h-109l123 148h124l123 -148h-109z" />
    <glyph glyph-name="edieresis" unicode="&#xeb;" horiz-adv-x="539" 
d="M503 208h-344q4 -65 41.5 -94t118.5 -29q82 0 165 24v-98q-76 -23 -175 -23q-145 0 -210 60.5t-65 196.5t57.5 196.5t187.5 60.5q120 0 173 -58.5t53 -190.5q0 -17 -2 -45zM191 383.5q-28 -28.5 -31 -93.5h222q-1 65 -25.5 93.5t-77.5 28.5q-60 0 -88 -28.5zM112.5 576
q-17.5 17 -17.5 54t17.5 54t56.5 17q38 0 55.5 -17t17.5 -54t-17.5 -54t-55.5 -17q-39 0 -56.5 17zM329.5 576q-17.5 17 -17.5 54t17.5 54t55.5 17q39 0 56.5 -17t17.5 -54t-17.5 -54t-56.5 -17q-38 0 -55.5 17z" />
    <glyph glyph-name="edotaccent" unicode="&#x117;" horiz-adv-x="539" 
d="M503 208h-344q4 -65 41.5 -94t118.5 -29q82 0 165 24v-98q-76 -23 -175 -23q-145 0 -210 60.5t-65 196.5t57.5 196.5t187.5 60.5q120 0 173 -58.5t53 -190.5q0 -17 -2 -45zM191 383.5q-28 -28.5 -31 -93.5h222q-1 65 -25.5 93.5t-77.5 28.5q-60 0 -88 -28.5zM221 575.5
q-17 16.5 -17 54.5t17 54.5t56 16.5t56 -16.5t17 -54.5t-17 -54.5t-56 -16.5t-56 16.5z" />
    <glyph glyph-name="egrave" unicode="&#xe8;" horiz-adv-x="539" 
d="M503 208h-344q4 -65 41.5 -94t118.5 -29q82 0 165 24v-98q-76 -23 -175 -23q-145 0 -210 60.5t-65 196.5t57.5 196.5t187.5 60.5q120 0 173 -58.5t53 -190.5q0 -17 -2 -45zM191 383.5q-28 -28.5 -31 -93.5h222q-1 65 -25.5 93.5t-77.5 28.5q-60 0 -88 -28.5zM96 704h133
l123 -148h-112z" />
    <glyph glyph-name="emacron" unicode="&#x113;" horiz-adv-x="539" 
d="M503 208h-344q4 -65 41.5 -94t118.5 -29q82 0 165 24v-98q-76 -23 -175 -23q-145 0 -210 60.5t-65 196.5t57.5 196.5t187.5 60.5q120 0 173 -58.5t53 -190.5q0 -17 -2 -45zM191 383.5q-28 -28.5 -31 -93.5h222q-1 65 -25.5 93.5t-77.5 28.5q-60 0 -88 -28.5zM116 673h322
v-87h-322v87z" />
    <glyph glyph-name="eogonek" unicode="&#x119;" horiz-adv-x="539" 
d="M503 208h-344q4 -65 41.5 -94t118.5 -29q82 0 165 24v-98q-42 -36 -57.5 -57.5t-15.5 -40.5q0 -13 8 -18.5t26 -5.5q8 0 35 3v-73q-38 -6 -65 -6q-55 0 -79.5 18t-24.5 57q0 27 13.5 50t43.5 52q-38 -2 -59 -2q-145 0 -210 60.5t-65 196.5t57.5 196.5t187.5 60.5
q120 0 173 -58.5t53 -190.5q0 -17 -2 -45zM191 383.5q-28 -28.5 -31 -93.5h222q-1 65 -25.5 93.5t-77.5 28.5q-60 0 -88 -28.5z" />
    <glyph glyph-name="f" unicode="f" horiz-adv-x="384" 
d="M264.5 597q-21.5 -19 -21.5 -62v-45h155l-63 -97h-92v-393h-127v393h-92v97h92v40q0 99 47 142.5t155 43.5q47 0 96 -11v-100q-46 11 -81 11q-47 0 -68.5 -19z" />
    <glyph glyph-name="g" unicode="g" horiz-adv-x="554" 
d="M529 -35q0 -80 -60.5 -116t-189.5 -36q-91 0 -145 13.5t-79 43t-25 79.5q0 38 23.5 67t62.5 41q-22 18 -22 62l47 73q-100 35 -100 146q0 83 58 123.5t174 40.5q48 0 91 -8l32 74h122l-69 -108q56 -41 56 -122q0 -84 -56.5 -124t-175.5 -40q-27 0 -39 1l-27 -62h101
q221 0 221 -148zM191.5 397q-25.5 -19 -25.5 -59t25.5 -59t81.5 -19q57 0 82 19t25 59t-25 59t-82 19q-56 0 -81.5 -19zM376 -86q28 13 28 46t-30 46t-98 13q-65 0 -93 -13t-28 -45q0 -34 28.5 -47t95.5 -13q69 0 97 13z" />
    <glyph glyph-name="gbreve" unicode="&#x11f;" horiz-adv-x="554" 
d="M148.5 582.5q-40.5 37.5 -40.5 121.5h90q0 -39 18.5 -56.5t59.5 -17.5t59.5 17.5t18.5 56.5h90q0 -84 -40.5 -121.5t-127.5 -37.5t-127.5 37.5zM529 -35q0 -80 -60.5 -116t-189.5 -36q-91 0 -145 13.5t-79 43t-25 79.5q0 38 23.5 67t62.5 41q-22 18 -22 62l47 73
q-100 35 -100 146q0 83 58 123.5t174 40.5t174 -40.5t58 -123.5q0 -84 -56.5 -124t-175.5 -40q-27 0 -39 1l-27 -62h101q221 0 221 -148zM191.5 397q-25.5 -19 -25.5 -59t25.5 -59t81.5 -19q57 0 82 19t25 59t-25 59t-82 19q-56 0 -81.5 -19zM376 -86q28 13 28 46t-30 46
t-98 13q-65 0 -93 -13t-28 -45q0 -34 28.5 -47t95.5 -13q69 0 97 13z" />
    <glyph glyph-name="gcircumflex" unicode="&#x11d;" horiz-adv-x="554" 
d="M200 556h-109l123 148h124l123 -148h-109l-76 81zM529 -35q0 -80 -60.5 -116t-189.5 -36q-91 0 -145 13.5t-79 43t-25 79.5q0 38 23.5 67t62.5 41q-22 18 -22 62l47 73q-100 35 -100 146q0 83 58 123.5t174 40.5t174 -40.5t58 -123.5q0 -84 -56.5 -124t-175.5 -40
q-27 0 -39 1l-27 -62h101q221 0 221 -148zM191.5 397q-25.5 -19 -25.5 -59t25.5 -59t81.5 -19q57 0 82 19t25 59t-25 59t-82 19q-56 0 -81.5 -19zM376 -86q28 13 28 46t-30 46t-98 13q-65 0 -93 -13t-28 -45q0 -34 28.5 -47t95.5 -13q69 0 97 13z" />
    <glyph glyph-name="gcommaaccent" unicode="&#x123;" horiz-adv-x="554" 
d="M326 550h-109l60 154h88zM529 -35q0 -80 -60.5 -116t-189.5 -36q-91 0 -145 13.5t-79 43t-25 79.5q0 38 23.5 67t62.5 41q-22 18 -22 62l47 73q-100 35 -100 146q0 83 58 123.5t174 40.5q48 0 91 -8l32 74h122l-69 -108q56 -41 56 -122q0 -84 -56.5 -124t-175.5 -40
q-27 0 -39 1l-27 -62h101q221 0 221 -148zM191.5 397q-25.5 -19 -25.5 -59t25.5 -59t81.5 -19q57 0 82 19t25 59t-25 59t-82 19q-56 0 -81.5 -19zM376 -86q28 13 28 46t-30 46t-98 13q-65 0 -93 -13t-28 -45q0 -34 28.5 -47t95.5 -13q69 0 97 13z" />
    <glyph glyph-name="gdotaccent" unicode="&#x121;" horiz-adv-x="554" 
d="M218 575.5q-17 16.5 -17 54.5t17 54.5t56 16.5t56 -16.5t17 -54.5t-17 -54.5t-56 -16.5t-56 16.5zM529 -35q0 -80 -60.5 -116t-189.5 -36q-91 0 -145 13.5t-79 43t-25 79.5q0 38 23.5 67t62.5 41q-22 18 -22 62l47 73q-100 35 -100 146q0 83 58 123.5t174 40.5
q48 0 91 -8l32 74h122l-69 -108q56 -41 56 -122q0 -84 -56.5 -124t-175.5 -40q-27 0 -39 1l-27 -62h101q221 0 221 -148zM191.5 397q-25.5 -19 -25.5 -59t25.5 -59t81.5 -19q57 0 82 19t25 59t-25 59t-82 19q-56 0 -81.5 -19zM376 -86q28 13 28 46t-30 46t-98 13
q-65 0 -93 -13t-28 -45q0 -34 28.5 -47t95.5 -13q69 0 97 13z" />
    <glyph glyph-name="h" unicode="h" horiz-adv-x="591" 
d="M487.5 455.5q46.5 -46.5 46.5 -153.5v-302h-128v297q0 55 -22.5 79t-74.5 24q-62 0 -89.5 -27.5t-27.5 -88.5v-284h-128v704h128v-250q48 48 142 48q107 0 153.5 -46.5z" />
    <glyph glyph-name="hbar" unicode="&#x127;" horiz-adv-x="591" 
d="M487.5 455.5q46.5 -46.5 46.5 -153.5v-302h-128v297q0 55 -22.5 79t-74.5 24q-62 0 -89.5 -27.5t-27.5 -88.5v-284h-128v551h-61v88h61v65h128v-65h160v-88h-160v-97q48 48 142 48q107 0 153.5 -46.5z" />
    <glyph glyph-name="hcircumflex" unicode="&#x125;" horiz-adv-x="591" 
d="M125 823l-71 -81h-109l118 138h124l118 -138h-109zM487.5 455.5q46.5 -46.5 46.5 -153.5v-302h-128v297q0 55 -22.5 79t-74.5 24q-62 0 -89.5 -27.5t-27.5 -88.5v-284h-128v704h128v-250q48 48 142 48q107 0 153.5 -46.5z" />
    <glyph glyph-name="i" unicode="i" horiz-adv-x="252" 
d="M68 573.5q-18 17.5 -18 56.5q0 38 18 55.5t58 17.5t58 -17.5t18 -55.5q0 -39 -18 -56.5t-58 -17.5t-58 17.5zM62 490h128v-490h-128v490z" />
    <glyph glyph-name="dotlessi" unicode="&#x131;" horiz-adv-x="252" 
d="M62 490h128v-490h-128v490z" />
    <glyph glyph-name="iacute" unicode="&#xed;" horiz-adv-x="252" 
d="M62 490h128v-490h-128v490zM174 704h133l-144 -148h-112z" />
    <glyph glyph-name="iacute_j.loclNLD" horiz-adv-x="514" 
d="M62 490h128v-490h-128v490zM174 704h133l-144 -148h-112zM171 -178v100q34 -9 72 -9q43 0 62 19.5t19 63.5v494h128v-499q0 -95 -44.5 -136.5t-144.5 -41.5q-48 0 -92 9zM437 704h133l-144 -148h-112z" />
    <glyph glyph-name="ibreve" unicode="&#x12d;" horiz-adv-x="252" 
d="M62 490h128v-490h-128v490zM-1.5 582.5q-40.5 37.5 -40.5 121.5h90q0 -39 18.5 -56.5t59.5 -17.5t59.5 17.5t18.5 56.5h90q0 -84 -40.5 -121.5t-127.5 -37.5t-127.5 37.5z" />
    <glyph glyph-name="icircumflex" unicode="&#xee;" horiz-adv-x="252" 
d="M62 490h128v-490h-128v490zM202 556l-76 81l-76 -81h-109l123 148h124l123 -148h-109z" />
    <glyph glyph-name="idieresis" unicode="&#xef;" horiz-adv-x="252" 
d="M62 490h128v-490h-128v490zM-38.5 576q-17.5 17 -17.5 54t17.5 54t56.5 17q38 0 55.5 -17t17.5 -54t-17.5 -54t-55.5 -17q-39 0 -56.5 17zM178.5 576q-17.5 17 -17.5 54t17.5 54t55.5 17q39 0 56.5 -17t17.5 -54t-17.5 -54t-56.5 -17q-38 0 -55.5 17z" />
    <glyph glyph-name="i.loclTRK" horiz-adv-x="252" 
d="M62 490h128v-490h-128v490zM70 575.5q-17 16.5 -17 54.5t17 54.5t56 16.5t56 -16.5t17 -54.5t-17 -54.5t-56 -16.5t-56 16.5z" />
    <glyph glyph-name="igrave" unicode="&#xec;" horiz-adv-x="252" 
d="M62 490h128v-490h-128v490zM-55 704h133l123 -148h-112z" />
    <glyph glyph-name="ij" unicode="&#x133;" horiz-adv-x="514" 
d="M68 573.5q-18 17.5 -18 56.5q0 38 18 55.5t58 17.5t58 -17.5t18 -55.5q0 -39 -18 -56.5t-58 -17.5t-58 17.5zM62 490h128v-490h-128v490zM330 573.5q-18 17.5 -18 56.5q0 38 18 55.5t58 17.5t58 -17.5t18 -55.5q0 -39 -18 -56.5t-58 -17.5t-58 17.5zM171 -178v100
q34 -9 72 -9q43 0 62 19.5t19 63.5v494h128v-499q0 -95 -44.5 -136.5t-144.5 -41.5q-48 0 -92 9z" />
    <glyph glyph-name="imacron" unicode="&#x12b;" horiz-adv-x="252" 
d="M62 490h128v-490h-128v490zM-35 673h322v-87h-322v87z" />
    <glyph glyph-name="iogonek" unicode="&#x12f;" horiz-adv-x="252" 
d="M68 573.5q-18 17.5 -18 56.5q0 38 18 55.5t58 17.5t58 -17.5t18 -55.5q0 -39 -18 -56.5t-58 -17.5t-58 17.5zM62 490h128v-490q-40 -34 -54.5 -52.5t-14.5 -34.5q0 -13 8 -18.5t26 -5.5q8 0 35 3v-73q-38 -6 -65 -6q-55 0 -79.5 18t-24.5 57q0 29 16 54t52 58h-27v490z
" />
    <glyph glyph-name="itilde" unicode="&#x129;" horiz-adv-x="252" 
d="M62 490h128v-490h-128v490zM-43 575q0 62 24.5 90t79.5 28q21 0 37 -6.5t37 -18.5q25 -16 39 -16q17 0 24 9.5t7 31.5v5h90v-13q0 -62 -24.5 -90t-79.5 -28q-21 0 -37 6.5t-37 18.5q-25 16 -39 16q-17 0 -24 -9.5t-7 -31.5v-6h-90v14z" />
    <glyph glyph-name="j" unicode="j" horiz-adv-x="252" 
d="M68 573.5q-18 17.5 -18 56.5q0 38 18 55.5t58 17.5t58 -17.5t18 -55.5q0 -39 -18 -56.5t-58 -17.5t-58 17.5zM-91 -178v100q34 -9 72 -9q43 0 62 19.5t19 63.5v494h128v-499q0 -95 -44.5 -136.5t-144.5 -41.5q-48 0 -92 9z" />
    <glyph glyph-name="uni0237" unicode="&#x237;" horiz-adv-x="252" 
d="M-91 -178v100q34 -9 72 -9q43 0 62 19.5t19 63.5v494h128v-499q0 -95 -44.5 -136.5t-144.5 -41.5q-48 0 -92 9z" />
    <glyph glyph-name="jcircumflex" unicode="&#x135;" horiz-adv-x="252" 
d="M-91 -178v100q34 -9 72 -9q43 0 62 19.5t19 63.5v494h128v-499q0 -95 -44.5 -136.5t-144.5 -41.5q-48 0 -92 9zM203 556l-76 81l-76 -81h-109l123 148h124l123 -148h-109z" />
    <glyph glyph-name="k" unicode="k" horiz-adv-x="524" 
d="M230 188h-38v-188h-128v704h128v-408l172 194h146l-205 -221l209 -269h-146z" />
    <glyph glyph-name="kcommaaccent" unicode="&#x137;" horiz-adv-x="524" 
d="M230 188h-38v-188h-128v704h128v-408l172 194h146l-205 -221l209 -269h-146zM216 -60h115l-59 -150h-94z" />
    <glyph glyph-name="kgreenlandic" unicode="&#x138;" horiz-adv-x="519" 
d="M226 178h-39v-178h-128v490h128v-200l172 200h146l-205 -230l209 -260h-146z" />
    <glyph glyph-name="l" unicode="l" horiz-adv-x="256" 
d="M64 704h128v-704h-128v704z" />
    <glyph glyph-name="lacute" unicode="&#x13a;" horiz-adv-x="256" 
d="M181 880h133l-144 -138h-111zM70 704h128v-704h-128v704z" />
    <glyph glyph-name="lcaron" unicode="&#x13e;" horiz-adv-x="356" 
d="M64 704h128v-704h-128v704zM275 704h109l-67 -181h-88z" />
    <glyph glyph-name="lcommaaccent" unicode="&#x13c;" horiz-adv-x="256" 
d="M64 704h128v-704h-128v704zM83 -60h115l-59 -150h-94z" />
    <glyph glyph-name="ldot" unicode="&#x140;" horiz-adv-x="357" 
d="M64 704h128v-704h-128v704zM248 307.5q-16 15.5 -16 50.5t16 50.5t52 15.5q37 0 53 -15.5t16 -50.5t-16 -50.5t-53 -15.5q-36 0 -52 15.5z" />
    <glyph glyph-name="lslash" unicode="&#x142;" horiz-adv-x="306" 
d="M303 384l-80 -40v-344h-128v280l-92 -46v98l92 46v326h128v-262l80 40v-98z" />
    <glyph glyph-name="m" unicode="m" horiz-adv-x="890" 
d="M788.5 457q44.5 -45 44.5 -146v-311h-128v306q0 50 -20.5 72t-67.5 22q-56 0 -81.5 -25t-25.5 -82v-293h-128v306q0 50 -20.5 72t-67.5 22q-56 0 -81.5 -25t-25.5 -82v-293h-128v490h98l10 -47q56 59 158 59q111 0 148 -61q57 61 170 61q101 0 145.5 -45z" />
    <glyph glyph-name="n" unicode="n" horiz-adv-x="586" 
d="M482.5 455.5q46.5 -46.5 46.5 -153.5v-302h-128v297q0 55 -22.5 79t-74.5 24q-62 0 -89.5 -27.5t-27.5 -88.5v-284h-128v490h98l10 -49q55 61 162 61t153.5 -46.5z" />
    <glyph glyph-name="nacute" unicode="&#x144;" horiz-adv-x="586" 
d="M482.5 455.5q46.5 -46.5 46.5 -153.5v-302h-128v297q0 55 -22.5 79t-74.5 24q-62 0 -89.5 -27.5t-27.5 -88.5v-284h-128v490h98l10 -49q55 61 162 61t153.5 -46.5zM343 704h133l-144 -148h-112z" />
    <glyph glyph-name="nacute.loclPLK" horiz-adv-x="586" 
d="M482.5 455.5q46.5 -46.5 46.5 -153.5v-302h-128v297q0 55 -22.5 79t-74.5 24q-62 0 -89.5 -27.5t-27.5 -88.5v-284h-128v490h98l10 -49q55 61 162 61t153.5 -46.5zM293 704h124l-71 -148h-106z" />
    <glyph glyph-name="ncaron" unicode="&#x148;" horiz-adv-x="586" 
d="M482.5 455.5q46.5 -46.5 46.5 -153.5v-302h-128v297q0 55 -22.5 79t-74.5 24q-62 0 -89.5 -27.5t-27.5 -88.5v-284h-128v490h98l10 -49q55 61 162 61t153.5 -46.5zM480 704l-123 -148h-124l-123 148h109l76 -81l76 81h109z" />
    <glyph glyph-name="ncommaaccent" unicode="&#x146;" horiz-adv-x="586" 
d="M482.5 455.5q46.5 -46.5 46.5 -153.5v-302h-128v297q0 55 -22.5 79t-74.5 24q-62 0 -89.5 -27.5t-27.5 -88.5v-284h-128v490h98l10 -49q55 61 162 61t153.5 -46.5zM249 -60h115l-59 -150h-94z" />
    <glyph glyph-name="eng" unicode="&#x14b;" horiz-adv-x="586" 
d="M482.5 455.5q46.5 -46.5 46.5 -153.5v-311q0 -95 -44.5 -136.5t-144.5 -41.5q-50 0 -92 9v100q35 -9 72 -9q43 0 62 19.5t19 63.5v301q0 55 -22.5 79t-74.5 24q-62 0 -89.5 -27.5t-27.5 -88.5v-284h-128v490h98l10 -50q56 62 162 62q107 0 153.5 -46.5z" />
    <glyph glyph-name="ntilde" unicode="&#xf1;" horiz-adv-x="586" 
d="M482.5 455.5q46.5 -46.5 46.5 -153.5v-302h-128v297q0 55 -22.5 79t-74.5 24q-62 0 -89.5 -27.5t-27.5 -88.5v-284h-128v490h98l10 -49q55 61 162 61t153.5 -46.5zM126 575q0 62 24.5 90t79.5 28q21 0 37 -6.5t37 -18.5q25 -16 39 -16q17 0 24 9.5t7 31.5v5h90v-13
q0 -62 -24.5 -90t-79.5 -28q-21 0 -37 6.5t-37 18.5q-25 16 -39 16q-17 0 -24 -9.5t-7 -31.5v-6h-90v14z" />
    <glyph glyph-name="o" unicode="o" horiz-adv-x="581" 
d="M94 48.5q-60 60.5 -60 196.5t60 196.5t196 60.5t196.5 -60.5t60.5 -196.5t-60.5 -196.5t-196.5 -60.5t-196 60.5zM387 125q30 37 30 120t-30 120t-97 37t-96.5 -37t-29.5 -120t29.5 -120t96.5 -37t97 37z" />
    <glyph glyph-name="oacute" unicode="&#xf3;" horiz-adv-x="581" 
d="M94 48.5q-60 60.5 -60 196.5t60 196.5t196 60.5t196.5 -60.5t60.5 -196.5t-60.5 -196.5t-196.5 -60.5t-196 60.5zM387 125q30 37 30 120t-30 120t-97 37t-96.5 -37t-29.5 -120t29.5 -120t96.5 -37t97 37zM339 704h133l-144 -148h-112z" />
    <glyph glyph-name="oacute.loclPLK" horiz-adv-x="581" 
d="M94 48.5q-60 60.5 -60 196.5t60 196.5t196 60.5t196.5 -60.5t60.5 -196.5t-60.5 -196.5t-196.5 -60.5t-196 60.5zM387 125q30 37 30 120t-30 120t-97 37t-96.5 -37t-29.5 -120t29.5 -120t96.5 -37t97 37zM289 704h124l-71 -148h-106z" />
    <glyph glyph-name="obreve" unicode="&#x14f;" horiz-adv-x="581" 
d="M94 48.5q-60 60.5 -60 196.5t60 196.5t196 60.5t196.5 -60.5t60.5 -196.5t-60.5 -196.5t-196.5 -60.5t-196 60.5zM387 125q30 37 30 120t-30 120t-97 37t-96.5 -37t-29.5 -120t29.5 -120t96.5 -37t97 37zM163.5 582.5q-40.5 37.5 -40.5 121.5h90q0 -39 18.5 -56.5
t59.5 -17.5t59.5 17.5t18.5 56.5h90q0 -84 -40.5 -121.5t-127.5 -37.5t-127.5 37.5z" />
    <glyph glyph-name="ocircumflex" unicode="&#xf4;" horiz-adv-x="581" 
d="M94 48.5q-60 60.5 -60 196.5t60 196.5t196 60.5t196.5 -60.5t60.5 -196.5t-60.5 -196.5t-196.5 -60.5t-196 60.5zM387 125q30 37 30 120t-30 120t-97 37t-96.5 -37t-29.5 -120t29.5 -120t96.5 -37t97 37zM367 556l-76 81l-76 -81h-109l123 148h124l123 -148h-109z" />
    <glyph glyph-name="odieresis" unicode="&#xf6;" horiz-adv-x="581" 
d="M94 48.5q-60 60.5 -60 196.5t60 196.5t196 60.5t196.5 -60.5t60.5 -196.5t-60.5 -196.5t-196.5 -60.5t-196 60.5zM387 125q30 37 30 120t-30 120t-97 37t-96.5 -37t-29.5 -120t29.5 -120t96.5 -37t97 37zM126.5 576q-17.5 17 -17.5 54t17.5 54t56.5 17q38 0 55.5 -17
t17.5 -54t-17.5 -54t-55.5 -17q-39 0 -56.5 17zM343.5 576q-17.5 17 -17.5 54t17.5 54t55.5 17q39 0 56.5 -17t17.5 -54t-17.5 -54t-56.5 -17q-38 0 -55.5 17z" />
    <glyph glyph-name="ograve" unicode="&#xf2;" horiz-adv-x="581" 
d="M94 48.5q-60 60.5 -60 196.5t60 196.5t196 60.5t196.5 -60.5t60.5 -196.5t-60.5 -196.5t-196.5 -60.5t-196 60.5zM387 125q30 37 30 120t-30 120t-97 37t-96.5 -37t-29.5 -120t29.5 -120t96.5 -37t97 37zM110 704h133l123 -148h-112z" />
    <glyph glyph-name="ohungarumlaut" unicode="&#x151;" horiz-adv-x="581" 
d="M94 48.5q-60 60.5 -60 196.5t60 196.5t196 60.5t196.5 -60.5t60.5 -196.5t-60.5 -196.5t-196.5 -60.5t-196 60.5zM387 125q30 37 30 120t-30 120t-97 37t-96.5 -37t-29.5 -120t29.5 -120t96.5 -37t97 37zM230 704h134l-141 -148h-115zM447 704h133l-141 -148h-115z" />
    <glyph glyph-name="omacron" unicode="&#x14d;" horiz-adv-x="581" 
d="M94 48.5q-60 60.5 -60 196.5t60 196.5t196 60.5t196.5 -60.5t60.5 -196.5t-60.5 -196.5t-196.5 -60.5t-196 60.5zM387 125q30 37 30 120t-30 120t-97 37t-96.5 -37t-29.5 -120t29.5 -120t96.5 -37t97 37zM130 673h322v-87h-322v87z" />
    <glyph glyph-name="oslash" unicode="&#xf8;" horiz-adv-x="581" 
d="M531.5 365q15.5 -49 15.5 -120q0 -136 -60.5 -196.5t-196.5 -60.5q-81 0 -135 21l-31 -41h-83l57 77q-33 31 -48.5 80t-15.5 120q0 136 60 196.5t196 60.5q81 0 135 -21l31 41h84l-57 -77q33 -31 48.5 -80zM168 138l195 260q-30 14 -73 14q-75 0 -108 -39t-33 -128
q0 -69 19 -107zM398.5 117.5q33.5 39.5 33.5 127.5q0 67 -20 106l-196 -260q29 -13 74 -13q75 0 108.5 39.5z" />
    <glyph glyph-name="oslashacute" unicode="&#x1ff;" horiz-adv-x="581" 
d="M531.5 365q15.5 -49 15.5 -120q0 -136 -60.5 -196.5t-196.5 -60.5q-81 0 -135 21l-31 -41h-83l57 77q-33 31 -48.5 80t-15.5 120q0 136 60 196.5t196 60.5q81 0 135 -21l31 41h84l-57 -77q33 -31 48.5 -80zM168 138l195 260q-30 14 -73 14q-75 0 -108 -39t-33 -128
q0 -69 19 -107zM398.5 117.5q33.5 39.5 33.5 127.5q0 67 -20 106l-196 -260q29 -13 74 -13q75 0 108.5 39.5zM339 704h133l-144 -148h-112z" />
    <glyph glyph-name="otilde" unicode="&#xf5;" horiz-adv-x="581" 
d="M94 48.5q-60 60.5 -60 196.5t60 196.5t196 60.5t196.5 -60.5t60.5 -196.5t-60.5 -196.5t-196.5 -60.5t-196 60.5zM387 125q30 37 30 120t-30 120t-97 37t-96.5 -37t-29.5 -120t29.5 -120t96.5 -37t97 37zM122 575q0 62 24.5 90t79.5 28q21 0 37 -6.5t37 -18.5
q25 -16 39 -16q17 0 24 9.5t7 31.5v5h90v-13q0 -62 -24.5 -90t-79.5 -28q-21 0 -37 6.5t-37 18.5q-25 16 -39 16q-17 0 -24 -9.5t-7 -31.5v-6h-90v14z" />
    <glyph glyph-name="oe" unicode="&#x153;" horiz-adv-x="924" 
d="M888 208h-343q4 -65 41.5 -94t118.5 -29q82 0 164 24v-98q-75 -23 -174 -23q-79 0 -131 20.5t-80 63.5q-23 -41 -72 -62.5t-122 -21.5q-136 0 -196 60.5t-60 196.5t60 196.5t196 60.5q140 0 192 -81q24 42 69.5 61.5t112.5 19.5q120 0 173 -58.5t53 -190.5q0 -31 -2 -45z
M576.5 383.5q-27.5 -28.5 -30.5 -93.5h222q-1 65 -26 93.5t-78 28.5q-60 0 -87.5 -28.5zM387 125q30 37 30 120t-30 120t-97 37t-96.5 -37t-29.5 -120t29.5 -120t96.5 -37t97 37z" />
    <glyph glyph-name="p" unicode="p" horiz-adv-x="586" 
d="M501 441.5q51 -60.5 51 -196.5t-51 -196.5t-166 -60.5q-96 0 -147 48v-211h-128v665h98l10 -47q55 59 167 59q115 0 166 -60.5zM394 124.5q28 36.5 28 120.5t-28 120.5t-92 36.5q-61 0 -87.5 -28.5t-26.5 -92.5v-72q0 -64 26.5 -92.5t87.5 -28.5q64 0 92 36.5z" />
    <glyph glyph-name="thorn" unicode="&#xfe;" horiz-adv-x="590" 
d="M505 441.5q51 -60.5 51 -196.5t-51 -196.5t-166 -60.5q-96 0 -147 48v-211h-128v879h128v-250q51 48 147 48q115 0 166 -60.5zM398 124.5q28 36.5 28 120.5t-28 120.5t-92 36.5q-61 0 -87.5 -28.5t-26.5 -92.5v-72q0 -64 26.5 -92.5t87.5 -28.5q64 0 92 36.5z" />
    <glyph glyph-name="q" unicode="q" horiz-adv-x="585" 
d="M525 490v-665h-128v211q-49 -48 -147 -48q-114 0 -165 60.5t-51 196.5t51 196.5t165 60.5q112 0 168 -59l10 47h97zM370.5 116.5q26.5 28.5 26.5 92.5v72q0 64 -26.5 92.5t-87.5 28.5q-64 0 -91.5 -36.5t-27.5 -120.5t27.5 -120.5t91.5 -36.5q61 0 87.5 28.5z" />
    <glyph glyph-name="r" unicode="r" horiz-adv-x="389" 
d="M370 490v-101q-30 6 -48 6q-71 0 -103 -34t-32 -111v-250h-128v490h95l15 -59q48 66 151 66q29 0 50 -7z" />
    <glyph glyph-name="racute" unicode="&#x155;" horiz-adv-x="389" 
d="M370 490v-101q-30 6 -48 6q-71 0 -103 -34t-32 -111v-250h-128v490h95l15 -59q48 66 151 66q29 0 50 -7zM259 704h133l-144 -148h-112z" />
    <glyph glyph-name="rcaron" unicode="&#x159;" horiz-adv-x="389" 
d="M370 490v-101q-30 6 -48 6q-71 0 -103 -34t-32 -111v-250h-128v490h95l15 -59q48 66 151 66q29 0 50 -7zM396 704l-123 -148h-124l-123 148h109l76 -81l76 81h109z" />
    <glyph glyph-name="rcommaaccent" unicode="&#x157;" horiz-adv-x="389" 
d="M370 490v-101q-30 6 -48 6q-71 0 -103 -34t-32 -111v-250h-128v490h95l15 -59q48 66 151 66q29 0 50 -7zM78 -60h115l-59 -150h-94z" />
    <glyph glyph-name="s" unicode="s" horiz-adv-x="478" 
d="M49 12v99q89 -27 172 -27q47 0 69 14t22 43q0 27 -24 38t-76 21q-54 10 -88 22t-59 42.5t-25 85.5q0 79 51 115.5t160 36.5q98 0 180 -29l-56 -85q-64 18 -118 18q-87 0 -87 -53q0 -25 23.5 -35.5t74.5 -20.5q54 -9 89 -21t60.5 -43.5t25.5 -88.5q0 -80 -51 -118
t-161 -38q-99 0 -182 24z" />
    <glyph glyph-name="sacute" unicode="&#x15b;" horiz-adv-x="478" 
d="M49 12v99q89 -27 172 -27q47 0 69 14t22 43q0 27 -24 38t-76 21q-54 10 -88 22t-59 42.5t-25 85.5q0 79 51 115.5t160 36.5q98 0 180 -29l-56 -85q-64 18 -118 18q-87 0 -87 -53q0 -25 23.5 -35.5t74.5 -20.5q54 -9 89 -21t60.5 -43.5t25.5 -88.5q0 -80 -51 -118
t-161 -38q-99 0 -182 24zM288 704h133l-144 -148h-112z" />
    <glyph glyph-name="sacute.loclPLK" horiz-adv-x="478" 
d="M49 12v99q89 -27 172 -27q47 0 69 14t22 43q0 27 -24 38t-76 21q-54 10 -88 22t-59 42.5t-25 85.5q0 79 51 115.5t160 36.5q98 0 180 -29l-56 -85q-64 18 -118 18q-87 0 -87 -53q0 -25 23.5 -35.5t74.5 -20.5q54 -9 89 -21t60.5 -43.5t25.5 -88.5q0 -80 -51 -118
t-161 -38q-99 0 -182 24zM238 704h124l-71 -148h-106z" />
    <glyph glyph-name="scaron" unicode="&#x161;" horiz-adv-x="478" 
d="M49 12v99q89 -27 172 -27q47 0 69 14t22 43q0 27 -24 38t-76 21q-54 10 -88 22t-59 42.5t-25 85.5q0 79 51 115.5t160 36.5q98 0 180 -29l-56 -85q-64 18 -118 18q-87 0 -87 -53q0 -25 23.5 -35.5t74.5 -20.5q54 -9 89 -21t60.5 -43.5t25.5 -88.5q0 -80 -51 -118
t-161 -38q-99 0 -182 24zM425 704l-123 -148h-124l-123 148h109l76 -81l76 81h109z" />
    <glyph glyph-name="scedilla" unicode="&#x15f;" horiz-adv-x="478" 
d="M403 34.5q-40 -37.5 -125 -44.5v-18q38 -5 56.5 -22.5t18.5 -50.5q0 -46 -33 -66t-107 -20q-47 0 -87 12v65q36 -11 69 -11q58 0 58 22q0 11 -12.5 16.5t-42.5 5.5h-8v66q-81 5 -141 23v99q89 -27 172 -27q47 0 69 14t22 43q0 27 -24 38t-76 21q-54 10 -88 22t-59 42.5
t-25 85.5q0 79 51 115.5t160 36.5q98 0 180 -29l-56 -85q-64 18 -118 18q-87 0 -87 -53q0 -25 23.5 -35.5t74.5 -20.5q54 -9 89 -21t60.5 -43.5t25.5 -88.5q0 -72 -40 -109.5z" />
    <glyph glyph-name="scircumflex" unicode="&#x15d;" horiz-adv-x="478" 
d="M49 12v99q89 -27 172 -27q47 0 69 14t22 43q0 27 -24 38t-76 21q-54 10 -88 22t-59 42.5t-25 85.5q0 79 51 115.5t160 36.5q98 0 180 -29l-56 -85q-64 18 -118 18q-87 0 -87 -53q0 -25 23.5 -35.5t74.5 -20.5q54 -9 89 -21t60.5 -43.5t25.5 -88.5q0 -80 -51 -118
t-161 -38q-99 0 -182 24zM316 556l-76 81l-76 -81h-109l123 148h124l123 -148h-109z" />
    <glyph glyph-name="scommaaccent" unicode="&#x219;" horiz-adv-x="478" 
d="M49 12v99q89 -27 172 -27q47 0 69 14t22 43q0 27 -24 38t-76 21q-54 10 -88 22t-59 42.5t-25 85.5q0 79 51 115.5t160 36.5q98 0 180 -29l-56 -85q-64 18 -118 18q-87 0 -87 -53q0 -25 23.5 -35.5t74.5 -20.5q54 -9 89 -21t60.5 -43.5t25.5 -88.5q0 -80 -51 -118
t-161 -38q-99 0 -182 24zM195 -60h115l-59 -150h-94z" />
    <glyph glyph-name="germandbls" unicode="&#xdf;" horiz-adv-x="593" 
d="M534 311q31 -46 31 -117q0 -109 -54 -157.5t-174 -48.5q-48 0 -89 7v100q32 -7 68 -7q65 0 93 27t28 89q0 61 -30 88t-99 27h-32v98h24q57 0 82 23t25 76t-23.5 76.5t-78.5 23.5q-61 0 -88 -32t-27 -103v-481h-126v491q0 119 58 172t188 53q118 0 170.5 -45t52.5 -145
q0 -60 -22 -96.5t-65 -55.5q57 -17 88 -63z" />
    <glyph glyph-name="germandbls.calt" horiz-adv-x="751" 
d="M670 329.5q42 -47.5 42 -134.5q0 -110 -62.5 -158.5t-202.5 -48.5q-89 0 -166 18v101q76 -19 155 -19q77 0 111 25.5t34 84.5q0 58 -35.5 83t-116.5 25h-26v82l135 186q-59 10 -126 10q-114 0 -163 -46.5t-49 -152.5v-385h-132v396q0 102 35 165t109.5 93t194.5 30
q126 0 273 -25v-83l-137 -188q85 -11 127 -58.5z" />
    <glyph glyph-name="longs" unicode="&#x17f;" horiz-adv-x="370" 
d="M405 705v-100q-44 11 -77 11q-44 0 -64.5 -19t-20.5 -62v-535h-127v393h-92v97h92v40q0 99 46 142.5t151 43.5q45 0 92 -11z" />
    <glyph glyph-name="t" unicode="t" horiz-adv-x="429" 
d="M253 107.5q19 -19.5 63 -19.5q38 0 72 9v-100q-43 -9 -92 -9q-100 0 -144.5 41.5t-44.5 136.5v227h-92v97h92v133l127 22v-155h165l-63 -97h-102v-222q0 -44 19 -63.5z" />
    <glyph glyph-name="tbar" unicode="&#x167;" horiz-adv-x="429" 
d="M253 102.5q19 -19.5 63 -19.5q38 0 72 9v-95q-43 -9 -92 -9q-100 0 -144.5 41.5t-44.5 136.5v39h-84v83h84v110h-92v92h92v133l127 22v-155h165l-60 -92h-105v-110h128v-83h-128v-39q0 -44 19 -63.5z" />
    <glyph glyph-name="tcaron" unicode="&#x165;" horiz-adv-x="429" 
d="M367 543h-88l41 161h109zM234 393v-222q0 -44 19 -63.5t63 -19.5q38 0 72 9v-100q-43 -9 -92 -9q-100 0 -144.5 41.5t-44.5 136.5v227h-92v97h92v133l127 22v-155h165l-63 -97h-102z" />
    <glyph glyph-name="uni0163" unicode="&#x163;" horiz-adv-x="429" 
d="M253 107.5q19 -19.5 63 -19.5q38 0 72 9v-100q-43 -9 -92 -9q-100 0 -144.5 41.5t-44.5 136.5v227h-92v97h92v133l127 22v-155h165l-63 -97h-102v-222q0 -44 19 -63.5zM217 -60h115l-59 -150h-94z" />
    <glyph glyph-name="uni021B" unicode="&#x21b;" horiz-adv-x="429" 
d="M253 107.5q19 -19.5 63 -19.5q38 0 72 9v-100q-43 -9 -92 -9q-100 0 -144.5 41.5t-44.5 136.5v227h-92v97h92v133l127 22v-155h165l-63 -97h-102v-222q0 -44 19 -63.5zM217 -60h115l-59 -150h-94z" />
    <glyph glyph-name="u" unicode="u" horiz-adv-x="584" 
d="M112.5 36q-55.5 48 -55.5 155v299h128v-289q0 -61 25 -87t82 -26t82 26t25 87v289h128v-299q0 -107 -55 -155t-180 -48q-124 0 -179.5 48z" />
    <glyph glyph-name="uacute" unicode="&#xfa;" horiz-adv-x="584" 
d="M112.5 36q-55.5 48 -55.5 155v299h128v-289q0 -61 25 -87t82 -26t82 26t25 87v289h128v-299q0 -107 -55 -155t-180 -48q-124 0 -179.5 48zM340 704h133l-144 -148h-112z" />
    <glyph glyph-name="ubreve" unicode="&#x16d;" horiz-adv-x="584" 
d="M112.5 36q-55.5 48 -55.5 155v299h128v-289q0 -61 25 -87t82 -26t82 26t25 87v289h128v-299q0 -107 -55 -155t-180 -48q-124 0 -179.5 48zM164.5 582.5q-40.5 37.5 -40.5 121.5h90q0 -39 18.5 -56.5t59.5 -17.5t59.5 17.5t18.5 56.5h90q0 -84 -40.5 -121.5t-127.5 -37.5
t-127.5 37.5z" />
    <glyph glyph-name="ucircumflex" unicode="&#xfb;" horiz-adv-x="584" 
d="M112.5 36q-55.5 48 -55.5 155v299h128v-289q0 -61 25 -87t82 -26t82 26t25 87v289h128v-299q0 -107 -55 -155t-180 -48q-124 0 -179.5 48zM368 556l-76 81l-76 -81h-109l123 148h124l123 -148h-109z" />
    <glyph glyph-name="udieresis" unicode="&#xfc;" horiz-adv-x="584" 
d="M112.5 36q-55.5 48 -55.5 155v299h128v-289q0 -61 25 -87t82 -26t82 26t25 87v289h128v-299q0 -107 -55 -155t-180 -48q-124 0 -179.5 48zM127.5 576q-17.5 17 -17.5 54t17.5 54t56.5 17q38 0 55.5 -17t17.5 -54t-17.5 -54t-55.5 -17q-39 0 -56.5 17zM344.5 576
q-17.5 17 -17.5 54t17.5 54t55.5 17q39 0 56.5 -17t17.5 -54t-17.5 -54t-56.5 -17q-38 0 -55.5 17z" />
    <glyph glyph-name="ugrave" unicode="&#xf9;" horiz-adv-x="584" 
d="M112.5 36q-55.5 48 -55.5 155v299h128v-289q0 -61 25 -87t82 -26t82 26t25 87v289h128v-299q0 -107 -55 -155t-180 -48q-124 0 -179.5 48zM111 704h133l123 -148h-112z" />
    <glyph glyph-name="uhungarumlaut" unicode="&#x171;" horiz-adv-x="584" 
d="M112.5 36q-55.5 48 -55.5 155v299h128v-289q0 -61 25 -87t82 -26t82 26t25 87v289h128v-299q0 -107 -55 -155t-180 -48q-124 0 -179.5 48zM231 704h134l-141 -148h-115zM448 704h133l-141 -148h-115z" />
    <glyph glyph-name="umacron" unicode="&#x16b;" horiz-adv-x="584" 
d="M112.5 36q-55.5 48 -55.5 155v299h128v-289q0 -61 25 -87t82 -26t82 26t25 87v289h128v-299q0 -107 -55 -155t-180 -48q-124 0 -179.5 48zM131 673h322v-87h-322v87z" />
    <glyph glyph-name="uogonek" unicode="&#x173;" horiz-adv-x="584" 
d="M233 -168.5q-27 18.5 -27 56.5q0 59 76 102q-13 -1 -42 1q-95 7 -139 55t-44 146v298h128v-289q0 -61 25 -87t82 -26t82 26t25 87v289h128v-299q0 -76 -26.5 -118t-93.5 -78q-52 -27 -74 -45.5t-22 -36.5q0 -24 39 -24q8 0 35 3v-73q-38 -6 -66 -6q-59 0 -86 18.5z" />
    <glyph glyph-name="uring" unicode="&#x16f;" horiz-adv-x="584" 
d="M112.5 36q-55.5 48 -55.5 155v299h128v-289q0 -61 25 -87t82 -26t82 26t25 87v289h128v-299q0 -107 -55 -155t-180 -48q-124 0 -179.5 48zM202.5 552q-27.5 24 -27.5 78q0 53 28 77.5t89 24.5t89 -24.5t28 -77.5t-28 -77.5t-89 -24.5q-62 0 -89.5 24zM328.5 593.5
q11.5 11.5 11.5 36.5t-11 36t-37 11t-37 -11t-11 -36t11 -36.5t37 -11.5q25 0 36.5 11.5z" />
    <glyph glyph-name="utilde" unicode="&#x169;" horiz-adv-x="584" 
d="M112.5 36q-55.5 48 -55.5 155v299h128v-289q0 -61 25 -87t82 -26t82 26t25 87v289h128v-299q0 -107 -55 -155t-180 -48q-124 0 -179.5 48zM123 575q0 62 24.5 90t79.5 28q21 0 37 -6.5t37 -18.5q25 -16 39 -16q17 0 24 9.5t7 31.5v5h90v-13q0 -62 -24.5 -90t-79.5 -28
q-21 0 -37 6.5t-37 18.5q-25 16 -39 16q-17 0 -24 -9.5t-7 -31.5v-6h-90v14z" />
    <glyph glyph-name="v" unicode="v" horiz-adv-x="532" 
d="M522 490l-186 -490h-139l-187 490h134l122 -361l123 361h133z" />
    <glyph glyph-name="w" unicode="w" horiz-adv-x="794" 
d="M779 490l-149 -490h-143l-86 272l-96 -272h-141l-149 490h126l100 -364l109 305l-19 59h122l101 -360l99 360h126z" />
    <glyph glyph-name="wacute" unicode="&#x1e83;" horiz-adv-x="794" 
d="M779 490l-149 -490h-143l-86 272l-96 -272h-141l-149 490h126l100 -364l109 305l-19 59h122l101 -360l99 360h126zM446 704h133l-144 -148h-112z" />
    <glyph glyph-name="wcircumflex" unicode="&#x175;" horiz-adv-x="794" 
d="M779 490l-149 -490h-143l-86 272l-96 -272h-141l-149 490h126l100 -364l109 305l-19 59h122l101 -360l99 360h126zM474 556l-76 81l-76 -81h-109l123 148h124l123 -148h-109z" />
    <glyph glyph-name="wdieresis" unicode="&#x1e85;" horiz-adv-x="794" 
d="M779 490l-149 -490h-143l-86 272l-96 -272h-141l-149 490h126l100 -364l109 305l-19 59h122l101 -360l99 360h126zM233.5 576q-17.5 17 -17.5 54t17.5 54t56.5 17q38 0 55.5 -17t17.5 -54t-17.5 -54t-55.5 -17q-39 0 -56.5 17zM450.5 576q-17.5 17 -17.5 54t17.5 54
t55.5 17q39 0 56.5 -17t17.5 -54t-17.5 -54t-56.5 -17q-38 0 -55.5 17z" />
    <glyph glyph-name="wgrave" unicode="&#x1e81;" horiz-adv-x="794" 
d="M779 490l-149 -490h-143l-86 272l-96 -272h-141l-149 490h126l100 -364l109 305l-19 59h122l101 -360l99 360h126zM217 704h133l123 -148h-112z" />
    <glyph glyph-name="x" unicode="x" horiz-adv-x="532" 
d="M375 0l-109 171l-109 -171h-139l168 249l-162 241h139l103 -162l103 162h139l-162 -241l168 -249h-139z" />
    <glyph glyph-name="y" unicode="y" horiz-adv-x="532" 
d="M522 490l-171 -510q-31 -92 -79.5 -129.5t-119.5 -37.5q-46 0 -86 13v101q41 -11 74 -11q34 0 56.5 15.5t33.5 52.5l5 16h-31l-194 490h134l133 -373l112 373h133z" />
    <glyph glyph-name="yacute" unicode="&#xfd;" horiz-adv-x="532" 
d="M522 490l-171 -510q-31 -92 -79.5 -129.5t-119.5 -37.5q-46 0 -86 13v101q41 -11 74 -11q34 0 56.5 15.5t33.5 52.5l5 16h-31l-194 490h134l133 -373l112 373h133zM306 704h133l-144 -148h-112z" />
    <glyph glyph-name="ycircumflex" unicode="&#x177;" horiz-adv-x="532" 
d="M522 490l-171 -510q-31 -92 -79.5 -129.5t-119.5 -37.5q-46 0 -86 13v101q41 -11 74 -11q34 0 56.5 15.5t33.5 52.5l5 16h-31l-194 490h134l133 -373l112 373h133zM334 556l-76 81l-76 -81h-109l123 148h124l123 -148h-109z" />
    <glyph glyph-name="ydieresis" unicode="&#xff;" horiz-adv-x="532" 
d="M522 490l-171 -510q-31 -92 -79.5 -129.5t-119.5 -37.5q-46 0 -86 13v101q41 -11 74 -11q34 0 56.5 15.5t33.5 52.5l5 16h-31l-194 490h134l133 -373l112 373h133zM93.5 576q-17.5 17 -17.5 54t17.5 54t56.5 17q38 0 55.5 -17t17.5 -54t-17.5 -54t-55.5 -17
q-39 0 -56.5 17zM310.5 576q-17.5 17 -17.5 54t17.5 54t55.5 17q39 0 56.5 -17t17.5 -54t-17.5 -54t-56.5 -17q-38 0 -55.5 17z" />
    <glyph glyph-name="ygrave" unicode="&#x1ef3;" horiz-adv-x="532" 
d="M522 490l-171 -510q-31 -92 -79.5 -129.5t-119.5 -37.5q-46 0 -86 13v101q41 -11 74 -11q34 0 56.5 15.5t33.5 52.5l5 16h-31l-194 490h134l133 -373l112 373h133zM77 704h133l123 -148h-112z" />
    <glyph glyph-name="z" unicode="z" horiz-adv-x="495" 
d="M459 97v-97h-423v87l255 306h-247v97h407v-86l-255 -307h263z" />
    <glyph glyph-name="zacute" unicode="&#x17a;" horiz-adv-x="495" 
d="M459 97v-97h-423v87l255 306h-247v97h407v-86l-255 -307h263zM296 704h133l-144 -148h-112z" />
    <glyph glyph-name="zacute.loclPLK" horiz-adv-x="495" 
d="M459 97v-97h-423v87l255 306h-247v97h407v-86l-255 -307h263zM246 704h124l-71 -148h-106z" />
    <glyph glyph-name="zcaron" unicode="&#x17e;" horiz-adv-x="495" 
d="M459 97v-97h-423v87l255 306h-247v97h407v-86l-255 -307h263zM433 704l-123 -148h-124l-123 148h109l76 -81l76 81h109z" />
    <glyph glyph-name="zdotaccent" unicode="&#x17c;" horiz-adv-x="495" 
d="M459 97v-97h-423v87l255 306h-247v97h407v-86l-255 -307h263zM192 575.5q-17 16.5 -17 54.5t17 54.5t56 16.5t56 -16.5t17 -54.5t-17 -54.5t-56 -16.5t-56 16.5z" />
    <glyph glyph-name="ordfeminine" unicode="&#xaa;" horiz-adv-x="427" 
d="M387 424v-71q-10 -4 -26.5 -7.5t-28.5 -3.5q-25 0 -41.5 8.5t-22.5 25.5q-18 -19 -43 -28t-64 -9q-118 0 -118 101q0 50 35.5 74.5t111.5 24.5h69v12q0 32 -18.5 46t-61.5 14q-47 0 -104 -15v70q56 14 112 14q86 0 124 -32.5t38 -104.5v-95q0 -15 5 -21t16 -6q8 0 17 3z
M259 453v28h-57q-36 0 -52 -8.5t-16 -30.5q0 -19 13 -28t43 -9q69 0 69 48zM48 288h338v-74h-338v74z" />
    <glyph glyph-name="ordmasculine" unicode="&#xba;" horiz-adv-x="414" 
d="M74 379q-41 40 -41 131q0 90 41 130t133 40t133 -40t41 -130q0 -91 -41 -131t-133 -40t-133 40zM266.5 436.5q18.5 22.5 18.5 73.5t-18 73.5t-60 22.5t-60 -22.5t-18 -73.5q0 -52 18 -74t60 -22q41 0 59.5 22.5zM38 288h338v-74h-338v74z" />
    <glyph glyph-name="uni0394" unicode="&#x394;" horiz-adv-x="697" 
d="M664 86v-86h-631v86l240 586h150zM167 102h362l-181 452z" />
    <glyph glyph-name="uni03A9" unicode="&#x3a9;" horiz-adv-x="751" 
d="M729 102v-102h-299v97q71 44 105 108.5t34 152.5q0 118 -45.5 169.5t-148.5 51.5t-148 -51.5t-45 -169.5q0 -89 34 -153t105 -108v-97h-299v102h155q-66 55 -97 121.5t-31 154.5q0 108 33.5 175.5t105 99t187.5 31.5t187.5 -32t105.5 -99t34 -175q0 -88 -31 -154.5
t-97 -121.5h155z" />
    <glyph glyph-name="uni03BC" unicode="&#x3bc;" horiz-adv-x="585" 
d="M527 490v-490h-97l-10 51q-45 -60 -136 -60q-68 0 -99 32v-231h-128v698h128v-290q0 -58 24 -84t78 -26q59 0 85.5 27.5t26.5 89.5v283h128z" />
    <glyph glyph-name="pi" unicode="&#x3c0;" horiz-adv-x="826" 
d="M221 15.5q-85 48.5 -133 132.5t-48 188t48 188t133 132.5t192 48.5t192 -48.5t133 -133t48 -187.5t-48 -187.5t-133 -133t-192 -48.5t-192 48.5zM346 100q-4 28 -4 52q0 63 20.5 121t62.5 102l91 -119q-1 173 16 344q-10 1 -31 1q-88 0 -180 -22.5t-158 -64.5l110 -32
q-29 -38 -43 -85.5t-14 -98.5q0 -54 16.5 -106t49 -89.5t76.5 -48.5q-8 18 -12 46z" />
    <glyph glyph-name="zero" unicode="0" horiz-adv-x="632" 
d="M157.5 24q-60.5 36 -89 112t-28.5 200t28.5 200t89 112t158.5 36t158.5 -36t89 -112t28.5 -200t-28.5 -200t-89 -112t-158.5 -36t-158.5 36zM427 150q34 57 34 186t-34 186t-111 57t-111 -57t-34 -186t34 -186t111 -57t111 57z" />
    <glyph glyph-name="one" unicode="1" horiz-adv-x="379" 
d="M294 672v-672h-128v559l-136 -57v103l163 67h101z" />
    <glyph glyph-name="two" unicode="2" horiz-adv-x="521" 
d="M476 102v-102h-456v92l243 233q80 77 80 143q0 59 -30 85t-98 26q-86 0 -176 -30v106q88 29 196 29q125 0 182 -47.5t57 -152.5t-99 -201l-188 -181h289z" />
    <glyph glyph-name="three" unicode="3" horiz-adv-x="532" 
d="M486 179q0 -101 -67.5 -146t-217.5 -45q-96 0 -174 26v101q80 -27 163 -27q88 0 127 23.5t39 76.5q0 54 -41 78.5t-131 24.5h-47v91h45q87 0 126 23.5t39 80.5q0 52 -32.5 75.5t-110.5 23.5q-90 0 -177 -29v101q41 13 90.5 20t97.5 7q132 0 196.5 -44t64.5 -143
q0 -124 -118 -160q128 -36 128 -158z" />
    <glyph glyph-name="four" unicode="4" horiz-adv-x="589" 
d="M569 140h-91v-140h-118v140h-335v92l286 440h127l-284 -435h206v183h118v-183h91v-97z" />
    <glyph glyph-name="five" unicode="5" horiz-adv-x="538" 
d="M444 358q59 -49 59 -159q0 -111 -66.5 -161t-216.5 -50q-94 0 -175 25v102q79 -27 165 -27t124.5 26.5t38.5 87.5q0 60 -40 86t-131 26q-72 0 -139 -7v365h428l-63 -97h-247v-171q36 3 72 3q132 0 191 -49z" />
    <glyph glyph-name="six" unicode="6" horiz-adv-x="594" 
d="M500.5 387q53.5 -52 53.5 -168q0 -122 -58.5 -176.5t-190.5 -54.5q-91 0 -146.5 32.5t-82 101.5t-26.5 182q0 135 32 218.5t100 122.5t179 39q90 0 167 -31l-56 -86q-48 17 -102 17q-100 0 -144.5 -48t-49.5 -156q38 59 150 59q121 0 174.5 -52zM401 118.5
q31 30.5 31 98.5q0 65 -28.5 94.5t-92.5 29.5q-68 0 -99.5 -28.5t-31.5 -88.5q0 -69 30 -102.5t92 -33.5q68 0 99 30.5z" />
    <glyph glyph-name="seven" unicode="7" horiz-adv-x="479" 
d="M459 672v-87l-266 -585h-129l262 570h-326v102h459z" />
    <glyph glyph-name="eight" unicode="8" horiz-adv-x="609" 
d="M532 288.5q32 -39.5 32 -109.5q0 -101 -61.5 -146t-198.5 -45t-198 45t-61 146q0 69 31.5 108.5t101.5 56.5q-60 16 -88.5 54.5t-28.5 102.5q0 97 57 140t186 43t186.5 -43t57.5 -140q0 -65 -29 -103t-90 -54q71 -16 103 -55.5zM211.5 565.5q-28.5 -21.5 -28.5 -69.5
q0 -47 28 -70.5t93 -32.5q65 9 93 32.5t28 70.5q0 48 -28.5 69.5t-92.5 21.5t-92.5 -21.5zM406.5 108q31.5 23 31.5 76q0 51 -30.5 76t-103.5 35q-73 -10 -103.5 -35t-30.5 -76q0 -53 31.5 -76t102.5 -23t102.5 23z" />
    <glyph glyph-name="nine" unicode="9" horiz-adv-x="579" 
d="M430.5 651.5q55.5 -32.5 82 -101.5t26.5 -182q0 -135 -32 -218.5t-100 -122.5t-179 -39q-84 0 -156 21v101q77 -22 146 -22q100 0 145 48t50 156q-38 -59 -150 -59q-121 0 -174.5 52t-53.5 168q0 122 58.5 176.5t190.5 54.5q91 0 146.5 -32.5zM377.5 359.5
q31.5 28.5 31.5 88.5q0 69 -30 102.5t-92 33.5q-68 0 -99 -30.5t-31 -98.5q0 -65 28.5 -94.5t92.5 -29.5q68 0 99.5 28.5z" />
    <glyph glyph-name="uni00B9" unicode="&#xb9;" horiz-adv-x="279" 
d="M219 800v-416h-93v332l-101 -42v76l120 50h74z" />
    <glyph glyph-name="uni00B2" unicode="&#xb2;" horiz-adv-x="351" 
d="M316 460v-76h-291v66l148 139q45 42 45 80q0 33 -16.5 47.5t-54.5 14.5q-53 0 -110 -18v78q60 17 125 17q80 0 116 -30.5t36 -97.5q0 -64 -61 -120l-104 -100h167z" />
    <glyph glyph-name="uni00B3" unicode="&#xb3;" horiz-adv-x="354" 
d="M303.5 555q20.5 -25 20.5 -60q0 -63 -42 -91t-136 -28q-64 0 -116 16v78q52 -18 107 -18q45 0 65 13t20 40t-24.5 40.5t-79.5 13.5h-23v67h22q53 0 76.5 12.5t23.5 40.5q0 27 -18 39t-58 12q-60 0 -111 -17v79q54 16 120 16q87 0 127.5 -28t40.5 -91q0 -72 -74 -97
q39 -12 59.5 -37z" />
    <glyph glyph-name="fraction" unicode="&#x2044;" horiz-adv-x="128" 
d="M175 672h80l-302 -672h-80z" />
    <glyph glyph-name="onehalf" unicode="&#xbd;" horiz-adv-x="864" 
d="M168 256v332l-101 -42v76l120 50h74v-416h-93zM623 672l-302 -672h-80l302 672h80zM820 76v-76h-291v66l148 139q45 42 45 80q0 33 -16.5 47.5t-54.5 14.5q-53 0 -110 -18v78q60 17 125 17q80 0 116 -30.5t36 -97.5q0 -64 -61 -120l-104 -100h167z" />
    <glyph glyph-name="onequarter" unicode="&#xbc;" horiz-adv-x="864" 
d="M168 256v332l-101 -42v76l120 50h74v-416h-93zM623 672l-302 -672h-80l302 672h80zM852 84h-55v-84h-85v84h-206v69l171 263h93l-171 -263h113v107h85v-107h55v-69z" />
    <glyph glyph-name="threequarters" unicode="&#xbe;" horiz-adv-x="864" 
d="M290 276q-42 -28 -136 -28q-64 0 -116 16v78q52 -18 107 -18q45 0 65 13t20 40t-24.5 40.5t-79.5 13.5h-23v67h22q53 0 76.5 12.5t23.5 40.5q0 27 -18 39t-58 12q-60 0 -111 -17v79q54 16 120 16q87 0 127.5 -28t40.5 -91q0 -72 -74 -97q39 -12 59.5 -37t20.5 -60
q0 -63 -42 -91zM623 672l-302 -672h-80l302 672h80zM852 84h-55v-84h-85v84h-206v69l171 263h93l-171 -263h113v107h85v-107h55v-69z" />
    <glyph glyph-name="asterisk" unicode="*" horiz-adv-x="488" 
d="M90 332l83 115l-135 44l28 83l135 -44v142h87v-142l135 44l27 -83l-135 -44l83 -115l-71 -52l-83 116l-83 -116z" />
    <glyph glyph-name="backslash" unicode="\" horiz-adv-x="347" 
d="M234 0l-234 672h113l234 -672h-113z" />
    <glyph glyph-name="periodcentered" unicode="&#xb7;" horiz-adv-x="249" 
d="M63.5 190q-18.5 18 -18.5 59t18.5 59t60.5 18t61 -18.5t19 -58.5t-19 -58.5t-61 -18.5t-60.5 18z" />
    <glyph glyph-name="bullet" unicode="&#x2022;" horiz-adv-x="480" 
d="M137 184.5q-41 40.5 -41 103.5t41 103.5t103 40.5t103 -40.5t41 -103.5t-41 -103.5t-103 -40.5t-103 40.5z" />
    <glyph glyph-name="colon" unicode=":" horiz-adv-x="265" 
d="M71.5 7q-18.5 18 -18.5 59t18.5 59t60.5 18t61 -18.5t19 -58.5t-19 -58.5t-61 -18.5t-60.5 18zM71.5 365q-18.5 18 -18.5 59t18.5 59t60.5 18t61 -18.5t19 -58.5t-19 -58.5t-61 -18.5t-60.5 18z" />
    <glyph glyph-name="comma" unicode="," horiz-adv-x="249" 
d="M74 109h130l-84 -253h-103z" />
    <glyph glyph-name="ellipsis" unicode="&#x2026;" horiz-adv-x="865" 
d="M83.5 7q-18.5 18 -18.5 59t18.5 59t60.5 18t61 -18.5t19 -58.5t-19 -58.5t-61 -18.5t-60.5 18zM371.5 7q-18.5 18 -18.5 59t18.5 59t60.5 18t61 -18.5t19 -58.5t-19 -58.5t-61 -18.5t-60.5 18zM659.5 7q-18.5 18 -18.5 59t18.5 59t60.5 18t61 -18.5t19 -58.5t-19 -58.5
t-61 -18.5t-60.5 18z" />
    <glyph glyph-name="exclam" unicode="!" horiz-adv-x="266" 
d="M69 672h129l-6 -460h-117zM73.5 7q-18.5 18 -18.5 58t18.5 57.5t59.5 17.5q42 0 60 -17.5t18 -57.5q0 -41 -18 -58.5t-60 -17.5q-41 0 -59.5 18z" />
    <glyph glyph-name="exclamdown" unicode="&#xa1;" horiz-adv-x="266" 
d="M73.5 367.5q-18.5 17.5 -18.5 57.5t18.5 58t59.5 18q42 0 60 -17.5t18 -58.5q0 -40 -18 -57.5t-60 -17.5q-41 0 -59.5 17.5zM75 278h117l6 -453h-129z" />
    <glyph glyph-name="numbersign" unicode="#" horiz-adv-x="661" 
d="M525 425l-22 -178h104v-88h-115l-20 -159h-98l20 159h-172l-20 -159h-98l20 159h-103v88h114l22 178h-103v88h114l20 159h98l-20 -159h172l20 159h98l-20 -159h104v-88h-115zM427 425h-172l-22 -178h172z" />
    <glyph glyph-name="period" unicode="." horiz-adv-x="249" 
d="M63.5 7q-18.5 18 -18.5 59t18.5 59t60.5 18t61 -18.5t19 -58.5t-19 -58.5t-61 -18.5t-60.5 18z" />
    <glyph glyph-name="question" unicode="?" horiz-adv-x="452" 
d="M132 231q0 45 14 77.5t33 53t50 44.5q32 27 47 45.5t15 45.5q0 47 -26 67t-86 20q-68 0 -154 -28v101q81 27 169 27q121 0 174.5 -41.5t53.5 -134.5q0 -44 -14.5 -75.5t-35 -52t-54.5 -47.5q-40 -31 -59 -54.5t-19 -58.5v-8h-108v19zM126.5 7q-18.5 18 -18.5 58
t18.5 57.5t59.5 17.5q42 0 60 -17.5t18 -57.5q0 -41 -18 -58.5t-60 -17.5q-41 0 -59.5 18z" />
    <glyph glyph-name="questiondown" unicode="&#xbf;" horiz-adv-x="420" 
d="M206.5 367.5q-18.5 17.5 -18.5 57.5t18.5 58t59.5 18q42 0 60 -17.5t18 -58.5q0 -40 -18 -57.5t-60 -17.5q-41 0 -59.5 17.5zM84 -146.5q-53 40.5 -53 132.5q0 43 14.5 74t35 51.5t53.5 46.5q39 30 58.5 53.5t19.5 58.5v8h108v-18q0 -45 -14 -77t-33 -52t-50 -45
q-32 -27 -47 -45t-15 -45q0 -44 26 -63.5t86 -19.5q69 0 155 28v-101q-81 -27 -170 -27q-121 0 -174 40.5z" />
    <glyph glyph-name="quotedbl" unicode="&#x22;" horiz-adv-x="465" 
d="M71 672h107v-253h-107v253zM287 672h107v-253h-107v253z" />
    <glyph glyph-name="quotesingle" unicode="'" horiz-adv-x="249" 
d="M71 672h107v-253h-107v253z" />
    <glyph glyph-name="semicolon" unicode=";" horiz-adv-x="265" 
d="M82 109h130l-84 -253h-103zM71.5 365q-18.5 18 -18.5 59t18.5 59t60.5 18t61 -18.5t19 -58.5t-19 -58.5t-61 -18.5t-60.5 18z" />
    <glyph glyph-name="slash" unicode="/" horiz-adv-x="347" 
d="M234 672h113l-234 -672h-113z" />
    <glyph glyph-name="underscore" unicode="_" horiz-adv-x="480" 
d="M0 -79h480v-98h-480v98z" />
    <glyph glyph-name="braceleft" unicode="{" horiz-adv-x="329" 
d="M144 288q71 -22 71 -117v-123q0 -43 18.5 -61t60.5 -18h13v-97h-34q-92 0 -134 40.5t-42 130.5v118q0 42 -18 60t-60 18h-13v98h13q42 0 60 18t18 60v118q0 90 42 130.5t134 40.5h34v-97h-13q-42 0 -60.5 -18.5t-18.5 -60.5v-123q0 -95 -71 -117z" />
    <glyph glyph-name="braceright" unicode="}" horiz-adv-x="329" 
d="M323 337v-98h-13q-42 0 -60 -18t-18 -60v-118q0 -90 -42 -130.5t-134 -40.5h-34v97h13q42 0 60.5 18.5t18.5 60.5v123q0 95 71 117q-71 22 -71 117v123q0 43 -18.5 61t-60.5 18h-13v97h34q92 0 134 -40.5t42 -130.5v-118q0 -42 18 -60t60 -18h13z" />
    <glyph glyph-name="bracketleft" unicode="[" horiz-adv-x="329" 
d="M199 607v-638h108v-97h-226v832h226v-97h-108z" />
    <glyph glyph-name="bracketright" unicode="]" horiz-adv-x="329" 
d="M248 704v-832h-226v97h108v638h-108v97h226z" />
    <glyph glyph-name="parenleft" unicode="(" horiz-adv-x="329" 
d="M63 288q0 242 127 416h124q-65 -87 -98 -192.5t-33 -223.5t33 -223.5t98 -192.5h-124q-127 174 -127 416z" />
    <glyph glyph-name="parenright" unicode=")" horiz-adv-x="329" 
d="M266 288q0 -242 -127 -416h-124q65 87 98 192.5t33 223.5t-33 223.5t-98 192.5h124q127 -174 127 -416z" />
    <glyph glyph-name="emdash" unicode="&#x2014;" horiz-adv-x="864" 
d="M22 298h820v-98h-820v98z" />
    <glyph glyph-name="endash" unicode="&#x2013;" horiz-adv-x="576" 
d="M22 298h532v-98h-532v98z" />
    <glyph glyph-name="hyphen" unicode="-" horiz-adv-x="320" 
d="M22 298h276v-98h-276v98z" />
    <glyph glyph-name="uni00AD" unicode="&#xad;" horiz-adv-x="320" 
d="M22 298h276v-98h-276v98z" />
    <glyph glyph-name="guillemotleft" unicode="&#xab;" horiz-adv-x="535" 
d="M148 245l126 -199h-118l-139 199l139 199h118zM386 245l126 -199h-118l-139 199l139 199h118z" />
    <glyph glyph-name="guillemotright" unicode="&#xbb;" horiz-adv-x="535" 
d="M280 245l-139 -199h-118l126 199l-126 199h118zM518 245l-139 -199h-118l126 199l-126 199h118z" />
    <glyph glyph-name="guilsinglleft" unicode="&#x2039;" horiz-adv-x="297" 
d="M148 245l126 -199h-118l-139 199l139 199h118z" />
    <glyph glyph-name="guilsinglright" unicode="&#x203a;" horiz-adv-x="297" 
d="M280 245l-139 -199h-118l126 199l-126 199h118z" />
    <glyph glyph-name="quotedblbase" unicode="&#x201e;" horiz-adv-x="466" 
d="M74 109h130l-84 -253h-103zM291 109h130l-84 -253h-103z" />
    <glyph glyph-name="quotedblleft" unicode="&#x201c;" horiz-adv-x="466" 
d="M158 419h-130l84 253h103zM375 419h-130l84 253h103z" />
    <glyph glyph-name="quotedblright" unicode="&#x201d;" horiz-adv-x="466" 
d="M90 672h130l-84 -253h-103zM307 672h130l-84 -253h-103z" />
    <glyph glyph-name="quoteleft" unicode="&#x2018;" horiz-adv-x="249" 
d="M113 672h102l-56 -253h-131z" />
    <glyph glyph-name="quoteright" unicode="&#x2019;" horiz-adv-x="249" 
d="M90 672h130l-84 -253h-103z" />
    <glyph glyph-name="quotesinglbase" unicode="&#x201a;" horiz-adv-x="249" 
d="M74 109h130l-84 -253h-103z" />
    <glyph glyph-name="uni2003" unicode="&#x2003;" horiz-adv-x="864" 
 />
    <glyph glyph-name="uni2002" unicode="&#x2002;" horiz-adv-x="576" 
 />
    <glyph glyph-name="uni200A" unicode="&#x200a;" horiz-adv-x="54" 
 />
    <glyph glyph-name="uni00A0" unicode="&#xa0;" horiz-adv-x="224" 
 />
    <glyph glyph-name="uni2009" unicode="&#x2009;" horiz-adv-x="173" 
 />
    <glyph glyph-name="cent" unicode="&#xa2;" horiz-adv-x="495" 
d="M205.5 216q34.5 -37 112.5 -37q67 0 133 20v-101q-44 -13 -110 -18v-165h-118v169q-95 15 -138.5 75.5t-43.5 176.5q0 117 43 177t139 75v169h118v-166q64 -4 117 -25l-55 -85q-41 12 -85 12q-78 0 -112.5 -37t-34.5 -120t34.5 -120z" />
    <glyph glyph-name="currency" unicode="&#xa4;" horiz-adv-x="576" 
d="M470 229l74 -73l-76 -76l-73 74q-39 -21 -107 -21t-107 21l-73 -74l-76 76l74 73q-21 39 -21 107t21 107l-74 73l76 76l73 -74q42 21 107 21t107 -21l73 74l76 -76l-74 -73q21 -42 21 -107t-21 -107zM209 257q24 -24 79 -24t79 24t24 79t-24 79t-79 24t-79 -24t-24 -79
t24 -79z" />
    <glyph glyph-name="dollar" unicode="$" horiz-adv-x="559" 
d="M475.5 77.5q-43.5 -43.5 -137.5 -54.5v-167h-118v165q-90 6 -168 30v102q105 -33 209 -33q67 0 94.5 19.5t27.5 63.5q0 26 -17 42t-43.5 24.5t-71.5 18.5q-66 14 -107.5 30t-71 52.5t-29.5 100.5q0 83 42 125.5t135 52.5v167h118v-165q85 -5 158 -29l-57 -88
q-66 18 -138 18q-68 0 -95 -18t-27 -61q0 -35 31 -50.5t97 -28.5q66 -14 108.5 -30t73 -54t30.5 -105q0 -84 -43.5 -127.5z" />
    <glyph glyph-name="Euro" unicode="&#x20ac;" horiz-adv-x="564" 
d="M286 116.5q42 -33.5 123 -33.5q65 0 136 20v-96q-74 -19 -151 -19q-136 0 -206.5 58t-89.5 180h-63v77h57q-1 11 -1 33q0 31 1 45h-57v77h65q21 116 91.5 171t202.5 55q87 0 158 -26l-54 -83q-38 14 -89 14q-78 0 -119.5 -32t-56.5 -99h226v-77h-236q-1 -14 -1 -45
q0 -22 1 -33h236v-77h-229q14 -76 56 -109.5z" />
    <glyph glyph-name="florin" unicode="&#x192;" horiz-adv-x="470" 
d="M307 426h114v-97h-114v-166q0 -91 -42.5 -133t-135.5 -42q-46 0 -79 8v99q27 -7 56 -7q38 0 55.5 18t17.5 57v166h-105v97h105v80q0 93 43 135.5t138 42.5q67 0 110 -17l-56 -86q-15 3 -32 3q-38 0 -56.5 -19t-18.5 -59v-80z" />
    <glyph glyph-name="sterling" unicode="&#xa3;" horiz-adv-x="511" 
d="M251 100h237v-100h-456v100h86v193h-70v98h70v66q0 118 57 172.5t181 54.5q76 0 143 -26l-56 -86q-33 10 -67 10q-67 0 -96 -30.5t-29 -99.5v-61h179v-98h-179v-193z" />
    <glyph glyph-name="yen" unicode="&#xa5;" horiz-adv-x="584" 
d="M394 351h110v-78h-145v-76h145v-78h-145v-119h-134v119h-145v78h145v76h-145v78h110l-202 321h145l159 -269l159 269h145z" />
    <glyph glyph-name="dotmath" unicode="&#x22c5;" horiz-adv-x="249" 
d="M63.5 190q-18.5 18 -18.5 59t18.5 59t60.5 18t61 -18.5t19 -58.5t-19 -58.5t-61 -18.5t-60.5 18z" />
    <glyph glyph-name="plus" unicode="+" horiz-adv-x="576" 
d="M506 234h-164v-164h-108v164h-164v108h164v164h108v-164h164v-108z" />
    <glyph glyph-name="minus" unicode="&#x2212;" horiz-adv-x="576" 
d="M70 342h436v-108h-436v108z" />
    <glyph glyph-name="multiply" unicode="&#xd7;" horiz-adv-x="576" 
d="M364 288l139 -139l-76 -76l-139 139l-139 -139l-76 76l139 139l-139 139l76 76l139 -139l139 139l76 -76z" />
    <glyph glyph-name="divide" unicode="&#xf7;" horiz-adv-x="576" 
d="M236 413.5q-16 15.5 -16 50.5t16 50.5t52 15.5t52 -15.5t16 -50.5t-16 -50.5t-52 -15.5t-52 15.5zM70 337h436v-98h-436v98zM236 61.5q-16 15.5 -16 50.5t16 50.5t52 15.5t52 -15.5t16 -50.5t-16 -50.5t-52 -15.5t-52 15.5z" />
    <glyph glyph-name="equal" unicode="=" horiz-adv-x="576" 
d="M70 450h436v-107h-436v107zM70 233h436v-107h-436v107z" />
    <glyph glyph-name="notequal" unicode="&#x2260;" horiz-adv-x="576" 
d="M363 343l-36 -110h179v-107h-215l-42 -126h-114l42 126h-107v107h143l36 110h-179v107h215l42 126h114l-42 -126h107v-107h-143z" />
    <glyph glyph-name="greater" unicode="&#x3e;" horiz-adv-x="576" 
d="M506 348v-120l-436 -173v114l308 119l-308 119v114z" />
    <glyph glyph-name="less" unicode="&#x3c;" horiz-adv-x="576" 
d="M506 407l-308 -119l308 -119v-114l-436 173v120l436 173v-114z" />
    <glyph glyph-name="greaterequal" unicode="&#x2265;" horiz-adv-x="576" 
d="M506 452v-119l-436 -163v114l308 109l-308 109v113zM70 108h436v-108h-436v108z" />
    <glyph glyph-name="lessequal" unicode="&#x2264;" horiz-adv-x="576" 
d="M506 502l-308 -109l308 -109v-114l-436 163v119l436 163v-113zM70 108h436v-108h-436v108z" />
    <glyph glyph-name="plusminus" unicode="&#xb1;" horiz-adv-x="576" 
d="M506 446v-107h-164v-164h-108v164h-164v107h164v165h108v-165h164zM70 108h436v-108h-436v108z" />
    <glyph glyph-name="approxequal" unicode="&#x2248;" horiz-adv-x="576" 
d="M325 317.5q-25 9.5 -57 28.5q-27 16 -45 23.5t-41 7.5q-32 0 -59 -12.5t-53 -37.5v113q48 45 122 45q34 0 59.5 -10t56.5 -29q27 -16 45 -23.5t41 -7.5q32 0 59 12.5t53 38.5v-113q-48 -45 -122 -45q-34 0 -59 9.5zM324.5 101q-25.5 10 -56.5 29q-27 16 -45 23.5t-41 7.5
q-32 0 -59 -12.5t-53 -38.5v113q48 45 122 45q34 0 59 -9.5t57 -28.5q27 -16 45 -23.5t41 -7.5q32 0 59 12.5t53 37.5v-113q-48 -45 -122 -45q-34 0 -59.5 10z" />
    <glyph glyph-name="logicalnot" unicode="&#xac;" horiz-adv-x="576" 
d="M506 342v-272h-107v164h-329v108h436z" />
    <glyph glyph-name="asciitilde" unicode="~" horiz-adv-x="576" 
d="M322 201.5q-27 14.5 -60 41.5q-22 19 -35.5 27.5t-30.5 8.5q-31 0 -45 -20.5t-15 -65.5h-108q1 102 38.5 149t119.5 47q41 0 68 -14.5t60 -41.5q22 -19 35.5 -27.5t30.5 -8.5q31 0 45 20.5t15 65.5h108q-1 -102 -38.5 -149t-119.5 -47q-41 0 -68 14.5z" />
    <glyph glyph-name="infinity" unicode="&#x221e;" horiz-adv-x="799" 
d="M726.5 443.5q44.5 -48.5 44.5 -155.5t-44.5 -155.5t-143.5 -48.5q-66 0 -107 25.5t-77 91.5q-36 -66 -76.5 -91.5t-107.5 -25.5q-99 0 -143 48.5t-44 155.5t44 155.5t143 48.5q67 0 107.5 -25.5t76.5 -91.5q36 66 77 91.5t107 25.5q99 0 143.5 -48.5zM291.5 206
q23.5 22 48.5 82q-25 60 -48.5 82t-60.5 22q-46 0 -66 -24.5t-20 -79.5q0 -56 20 -80t66 -24q37 0 60.5 22zM633 208.5q20 24.5 20 79.5q0 56 -20 80t-65 24q-37 0 -60.5 -22t-48.5 -82q25 -60 48.5 -82t60.5 -22q45 0 65 24.5z" />
    <glyph glyph-name="integral" unicode="&#x222b;" horiz-adv-x="414" 
d="M79 -213v102q33 -7 56 -7q48 0 69.5 22t21.5 71q0 35 -17 89t-53 150q-44 119 -66 190.5t-22 126.5q0 97 44.5 141t142.5 44q37 0 81 -7v-102q-33 7 -56 7q-48 0 -69.5 -22t-21.5 -71q0 -35 17 -89t53 -150q43 -115 65 -188.5t22 -128.5q0 -98 -44 -141.5t-142 -43.5
q-39 0 -81 7z" />
    <glyph glyph-name="uni2126" unicode="&#x2126;" horiz-adv-x="751" 
d="M729 102v-102h-299v97q71 44 105 108.5t34 152.5q0 118 -45.5 169.5t-148.5 51.5t-148 -51.5t-45 -169.5q0 -89 34 -153t105 -108v-97h-299v102h155q-66 55 -97 121.5t-31 154.5q0 108 33.5 175.5t105 99t187.5 31.5t187.5 -32t105.5 -99t34 -175q0 -88 -31 -154.5
t-97 -121.5h155z" />
    <glyph glyph-name="uni2206" unicode="&#x2206;" horiz-adv-x="697" 
d="M664 86v-86h-631v86l240 586h150zM167 102h362l-181 452z" />
    <glyph glyph-name="product" unicode="&#x220f;" horiz-adv-x="798" 
d="M730 704v-879h-133v777h-396v-777h-133v879h662z" />
    <glyph glyph-name="summation" unicode="&#x2211;" horiz-adv-x="575" 
d="M374 382q-50 -53 -74 -122t-24 -144q0 -28 5 -61t14 -55q-53 12 -91.5 57t-58.5 107t-20 126q0 60 17.5 117t52.5 103l-133 38q77 49 185 75.5t211 26.5q30 0 45 -1q-21 -192 -20 -408z" />
    <glyph glyph-name="radical" unicode="&#x221a;" horiz-adv-x="826" 
d="M605 656.5q85 -48.5 133 -133t48 -187.5t-48 -187.5t-133 -133t-192 -48.5t-192 48.5t-133 132.5t-48 188t48 188t133 132.5t192 48.5t192 -48.5zM575 57q72 42 112.5 115.5t40.5 163.5t-40.5 163.5t-112.5 116t-162 42.5t-162 -42.5t-112.5 -116t-40.5 -163.5
t40.5 -163.5t112.5 -115.5t162 -42t162 42zM337.5 561q86.5 21 169.5 21q21 0 31 -1q-17 -160 -16 -324l-86 112q-40 -41 -59 -96t-19 -114q0 -22 4 -48.5t12 -43.5q-42 10 -72.5 45.5t-46.5 84.5t-16 100q0 47 13.5 92t40.5 81l-104 30q62 40 148.5 61z" />
    <glyph glyph-name="partialdiff" unicode="&#x2202;" horiz-adv-x="585" 
d="M421.5 675q61.5 -41 90.5 -129t29 -233q0 -166 -62 -245.5t-195 -79.5q-130 0 -189 61t-59 196q0 136 52 196.5t168 60.5q101 0 151 -52q-9 89 -46.5 129t-110.5 40q-81 0 -161 -26v98q84 25 171 25q100 0 161.5 -41zM381 129q30 41 30 127q0 75 -30.5 110.5t-96.5 35.5
q-62 0 -90 -36.5t-28 -120.5t28 -120.5t90 -36.5q67 0 97 41z" />
    <glyph glyph-name="uni00B5" unicode="&#xb5;" horiz-adv-x="585" 
d="M527 490v-490h-97l-10 51q-45 -60 -136 -60q-68 0 -99 32v-231h-128v698h128v-290q0 -58 24 -84t78 -26q59 0 85.5 27.5t26.5 89.5v283h128z" />
    <glyph glyph-name="percent" unicode="%" horiz-adv-x="864" 
d="M76.5 366.5q-40.5 42.5 -40.5 137.5t40.5 137.5t131.5 42.5t131.5 -42.5t40.5 -137.5t-40.5 -137.5t-131.5 -42.5t-131.5 42.5zM543 672h80l-302 -672h-80zM269.5 422q18.5 25 18.5 82t-18.5 82t-61.5 25t-61.5 -25t-18.5 -82t18.5 -82t61.5 -25t61.5 25zM524.5 30.5
q-40.5 42.5 -40.5 137.5t40.5 137.5t131.5 42.5t131.5 -42.5t40.5 -137.5t-40.5 -137.5t-131.5 -42.5t-131.5 42.5zM717.5 86q18.5 25 18.5 82t-18.5 82t-61.5 25t-61.5 -25t-18.5 -82t18.5 -82t61.5 -25t61.5 25z" />
    <glyph glyph-name="perthousand" unicode="&#x2030;" horiz-adv-x="1248" 
d="M76.5 366.5q-40.5 42.5 -40.5 137.5t40.5 137.5t131.5 42.5t131.5 -42.5t40.5 -137.5t-40.5 -137.5t-131.5 -42.5t-131.5 42.5zM543 672h80l-302 -672h-80zM269.5 422q18.5 25 18.5 82t-18.5 82t-61.5 25t-61.5 -25t-18.5 -82t18.5 -82t61.5 -25t61.5 25zM524.5 30.5
q-40.5 42.5 -40.5 137.5t40.5 137.5t131.5 42.5t131.5 -42.5t40.5 -137.5t-40.5 -137.5t-131.5 -42.5t-131.5 42.5zM908.5 30.5q-40.5 42.5 -40.5 137.5t40.5 137.5t131.5 42.5t131.5 -42.5t40.5 -137.5t-40.5 -137.5t-131.5 -42.5t-131.5 42.5zM717.5 86q18.5 25 18.5 82
t-18.5 82t-61.5 25t-61.5 -25t-18.5 -82t18.5 -82t61.5 -25t61.5 25zM1101.5 86q18.5 25 18.5 82t-18.5 82t-61.5 25t-61.5 -25t-18.5 -82t18.5 -82t61.5 -25t61.5 25z" />
    <glyph glyph-name="arrowup" unicode="&#x2191;" horiz-adv-x="864" 
d="M708 251l-217 221v-572h-118v572l-217 -221v169l276 277l276 -277v-169z" />
    <glyph glyph-name="arrowright" unicode="&#x2192;" horiz-adv-x="864" 
d="M841 288l-277 -276h-169l221 217h-572v118h572l-221 217h169z" />
    <glyph glyph-name="arrowdown" unicode="&#x2193;" horiz-adv-x="864" 
d="M708 325v-169l-276 -277l-276 277v169l217 -221v572h118v-572z" />
    <glyph glyph-name="arrowleft" unicode="&#x2190;" horiz-adv-x="864" 
d="M820 229h-572l221 -217h-169l-277 276l277 276h169l-221 -217h572v-118z" />
    <glyph glyph-name="lozenge" unicode="&#x25ca;" horiz-adv-x="576" 
d="M553 336l-201 -336h-128l-201 336l201 336h128zM425 336l-137 227l-137 -227l137 -227z" />
    <glyph glyph-name="uniF8FF" unicode="&#xf8ff;" horiz-adv-x="593" 
d="M109 620q-9 9 -9 22t9.5 22t22.5 9t22 -9t9 -22t-9 -22t-22 -9q-14 0 -23 9zM178 620q-9 9 -9 22t9.5 22t22.5 9t22 -9t9 -22t-9 -22t-22 -9q-14 0 -23 9zM247 620q-9 9 -9 22t9.5 22t22.5 9t22 -9t9 -22t-9 -22t-22 -9q-14 0 -23 9zM316 620q-9 9 -9 22t9.5 22t22.5 9
t22 -9t9 -22t-9 -22t-22 -9q-14 0 -23 9zM385 620q-9 9 -9 22t9.5 22t22.5 9t22 -9t9 -22t-9 -22t-22 -9q-14 0 -23 9zM454 620q-9 9 -9 22t9.5 22t22.5 9t22 -9t9 -22t-9 -22t-22 -9q-14 0 -23 9zM109.5 552q-9.5 9 -9.5 22t9.5 22t22.5 9t22 -9t9 -22t-9 -22t-22 -9
t-22.5 9zM109.5 484q-9.5 9 -9.5 22t9.5 22t22.5 9t22 -9t9 -22t-9 -22t-22 -9t-22.5 9zM247 484q-9 9 -9 22t9.5 22t22.5 9t22 -9t9 -22t-9 -22t-22 -9q-14 0 -23 9zM316 484q-9 9 -9 22t9.5 22t22.5 9t22 -9t9 -22t-9 -22t-22 -9q-14 0 -23 9zM385 484q-9 9 -9 22t9.5 22
t22.5 9t22 -9t9 -22t-9 -22t-22 -9q-14 0 -23 9zM454 484q-9 9 -9 22t9.5 22t22.5 9t22 -9t9 -22t-9 -22t-22 -9q-14 0 -23 9zM109.5 416q-9.5 9 -9.5 22t9.5 22t22.5 9t22 -9t9 -22t-9 -22t-22 -9t-22.5 9zM247 416q-9 9 -9 22t9.5 22t22.5 9t22 -9t9 -22t-9 -22t-22 -9
q-14 0 -23 9zM109.5 348q-9.5 9 -9.5 22t9.5 22t22.5 9t22 -9t9 -22t-9 -22t-22 -9t-22.5 9zM247 348q-9 9 -9 22t9.5 22t22.5 9t22 -9t9 -22t-9 -22t-22 -9q-14 0 -23 9zM316 348q-9 9 -9 22t9.5 22t22.5 9t22 -9t9 -22t-9 -22t-22 -9q-14 0 -23 9zM385 348q-9 9 -9 22
t9.5 22t22.5 9t22 -9t9 -22t-9 -22t-22 -9q-14 0 -23 9zM454 348q-9 9 -9 22t9.5 22t22.5 9t22 -9t9 -22t-9 -22t-22 -9q-14 0 -23 9zM109.5 280q-9.5 9 -9.5 22t9.5 22t22.5 9t22 -9t9 -22t-9 -22t-22 -9t-22.5 9zM454 280q-9 9 -9 22t9.5 22t22.5 9t22 -9t9 -22t-9 -22
t-22 -9q-14 0 -23 9zM109.5 212q-9.5 9 -9.5 22t9.5 22t22.5 9t22 -9t9 -22t-9 -22t-22 -9t-22.5 9zM247 212q-9 9 -9 22t9.5 22t22.5 9t22 -9t9 -22t-9 -22t-22 -9q-14 0 -23 9zM316 212q-9 9 -9 22t9.5 22t22.5 9t22 -9t9 -22t-9 -22t-22 -9q-14 0 -23 9zM385 212
q-9 9 -9 22t9.5 22t22.5 9t22 -9t9 -22t-9 -22t-22 -9q-14 0 -23 9zM454 212q-9 9 -9 22t9.5 22t22.5 9t22 -9t9 -22t-9 -22t-22 -9q-14 0 -23 9zM109.5 144q-9.5 9 -9.5 22t9.5 22t22.5 9t22 -9t9 -22t-9 -22t-22 -9t-22.5 9zM109.5 76q-9.5 9 -9.5 22t9.5 22t22.5 9t22 -9
t9 -22t-9 -22t-22 -9t-22.5 9zM247.5 76q-9.5 9 -9.5 22t9.5 22t22.5 9t22 -9t9 -22t-9 -22t-22 -9t-22.5 9zM109.5 8q-9.5 9 -9.5 22t9.5 22t22.5 9t22 -9t9 -22t-9 -22t-22 -9t-22.5 9zM178.5 8q-9.5 9 -9.5 22t9.5 22t22.5 9t22 -9t9 -22t-9 -22t-22 -9t-22.5 9zM247.5 8
q-9.5 9 -9.5 22t9.5 22t22.5 9t22 -9t9 -22t-9 -22t-22 -9t-22.5 9z" />
    <glyph glyph-name="at" unicode="@" horiz-adv-x="991" 
d="M704 453v-279q0 -28 12.5 -41t39.5 -13q42 0 60 40t18 128q0 111 -34 179t-106.5 100t-190.5 32q-123 0 -199 -36.5t-111.5 -114t-35.5 -203.5t38.5 -203.5t119.5 -114t214 -36.5q141 0 278 44v-98q-130 -41 -283 -41q-170 0 -274.5 46.5t-153.5 144.5t-49 258
t47.5 258.5t148.5 144.5t265 46q155 0 250.5 -41t140.5 -128t45 -227q0 -143 -49 -208t-159 -65q-42 0 -74 14t-50 40q-53 -54 -153 -54q-99 0 -143 52t-44 168t44 168t143 52q92 0 137 -48l8 36h100zM581 272q0 50 -20.5 71.5t-68.5 21.5q-50 0 -72.5 -28t-22.5 -92
t22.5 -92t72.5 -28q48 0 68.5 21.5t20.5 71.5v54z" />
    <glyph glyph-name="ampersand" unicode="&#x26;" horiz-adv-x="687" 
d="M540 0l-58 59q-34 -35 -84.5 -53t-112.5 -18q-127 0 -186.5 47.5t-59.5 147.5q0 129 141 194q-77 66 -77 144q0 81 50.5 122t151.5 41q99 0 147 -38.5t48 -117.5q0 -57 -36 -101t-112 -82l124 -125q19 43 19 110h117q-1 -59 -15 -111t-40 -88l124 -131h-141zM223 518
q0 -25 14.5 -47t48.5 -53q50 24 72 47.5t22 54.5q0 35 -19 52t-58 17q-80 0 -80 -71zM407 138l-163 168q-83 -41 -83 -114q0 -107 124 -107q78 0 122 53z" />
    <glyph glyph-name="paragraph" unicode="&#xb6;" horiz-adv-x="607" 
d="M538 672v-816h-107v719h-104v-338h-58q-238 0 -238 218q0 217 238 217h269z" />
    <glyph glyph-name="section" unicode="&#xa7;" horiz-adv-x="564" 
d="M479 121q31 -36 31 -94q0 -97 -58 -140t-186 -43q-116 0 -217 31v102q101 -33 207 -33q65 0 91.5 19.5t26.5 63.5q0 26 -17 42t-42 24t-72 19q-64 14 -104.5 30t-69.5 52t-29 98q0 73 49 119q-33 38 -33 94q0 95 57.5 137t184.5 42q103 0 195 -25v-102q-92 27 -185 27
q-64 0 -90 -18t-26 -61q0 -35 30.5 -50.5t95.5 -28.5q66 -15 107 -30.5t71 -53t30 -102.5q0 -72 -47 -119zM185 252q15 -16 38 -24.5t63 -18.5q23 -6 47 -13.5t42 -16.5q20 23 20 58q0 28 -15.5 45t-38 25.5t-63.5 19.5q-6 2 -33.5 9.5t-50.5 18.5q-24 -20 -24 -60
q0 -27 15 -43z" />
    <glyph glyph-name="copyright" unicode="&#xa9;" horiz-adv-x="832" 
d="M127.5 56.5q-89.5 88.5 -89.5 279.5t89.5 279.5t288.5 88.5t288.5 -88.5t89.5 -279.5t-89.5 -279.5t-288.5 -88.5t-288.5 88.5zM646 104.5q74 72.5 74 231.5q0 108 -31.5 174.5t-98 98t-174.5 31.5t-174.5 -31.5t-98 -98t-31.5 -174.5q0 -159 74 -231.5t230 -72.5
t230 72.5zM270 171q-50 51 -50 165t50 165t164 51q69 0 137 -20l-44 -67q-37 10 -77 10q-71 0 -101.5 -32.5t-30.5 -106.5t30.5 -106.5t101.5 -32.5q53 0 112 17v-78q-66 -16 -128 -16q-114 0 -164 51z" />
    <glyph glyph-name="registered" unicode="&#xae;" horiz-adv-x="832" 
d="M704.5 615.5q89.5 -88.5 89.5 -279.5t-89.5 -279.5t-288.5 -88.5t-288.5 88.5t-89.5 279.5t89.5 279.5t288.5 88.5t288.5 -88.5zM646 104.5q74 72.5 74 231.5q0 108 -31.5 174.5t-98 98t-174.5 31.5t-174.5 -31.5t-98 -98t-31.5 -174.5q0 -159 74 -231.5t230 -72.5
t230 72.5zM513 289l97 -161h-102l-87 151h-78v-151h-91v416h191q83 0 119.5 -31.5t36.5 -101.5q0 -103 -86 -122zM487.5 366q15.5 14 15.5 46t-15.5 45.5t-52.5 13.5h-92v-119h92q37 0 52.5 14z" />
    <glyph glyph-name="trademark" unicode="&#x2122;" horiz-adv-x="947" 
d="M22 672h370l-50 -76h-91v-340h-98v340h-131v76zM898 672v-416h-94v269l-101 -161h-64l-99 160v-268h-94v416h98l128 -206l128 206h98z" />
    <glyph glyph-name="degree" unicode="&#xb0;" horiz-adv-x="361" 
d="M77 443.5q-36 35.5 -36 101.5q0 67 35.5 102.5t103.5 35.5t104 -35.5t36 -102.5q0 -66 -36 -101.5t-104 -35.5q-67 0 -103 35.5zM248 545q0 68 -68 68q-67 0 -67 -68q0 -33 17.5 -50t49.5 -17q68 0 68 67z" />
    <glyph glyph-name="bar" unicode="|" horiz-adv-x="240" 
d="M66 736h108v-960h-108v960z" />
    <glyph glyph-name="brokenbar" unicode="&#xa6;" horiz-adv-x="240" 
d="M66 688h108v-384h-108v384zM66 208h108v-384h-108v384z" />
    <glyph glyph-name="dagger" unicode="&#x2020;" horiz-adv-x="489" 
d="M459 419h-161v-419h-107v419h-161v97h161v156h107v-156h161v-97z" />
    <glyph glyph-name="uni2113" unicode="&#x2113;" horiz-adv-x="403" 
d="M195.5 107.5q20.5 -19.5 66.5 -19.5q37 0 77 9v-100q-43 -9 -92 -9q-101 0 -145.5 42t-44.5 136v369q0 96 38.5 138.5t124.5 42.5q80 0 117.5 -40.5t37.5 -130.5q0 -173 -200 -304v-70q0 -44 20.5 -63.5zM187.5 595.5q-12.5 -20.5 -12.5 -66.5v-169q51 40 75.5 83.5
t24.5 96.5q0 41 -11 58.5t-36 17.5q-28 0 -40.5 -20.5z" />
    <glyph glyph-name="daggerdbl" unicode="&#x2021;" horiz-adv-x="489" 
d="M298 419v-166h161v-97h-161v-156h-107v156h-161v97h161v166h-161v97h161v156h107v-156h161v-97h-161z" />
    <glyph glyph-name="estimated" unicode="&#x212e;" horiz-adv-x="960" 
d="M287.5 31.5q-88.5 47.5 -140 128.5t-51.5 176t51.5 176t140 128.5t192.5 47.5t192.5 -47.5t140 -128.5t51.5 -176q0 -11 -1 -16h-623v-196q44 -51 106.5 -79.5t133.5 -28.5q72 0 135 29.5t108 82.5h66q-54 -67 -135 -105.5t-174 -38.5q-104 0 -192.5 47.5zM720 352v196
q-45 51 -107.5 79.5t-132.5 28.5q-71 0 -133.5 -28.5t-106.5 -79.5v-196h480z" />
    <glyph glyph-name="uni2116" unicode="&#x2116;" horiz-adv-x="1164" 
d="M682 672v-672h-129l-362 490v-490h-123v672h129l362 -490v490h123zM824 379q-41 40 -41 131q0 90 41 130t133 40t133 -40t41 -130q0 -91 -41 -131t-133 -40t-133 40zM1016.5 436.5q18.5 22.5 18.5 73.5t-18 73.5t-60 22.5t-60 -22.5t-18 -73.5q0 -52 18 -74t60 -22
q41 0 59.5 22.5zM788 288h338v-74h-338v74z" />
    <glyph glyph-name="asciicircum" unicode="^" horiz-adv-x="576" 
d="M423 236l-135 308l-135 -308h-124l194 436h130l194 -436h-124z" />
    <glyph glyph-name="uni0308" unicode="&#x308;" 
d="M-284.5 576q-17.5 17 -17.5 54t17.5 54t56.5 17q38 0 55.5 -17t17.5 -54t-17.5 -54t-55.5 -17q-39 0 -56.5 17zM-67.5 576q-17.5 17 -17.5 54t17.5 54t55.5 17q39 0 56.5 -17t17.5 -54t-17.5 -54t-56.5 -17q-38 0 -55.5 17z" />
    <glyph glyph-name="uni0307" unicode="&#x307;" 
d="M-176 575.5q-17 16.5 -17 54.5t17 54.5t56 16.5t56 -16.5t17 -54.5t-17 -54.5t-56 -16.5t-56 16.5z" />
    <glyph glyph-name="gravecomb" unicode="&#x300;" 
d="M-301 704h133l123 -148h-112z" />
    <glyph glyph-name="acutecomb" unicode="&#x301;" 
d="M-72 704h133l-144 -148h-112z" />
    <glyph glyph-name="uni030B" unicode="&#x30b;" 
d="M-181 704h134l-141 -148h-115zM36 704h133l-141 -148h-115z" />
    <glyph glyph-name="uni0302" unicode="&#x302;" 
d="M-44 556l-76 81l-76 -81h-109l123 148h124l123 -148h-109z" />
    <glyph glyph-name="uni030C" unicode="&#x30c;" 
d="M65 704l-123 -148h-124l-123 148h109l76 -81l76 81h109z" />
    <glyph glyph-name="uni0306" unicode="&#x306;" 
d="M-247.5 582.5q-40.5 37.5 -40.5 121.5h90q0 -39 18.5 -56.5t59.5 -17.5t59.5 17.5t18.5 56.5h90q0 -84 -40.5 -121.5t-127.5 -37.5t-127.5 37.5z" />
    <glyph glyph-name="uni030A" unicode="&#x30a;" 
d="M-209.5 552q-27.5 24 -27.5 78q0 53 28 77.5t89 24.5t89 -24.5t28 -77.5t-28 -77.5t-89 -24.5q-62 0 -89.5 24zM-83.5 593.5q11.5 11.5 11.5 36.5t-11 36t-37 11t-37 -11t-11 -36t11 -36.5t37 -11.5q25 0 36.5 11.5z" />
    <glyph glyph-name="tildecomb" unicode="&#x303;" 
d="M-289 575q0 62 24.5 90t79.5 28q21 0 37 -6.5t37 -18.5q25 -16 39 -16q17 0 24 9.5t7 31.5v5h90v-13q0 -62 -24.5 -90t-79.5 -28q-21 0 -37 6.5t-37 18.5q-25 16 -39 16q-17 0 -24 -9.5t-7 -31.5v-6h-90v14z" />
    <glyph glyph-name="uni0304" unicode="&#x304;" 
d="M-281 673h322v-87h-322v87z" />
    <glyph glyph-name="uni0315" unicode="&#x315;" 
d="M-135 672h109l-67 -181h-88z" />
    <glyph glyph-name="uni0326" unicode="&#x326;" 
d="M-156 -60h115l-59 -150h-94z" />
    <glyph glyph-name="uni0327" unicode="&#x327;" 
d="M-19.5 -50.5q18.5 -17.5 18.5 -50.5q0 -46 -33 -66t-107 -20q-46 0 -87 12v65q36 -11 69 -11q58 0 58 22q0 11 -12.5 16.5t-42.5 5.5h-8v92h88v-43q38 -5 56.5 -22.5z" />
    <glyph glyph-name="uni0328" unicode="&#x328;" 
d="M-200.5 -169q-24.5 18 -24.5 57q0 32 18.5 59t63.5 65l87 -12q-40 -34 -54.5 -52.5t-14.5 -34.5q0 -13 8 -18.5t26 -5.5q8 0 35 3v-73q-38 -6 -65 -6q-55 0 -79.5 18z" />
    <glyph glyph-name="uni0308.case" 
d="M-284.5 752q-17.5 17 -17.5 54t17.5 54t56.5 17q38 0 55.5 -17t17.5 -54t-17.5 -54t-55.5 -17q-39 0 -56.5 17zM-67.5 752q-17.5 17 -17.5 54t17.5 54t55.5 17q39 0 56.5 -17t17.5 -54t-17.5 -54t-56.5 -17q-38 0 -55.5 17z" />
    <glyph glyph-name="uni0307.case" 
d="M-176 751.5q-17 16.5 -17 54.5t17 54.5t56 16.5t56 -16.5t17 -54.5t-17 -54.5t-56 -16.5t-56 16.5z" />
    <glyph glyph-name="gravecomb.case" 
d="M-301 880h133l123 -148h-112z" />
    <glyph glyph-name="acutecomb.case" 
d="M-72 880h133l-144 -148h-112z" />
    <glyph glyph-name="uni030B.case" 
d="M-181 880h134l-141 -148h-115zM36 880h133l-141 -148h-115z" />
    <glyph glyph-name="uni0302.case" 
d="M-182 880h124l123 -148h-109l-76 81l-76 -81h-109z" />
    <glyph glyph-name="uni030C.case" 
d="M-305 880h109l76 -81l76 81h109l-123 -148h-124z" />
    <glyph glyph-name="uni0306.case" 
d="M-247.5 758.5q-40.5 37.5 -40.5 121.5h90q0 -39 18.5 -56.5t59.5 -17.5t59.5 17.5t18.5 56.5h90q0 -84 -40.5 -121.5t-127.5 -37.5t-127.5 37.5z" />
    <glyph glyph-name="uni030A.case" 
d="M-209.5 728q-27.5 24 -27.5 78q0 53 28 77.5t89 24.5t89 -24.5t28 -77.5t-28 -77.5t-89 -24.5q-62 0 -89.5 24zM-83.5 769.5q11.5 11.5 11.5 36.5t-11 36t-37 11t-37 -11t-11 -36t11 -36.5t37 -11.5q25 0 36.5 11.5z" />
    <glyph glyph-name="tildecomb.case" 
d="M-289 751q0 62 24.5 90t79.5 28q21 0 37 -6.5t37 -18.5q25 -16 39 -16q17 0 24 9.5t7 31.5v5h90v-13q0 -62 -24.5 -90t-79.5 -28q-21 0 -37 6.5t-37 18.5q-25 16 -39 16q-17 0 -24 -9.5t-7 -31.5v-6h-90v14z" />
    <glyph glyph-name="uni0304.case" 
d="M-281 849h322v-87h-322v87z" />
    <glyph glyph-name="acutecomb.loclPLK" 
d="M-142 704h124l-71 -148h-106z" />
    <glyph glyph-name="acutecomb.case.loclPLK" 
d="M-142 880h124l-71 -148h-106z" />
    <glyph glyph-name="acute" unicode="&#xb4;" horiz-adv-x="240" 
d="M168 704h133l-144 -148h-112z" />
    <glyph glyph-name="breve" unicode="&#x2d8;" horiz-adv-x="240" 
d="M-7.5 582.5q-40.5 37.5 -40.5 121.5h90q0 -39 18.5 -56.5t59.5 -17.5t59.5 17.5t18.5 56.5h90q0 -84 -40.5 -121.5t-127.5 -37.5t-127.5 37.5z" />
    <glyph glyph-name="caron" unicode="&#x2c7;" horiz-adv-x="240" 
d="M305 704l-123 -148h-124l-123 148h109l76 -81l76 81h109z" />
    <glyph glyph-name="acute.case" horiz-adv-x="240" 
d="M168 880h133l-144 -148h-112z" />
    <glyph glyph-name="breve.case" horiz-adv-x="240" 
d="M-7.5 758.5q-40.5 37.5 -40.5 121.5h90q0 -39 18.5 -56.5t59.5 -17.5t59.5 17.5t18.5 56.5h90q0 -84 -40.5 -121.5t-127.5 -37.5t-127.5 37.5z" />
    <glyph glyph-name="caron.case" horiz-adv-x="240" 
d="M-65 880h109l76 -81l76 81h109l-123 -148h-124z" />
    <glyph glyph-name="circumflex.case" horiz-adv-x="240" 
d="M58 880h124l123 -148h-109l-76 81l-76 -81h-109z" />
    <glyph glyph-name="dieresis.case" horiz-adv-x="240" 
d="M-44.5 752q-17.5 17 -17.5 54t17.5 54t56.5 17q38 0 55.5 -17t17.5 -54t-17.5 -54t-55.5 -17q-39 0 -56.5 17zM172.5 752q-17.5 17 -17.5 54t17.5 54t55.5 17q39 0 56.5 -17t17.5 -54t-17.5 -54t-56.5 -17q-38 0 -55.5 17z" />
    <glyph glyph-name="dotaccent.case" horiz-adv-x="240" 
d="M64 751.5q-17 16.5 -17 54.5t17 54.5t56 16.5t56 -16.5t17 -54.5t-17 -54.5t-56 -16.5t-56 16.5z" />
    <glyph glyph-name="grave.case" horiz-adv-x="240" 
d="M-61 880h133l123 -148h-112z" />
    <glyph glyph-name="hungarumlaut.case" horiz-adv-x="240" 
d="M59 880h134l-141 -148h-115zM276 880h133l-141 -148h-115z" />
    <glyph glyph-name="macron.case" horiz-adv-x="240" 
d="M-41 849h322v-87h-322v87z" />
    <glyph glyph-name="ring.case" horiz-adv-x="240" 
d="M30.5 728q-27.5 24 -27.5 78q0 53 28 77.5t89 24.5t89 -24.5t28 -77.5t-28 -77.5t-89 -24.5q-62 0 -89.5 24zM156.5 769.5q11.5 11.5 11.5 36.5t-11 36t-37 11t-37 -11t-11 -36t11 -36.5t37 -11.5q25 0 36.5 11.5z" />
    <glyph glyph-name="tilde.case" horiz-adv-x="240" 
d="M-49 751q0 62 24.5 90t79.5 28q21 0 37 -6.5t37 -18.5q25 -16 39 -16q17 0 24 9.5t7 31.5v5h90v-13q0 -62 -24.5 -90t-79.5 -28q-21 0 -37 6.5t-37 18.5q-25 16 -39 16q-17 0 -24 -9.5t-7 -31.5v-6h-90v14z" />
    <glyph glyph-name="cedilla" unicode="&#xb8;" horiz-adv-x="240" 
d="M220.5 -50.5q18.5 -17.5 18.5 -50.5q0 -46 -33 -66t-107 -20q-46 0 -87 12v65q36 -11 69 -11q58 0 58 22q0 11 -12.5 16.5t-42.5 5.5h-8v92h88v-43q38 -5 56.5 -22.5z" />
    <glyph glyph-name="circumflex" unicode="&#x2c6;" horiz-adv-x="240" 
d="M196 556l-76 81l-76 -81h-109l123 148h124l123 -148h-109z" />
    <glyph glyph-name="dieresis" unicode="&#xa8;" horiz-adv-x="240" 
d="M-44.5 576q-17.5 17 -17.5 54t17.5 54t56.5 17q38 0 55.5 -17t17.5 -54t-17.5 -54t-55.5 -17q-39 0 -56.5 17zM172.5 576q-17.5 17 -17.5 54t17.5 54t55.5 17q39 0 56.5 -17t17.5 -54t-17.5 -54t-56.5 -17q-38 0 -55.5 17z" />
    <glyph glyph-name="dotaccent" unicode="&#x2d9;" horiz-adv-x="240" 
d="M64 575.5q-17 16.5 -17 54.5t17 54.5t56 16.5t56 -16.5t17 -54.5t-17 -54.5t-56 -16.5t-56 16.5z" />
    <glyph glyph-name="grave" unicode="`" horiz-adv-x="240" 
d="M-61 704h133l123 -148h-112z" />
    <glyph glyph-name="hungarumlaut" unicode="&#x2dd;" horiz-adv-x="240" 
d="M59 704h134l-141 -148h-115zM276 704h133l-141 -148h-115z" />
    <glyph glyph-name="macron" unicode="&#xaf;" horiz-adv-x="240" 
d="M-41 673h322v-87h-322v87z" />
    <glyph glyph-name="ogonek" unicode="&#x2db;" horiz-adv-x="240" 
d="M39.5 -169q-24.5 18 -24.5 57q0 32 18.5 59t63.5 65l87 -12q-40 -34 -54.5 -52.5t-14.5 -34.5q0 -13 8 -18.5t26 -5.5q8 0 35 3v-73q-38 -6 -65 -6q-55 0 -79.5 18z" />
    <glyph glyph-name="ring" unicode="&#x2da;" horiz-adv-x="240" 
d="M30.5 552q-27.5 24 -27.5 78q0 53 28 77.5t89 24.5t89 -24.5t28 -77.5t-28 -77.5t-89 -24.5q-62 0 -89.5 24zM156.5 593.5q11.5 11.5 11.5 36.5t-11 36t-37 11t-37 -11t-11 -36t11 -36.5t37 -11.5q25 0 36.5 11.5z" />
    <glyph glyph-name="tilde" unicode="&#x2dc;" horiz-adv-x="240" 
d="M-49 575q0 62 24.5 90t79.5 28q21 0 37 -6.5t37 -18.5q25 -16 39 -16q17 0 24 9.5t7 31.5v5h90v-13q0 -62 -24.5 -90t-79.5 -28q-21 0 -37 6.5t-37 18.5q-25 16 -39 16q-17 0 -24 -9.5t-7 -31.5v-6h-90v14z" />
  </font>
</defs>
</svg>
